<svg width="500" height="500" viewBox="0 0 500 500" fill="none" xmlns="http://www.w3.org/2000/svg">
<path d="M27.6985 157.4L28.6985 159.03C37.0485 172.79 52.1485 181.08 68.0585 180.08C70.1064 179.95 72.1419 179.669 74.1485 179.24C81.426 177.585 88.1818 174.158 93.8152 169.262C99.4486 164.367 103.785 158.155 106.438 151.18C109.508 142.94 110.358 133.45 116.188 126.91C123.768 118.39 136.638 118.13 147.948 118.48C159.258 118.83 172.148 118.48 179.688 109.98C184.418 104.63 185.918 96.9798 185.538 89.8498C184.538 70.8498 171.298 53.8498 154.478 45.4598C137.658 37.0698 117.858 36.2598 99.4785 39.9798C73.6485 45.1698 49.1185 59.4498 34.3785 81.4998C19.6385 103.55 15.9085 133.6 27.6985 157.4Z" fill="white"/>
<path d="M270.929 426.278C273.507 415.458 266.825 404.597 256.005 402.019C245.184 399.441 234.323 406.123 231.746 416.943C229.168 427.764 235.85 438.625 246.67 441.203C257.49 443.78 268.351 437.098 270.929 426.278Z" fill="#EBEBEB"/>
<path d="M479.891 101.8C477.441 78.8005 463.041 62.7005 445.351 47.8005C421.421 27.5805 390.651 27.0005 375.141 27.9005C356.051 27.9005 342.741 42.5905 338.971 56.9005C335.201 71.2105 342.641 87.6005 355.871 94.1705C365.441 98.9105 377.761 99.2405 384.581 107.46C390.501 114.59 389.911 124.9 392.451 133.81C398.821 156.07 427.351 167.46 448.741 158.61C470.131 149.76 482.351 124.81 479.891 101.8Z" fill="white"/>
<path d="M65.2006 311.199H38.6406V372.419H65.2006V311.199Z" fill="#EBEBEB"/>
<path d="M103.474 255.48H76.9141V372.42H103.474V255.48Z" fill="#F5F5F5"/>
<path d="M238.115 258.83H211.555V372.42H238.115V258.83Z" fill="#EBEBEB"/>
<path d="M277.904 217.379H251.344V371.209H277.904V217.379Z" fill="#F5F5F5"/>
<path d="M420.794 216.16H394.234V372.41H420.794V216.16Z" fill="#F5F5F5"/>
<path d="M470.779 240.1H444.219V372.41H470.779V240.1Z" fill="#EBEBEB"/>
<path d="M474.471 251.919C474.471 251.919 474.231 251.519 473.791 250.709C473.351 249.899 472.731 248.709 471.851 247.109C470.081 243.989 467.421 239.399 463.511 233.809C461.561 231.019 459.251 227.999 456.561 224.809C453.661 221.37 450.52 218.141 447.161 215.149C443.328 211.679 439.146 208.616 434.681 206.009C433.491 205.329 432.281 204.649 431.011 204.009C429.741 203.369 428.431 202.809 427.111 202.239C424.36 201.12 421.52 200.233 418.621 199.589C415.579 198.936 412.482 198.574 409.371 198.509C406.125 198.493 402.886 198.829 399.711 199.509C396.401 200.216 393.186 201.31 390.131 202.769C387.031 204.249 384.001 206.089 380.801 207.769C374.287 211.346 367.412 214.223 360.291 216.349C352.665 218.401 344.773 219.294 336.881 218.999C335.881 218.999 334.881 218.919 333.881 218.879C332.858 218.857 331.836 218.78 330.821 218.649C330.311 218.579 329.821 218.549 329.291 218.449L327.771 218.139C326.771 217.959 325.771 217.619 324.771 217.339C320.785 216.048 316.907 214.446 313.171 212.549L301.731 206.809C297.861 204.83 293.813 203.219 289.641 201.999C281.181 199.879 272.231 198.409 263.241 199.359C258.712 199.834 254.294 201.064 250.171 202.999C246.055 205.027 242.285 207.693 239.001 210.899C232.301 217.339 227.261 225.129 222.251 232.649C217.241 240.169 212.431 247.749 207.251 254.849C202.25 261.895 196.58 268.442 190.321 274.399C187.252 277.251 183.973 279.868 180.511 282.229C177.11 284.516 173.528 286.523 169.801 288.229C166.171 289.906 162.382 291.216 158.491 292.139C156.581 292.649 154.631 292.919 152.711 293.239C150.792 293.458 148.863 293.578 146.931 293.599C139.449 293.649 132.066 291.889 125.411 288.469C118.941 285.319 113.111 281.539 107.141 278.609C95.6655 272.671 82.468 270.955 69.8554 273.761C57.2428 276.567 46.0175 283.716 38.1412 293.959C34.9221 298.089 32.2966 302.65 30.3412 307.509L29.5012 309.729C29.2712 310.369 29.1112 310.919 28.9712 311.349L28.5312 312.679C28.5312 312.679 28.6512 312.219 28.9212 311.339C29.0512 310.899 29.2012 310.339 29.4212 309.699C29.6412 309.059 29.9312 308.309 30.2412 307.469C35.2511 294.732 44.7284 284.256 56.9013 277.999C66.8408 273.093 78.0069 271.228 89.0013 272.639C95.3723 273.442 101.557 275.339 107.281 278.249C113.281 281.179 119.111 284.959 125.561 288.079C132.157 291.458 139.471 293.194 146.881 293.139C148.796 293.118 150.709 292.998 152.611 292.779C154.521 292.459 156.441 292.189 158.341 291.689C162.202 290.765 165.96 289.458 169.561 287.789C173.261 286.079 176.816 284.073 180.191 281.789C183.63 279.438 186.889 276.834 189.941 273.999C196.171 268.056 201.817 261.529 206.801 254.509C211.961 247.419 216.801 239.899 221.801 232.329C226.801 224.759 231.841 216.999 238.601 210.519C241.936 207.266 245.767 204.566 249.951 202.519C254.128 200.586 258.601 199.369 263.181 198.919C272.281 197.919 281.271 199.439 289.771 201.579C293.965 202.808 298.034 204.432 301.921 206.429L313.351 212.169C317.065 214.057 320.92 215.656 324.881 216.949C325.881 217.219 326.881 217.559 327.881 217.729L329.381 218.039C329.881 218.139 330.381 218.169 330.881 218.239C331.881 218.379 332.881 218.419 333.881 218.469C334.881 218.519 335.881 218.599 336.881 218.589C344.727 218.897 352.575 218.024 360.161 215.999C367.257 213.889 374.108 211.033 380.601 207.479C383.791 205.839 386.811 204.019 389.951 202.479C396.024 199.613 402.666 198.157 409.381 198.219C412.516 198.286 415.637 198.654 418.701 199.319C421.617 199.973 424.474 200.87 427.241 201.999C428.571 202.589 429.911 203.129 431.161 203.789C432.411 204.449 433.651 205.089 434.851 205.789C439.328 208.414 443.521 211.497 447.361 214.989C450.716 218.004 453.853 221.252 456.751 224.709C459.441 227.879 461.751 230.909 463.671 233.709C466.66 238.014 469.42 242.474 471.941 247.069C472.801 248.649 473.411 249.879 473.841 250.689L474.471 251.919Z" fill="#263238"/>
<path d="M263.588 205.789C267.36 205.789 270.418 202.731 270.418 198.959C270.418 195.187 267.36 192.129 263.588 192.129C259.816 192.129 256.758 195.187 256.758 198.959C256.758 202.731 259.816 205.789 263.588 205.789Z" fill="#FF725E"/>
<path d="M263.59 211.619C261.135 211.619 258.735 210.891 256.694 209.527C254.653 208.163 253.062 206.224 252.123 203.956C251.184 201.687 250.939 199.192 251.419 196.784C251.899 194.377 253.081 192.165 254.818 190.43C256.555 188.695 258.767 187.514 261.175 187.036C263.583 186.558 266.078 186.806 268.346 187.746C270.613 188.687 272.551 190.279 273.913 192.321C275.276 194.364 276.002 196.764 276 199.219C275.994 202.508 274.685 205.66 272.358 207.985C270.032 210.309 266.878 211.616 263.59 211.619V211.619ZM263.59 187.809C261.333 187.809 259.127 188.478 257.251 189.732C255.374 190.986 253.912 192.768 253.048 194.852C252.185 196.937 251.959 199.231 252.399 201.445C252.839 203.658 253.926 205.691 255.522 207.287C257.117 208.883 259.15 209.969 261.364 210.41C263.577 210.85 265.871 210.624 267.956 209.76C270.041 208.897 271.823 207.434 273.077 205.558C274.33 203.682 275 201.476 275 199.219C274.997 196.194 273.794 193.293 271.655 191.154C269.516 189.014 266.615 187.811 263.59 187.809V187.809Z" fill="#FF725E"/>
<path d="M266.871 175.4L266.511 161.41L270.001 161.47L263.481 153.5L256.961 161.54L260.571 161.56L260.931 175.36L266.871 175.4Z" fill="#EBEBEB"/>
<path d="M253.68 182.889V185.459H251.38V182.999C249.346 182.933 247.372 182.299 245.68 181.169L246.94 178.369C248.252 179.29 249.783 179.852 251.38 179.999V176.169C248.84 175.549 246 174.699 246 171.429C246 168.999 247.76 166.909 251.38 166.499V163.949H253.68V166.449C255.318 166.544 256.911 167.024 258.33 167.849L257.18 170.669C256.102 170.047 254.913 169.643 253.68 169.479V173.369C256.22 173.969 259.02 174.819 259.02 178.049C259 180.389 257.27 182.459 253.68 182.889ZM251.38 172.759V169.509C250.17 169.779 249.69 170.449 249.69 171.199C249.69 171.949 250.38 172.439 251.38 172.759ZM255.38 178.279C255.38 177.479 254.71 177.049 253.73 176.699V179.869C254.82 179.609 255.33 178.999 255.33 178.279H255.38Z" fill="#E0E0E0"/>
<path d="M283.622 139.06C283.622 140.83 282.322 142.36 279.472 142.36C278.129 142.384 276.809 142.016 275.672 141.3L276.582 139.53C277.41 140.122 278.404 140.437 279.422 140.43C280.572 140.43 281.282 139.94 281.282 139.13C281.282 138.32 280.772 137.84 278.962 137.84H276.412L276.932 132.23H283.002V134.08H278.842L278.682 135.97H279.492C282.452 136 283.622 137.3 283.622 139.06Z" fill="#FF725E"/>
<path d="M284.562 137.209C284.562 133.919 286.382 132.059 288.832 132.059C291.282 132.059 293.103 133.919 293.103 137.209C293.103 140.499 291.292 142.359 288.832 142.359C286.372 142.359 284.562 140.499 284.562 137.209ZM290.783 137.209C290.783 134.949 289.982 134.009 288.832 134.009C287.682 134.009 286.902 134.949 286.902 137.209C286.902 139.469 287.692 140.409 288.832 140.409C289.972 140.409 290.783 139.469 290.783 137.209V137.209Z" fill="#FF725E"/>
<path d="M294.062 134.859C294.031 134.516 294.072 134.17 294.182 133.844C294.292 133.517 294.469 133.217 294.701 132.963C294.933 132.709 295.216 132.506 295.531 132.367C295.847 132.228 296.187 132.156 296.532 132.156C296.876 132.156 297.217 132.228 297.532 132.367C297.847 132.506 298.13 132.709 298.362 132.963C298.595 133.217 298.771 133.517 298.882 133.844C298.992 134.17 299.033 134.516 299.002 134.859C299.043 135.205 299.01 135.557 298.905 135.889C298.8 136.222 298.625 136.529 298.392 136.789C298.16 137.049 297.874 137.257 297.555 137.398C297.236 137.539 296.891 137.611 296.542 137.609C296.192 137.611 295.846 137.539 295.526 137.398C295.206 137.257 294.919 137.049 294.685 136.79C294.451 136.53 294.274 136.224 294.167 135.891C294.059 135.558 294.024 135.206 294.062 134.859V134.859ZM297.582 134.859C297.582 133.789 297.162 133.279 296.582 133.279C296.002 133.279 295.582 133.809 295.582 134.859C295.582 135.909 296.012 136.439 296.582 136.439C297.152 136.439 297.582 135.929 297.582 134.859ZM302.472 132.229H304.172L297.362 142.229H295.672L302.472 132.229ZM300.842 139.559C300.894 139.082 301.083 138.631 301.386 138.26C301.689 137.889 302.093 137.614 302.55 137.467C303.006 137.321 303.495 137.31 303.957 137.436C304.42 137.561 304.836 137.818 305.155 138.175C305.475 138.532 305.684 138.975 305.757 139.448C305.831 139.922 305.766 140.406 305.57 140.844C305.374 141.281 305.055 141.652 304.653 141.912C304.25 142.172 303.781 142.31 303.302 142.309C302.954 142.308 302.61 142.234 302.292 142.092C301.975 141.949 301.691 141.742 301.459 141.482C301.226 141.223 301.052 140.918 300.945 140.586C300.839 140.255 300.804 139.905 300.842 139.559V139.559ZM304.342 139.559C304.342 138.509 303.932 137.979 303.342 137.979C302.752 137.979 302.342 138.489 302.342 139.559C302.342 140.629 302.772 141.139 303.342 141.139C303.912 141.139 304.342 140.609 304.342 139.559V139.559Z" fill="#FF725E"/>
<path d="M52.6503 290.06C56.4224 290.06 59.4803 287.003 59.4803 283.23C59.4803 279.458 56.4224 276.4 52.6503 276.4C48.8782 276.4 45.8203 279.458 45.8203 283.23C45.8203 287.003 48.8782 290.06 52.6503 290.06Z" fill="#FF725E"/>
<path d="M52.6522 295.89C50.1977 295.89 47.7984 295.162 45.7576 293.799C43.7168 292.435 42.1261 290.497 41.1868 288.229C40.2476 285.962 40.0018 283.467 40.4806 281.059C40.9595 278.652 42.1414 276.441 43.877 274.705C45.6126 272.97 47.8238 271.788 50.2311 271.309C52.6384 270.83 55.1337 271.076 57.4013 272.015C59.6689 272.954 61.6071 274.545 62.9707 276.586C64.3344 278.627 65.0622 281.026 65.0622 283.48C65.0595 286.771 63.7512 289.926 61.4245 292.253C59.0977 294.579 55.9427 295.888 52.6522 295.89V295.89ZM52.6522 272.08C50.3951 272.08 48.1887 272.75 46.3121 274.004C44.4355 275.258 42.9731 277.041 42.1098 279.126C41.2465 281.212 41.0211 283.506 41.4622 285.72C41.9032 287.934 42.9909 289.967 44.5876 291.562C46.1844 293.157 48.2184 294.243 50.4324 294.682C52.6463 295.121 54.9408 294.894 57.0255 294.029C59.1103 293.164 60.8916 291.7 62.1441 289.822C63.3967 287.944 64.0642 285.737 64.0622 283.48C64.0569 280.457 62.8528 277.559 60.7138 275.422C58.5749 273.285 55.6758 272.083 52.6522 272.08V272.08Z" fill="#FF725E"/>
<path d="M49.2528 243.5L49.6228 257.48L46.1328 257.42L52.6528 265.39L59.1728 257.35L55.5528 257.33L55.1928 243.53L49.2528 243.5Z" fill="#EBEBEB"/>
<path d="M41.2009 268.92V271.49H38.9109V269C36.8766 268.938 34.901 268.304 33.2109 267.17L34.4709 264.37C35.7836 265.291 37.3142 265.853 38.9109 266V262.17C36.3709 261.56 33.5309 260.71 33.5309 257.43C33.5309 255 35.2909 252.91 38.9109 252.5V250H41.2009V252.5C42.8428 252.586 44.4405 253.062 45.8609 253.89L44.7109 256.71C43.6304 256.087 42.4377 255.682 41.2009 255.52V259.42C43.7509 260.01 46.5409 260.86 46.5409 264.09C46.5409 266.43 44.8009 268.49 41.2009 268.92ZM38.9109 258.79V255.54C37.7009 255.81 37.2209 256.48 37.2209 257.24C37.2209 258 37.9009 258.47 38.9109 258.79V258.79ZM42.8509 264.32C42.8509 263.52 42.1909 263.08 41.2009 262.74V265.9C42.3509 265.65 42.8509 265.05 42.8509 264.32Z" fill="#E0E0E0"/>
<path d="M443.148 194.769V197.339H440.858V194.839C438.82 194.775 436.841 194.137 435.148 192.999L436.408 190.209C437.725 191.129 439.259 191.691 440.858 191.839V187.999C438.318 187.379 435.468 186.529 435.468 183.249C435.468 180.829 437.238 178.739 440.858 178.329V175.779H443.148V178.279C444.787 178.373 446.38 178.853 447.798 179.679L446.658 182.499C445.582 181.867 444.387 181.462 443.148 181.309V185.199C445.688 185.799 448.488 186.649 448.488 189.879C448.488 192.269 446.748 194.329 443.148 194.769ZM440.858 184.639V181.389C439.638 181.659 439.158 182.319 439.158 183.079C439.158 183.839 439.848 184.319 440.858 184.639V184.639ZM444.798 190.159C444.798 189.359 444.138 188.929 443.148 188.579V191.739C444.298 191.489 444.798 190.899 444.798 190.159V190.159Z" fill="#E0E0E0"/>
<path d="M457.374 196.849C458.418 196.39 459.305 195.635 459.924 194.677C460.543 193.718 460.866 192.599 460.854 191.459C460.903 190.713 460.799 189.965 460.548 189.261C460.298 188.557 459.906 187.911 459.396 187.364C458.887 186.817 458.271 186.381 457.586 186.08C456.902 185.78 456.163 185.623 455.416 185.619C454.669 185.615 453.928 185.764 453.24 186.057C452.553 186.349 451.932 186.779 451.417 187.321C450.901 187.862 450.502 188.503 450.244 189.204C449.985 189.906 449.873 190.652 449.914 191.399C449.89 192.549 450.208 193.681 450.828 194.651C451.447 195.622 452.34 196.386 453.394 196.849C444.974 198.119 445.394 207.269 445.394 207.269L465.314 207.369C465.314 207.369 465.724 198.109 457.374 196.849Z" fill="#EBEBEB"/>
<path d="M295.315 110.26C295.028 110.257 294.751 110.156 294.529 109.975C294.307 109.793 294.154 109.541 294.095 109.26L291.285 97.42H283.455L280.745 108.71C280.664 109.033 280.46 109.312 280.175 109.486C279.891 109.66 279.55 109.716 279.225 109.64C279.063 109.602 278.911 109.533 278.776 109.436C278.642 109.339 278.528 109.216 278.442 109.075C278.355 108.933 278.297 108.776 278.272 108.612C278.247 108.448 278.255 108.281 278.295 108.12L281.005 97C281.032 96.4782 281.251 95.9847 281.62 95.6153C281.99 95.2458 282.483 95.0266 283.005 95H291.705C292.225 95.0309 292.716 95.2515 293.085 95.6201C293.453 95.9887 293.674 96.4797 293.705 97L296.495 108.74C296.534 108.901 296.54 109.068 296.515 109.231C296.489 109.395 296.431 109.551 296.345 109.693C296.258 109.834 296.145 109.957 296.011 110.054C295.878 110.151 295.726 110.221 295.565 110.26C295.482 110.267 295.398 110.267 295.315 110.26V110.26Z" fill="#FF725E"/>
<path d="M291.153 95.0801H283.523V109H291.153V95.0801Z" fill="#FF725E"/>
<path d="M285.051 125.55C284.65 125.547 284.266 125.386 283.983 125.101C283.7 124.816 283.541 124.431 283.541 124.03V107.58C283.517 107.368 283.537 107.154 283.602 106.951C283.666 106.748 283.772 106.561 283.914 106.402C284.055 106.243 284.229 106.116 284.423 106.029C284.618 105.942 284.828 105.896 285.041 105.896C285.254 105.896 285.465 105.942 285.659 106.029C285.853 106.116 286.027 106.243 286.169 106.402C286.31 106.561 286.417 106.748 286.481 106.951C286.545 107.154 286.566 107.368 286.541 107.58V124C286.547 124.2 286.512 124.399 286.44 124.586C286.368 124.772 286.259 124.942 286.12 125.087C285.982 125.231 285.816 125.346 285.632 125.426C285.449 125.505 285.251 125.547 285.051 125.55Z" fill="#FF725E"/>
<path d="M289.619 125.549C289.218 125.546 288.834 125.385 288.551 125.1C288.268 124.815 288.109 124.43 288.109 124.029V107.579C288.168 107.223 288.351 106.9 288.625 106.666C288.9 106.433 289.249 106.305 289.609 106.305C289.97 106.305 290.319 106.433 290.593 106.666C290.868 106.9 291.051 107.223 291.109 107.579V123.999C291.113 124.199 291.078 124.397 291.005 124.583C290.933 124.769 290.824 124.939 290.685 125.083C290.547 125.227 290.382 125.342 290.199 125.422C290.016 125.502 289.819 125.545 289.619 125.549Z" fill="#FF725E"/>
<path d="M291.005 90.4595C291.005 91.1893 290.789 91.9028 290.383 92.5096C289.978 93.1164 289.401 93.5894 288.727 93.8687C288.053 94.1479 287.311 94.221 286.595 94.0786C285.879 93.9362 285.222 93.5848 284.706 93.0688C284.19 92.5527 283.838 91.8952 283.696 91.1794C283.554 90.4636 283.627 89.7217 283.906 89.0474C284.185 88.3732 284.658 87.7969 285.265 87.3914C285.872 86.9859 286.585 86.7695 287.315 86.7695C288.294 86.7695 289.232 87.1583 289.924 87.8503C290.616 88.5423 291.005 89.4809 291.005 90.4595V90.4595Z" fill="#FF725E"/>
<path d="M280.75 113.159L283.65 102.039H291.03L293.86 113.159H280.75Z" fill="#FF725E"/>
<path d="M220.75 153.13C220.75 154.62 219.65 155.93 217.24 155.93C216.092 155.946 214.965 155.623 214 155L214.78 153.51C215.48 154.01 216.32 154.276 217.18 154.27C218.18 154.27 218.75 153.86 218.75 153.17C218.75 152.48 218.32 152.07 216.75 152.07H214.59L215.03 147.32H220.17V148.89H216.65L216.52 150.49H217.21C219.76 150.51 220.75 151.63 220.75 153.13Z" fill="#455A64"/>
<path d="M221.555 151.559C221.555 148.779 223.095 147.199 225.165 147.199C227.235 147.199 228.785 148.779 228.785 151.559C228.785 154.339 227.255 155.929 225.165 155.929C223.075 155.929 221.555 154.349 221.555 151.559ZM226.815 151.559C226.815 149.649 226.145 148.849 225.165 148.849C224.185 148.849 223.525 149.649 223.525 151.559C223.525 153.469 224.205 154.269 225.165 154.269C226.125 154.269 226.815 153.479 226.815 151.559Z" fill="#455A64"/>
<path d="M229.592 149.57C229.636 149.167 229.796 148.785 230.053 148.471C230.309 148.157 230.651 147.924 231.037 147.8C231.423 147.676 231.837 147.667 232.228 147.773C232.62 147.879 232.972 148.096 233.243 148.398C233.513 148.699 233.691 149.073 233.754 149.474C233.817 149.874 233.763 150.284 233.597 150.655C233.432 151.025 233.164 151.34 232.824 151.561C232.484 151.781 232.087 151.899 231.682 151.9C231.386 151.902 231.093 151.841 230.823 151.721C230.552 151.601 230.31 151.426 230.112 151.205C229.915 150.985 229.766 150.725 229.676 150.444C229.587 150.162 229.558 149.864 229.592 149.57ZM232.592 149.57C232.592 148.67 232.242 148.24 231.712 148.24C231.182 148.24 230.832 148.68 230.832 149.57C230.832 150.46 231.202 150.91 231.712 150.91C232.222 150.91 232.562 150.48 232.562 149.57H232.592ZM236.742 147.34H238.182L232.412 155.78H231.002L236.742 147.34ZM235.352 153.55C235.395 153.144 235.554 152.759 235.811 152.442C236.068 152.124 236.412 151.888 236.8 151.763C237.188 151.637 237.605 151.626 237.999 151.732C238.394 151.839 238.749 152.057 239.021 152.361C239.294 152.665 239.472 153.041 239.535 153.445C239.598 153.848 239.543 154.261 239.375 154.634C239.208 155.006 238.937 155.322 238.593 155.543C238.25 155.765 237.85 155.881 237.442 155.88C237.144 155.884 236.849 155.826 236.575 155.707C236.302 155.589 236.057 155.414 235.856 155.193C235.656 154.973 235.504 154.712 235.412 154.429C235.32 154.146 235.289 153.846 235.322 153.55H235.352ZM238.352 153.55C238.352 152.66 238.002 152.21 237.472 152.21C236.942 152.21 236.592 152.65 236.592 153.55C236.592 154.45 236.952 154.89 237.472 154.89C237.992 154.89 238.292 154.44 238.292 153.55H238.352Z" fill="#455A64"/>
<path d="M229.061 129.109C228.735 129.109 228.422 128.979 228.192 128.748C227.961 128.518 227.831 128.205 227.831 127.879V116.599H218.741V127.879C218.741 128.205 218.612 128.518 218.381 128.748C218.15 128.979 217.838 129.109 217.511 129.109C217.185 129.109 216.872 128.979 216.642 128.748C216.411 128.518 216.281 128.205 216.281 127.879V116.289C216.279 116.009 216.331 115.731 216.436 115.472C216.54 115.213 216.695 114.976 216.891 114.777C217.087 114.577 217.32 114.418 217.578 114.308C217.835 114.199 218.112 114.141 218.391 114.139H228.181C228.745 114.147 229.284 114.377 229.679 114.78C230.074 115.182 230.294 115.725 230.291 116.289V127.879C230.291 128.04 230.26 128.2 230.198 128.349C230.136 128.499 230.045 128.634 229.931 128.748C229.817 128.863 229.681 128.953 229.532 129.015C229.383 129.077 229.223 129.109 229.061 129.109Z" fill="#455A64"/>
<path d="M227.023 114.279H219.562V127.879H227.023V114.279Z" fill="#455A64"/>
<path d="M221.058 141.369C220.695 141.397 220.336 141.28 220.059 141.044C219.781 140.808 219.609 140.472 219.578 140.109V126.279C219.629 125.924 219.806 125.599 220.077 125.364C220.348 125.129 220.694 125 221.053 125C221.412 125 221.758 125.129 222.029 125.364C222.3 125.599 222.477 125.924 222.528 126.279V140.109C222.497 140.47 222.326 140.804 222.051 141.04C221.776 141.276 221.419 141.394 221.058 141.369V141.369Z" fill="#455A64"/>
<path d="M225.525 141.369C225.163 141.394 224.807 141.276 224.532 141.04C224.257 140.804 224.085 140.47 224.055 140.109V126.279C224.105 125.924 224.283 125.599 224.553 125.364C224.824 125.129 225.171 125 225.53 125C225.888 125 226.235 125.129 226.506 125.364C226.777 125.599 226.954 125.924 227.005 126.279V140.109C226.974 140.472 226.801 140.808 226.524 141.044C226.247 141.28 225.888 141.397 225.525 141.369V141.369Z" fill="#455A64"/>
<path d="M226.888 109.76C226.888 110.472 226.676 111.168 226.281 111.76C225.885 112.352 225.323 112.814 224.665 113.086C224.007 113.359 223.284 113.43 222.585 113.291C221.887 113.152 221.245 112.809 220.742 112.306C220.238 111.802 219.896 111.161 219.757 110.462C219.618 109.764 219.689 109.04 219.962 108.382C220.234 107.725 220.695 107.162 221.287 106.767C221.879 106.371 222.575 106.16 223.287 106.16C224.242 106.16 225.158 106.539 225.833 107.215C226.508 107.89 226.888 108.805 226.888 109.76Z" fill="#455A64"/>
<path d="M462.144 222.939C462.144 224.29 461.744 225.611 460.993 226.734C460.243 227.857 459.176 228.733 457.928 229.249C456.68 229.766 455.307 229.902 453.982 229.638C452.657 229.375 451.44 228.724 450.485 227.769C449.53 226.814 448.879 225.597 448.616 224.272C448.352 222.947 448.487 221.574 449.004 220.326C449.521 219.078 450.397 218.011 451.52 217.26C452.643 216.51 453.964 216.109 455.314 216.109C457.126 216.109 458.863 216.829 460.144 218.11C461.425 219.391 462.144 221.128 462.144 222.939V222.939Z" fill="#FF725E"/>
<path d="M455.308 235.599C452.854 235.599 450.454 234.871 448.413 233.507C446.372 232.143 444.781 230.204 443.842 227.936C442.903 225.668 442.658 223.172 443.138 220.765C443.617 218.357 444.8 216.146 446.537 214.411C448.273 212.675 450.486 211.494 452.893 211.017C455.301 210.539 457.797 210.786 460.064 211.727C462.332 212.668 464.269 214.26 465.632 216.302C466.994 218.344 467.72 220.744 467.718 223.199C467.713 226.488 466.404 229.641 464.077 231.965C461.751 234.29 458.597 235.597 455.308 235.599V235.599ZM455.308 211.789C453.052 211.789 450.846 212.458 448.969 213.712C447.093 214.966 445.631 216.748 444.767 218.833C443.903 220.918 443.677 223.212 444.118 225.425C444.558 227.639 445.645 229.672 447.24 231.267C448.836 232.863 450.869 233.95 453.082 234.39C455.296 234.83 457.59 234.604 459.675 233.741C461.76 232.877 463.542 231.415 464.796 229.538C466.049 227.662 466.718 225.456 466.718 223.199C466.716 220.174 465.513 217.273 463.374 215.134C461.234 212.995 458.334 211.792 455.308 211.789V211.789Z" fill="#FF725E"/>
<path d="M299.318 404.65C299.318 404.65 298.688 439.48 298.688 452.4H408.568V415.66L405.087 406L403.837 398.16L299.318 404.65Z" fill="#263238"/>
<path d="M328.286 451C327.91 447.934 327.706 444.849 327.676 441.76C327.477 438.674 327.447 435.58 327.586 432.49C327.961 435.56 328.165 438.648 328.196 441.74C328.395 444.823 328.425 447.914 328.286 451V451Z" fill="#455A64"/>
<path d="M332.051 416.842C332.051 416.842 332.251 416.692 332.691 416.632C333.318 416.554 333.954 416.662 334.521 416.942C334.961 417.142 335.344 417.449 335.635 417.835C335.927 418.221 336.118 418.674 336.191 419.152C336.273 419.738 336.181 420.336 335.925 420.87C335.668 421.404 335.26 421.85 334.751 422.152C334.205 422.417 333.587 422.497 332.992 422.38C332.396 422.263 331.855 421.954 331.451 421.502C331.09 421.105 330.89 420.588 330.891 420.052C330.89 419.596 331.026 419.15 331.281 418.772C331.448 418.498 331.67 418.261 331.934 418.077C332.197 417.893 332.496 417.765 332.811 417.702C333.261 417.642 333.501 417.752 333.491 417.772C333.481 417.792 333.241 417.772 332.861 417.902C332.32 418.085 331.867 418.463 331.591 418.962C331.379 419.305 331.286 419.708 331.326 420.109C331.366 420.51 331.536 420.887 331.811 421.182C332.148 421.54 332.59 421.782 333.073 421.874C333.556 421.965 334.056 421.902 334.501 421.692C334.889 421.455 335.207 421.119 335.422 420.718C335.638 420.318 335.744 419.868 335.728 419.413C335.713 418.959 335.578 418.516 335.336 418.131C335.093 417.746 334.754 417.432 334.351 417.222C333.633 416.887 332.838 416.755 332.051 416.842V416.842Z" fill="#455A64"/>
<path d="M392.548 419.201C391.794 418.879 391.082 418.466 390.428 417.971C389.168 417.141 387.428 415.921 385.668 414.481C383.908 413.041 382.318 411.631 381.238 410.581C380.612 410.052 380.055 409.448 379.578 408.781C380.263 409.229 380.902 409.741 381.488 410.311C382.628 411.311 384.208 412.641 385.988 414.071C387.768 415.501 389.438 416.761 390.638 417.671C391.321 418.121 391.96 418.633 392.548 419.201V419.201Z" fill="#455A64"/>
<path d="M403.816 430.641C403.669 430.752 403.508 430.843 403.336 430.911L401.896 431.601L400.896 432.091C400.516 432.261 400.076 432.411 399.616 432.581C398.696 432.911 397.616 433.351 396.456 433.661L394.576 434.191C393.926 434.371 393.226 434.481 392.516 434.641C391.096 434.981 389.516 435.151 387.916 435.371C380.788 436.111 373.583 435.302 366.796 433.001C365.324 432.502 363.879 431.928 362.466 431.281C361.806 430.981 361.146 430.711 360.546 430.401L358.836 429.471C357.855 428.939 356.904 428.355 355.986 427.721C355.576 427.451 355.186 427.211 354.836 426.971C354.486 426.731 354.206 426.481 353.926 426.261L352.676 425.261C352.396 425.031 352.256 424.911 352.266 424.891C352.431 424.973 352.589 425.07 352.736 425.181L354.046 426.091L354.976 426.751C355.326 426.981 355.726 427.211 356.146 427.471C356.986 427.971 357.906 428.601 359.016 429.131L360.726 430.031C361.326 430.331 361.976 430.581 362.636 430.881C363.946 431.501 365.416 431.981 366.946 432.531C373.665 434.751 380.774 435.538 387.816 434.841C389.436 434.641 390.976 434.491 392.386 434.171C393.096 434.021 393.786 433.921 394.436 433.751L396.306 433.251C397.506 432.971 398.536 432.561 399.466 432.251C399.926 432.091 400.366 431.951 400.756 431.801L401.816 431.361L403.286 430.761C403.457 430.699 403.635 430.659 403.816 430.641V430.641Z" fill="#455A64"/>
<path d="M319.127 170.441C317.406 170.532 315.713 169.985 314.37 168.905C313.028 167.825 312.131 166.288 311.851 164.588C311.571 162.887 311.928 161.144 312.853 159.691C313.779 158.237 315.208 157.176 316.867 156.711C315.853 155.566 315.227 154.13 315.077 152.608C314.926 151.086 315.26 149.555 316.03 148.234C316.8 146.912 317.966 145.867 319.365 145.247C320.763 144.627 322.321 144.464 323.817 144.781C323.956 143.282 324.481 141.844 325.341 140.608C326.202 139.372 327.368 138.38 328.726 137.73C330.083 137.079 331.587 136.791 333.089 136.895C334.591 136.999 336.041 137.49 337.297 138.321C339.058 137.028 341.202 136.361 343.386 136.428C345.57 136.495 347.668 137.292 349.347 138.691C350.816 138.521 352.301 138.82 353.589 139.546C354.878 140.272 355.903 141.387 356.518 142.732C357.134 144.077 357.307 145.582 357.014 147.032C356.721 148.481 355.976 149.801 354.887 150.801" fill="#263238"/>
<path d="M318.069 171.361C319.038 163.962 322.759 157.2 328.491 152.422C334.224 147.644 341.546 145.201 348.999 145.582L350.539 145.662C367.039 147.442 374.739 162.461 372.489 178.901L367.359 233.901L367.079 236.572L328.519 242.332L329.269 228.332C329.269 228.332 313.439 225.001 313.999 209.091C314.319 201.401 316.199 185.622 318.069 171.361Z" fill="#937263"/>
<path d="M329.099 228.242C336.485 228.615 343.822 226.859 350.239 223.182C350.239 223.182 344.769 234.382 328.969 232.182L329.099 228.242Z" fill="#5E483F"/>
<path d="M320.707 183.86C320.673 184.45 320.87 185.031 321.257 185.479C321.643 185.926 322.188 186.207 322.777 186.26C323.065 186.298 323.358 186.277 323.638 186.2C323.918 186.123 324.18 185.991 324.408 185.811C324.636 185.631 324.826 185.407 324.967 185.153C325.108 184.899 325.196 184.619 325.227 184.33C325.26 183.737 325.062 183.154 324.674 182.705C324.286 182.255 323.738 181.974 323.147 181.92C322.859 181.885 322.567 181.908 322.288 181.987C322.009 182.066 321.748 182.2 321.521 182.38C321.294 182.561 321.105 182.784 320.966 183.038C320.826 183.292 320.738 183.572 320.707 183.86V183.86Z" fill="#263238"/>
<path d="M321.099 179.321C321.369 179.631 323.099 178.441 325.599 178.571C328.099 178.701 329.769 180.001 330.049 179.721C330.189 179.591 329.929 179.041 329.169 178.441C328.152 177.653 326.914 177.203 325.629 177.151C324.353 177.092 323.092 177.443 322.029 178.151C321.249 178.651 320.999 179.181 321.099 179.321Z" fill="#263238"/>
<path d="M343.786 186.062C343.747 186.653 343.943 187.236 344.33 187.685C344.717 188.134 345.265 188.413 345.856 188.462C346.144 188.498 346.436 188.476 346.716 188.399C346.995 188.321 347.257 188.189 347.485 188.009C347.713 187.829 347.903 187.606 348.044 187.353C348.185 187.099 348.274 186.82 348.306 186.532C348.342 185.939 348.144 185.356 347.756 184.907C347.367 184.459 346.818 184.18 346.226 184.132C345.939 184.094 345.646 184.114 345.367 184.192C345.087 184.269 344.826 184.401 344.599 184.581C344.371 184.761 344.182 184.985 344.042 185.239C343.903 185.493 343.816 185.773 343.786 186.062V186.062Z" fill="#263238"/>
<path d="M345.099 181.001C345.369 181.311 347.159 180.131 349.599 180.261C352.039 180.391 353.769 181.691 354.049 181.411C354.189 181.281 353.929 180.731 353.179 180.131C352.158 179.344 350.917 178.893 349.629 178.841C348.353 178.787 347.093 179.137 346.029 179.841C345.259 180.301 344.999 180.831 345.099 181.001Z" fill="#263238"/>
<path d="M335.328 198.652C335.328 198.512 333.838 198.172 331.398 197.742C330.778 197.642 330.188 197.492 330.108 197.062C330.085 196.414 330.263 195.774 330.618 195.232C331.278 193.752 331.968 192.232 332.698 190.572C335.598 183.932 337.698 178.462 337.458 178.342C337.218 178.222 334.628 183.522 331.728 190.152L329.728 194.852C329.297 195.584 329.141 196.445 329.288 197.282C329.361 197.517 329.49 197.732 329.664 197.906C329.838 198.08 330.053 198.209 330.288 198.282C330.627 198.399 330.98 198.466 331.338 198.482C333.778 198.702 335.318 198.792 335.328 198.652Z" fill="#263238"/>
<path d="M342.438 200.701C342.048 200.701 341.908 203.311 339.538 205.081C337.168 206.851 334.368 206.421 334.328 206.791C334.328 206.951 334.938 207.331 336.128 207.421C337.679 207.523 339.217 207.073 340.468 206.151C341.669 205.263 342.48 203.944 342.728 202.471C342.888 201.361 342.618 200.691 342.438 200.701Z" fill="#263238"/>
<path d="M344.998 171.361C345.208 172.031 347.658 171.841 350.508 172.361C353.358 172.881 355.638 173.741 356.048 173.161C356.238 172.891 355.868 172.241 354.958 171.551C353.75 170.698 352.364 170.134 350.904 169.9C349.445 169.666 347.951 169.769 346.538 170.201C345.418 170.541 344.858 171.001 344.998 171.361Z" fill="#263238"/>
<path d="M322.347 172.291C322.747 172.861 324.467 172.371 326.487 172.441C328.507 172.511 330.207 173.001 330.637 172.441C330.817 172.171 330.577 171.601 329.857 171.041C328.882 170.359 327.726 169.983 326.537 169.96C325.347 169.937 324.178 170.268 323.177 170.911C322.437 171.451 322.177 172.001 322.347 172.291Z" fill="#263238"/>
<path d="M320 164.15C320 164.15 324.69 154.39 329.61 152.31C335.56 149.78 337.75 156.31 343.37 155.02C348.99 153.73 354.67 151.32 360.12 155.88C366.12 160.88 363.02 164.02 363.05 171.1C363.18 199.79 368 208.1 370.16 194.74C370.4 193.27 374.55 192.3 375.47 186.09C376.66 178.04 377.47 168.23 375.94 162.4C374.66 157.49 372.06 154.01 367.3 150.08C359.78 143.87 349.06 143.21 341.74 143.59C334.42 143.97 319.92 151.64 320 164.15Z" fill="#263238"/>
<path d="M369.13 194.25C369.178 193.667 369.344 193.1 369.618 192.582C369.891 192.065 370.267 191.609 370.723 191.241C371.178 190.874 371.704 190.603 372.267 190.444C372.83 190.286 373.42 190.244 374 190.32C376.95 190.75 380.17 192.6 379.67 198.72C378.78 209.58 368.06 206.45 368.07 206.14C368.08 205.83 368.72 198.79 369.13 194.25Z" fill="#937263"/>
<path d="M370.755 202.241C370.805 202.241 370.935 202.391 371.245 202.561C371.678 202.79 372.183 202.844 372.655 202.711C373.835 202.381 374.955 200.641 375.165 198.711C375.271 197.783 375.165 196.843 374.855 195.961C374.783 195.613 374.626 195.289 374.4 195.015C374.173 194.741 373.883 194.527 373.555 194.391C373.341 194.322 373.111 194.327 372.9 194.405C372.69 194.483 372.512 194.63 372.395 194.821C372.225 195.111 372.275 195.331 372.215 195.341C372.155 195.351 371.995 195.141 372.125 194.701C372.205 194.438 372.375 194.211 372.605 194.061C372.922 193.858 373.307 193.79 373.675 193.871C374.114 193.995 374.513 194.229 374.835 194.551C375.158 194.873 375.392 195.273 375.515 195.711C375.902 196.689 376.039 197.747 375.915 198.791C375.675 200.971 374.385 202.931 372.775 203.251C372.478 203.313 372.17 203.307 371.875 203.232C371.581 203.158 371.307 203.017 371.075 202.821C370.755 202.511 370.715 202.261 370.755 202.241Z" fill="#5E483F"/>
<path d="M369.995 173.181C368.606 174.194 366.987 174.843 365.285 175.071C363.575 175.161 361.675 174.071 361.475 172.381C361.385 171.621 361.615 170.751 361.145 170.141C360.675 169.531 359.475 169.581 358.565 169.631C356.963 169.677 355.394 169.171 354.12 168.2C352.846 167.228 351.944 165.848 351.565 164.291C350.695 165.461 348.825 165.291 347.635 164.471C346.55 163.501 345.608 162.384 344.835 161.151C343.935 160.011 342.645 158.971 341.195 159.101C340.416 159.33 339.614 159.467 338.805 159.511C337.385 159.311 336.805 157.601 336.625 156.171C336.445 154.741 336.395 153.081 335.225 152.251C334.055 151.421 332.665 151.821 331.335 151.951C330.005 152.081 328.335 151.691 328.065 150.381C328.024 150.035 328.054 149.685 328.154 149.351C328.253 149.018 328.421 148.708 328.645 148.441C329.594 147.17 330.944 146.255 332.477 145.845C334.01 145.435 335.637 145.553 337.095 146.181C337.717 144.397 338.854 142.838 340.363 141.701C341.872 140.564 343.684 139.9 345.57 139.793C347.457 139.686 349.332 140.14 350.96 141.1C352.588 142.059 353.894 143.479 354.715 145.181C355.924 144.2 357.351 143.525 358.877 143.211C360.402 142.898 361.98 142.956 363.478 143.381C364.976 143.805 366.351 144.584 367.485 145.651C368.619 146.718 369.48 148.042 369.995 149.511C371.346 149.213 372.756 149.322 374.046 149.825C375.335 150.328 376.447 151.202 377.24 152.336C378.033 153.471 378.472 154.815 378.501 156.199C378.531 157.583 378.149 158.944 377.405 160.111C379.305 161.331 380.885 163.351 380.815 165.611C380.745 167.871 378.435 169.991 376.295 169.291C376.675 170.198 376.7 171.214 376.364 172.138C376.027 173.062 375.354 173.824 374.479 174.273C373.605 174.721 372.593 174.823 371.646 174.558C370.7 174.292 369.888 173.679 369.375 172.841" fill="#263238"/>
<path d="M336.125 149.342C336.115 149.408 336.115 149.476 336.125 149.542C336.125 149.672 336.125 149.872 336.125 150.132C336.238 150.875 336.471 151.594 336.815 152.262C337.359 153.322 338.139 154.242 339.095 154.952C340.357 155.914 341.899 156.437 343.485 156.442L343.315 156.192C342.948 157.163 342.973 158.239 343.385 159.192C343.824 160.191 344.407 161.121 345.115 161.952C345.45 162.429 345.836 162.868 346.265 163.262C346.772 163.647 347.367 163.901 347.995 164.002C348.632 164.124 349.288 164.089 349.908 163.901C350.529 163.713 351.094 163.377 351.555 162.922L351.155 162.782C351.249 163.919 351.581 165.024 352.128 166.024C352.676 167.025 353.428 167.9 354.335 168.592C355.333 169.408 356.567 169.882 357.855 169.942C359.064 169.944 360.264 169.741 361.405 169.342L361.125 169.202C361.627 170.547 362.455 171.746 363.535 172.692C364.027 173.159 364.617 173.512 365.263 173.723C365.908 173.934 366.592 173.998 367.265 173.912C368.421 173.723 369.495 173.2 370.357 172.407C371.219 171.615 371.83 170.587 372.115 169.452L371.865 169.552C372.975 170.22 374.284 170.478 375.565 170.282C376.523 170.168 377.438 169.825 378.235 169.282C378.734 168.939 379.168 168.508 379.515 168.012C379.64 167.843 379.741 167.658 379.815 167.462C379.364 168.118 378.795 168.685 378.135 169.132C377.352 169.636 376.462 169.951 375.535 170.052C374.317 170.208 373.082 169.943 372.035 169.302L371.845 169.172L371.785 169.402C371.504 170.46 370.921 171.414 370.108 172.147C369.295 172.88 368.287 173.361 367.205 173.532C366.59 173.605 365.967 173.539 365.38 173.34C364.794 173.141 364.259 172.814 363.815 172.382C362.801 171.485 362.024 170.352 361.555 169.082L361.485 168.872L361.275 168.932C360.182 169.311 359.032 169.504 357.875 169.502C356.684 169.451 355.543 169.012 354.625 168.252C353.771 167.597 353.063 166.772 352.547 165.828C352.03 164.885 351.716 163.844 351.625 162.772L351.575 162.252L351.215 162.632C350.603 163.221 349.803 163.577 348.955 163.638C348.107 163.698 347.265 163.459 346.575 162.962C346.171 162.59 345.806 162.178 345.485 161.732C344.798 160.934 344.229 160.041 343.795 159.082C343.597 158.657 343.486 158.196 343.469 157.727C343.452 157.258 343.529 156.79 343.695 156.352L343.795 156.102H343.515C342.002 156.116 340.525 155.638 339.305 154.742C338.368 154.071 337.593 153.2 337.035 152.192C336.566 151.303 336.257 150.338 336.125 149.342V149.342Z" fill="#455A64"/>
<path d="M389.073 313.071L403.513 327.001L398.843 300.391L428.143 291.131C428.143 291.131 435.923 327.641 437.283 336.281C439.703 351.781 436.723 373.811 422.283 375.361C406.663 377.031 394.863 361.621 387.353 351.511C381.583 343.741 372.273 330.151 372.273 330.151L389.073 313.091" fill="#E0E0E0"/>
<path d="M277.454 289.41C272.754 304.21 266.184 306.41 263.584 348.86C263.074 357.13 269.284 367.73 276.674 371.47C284.064 375.21 296.954 370.62 301.134 363.47L305.284 332.1L277.454 289.41Z" fill="#E0E0E0"/>
<path d="M296.88 351.352C296.032 349.225 295.071 347.145 294 345.121C292.768 343.185 291.432 341.315 290 339.521C290.572 339.897 291.081 340.359 291.51 340.892C293.743 343.326 295.421 346.216 296.43 349.361C296.685 349.997 296.837 350.668 296.88 351.352V351.352Z" fill="#263238"/>
<path d="M270.375 306.471C270.625 305.601 285.085 266.241 289.695 257.621C295.215 247.311 306.815 242.761 314.015 242.311C321.215 241.861 398.295 248.001 398.295 248.001C398.295 248.001 419.885 253.421 424.245 273.001C429.725 297.491 434.135 321.651 434.135 321.651L395.505 330.001L390.995 318.511L318.405 334.711L300.685 308.491L270.375 306.471Z" fill="#E0E0E0"/>
<path d="M403.839 398.11L401.999 332.5L403.429 250.25L373.289 237L369.909 224L334.769 240.61L327.409 232.48L324.329 241.64L316.629 244.16L301.479 274L300.819 326.4C300.819 326.4 297.149 388.16 299.319 404.61C299.319 404.61 304.999 414.03 322.459 414.45C357.859 415.3 403.839 398.07 403.839 398.07" fill="#E0E0E0"/>
<path d="M373.258 308.341C373.258 308.481 371.478 308.341 368.638 308.141L357.568 307.211L346.488 306.391C343.648 306.171 341.898 306.001 341.898 305.861C343.427 305.63 344.977 305.57 346.518 305.681C349.368 305.681 353.308 305.871 357.648 306.221C361.988 306.571 365.898 307.021 368.718 307.431C371.538 307.841 373.268 308.201 373.258 308.341Z" fill="white"/>
<path d="M372.766 313.732C372.766 313.872 370.986 313.732 368.146 313.532L357.076 312.612L345.996 311.782C343.156 311.562 341.406 311.402 341.406 311.252C342.935 311.021 344.484 310.96 346.026 311.072C348.876 311.072 352.816 311.272 357.156 311.612C361.496 311.952 365.406 312.412 368.226 312.822C369.769 312.955 371.291 313.261 372.766 313.732V313.732Z" fill="white"/>
<path d="M372.274 319.121C372.274 319.261 370.494 319.121 367.654 318.921L356.584 318.001L345.504 317.171C342.664 316.961 340.914 316.791 340.914 316.651C340.914 316.511 342.684 316.431 345.534 316.461C348.384 316.491 352.324 316.661 356.664 317.001C361.004 317.341 364.914 317.801 367.734 318.221C369.277 318.348 370.8 318.65 372.274 319.121Z" fill="white"/>
<path d="M371.786 324.512C371.786 324.652 370.006 324.512 367.166 324.312L356.096 323.392L344.996 322.562C342.156 322.352 340.406 322.182 340.406 322.042C340.406 321.902 342.176 321.822 345.026 321.862C347.876 321.902 351.816 322.052 356.156 322.392C360.496 322.732 364.406 323.192 367.226 323.612C368.776 323.737 370.306 324.039 371.786 324.512V324.512Z" fill="white"/>
<path d="M322.425 416.17C322.386 416.034 322.366 415.892 322.365 415.75C322.365 415.41 322.305 415 322.265 414.5C322.205 413.31 322.115 411.71 321.995 409.68C321.805 405.41 321.545 399.38 321.215 391.97C320.655 376.97 319.945 356.32 320.215 333.45C320.355 322.01 320.735 311.1 321.835 301.22C322.935 291.34 324.665 282.59 326.195 275.22C327.725 267.85 329.195 262.01 330.195 257.94C330.685 255.94 331.085 254.42 331.365 253.27C331.505 252.78 331.605 252.39 331.695 252.06C331.723 251.917 331.774 251.778 331.845 251.65C331.857 251.793 331.857 251.937 331.845 252.08C331.775 252.42 331.695 252.82 331.605 253.31C331.355 254.47 331.015 256.04 330.605 258.03C329.725 262.12 328.405 268.03 326.935 275.36C325.465 282.69 323.865 291.47 322.785 301.29C321.705 311.11 321.385 322.01 321.245 333.42C321.005 356.26 321.615 376.94 322.005 391.91C322.205 399.33 322.375 405.36 322.485 409.63C322.535 411.63 322.565 413.27 322.585 414.46V415.71C322.564 415.873 322.509 416.03 322.425 416.17V416.17Z" fill="#263238"/>
<path d="M345.075 287.501C345.742 287.476 346.41 287.496 347.075 287.561L353.015 287.921L374.685 289.401H375.095V289.811C374.345 299.741 373.455 311.621 372.485 324.461V324.691L372.305 324.821C371.305 325.561 370.195 326.301 369.065 327.031C367.101 328.317 365.068 329.496 362.975 330.561C360.932 331.696 358.686 332.419 356.365 332.691C354.087 332.757 351.831 332.234 349.815 331.171C347.923 330.19 346.145 329.003 344.515 327.631C343.725 326.971 342.955 326.301 342.225 325.631C341.816 325.285 341.476 324.864 341.225 324.391C340.973 323.929 340.778 323.439 340.645 322.931C340.227 321.057 340.049 319.139 340.115 317.221C340.212 313.832 340.516 310.452 341.025 307.101C341.925 300.961 343.025 296.101 343.755 292.691C344.135 291.001 344.465 289.691 344.695 288.821C344.792 288.365 344.933 287.92 345.115 287.491C345.079 287.953 345.006 288.411 344.895 288.861C344.705 289.861 344.445 291.151 344.135 292.771C343.485 296.161 342.535 301.081 341.735 307.201C341.272 310.515 341.008 313.855 340.945 317.201C340.895 319.04 341.08 320.878 341.495 322.671C341.694 323.556 342.175 324.352 342.865 324.941C343.585 325.611 344.345 326.261 345.135 326.941C346.713 328.261 348.434 329.402 350.265 330.341C352.133 331.325 354.225 331.808 356.335 331.741C358.518 331.48 360.629 330.801 362.555 329.741C364.619 328.694 366.622 327.532 368.555 326.261C369.665 325.541 370.765 324.801 371.755 324.081L371.545 324.451C372.545 311.621 373.545 299.741 374.335 289.821L374.715 290.261L353.315 288.381L347.315 287.811L345.715 287.631C345.497 287.615 345.282 287.571 345.075 287.501V287.501Z" fill="#263238"/>
<path d="M369.909 224C369.909 224 365.979 225.14 355.909 230.52C346.029 235.79 334.789 240.61 334.789 240.61L335.649 256.48L372.999 237.71" fill="#E0E0E0"/>
<path d="M327.403 232.48L334.763 240.61L330.833 257.62L324.273 242.25" fill="#E0E0E0"/>
<path d="M374.471 298.791C374.471 299.071 367.421 298.741 358.771 298.071C350.121 297.401 343.121 296.621 343.141 296.351C343.161 296.081 350.191 296.351 358.841 297.071C367.491 297.791 374.491 298.521 374.471 298.791Z" fill="#263238"/>
<g opacity="0.3">
<path d="M341.641 324.311C343.331 327.101 344.911 330.921 347.221 333.221C349.468 335.626 352.507 337.142 355.781 337.491C358.672 337.542 361.509 336.697 363.901 335.071C367.831 332.611 370.251 328.741 372.001 324.451C372.251 324.131 366.381 328.051 363.191 329.751C360.484 331.365 357.321 332.044 354.191 331.681C349.471 331.301 345.241 327.411 341.661 324.311" fill="black"/>
</g>
<g opacity="0.3">
<path d="M334.636 242.372C334.306 242.612 332.266 262.002 332.266 262.002L369.746 239.352L335.626 256.482L334.636 242.372Z" fill="black"/>
</g>
<path d="M328.224 261.281C322.002 288.206 317.81 315.559 315.684 343.111C314.244 362.231 313.164 387.571 313.164 387.571L321.694 398.131L334.764 386.561C334.764 386.561 334.204 332.741 334.884 314.721C335.444 299.891 333.104 262.061 333.104 262.061L328.224 261.281Z" fill="#FF725E"/>
<path d="M394.484 285.211C394.642 285.711 394.759 286.222 394.834 286.741C395.024 287.831 395.284 289.251 395.594 290.951C396.224 294.601 397.054 299.471 397.984 304.851C398.914 310.231 399.734 315.211 400.264 318.781C400.534 320.561 400.734 322.011 400.864 323.011C400.956 323.529 401.006 324.054 401.014 324.581C400.85 324.08 400.733 323.564 400.664 323.041C400.464 321.961 400.214 320.541 399.904 318.841C399.264 315.191 398.414 310.321 397.464 304.941C396.514 299.561 395.764 294.581 395.234 291.011C394.984 289.291 394.784 287.871 394.634 286.781C394.537 286.263 394.486 285.738 394.484 285.211V285.211Z" fill="#263238"/>
<path d="M405.628 252.551C405.688 252.621 404.628 253.461 403.098 255.021C399.115 259.112 396.346 264.229 395.098 269.801C394.638 271.931 394.528 273.281 394.438 273.281C394.385 272.95 394.385 272.612 394.438 272.281C394.484 271.411 394.587 270.546 394.748 269.691C395.272 266.853 396.233 264.113 397.598 261.571C398.96 259.028 400.715 256.716 402.798 254.721C403.425 254.112 404.093 253.547 404.798 253.031C405.05 252.832 405.33 252.67 405.628 252.551V252.551Z" fill="#263238"/>
<path d="M334.887 248.201L331.537 246.891L328.367 252.341L327.797 261.281L332.267 262.001L335.627 256.481L334.887 248.201Z" fill="#FF725E"/>
<path d="M298.69 274.801C298.83 274.801 298.95 296.801 298.95 324.001C298.95 351.201 298.83 373.211 298.69 373.211C298.55 373.211 298.43 351.211 298.43 324.001C298.43 296.791 298.54 274.801 298.69 274.801Z" fill="#263238"/>
<path d="M335.131 240.471C335.191 240.521 334.401 241.721 333.221 243.711C331.666 246.304 330.244 248.974 328.961 251.711L328.611 252.471L328.371 252.981L328.131 252.481C326.909 249.913 325.866 247.263 325.011 244.551C324.681 243.551 324.451 242.681 324.311 242.101C324.202 241.806 324.145 241.495 324.141 241.181C324.211 241.181 324.611 242.421 325.341 244.441C326.071 246.461 327.161 249.241 328.601 252.251H328.131L328.491 251.481C329.777 248.717 331.251 246.044 332.901 243.481C333.541 242.481 334.081 241.741 334.471 241.221C334.655 240.942 334.877 240.689 335.131 240.471Z" fill="#263238"/>
<path d="M373.285 237C373.123 237.122 372.949 237.225 372.765 237.31L371.255 238.1L365.665 241C360.955 243.45 354.495 246.94 347.345 250.76C342.985 253.08 338.865 255.23 335.275 257.03L334.945 257.2V256.83C334.945 252.17 334.865 248.25 334.835 245.41C334.835 244.08 334.835 243.01 334.835 242.2C334.817 241.816 334.834 241.431 334.885 241.05C334.946 241.427 334.976 241.808 334.975 242.19C334.975 243 335.045 244.08 335.095 245.41C335.175 248.25 335.275 252.17 335.395 256.82L335.065 256.62C338.635 254.79 342.745 252.62 347.065 250.3C354.215 246.48 360.705 243.04 365.465 240.67C367.845 239.48 369.785 238.55 371.135 237.92L372.695 237.22C372.883 237.127 373.081 237.053 373.285 237V237Z" fill="#263238"/>
<path d="M303.206 249.21C303.276 249.21 302.696 250.21 301.936 251.95C300.954 254.159 300.232 256.474 299.786 258.85C299.364 261.229 299.213 263.648 299.336 266.06C299.446 267.91 299.636 269.06 299.556 269.06C299.433 268.812 299.352 268.545 299.316 268.27C299.16 267.544 299.047 266.81 298.976 266.07C298.728 263.625 298.829 261.157 299.276 258.74C299.719 256.309 300.504 253.952 301.606 251.74C301.929 251.073 302.296 250.428 302.706 249.81C302.996 249.42 303.176 249.19 303.206 249.21Z" fill="#263238"/>
<path d="M331.448 262.571C331.368 262.701 330.518 262.301 329.548 261.681C328.578 261.061 327.848 260.471 327.928 260.351C328.008 260.231 328.858 260.631 329.828 261.241C330.798 261.851 331.528 262.451 331.448 262.571Z" fill="#263238"/>
<path d="M333.054 260.391C332.139 258.964 331.374 257.446 330.774 255.861C330.017 254.35 329.418 252.765 328.984 251.131C329.894 252.559 330.655 254.077 331.254 255.661C332.012 257.173 332.615 258.758 333.054 260.391V260.391Z" fill="#263238"/>
<path d="M426.86 350.601C426.801 350.533 426.753 350.455 426.72 350.371C426.63 350.201 426.52 349.971 426.37 349.691C426.22 349.411 426.03 349.011 425.81 348.581C425.59 348.151 425.22 347.681 424.86 347.151C422.659 344.174 420.145 341.442 417.36 339.001C413.86 335.791 409.43 332.171 404.44 328.001C401.96 325.911 399.32 323.731 396.68 321.291C393.877 318.795 391.269 316.087 388.88 313.191H389.26L374.21 329.001C373.52 329.721 372.83 330.431 372.21 331.101V330.771C377.9 339.091 383.08 347.141 388.52 353.891C391.075 357.093 393.81 360.148 396.71 363.041C399.184 365.614 401.859 367.985 404.71 370.131C409.91 374.061 415.13 375.741 418.76 375.651C419.22 375.651 419.65 375.651 420.05 375.651L421.16 375.531L422.16 375.431L422.94 375.251L424 375.021L424.36 374.961C424.247 375.01 424.13 375.046 424.01 375.071L422.96 375.351L422.18 375.551L421.18 375.681L420.06 375.821C419.65 375.821 419.22 375.821 418.76 375.821C415.09 375.981 409.76 374.311 404.49 370.391C401.64 368.247 398.965 365.879 396.49 363.311C393.57 360.419 390.816 357.364 388.24 354.161C382.76 347.401 377.56 339.341 371.87 331.031L371.75 330.861L371.9 330.711L373.9 328.611L388.9 312.901L389.1 312.691L389.28 312.921C391.647 315.805 394.227 318.506 397 321.001C399.63 323.431 402.26 325.631 404.73 327.721C409.73 331.871 414.11 335.531 417.58 338.781C420.363 341.254 422.856 344.035 425.01 347.071C425.36 347.611 425.66 348.071 425.93 348.521L426.46 349.671L426.77 350.371C426.804 350.447 426.834 350.523 426.86 350.601V350.601Z" fill="#263238"/>
<g opacity="0.3">
<path d="M354.223 339.561C354.124 338.711 353.71 337.93 353.063 337.371C351.823 336.561 350.263 337.631 348.993 338.371C345.643 340.371 341.503 340.301 337.603 340.131C325.852 339.742 314.137 338.63 302.523 336.801C296.853 335.851 291.123 334.611 286.053 331.891C280.983 329.171 276.553 324.801 274.923 319.281L272.203 317.811C274.313 322.301 274.093 335.001 274.843 339.891C275.593 344.781 277.773 348.281 282.483 349.801C284.415 350.296 286.421 350.438 288.403 350.221C307.733 349.221 327.233 350.131 346.563 349.221C349.333 349.081 352.563 348.701 354.013 346.371C355.263 344.381 354.763 341.821 354.223 339.561Z" fill="black"/>
</g>
<path d="M366.428 295.682C366.428 295.682 357.268 285.202 355.628 286.362C353.988 287.522 351.628 288.152 353.898 292.362C356.168 296.572 359.998 298.992 360.718 302.602C361.438 306.212 360.628 314.912 364.658 317.862C368.688 320.812 374.298 328.472 374.298 328.472L388.298 313.872L382.758 309.702C382.758 309.702 386.108 301.342 386.078 296.972C386.048 292.602 383.078 287.142 383.078 287.142C382.718 284.969 381.666 282.97 380.078 281.442C379.826 279.564 379.455 277.703 378.968 275.872C378.218 273.102 368.178 263.422 368.178 263.422C367.269 264.061 366.643 265.027 366.432 266.119C366.221 267.21 366.442 268.34 367.048 269.272C368.425 271.505 369.959 273.637 371.638 275.652L362.468 274.552C362.309 275.195 362.284 275.864 362.396 276.517C362.507 277.17 362.752 277.793 363.115 278.347C363.479 278.901 363.952 279.374 364.507 279.736C365.062 280.098 365.685 280.342 366.338 280.452C371.388 281.742 372.578 283.592 372.578 283.592L366.328 285.662C366.328 285.662 366.618 289.352 369.328 289.442L372.058 289.522L366.428 295.682Z" fill="#937263"/>
<path d="M368.809 289.411L374.869 289.211H374.999L375.059 289.281C376.261 290.658 377.088 292.321 377.459 294.111C377.785 296.304 377.347 298.543 376.219 300.451C374.893 302.378 373.277 304.088 371.429 305.521C369.98 306.695 368.762 308.13 367.839 309.751C367.255 310.858 366.979 312.101 367.039 313.351C367.099 314.241 367.319 314.701 367.269 314.721C367.219 314.741 367.199 314.611 367.099 314.391C366.97 314.07 366.883 313.734 366.839 313.391C366.694 312.093 366.927 310.78 367.509 309.611C368.409 307.917 369.632 306.415 371.109 305.191C372.897 303.76 374.467 302.076 375.769 300.191C376.835 298.384 377.262 296.27 376.979 294.191C376.642 292.476 375.879 290.873 374.759 289.531L374.919 289.601C371.139 289.631 368.799 289.551 368.809 289.411Z" fill="#5E483F"/>
<path d="M381.589 287.001C381.509 287.001 381.249 286.51 380.659 285.8C379.868 284.894 378.823 284.246 377.659 283.941C376.49 283.648 375.283 283.533 374.079 283.601C373.568 283.669 373.05 283.669 372.539 283.601C373.013 283.38 373.526 283.254 374.049 283.231C375.301 283.052 376.575 283.123 377.799 283.441C378.482 283.635 379.127 283.943 379.709 284.351C380.176 284.69 380.581 285.106 380.909 285.58C381.262 285.982 381.497 286.474 381.589 287.001V287.001Z" fill="#5E483F"/>
<path d="M379.088 280.13C378.978 280.24 377.618 278.87 375.598 277.69C373.578 276.51 371.718 275.97 371.758 275.82C373.205 276.016 374.598 276.498 375.857 277.238C377.115 277.978 378.214 278.961 379.088 280.13Z" fill="#5E483F"/>
<path d="M267.129 294.002L279.179 339.522C279.504 340.747 280.23 341.828 281.242 342.591C282.253 343.354 283.492 343.756 284.759 343.732L347.149 342.502C347.981 342.486 348.8 342.286 349.546 341.917C350.293 341.549 350.949 341.02 351.467 340.368C351.986 339.717 352.354 338.959 352.547 338.149C352.739 337.339 352.75 336.497 352.579 335.682L343.389 292.082C343.121 290.812 342.424 289.672 341.415 288.855C340.406 288.037 339.147 287.591 337.849 287.592H272.069C271.287 287.592 270.516 287.772 269.815 288.117C269.113 288.462 268.501 288.963 268.023 289.583C267.546 290.202 267.218 290.922 267.062 291.688C266.907 292.454 266.93 293.246 267.129 294.002V294.002Z" fill="#263238"/>
<path d="M261.887 304.272C261.252 303.467 260.906 302.472 260.906 301.447C260.906 300.422 261.252 299.426 261.887 298.622C262.54 297.835 263.357 297.201 264.281 296.764C265.206 296.327 266.214 296.097 267.237 296.092C269.3 296.099 271.34 296.521 273.237 297.332C275.59 298.234 277.851 299.363 279.987 300.702C281.497 301.652 283.057 302.882 283.347 304.632C283.637 306.382 281.737 308.392 280.187 307.512C281.272 307.97 282.233 308.68 282.991 309.582C283.749 310.484 284.282 311.554 284.547 312.702C284.877 314.932 283.687 316.122 281.547 316.762C282.341 317.095 282.977 317.722 283.321 318.511C283.666 319.301 283.693 320.193 283.397 321.002C282.607 322.672 280.307 323.132 278.587 322.472C276.917 321.664 275.474 320.455 274.387 318.952C275.619 321.082 276.045 323.584 275.587 326.002C273.218 325.153 271.127 323.671 269.54 321.718C267.954 319.765 266.932 317.414 266.587 314.922C265.442 314.012 264.645 312.737 264.328 311.31C264.012 309.883 264.195 308.39 264.847 307.082C262.937 306.492 260.767 303.562 260.917 301.562" fill="#937263"/>
<path d="M281.427 316.78C280.701 316.311 280.013 315.786 279.367 315.21C277.793 313.896 275.945 312.949 273.957 312.44C272.871 312.2 271.744 312.2 270.658 312.44C269.777 312.66 268.957 313.073 268.258 313.65C267.626 314.225 267.096 314.901 266.688 315.65C266.699 315.409 266.764 315.174 266.878 314.96C267.144 314.366 267.533 313.835 268.017 313.4C268.734 312.742 269.598 312.265 270.538 312.01C271.693 311.712 272.904 311.695 274.068 311.96C276.134 312.478 278.037 313.51 279.598 314.96C280.284 315.485 280.899 316.097 281.427 316.78Z" fill="#5E483F"/>
<path d="M280.897 307.73C280.031 307.494 279.196 307.159 278.407 306.73C277.543 306.294 276.655 305.907 275.747 305.57C274.633 305.181 273.489 304.884 272.327 304.68C271.183 304.47 270.011 304.47 268.867 304.68C267.938 304.852 267.059 305.231 266.297 305.79C265.608 306.336 265.036 307.017 264.617 307.79C264.617 307.79 264.617 307.51 264.817 307.08C265.107 306.461 265.534 305.917 266.067 305.49C266.849 304.848 267.776 304.405 268.767 304.2C269.972 303.965 271.212 303.965 272.417 304.2C273.61 304.409 274.782 304.727 275.917 305.15C276.829 305.515 277.714 305.943 278.567 306.43C279.376 306.804 280.154 307.239 280.897 307.73V307.73Z" fill="#5E483F"/>
<g opacity="0.3">
<path d="M402.826 370.681C402.326 368.881 402.976 368.871 401.546 367.681C396.268 363.07 391.43 357.978 387.096 352.471C382.656 346.911 375.726 335.631 375.726 335.631L374.086 335.131C375.506 343.261 379.596 350.631 383.626 357.841C385.673 361.844 388.143 365.616 390.996 369.091C393.996 372.461 397.856 375.231 402.276 376.091C402.721 375.27 402.999 374.37 403.094 373.441C403.188 372.512 403.097 371.574 402.826 370.681Z" fill="black"/>
</g>
<path d="M93.6119 264.811C93.6644 265.141 93.6879 265.476 93.6819 265.811C93.6819 266.544 93.7019 267.504 93.7419 268.691C93.7419 269.321 93.7419 270.021 93.7419 270.771C93.7419 271.521 93.8619 272.351 93.9219 273.241C94.0719 275.001 94.1519 277.021 94.4919 279.241C94.6419 280.351 94.7919 281.511 94.9519 282.721C95.1119 283.931 95.3719 285.171 95.5919 286.461C96.0119 289.061 96.6519 291.791 97.2719 294.681C98.6119 300.431 100.272 306.681 102.082 313.311C103.892 319.941 105.492 326.211 106.742 332.001C107.312 334.921 107.912 337.671 108.262 340.291C108.452 341.591 108.672 342.851 108.812 344.061C108.952 345.271 109.052 346.451 109.162 347.571C109.432 349.791 109.432 351.831 109.502 353.571C109.502 354.461 109.572 355.291 109.562 356.051C109.552 356.811 109.502 357.501 109.472 358.141C109.412 359.334 109.362 360.294 109.322 361.021C109.312 361.356 109.279 361.69 109.222 362.021C109.188 361.688 109.188 361.353 109.222 361.021C109.222 360.291 109.222 359.331 109.222 358.141C109.222 357.511 109.222 356.821 109.222 356.061C109.222 355.301 109.142 354.481 109.102 353.591C108.992 351.821 108.962 349.801 108.652 347.591C108.532 346.477 108.402 345.317 108.262 344.111C108.112 342.901 107.872 341.661 107.672 340.361C107.302 337.761 106.672 335.021 106.102 332.121C104.812 326.361 103.182 320.061 101.392 313.471C99.6019 306.881 98.0019 300.601 96.6519 294.821C96.0519 291.921 95.4219 289.171 95.0319 286.561C94.8219 285.261 94.5819 284.011 94.4219 282.801C94.2619 281.591 94.1419 280.421 94.0119 279.301C93.6919 277.081 93.6519 275.051 93.5419 273.301C93.5419 272.411 93.4319 271.581 93.4219 270.821V268.731C93.4219 267.531 93.4719 266.581 93.4919 265.851C93.4954 265.501 93.5356 265.152 93.6119 264.811Z" fill="#263238"/>
<path d="M231.125 312.73L245.275 262.4L262.685 265.57C262.685 265.57 258.515 270.32 258.515 274.69C258.515 279.06 255.615 320.25 255.615 320.25C255.615 320.25 238.305 325.33 231.305 313.61" fill="#FFBE9D"/>
<path d="M245.271 262.401C245.271 262.401 243.331 257.151 244.861 252.611C246.391 248.071 251.621 244.551 251.291 241.821C250.961 239.091 253.741 232.561 256.291 233.071C258.841 233.581 260.631 236.071 258.521 240.251C257.167 242.998 256.05 245.855 255.181 248.791C255.181 248.791 281.181 235.241 283.311 234.951C285.441 234.661 287.561 234.361 288.111 236.061C288.661 237.761 283.471 239.921 283.471 239.921L276.471 249.011C275.31 252.478 273.678 255.769 271.621 258.791C268.621 262.851 262.711 265.571 262.711 265.571L255.131 274.691C255.131 274.691 243.601 270.771 245.271 262.401Z" fill="#FFBE9D"/>
<path d="M283.004 240.28C283.004 240.28 282.774 240.13 282.364 239.93C281.784 239.67 281.139 239.593 280.514 239.71C278.443 240.318 276.614 241.56 275.284 243.26C273.894 244.958 272.715 246.818 271.774 248.8C271.42 249.656 270.964 250.465 270.414 251.21C270.592 250.297 270.895 249.412 271.314 248.58C272.15 246.484 273.308 244.531 274.744 242.79C276.484 240.79 278.624 239.41 280.454 239.21C281.173 239.122 281.899 239.292 282.504 239.69C282.904 240 283.004 240.26 283.004 240.28Z" fill="#EB996E"/>
<path d="M273.454 243.692C273.554 243.862 271.874 245.002 269.714 246.242C267.554 247.482 265.714 248.352 265.614 248.182C265.514 248.012 267.184 246.862 269.354 245.622C271.524 244.382 273.354 243.512 273.454 243.692Z" fill="#EB996E"/>
<path d="M259.675 249.53C259.585 249.36 261.675 248.67 264.045 249.53C266.415 250.39 267.675 252.12 267.505 252.2C267.335 252.28 266.015 250.92 263.815 250.2C261.615 249.48 259.705 249.74 259.675 249.53Z" fill="#EB996E"/>
<path d="M205.343 315.642C205.213 316.392 225.043 343.152 231.473 348.172C247.253 360.482 258.853 343.832 257.693 329.742C256.533 315.652 215.543 249.432 215.543 249.432L202.273 280.702L205.343 315.642Z" fill="#FF725E"/>
<path d="M101.562 242.341L137.622 233.871L141.023 228.121L177.193 228.701L185.592 237.691L209.693 249.531L189.463 334.461L121.583 337.951L101.562 242.341Z" fill="#263238"/>
<path d="M142.819 227L129.329 235.37L100.999 241.54L109.999 355.36C109.999 355.36 83.4194 407.09 79.3594 452H150.899C150.899 452 157.669 394.87 156.959 372C156.249 349.13 156.689 309 156.689 309L138.229 240L142.819 227Z" fill="#FF725E"/>
<path d="M179.708 235.43L177.188 227.66L186.608 237.14C186.608 237.14 192.188 239.08 193.388 239.52C202.758 243.02 215.538 249.43 215.538 249.43L199.538 350.6C199.538 350.6 220.998 407.72 219.248 452C219.248 452 170.248 452.81 150.898 452L156.128 306.75C156.128 306.75 173.128 286.68 175.958 266.48C178.788 246.28 179.708 235.43 179.708 235.43Z" fill="#FF725E"/>
<path d="M155.258 322.751C155.03 322.563 154.819 322.355 154.628 322.131L152.918 320.281L146.608 313.281L125.298 289.281L125.158 289.131L125.218 288.941C126.298 285.031 127.438 280.941 128.608 276.731C129.108 274.911 129.608 273.111 130.108 271.331L130.448 271.801L116.308 271.261H115.828L115.998 270.811C119.828 260.481 123.118 251.641 125.468 245.301C126.638 242.221 127.578 239.761 128.258 237.991C128.568 237.191 128.828 236.551 129.018 236.051C129.096 235.82 129.2 235.598 129.328 235.391C129.282 235.629 129.215 235.864 129.128 236.091L128.468 238.091L125.878 245.471C123.578 251.841 120.378 260.721 116.648 271.081L116.338 270.611L130.478 271.111H130.948L130.818 271.561C130.328 273.331 129.818 275.141 129.318 276.961C128.148 281.161 127.008 285.261 125.918 289.161L125.838 288.831L146.998 313.001C149.568 316.001 151.648 318.411 153.138 320.131L154.758 322.071C154.948 322.279 155.116 322.507 155.258 322.751Z" fill="#263238"/>
<path d="M151.003 452.002C150.803 452.002 151.743 419.212 153.113 378.792C154.483 338.372 155.753 305.592 155.953 305.602C156.153 305.612 155.213 338.382 153.853 378.812C152.493 419.242 151.213 452.002 151.003 452.002Z" fill="#263238"/>
<path d="M186.518 236.762C186.593 237.027 186.646 237.298 186.678 237.572C186.768 238.172 186.878 238.952 187.018 239.932C187.298 242.062 187.688 245.032 188.178 248.712C189.108 256.272 190.398 266.712 191.878 278.712L191.938 279.192L191.458 279.112L183.618 277.762L184.028 277.242L185.518 280.582L188.458 287.162L188.548 287.372L188.398 287.552L166.668 312.752L160.158 320.172C159.428 320.992 158.838 321.652 158.378 322.172C157.918 322.692 155.278 324.642 155.258 324.632C155.238 324.622 157.898 322.562 158.258 322.082L159.998 320.002L166.338 312.432L187.878 287.072L187.818 287.462L184.878 280.892L183.388 277.542L183.098 276.912L183.788 277.032L191.628 278.392L191.198 278.792C189.818 266.792 188.618 256.312 187.748 248.792C187.358 245.092 187.038 242.112 186.808 239.972C186.718 238.972 186.648 238.212 186.588 237.612C186.53 237.332 186.506 237.047 186.518 236.762V236.762Z" fill="#263238"/>
<path d="M146.5 405.75C145.06 403.84 142.15 402.66 140.66 404.53H140.71C139.972 405.105 139.428 405.893 139.151 406.787C138.874 407.681 138.877 408.638 139.16 409.53C139.383 410.078 139.714 410.576 140.132 410.994C140.55 411.413 141.048 411.743 141.596 411.966C142.144 412.188 142.731 412.299 143.323 412.291C143.914 412.284 144.498 412.157 145.04 411.92C145.566 411.634 146.025 411.24 146.387 410.765C146.75 410.289 147.009 409.743 147.147 409.161C147.285 408.579 147.298 407.974 147.187 407.387C147.075 406.799 146.842 406.241 146.5 405.75V405.75Z" fill="#263238"/>
<path d="M148.73 367.282C147.29 365.382 144.37 364.202 142.88 366.072H142.94C142.2 366.645 141.654 367.432 141.376 368.327C141.099 369.222 141.104 370.18 141.39 371.072C141.612 371.619 141.941 372.117 142.359 372.535C142.776 372.953 143.273 373.284 143.82 373.506C144.368 373.729 144.954 373.84 145.545 373.832C146.136 373.825 146.719 373.699 147.26 373.462C147.787 373.175 148.247 372.781 148.611 372.305C148.975 371.829 149.234 371.282 149.373 370.699C149.512 370.116 149.526 369.511 149.415 368.922C149.305 368.333 149.071 367.774 148.73 367.282V367.282Z" fill="#263238"/>
<g opacity="0.3">
<path d="M116.32 270.921C116.56 271.691 121.64 272.471 122.53 274.611C123.42 276.751 122.98 279.201 122.35 281.441C121.72 283.681 120.9 285.921 121.06 288.241C121.34 292.391 124.61 295.631 127.68 298.451C136.24 306.321 146.68 314.871 155.26 322.751C147.67 313.071 137.78 303.051 129.39 294.061C128.064 292.822 127.038 291.297 126.39 289.601C125.73 287.411 126.39 285.071 127.03 282.891L129.61 274.201C129.83 273.451 130.31 272.201 130.42 271.791C129.374 271.569 128.31 271.439 127.24 271.401C127.24 271.401 119.69 270.601 116.37 270.921" fill="black"/>
</g>
<path d="M214.205 266.561C214.216 266.849 214.189 267.139 214.125 267.421C214.025 268.061 213.895 268.871 213.745 269.881C213.365 272.101 212.855 275.161 212.235 278.881C210.945 286.581 209.235 297.051 207.235 308.631C205.235 320.211 203.445 330.751 202.035 338.341C201.325 342.141 200.735 345.201 200.295 347.341C200.088 348.334 199.918 349.144 199.785 349.771C199.745 350.059 199.667 350.342 199.555 350.611C199.557 350.318 199.587 350.027 199.645 349.741C199.745 349.111 199.865 348.291 200.025 347.291C200.395 345.071 200.905 342.011 201.535 338.291L206.535 308.551C208.485 296.931 210.325 286.431 211.735 278.841C212.445 275.041 213.035 271.971 213.465 269.841C213.675 268.841 213.845 268.041 213.985 267.411C214.027 267.12 214.1 266.835 214.205 266.561V266.561Z" fill="#263238"/>
<path d="M101.501 241.432C96.1771 243.228 91.6029 246.746 88.5013 251.432C82.5013 260.292 72.1413 346.242 72.5013 352.202C72.8613 358.162 78.1013 373.282 92.0013 371.292C105.901 369.302 142.881 343.472 142.881 343.472L130.161 318.832L103.161 331.552L106.831 289.002L101.501 241.432Z" fill="#FF725E"/>
<g opacity="0.3">
<path d="M183.463 363.001C182.583 359.131 177.793 357.891 173.863 357.391L109.763 349.211L104.203 367.211C104.773 371.341 105.353 375.551 107.113 379.331C108.873 383.111 112.003 386.481 116.053 387.471C119.633 388.341 123.373 387.291 126.903 386.241L174.043 372.241C176.435 371.694 178.701 370.7 180.723 369.311C182.643 367.921 184.003 365.421 183.463 363.001Z" fill="black"/>
</g>
<g opacity="0.3">
<path d="M104.541 288.662C103.771 285.662 102.601 282.162 99.6708 281.012C96.5508 279.792 92.9308 282.062 91.5408 285.112C90.1508 288.162 90.4508 291.692 90.9408 295.002C92.6408 306.522 96.7008 319.302 100.461 330.322L113.611 325.492C111.871 313.292 107.571 300.612 104.541 288.662Z" fill="black"/>
</g>
<path d="M240.37 278.172L227.43 317.172L244.23 329.372L257.77 334.812C257.77 334.742 260.3 315.332 259.66 322.112L262.66 282.062L240.37 278.172Z" fill="#FF725E"/>
<path d="M240.37 278.172C240.319 278.757 240.215 279.336 240.06 279.902C239.84 281.012 239.46 282.602 238.95 284.552C237.95 288.472 236.23 293.792 234.15 299.552C232.07 305.312 230.31 310.632 229.21 314.552C228.66 316.492 228.21 318.062 227.94 319.162C227.82 319.736 227.649 320.298 227.43 320.842C227.493 320.259 227.597 319.681 227.74 319.112C227.97 318.002 228.35 316.412 228.86 314.452C229.86 310.542 231.58 305.222 233.66 299.452C235.74 293.682 237.49 288.372 238.6 284.452C239.15 282.512 239.6 280.932 239.87 279.842C239.996 279.274 240.163 278.716 240.37 278.172V278.172Z" fill="#263238"/>
<path d="M236.152 336.911C235.536 336.286 234.996 335.592 234.542 334.841C233.352 333.1 232.26 331.294 231.273 329.431C230.288 327.57 229.403 325.657 228.622 323.701C228.264 322.902 227.992 322.068 227.812 321.211C228.263 321.956 228.647 322.739 228.963 323.551C229.633 325.011 230.582 327.021 231.732 329.191C232.882 331.361 234.013 333.271 234.853 334.641C235.346 335.361 235.781 336.121 236.152 336.911Z" fill="#263238"/>
<path d="M101.504 329.001C100.104 328.674 98.7359 328.226 97.4141 327.661C96.0375 327.268 94.6988 326.753 93.4141 326.121C94.8591 326.257 96.2752 326.611 97.6141 327.171C98.9957 327.581 100.307 328.198 101.504 329.001V329.001Z" fill="#263238"/>
<path d="M105.574 273.7C105.396 273.437 105.261 273.146 105.174 272.84C104.944 272.27 104.644 271.44 104.314 270.39C102.605 264.93 101.735 259.242 101.734 253.52C101.734 252.43 101.734 251.52 101.814 250.93C101.81 250.612 101.854 250.295 101.944 249.99C102.024 249.99 102.014 251.34 102.104 253.52C102.311 259.191 103.174 264.818 104.674 270.29C105.234 272.39 105.654 273.68 105.574 273.7Z" fill="#263238"/>
<g opacity="0.3">
<path d="M188.17 281.641L192.9 281.961C191.882 280.623 190.506 279.6 188.931 279.009C187.357 278.418 185.647 278.284 184 278.621C184.11 281.471 187.08 283.691 186.9 286.541C186.631 288.054 185.909 289.449 184.83 290.541L176 301.411L176.62 306.851C180.23 301.701 183.87 296.851 187.48 291.751C188.687 290.253 189.569 288.519 190.07 286.661C190.47 284.771 189.85 282.561 188.17 281.641Z" fill="black"/>
</g>
<g opacity="0.3">
<path d="M235.114 296.091L236.544 291.881C234.134 299.111 225.954 304.661 223.264 311.791C222.173 314.814 221.876 318.067 222.401 321.237C222.926 324.408 224.256 327.391 226.264 329.901C227.194 331.041 228.794 332.141 230.014 331.311C230.473 331.041 230.833 330.631 231.042 330.142C231.251 329.652 231.297 329.109 231.174 328.591C230.794 327.591 227.984 321.761 227.484 320.841C227.114 320.141 227.954 318.131 229.074 314.371C231.004 307.731 233.134 302.721 235.114 296.091Z" fill="black"/>
</g>
<path d="M131.004 181.75C130.858 188.173 132.075 194.554 134.576 200.471C137.078 206.389 140.805 211.709 145.514 216.08L152.004 197.29" fill="#263238"/>
<path d="M179.861 144.381C174.291 141.381 167.572 140.901 161.352 142.141C155.132 143.381 149.351 146.211 143.841 149.381C140.751 151.171 137.681 153.131 135.471 155.911C131.421 161.001 127.471 169.351 127.041 175.841C126.721 181.081 128.731 194.211 130.951 198.971C132.951 203.341 142.501 206.671 147.201 207.751L190.322 157.611C189.541 154.823 188.215 152.217 186.419 149.946C184.624 147.675 182.395 145.783 179.861 144.381V144.381Z" fill="#263238"/>
<path d="M187.29 151.141L177 149.291C182.65 162.751 184.18 193.521 187.41 207.751C191.22 202.221 200.07 185.381 199.6 178.691C199.13 172.001 199.57 150.001 187.29 151.141Z" fill="#263238"/>
<path d="M193.198 173.081C192.528 162.751 185.658 150.081 175.368 151.211L151.568 157.281C147.906 158.215 144.641 160.299 142.251 163.225C139.861 166.152 138.472 169.767 138.288 173.541C138.288 173.931 138.218 173.451 138.228 173.751L143.538 235.381L161.408 270.841L177.178 233.651C177.178 228.651 177.178 224.651 177.178 224.651C177.178 224.651 190.368 222.431 193.058 205.211C194.408 196.651 193.998 184.551 193.198 173.081Z" fill="#FFBE9D"/>
<path d="M189.051 186.081C189.059 186.658 188.84 187.215 188.442 187.632C188.044 188.049 187.497 188.293 186.921 188.311C186.639 188.333 186.356 188.298 186.088 188.209C185.82 188.12 185.572 187.978 185.36 187.791C185.147 187.605 184.974 187.378 184.851 187.124C184.727 186.87 184.656 186.593 184.641 186.311C184.633 185.736 184.85 185.181 185.246 184.764C185.642 184.347 186.186 184.102 186.761 184.081C187.043 184.058 187.328 184.092 187.597 184.181C187.866 184.269 188.115 184.411 188.328 184.597C188.542 184.784 188.716 185.011 188.84 185.266C188.964 185.521 189.036 185.798 189.051 186.081V186.081Z" fill="#263238"/>
<path d="M190.618 179.822C190.348 180.112 188.618 178.882 186.298 178.892C183.978 178.902 182.178 180.092 181.918 179.802C181.798 179.672 182.068 179.152 182.828 178.602C183.856 177.889 185.077 177.508 186.328 177.512C187.562 177.503 188.768 177.888 189.768 178.612C190.498 179.172 190.748 179.692 190.618 179.822Z" fill="#263238"/>
<path d="M168.441 186.081C168.45 186.658 168.231 187.215 167.833 187.632C167.434 188.049 166.888 188.293 166.311 188.311C166.03 188.333 165.747 188.298 165.478 188.209C165.21 188.12 164.963 187.978 164.75 187.791C164.538 187.605 164.365 187.378 164.242 187.124C164.118 186.87 164.047 186.593 164.031 186.311C164.023 185.736 164.241 185.181 164.637 184.764C165.033 184.347 165.577 184.102 166.151 184.081C166.434 184.058 166.718 184.092 166.988 184.181C167.257 184.269 167.506 184.411 167.719 184.597C167.933 184.784 168.106 185.011 168.231 185.266C168.355 185.521 168.426 185.798 168.441 186.081V186.081Z" fill="#263238"/>
<path d="M168.063 179.822C167.793 180.112 166.113 178.882 163.743 178.892C161.373 178.902 159.623 180.092 159.363 179.802C159.243 179.672 159.513 179.152 160.273 178.602C161.301 177.889 162.523 177.508 163.773 177.512C165.007 177.508 166.211 177.893 167.213 178.612C167.943 179.172 168.193 179.692 168.063 179.822Z" fill="#263238"/>
<path d="M175.492 198.48C175.492 198.34 176.952 198.08 179.342 197.77C179.952 197.71 180.522 197.59 180.622 197.17C180.678 196.546 180.538 195.92 180.222 195.38C179.642 193.913 179.038 192.373 178.412 190.76C175.912 184.19 174.092 178.76 174.412 178.69C174.732 178.62 176.922 183.84 179.412 190.41C180.022 192.03 180.592 193.57 181.142 195.05C181.526 195.781 181.639 196.624 181.462 197.43C181.373 197.645 181.237 197.836 181.064 197.99C180.891 198.145 180.685 198.257 180.462 198.32C180.135 198.407 179.799 198.454 179.462 198.46C178.144 198.635 176.81 198.642 175.492 198.48Z" fill="#263238"/>
<path d="M154.359 218.531C154.359 218.531 159.959 230.351 177.179 228.701V224.701C169.148 224.799 161.247 222.663 154.359 218.531V218.531Z" fill="#EB996E"/>
<path d="M167.312 171.24C167.082 171.88 164.712 171.58 161.922 171.93C159.132 172.28 156.922 173.03 156.512 172.45C156.352 172.18 156.742 171.57 157.652 170.94C158.864 170.172 160.234 169.69 161.66 169.529C163.085 169.368 164.529 169.532 165.882 170.01C166.902 170.42 167.412 170.93 167.312 171.24Z" fill="#263238"/>
<path d="M189.842 172.56C189.432 173.1 187.792 172.56 185.842 172.56C183.892 172.56 182.212 172.93 181.842 172.36C181.682 172.09 181.942 171.55 182.662 171.04C183.64 170.428 184.777 170.119 185.93 170.151C187.082 170.183 188.2 170.555 189.142 171.22C189.802 171.74 190.002 172.29 189.842 172.56Z" fill="#263238"/>
<path d="M188.533 157.361C187.923 156.098 186.975 155.028 185.794 154.27C184.613 153.513 183.245 153.098 181.843 153.071C179.029 153.069 176.273 153.874 173.903 155.391C163.653 161.311 158.383 175.621 148.253 181.751C145.763 183.261 142.523 181.881 140.403 183.881C138.283 185.881 136.913 189.061 138.083 191.731C136.634 189.929 135.452 187.929 134.573 185.791C134.136 184.718 133.935 183.563 133.984 182.406C134.032 181.248 134.328 180.114 134.853 179.081C135.733 177.561 137.273 176.401 137.703 174.701C138.073 173.201 137.483 171.641 137.553 170.101C137.721 168.534 138.259 167.029 139.123 165.711C143.123 158.711 148.553 152.341 155.583 148.401C160.166 145.747 165.387 144.396 170.683 144.491C176 144.613 181.098 146.635 185.053 150.191C187.323 152.311 189.703 154.491 188.533 157.361" fill="#263238"/>
<path d="M140.648 186.001C140.468 185.511 131.488 182.271 131.368 191.811C131.248 201.081 140.608 199.251 140.628 198.991C140.648 198.731 140.648 186.001 140.648 186.001Z" fill="#FFBE9D"/>
<path d="M137.803 195.462C137.803 195.462 137.643 195.572 137.363 195.692C136.978 195.846 136.548 195.846 136.163 195.692C135.163 195.322 134.373 193.762 134.343 192.082C134.326 191.289 134.487 190.504 134.813 189.782C134.903 189.492 135.062 189.229 135.276 189.015C135.491 188.801 135.754 188.642 136.043 188.552C136.236 188.49 136.445 188.502 136.629 188.585C136.814 188.668 136.961 188.816 137.043 189.002C137.163 189.262 137.103 189.442 137.153 189.462C137.203 189.482 137.353 189.312 137.283 188.922C137.235 188.692 137.107 188.487 136.923 188.342C136.67 188.147 136.35 188.061 136.033 188.102C135.651 188.171 135.293 188.338 134.995 188.587C134.697 188.836 134.469 189.158 134.333 189.522C133.93 190.321 133.727 191.206 133.743 192.102C133.793 193.962 134.743 195.722 136.063 196.102C136.311 196.179 136.573 196.198 136.83 196.158C137.086 196.118 137.33 196.02 137.543 195.872C137.783 195.682 137.833 195.482 137.803 195.462Z" fill="#EB996E"/>
<path d="M137 181.241C137.199 181.162 137.387 181.057 137.56 180.931C137.91 180.711 138.46 180.411 139.11 179.931C140.936 178.599 142.612 177.073 144.11 175.381C146.297 172.848 148.34 170.193 150.23 167.431C152.511 164.047 155.07 160.86 157.88 157.901C159.38 156.426 161.037 155.118 162.82 154.001C164.49 152.977 166.28 152.164 168.15 151.581C171.318 150.564 174.65 150.153 177.97 150.371C180.211 150.508 182.423 150.942 184.55 151.661C185.31 151.891 185.88 152.151 186.27 152.301C186.463 152.391 186.664 152.461 186.87 152.511C186.688 152.4 186.497 152.303 186.3 152.221C185.752 151.95 185.187 151.713 184.61 151.511C182.482 150.723 180.253 150.238 177.99 150.071C174.614 149.802 171.219 150.189 167.99 151.211C166.087 151.794 164.263 152.61 162.56 153.641C160.753 154.789 159.077 156.13 157.56 157.641C154.729 160.612 152.162 163.824 149.89 167.241C148.034 170.013 146.031 172.683 143.89 175.241C142.418 176.937 140.784 178.484 139.01 179.861C138.37 180.341 137.84 180.661 137.5 180.911C137.326 181.009 137.158 181.119 137 181.241Z" fill="#455A64"/>
<path d="M136.753 197.1C136.293 197.011 135.816 197.1 135.42 197.35C135.024 197.6 134.738 197.992 134.621 198.446C134.504 198.899 134.564 199.38 134.789 199.791C135.014 200.202 135.387 200.511 135.833 200.656C136.278 200.801 136.762 200.771 137.186 200.571C137.61 200.372 137.942 200.018 138.114 199.583C138.286 199.147 138.285 198.662 138.112 198.227C137.939 197.792 137.607 197.439 137.183 197.24" fill="white"/>
<path d="M137.181 197.24C137.58 197.557 137.87 197.99 138.011 198.48C138.077 198.734 138.079 199.001 138.016 199.256C137.953 199.51 137.828 199.746 137.651 199.94C137.444 200.184 137.17 200.362 136.862 200.45C136.555 200.538 136.228 200.533 135.923 200.436C135.618 200.338 135.349 200.153 135.149 199.903C134.949 199.653 134.828 199.349 134.801 199.03C134.768 198.769 134.8 198.504 134.896 198.259C134.993 198.015 135.149 197.798 135.351 197.63C135.751 197.31 136.241 197.125 136.751 197.1C136.751 197.1 136.601 197 136.311 197C136.048 197.003 135.789 197.061 135.548 197.168C135.308 197.275 135.092 197.431 134.914 197.625C134.736 197.819 134.6 198.047 134.514 198.295C134.427 198.544 134.392 198.808 134.411 199.07C134.441 199.467 134.589 199.846 134.836 200.158C135.083 200.471 135.417 200.702 135.796 200.824C136.175 200.945 136.582 200.95 136.964 200.839C137.346 200.728 137.686 200.506 137.941 200.2C138.153 199.957 138.297 199.663 138.36 199.348C138.423 199.032 138.403 198.705 138.301 198.4C138.18 197.998 137.93 197.647 137.591 197.4C137.351 197.24 137.191 197.21 137.181 197.24Z" fill="#263238"/>
<path d="M139.29 183.871C139.15 186.401 139.03 189.071 140.2 191.321C141.37 193.571 144.32 195.111 146.52 193.851C148.32 192.851 148.86 190.521 149.16 188.471C150.04 182.571 150.44 176.601 151.37 170.701L139.29 183.871Z" fill="#263238"/>
<path d="M169.652 203C169.201 203.587 168.899 204.274 168.772 205.003C168.644 205.731 168.695 206.48 168.92 207.185C169.145 207.889 169.538 208.529 170.064 209.049C170.59 209.569 171.234 209.954 171.942 210.17C172.503 210.36 173.111 210.36 173.672 210.17C174.123 209.916 174.519 209.574 174.835 209.163C175.152 208.752 175.382 208.282 175.512 207.78L176.512 205.38C176.606 205.257 176.662 205.11 176.675 204.955C176.688 204.801 176.656 204.646 176.583 204.509C176.511 204.373 176.4 204.259 176.265 204.183C176.13 204.107 175.976 204.072 175.822 204.08L169.872 202.65" fill="#EB996E"/>
<path d="M173.542 209.901C172.627 210.024 171.697 209.907 170.842 209.561C169.839 209.236 168.994 208.547 168.472 207.631C168.167 207.069 168.038 206.428 168.102 205.791C168.146 205.134 168.309 204.491 168.582 203.891C168.846 203.306 169.223 202.78 169.692 202.341L169.852 202.201L170.052 202.271C173.992 203.661 177.052 204.361 177.052 204.531C177.052 204.701 173.852 204.271 169.832 202.931L170.182 202.851C169.786 203.236 169.464 203.69 169.232 204.191C168.983 204.673 168.839 205.202 168.81 205.743C168.78 206.284 168.866 206.826 169.062 207.331C169.501 208.134 170.209 208.757 171.062 209.091C172.502 209.691 173.572 209.771 173.542 209.901Z" fill="#263238"/>
<path d="M186.24 153.002C186.24 153.052 185.43 152.842 183.94 152.802C181.839 152.763 179.751 153.144 177.8 153.922C176.45 154.446 175.163 155.117 173.96 155.922C172.565 156.838 171.229 157.84 169.96 158.922C167.052 161.396 164.447 164.205 162.2 167.292C161.02 168.952 159.98 170.652 158.85 172.222C157.783 173.76 156.534 175.164 155.13 176.402C152.728 178.441 150.101 180.199 147.3 181.642C144.93 182.902 142.94 183.772 141.58 184.382L140 185.002C139.818 185.09 139.627 185.157 139.43 185.202C139.595 185.083 139.773 184.983 139.96 184.902L141.5 184.142C142.84 183.472 144.8 182.552 147.13 181.262C149.882 179.79 152.465 178.019 154.83 175.982C156.193 174.755 157.408 173.372 158.45 171.862C159.56 170.312 160.6 168.602 161.79 166.932C164.055 163.808 166.699 160.976 169.66 158.502C170.931 157.422 172.267 156.42 173.66 155.502C174.915 154.688 176.256 154.018 177.66 153.502C179.657 152.735 181.793 152.394 183.93 152.502C184.505 152.535 185.077 152.616 185.64 152.742C185.853 152.795 186.055 152.883 186.24 153.002V153.002Z" fill="#455A64"/>
<path d="M139.003 178.14C138.751 178.354 138.476 178.538 138.183 178.69L135.833 180.07L135.043 180.53C134.737 180.71 134.396 180.822 134.043 180.86C133.822 180.882 133.601 180.829 133.413 180.71C133.312 180.643 133.229 180.552 133.17 180.446C133.111 180.34 133.078 180.222 133.073 180.1C133.095 179.674 133.249 179.265 133.513 178.93L136.233 174.57L136.603 174.91C135.696 175.576 134.681 176.08 133.603 176.4C132.526 176.716 131.404 176.848 130.283 176.79C129.997 176.783 129.714 176.732 129.443 176.64C129.284 176.596 129.136 176.516 129.012 176.407C128.887 176.298 128.788 176.163 128.723 176.01C128.671 175.854 128.658 175.688 128.686 175.525C128.714 175.363 128.782 175.21 128.883 175.08C129.036 174.87 129.21 174.675 129.403 174.5C130.628 173.312 131.691 171.967 132.563 170.5C133.327 169.125 133.996 167.698 134.563 166.23C134.52 166.654 134.422 167.071 134.273 167.47C133.915 168.585 133.446 169.66 132.873 170.68C132.024 172.2 130.967 173.593 129.733 174.82C129.383 175.15 129.043 175.53 129.183 175.82C129.323 176.11 129.813 176.25 130.303 176.26C132.448 176.372 134.566 175.744 136.303 174.48L137.403 173.67L136.663 174.82L133.883 179.15C133.673 179.409 133.538 179.72 133.493 180.05C133.493 180.32 133.723 180.47 134.023 180.45C134.619 180.331 135.186 180.096 135.693 179.76L138.113 178.52C138.394 178.359 138.692 178.232 139.003 178.14Z" fill="#455A64"/>
<path d="M92.8125 286.001L109.672 374.651C109.832 375.495 110.157 376.299 110.628 377.017C111.099 377.736 111.708 378.354 112.419 378.836C113.13 379.318 113.929 379.655 114.77 379.828C115.612 380 116.479 380.005 117.322 379.841L182.072 367.381C182.918 367.218 183.722 366.89 184.44 366.415C185.158 365.941 185.775 365.33 186.257 364.616C186.738 363.903 187.074 363.101 187.244 362.258C187.415 361.414 187.418 360.545 187.252 359.701L169.412 269.501C169.242 268.648 168.904 267.838 168.418 267.118C167.932 266.398 167.307 265.781 166.58 265.305C165.853 264.828 165.039 264.501 164.184 264.342C163.33 264.184 162.452 264.197 161.602 264.381L97.8325 278.381C96.1678 278.746 94.7116 279.747 93.774 281.171C92.8363 282.594 92.4913 284.327 92.8125 286.001V286.001Z" fill="#E0E0E0"/>
<path d="M136 318.721L141.39 316.051C141.39 316.051 143.14 306.811 145.98 303.551C148.82 300.291 152.98 296.551 152.98 295.661C152.98 294.771 154.3 288.661 154.3 288.661C154.3 288.661 156.81 286.471 157.3 290.851C157.606 293.395 157.606 295.967 157.3 298.511L174.16 294.311C175.91 293.871 178.1 294.041 177.88 295.791C177.66 297.541 176.72 298.451 175.38 299.541C174.899 299.941 174.355 300.259 173.77 300.481C173.77 300.481 176.58 303.071 176.58 305.611C176.58 308.151 179.46 314.051 176.84 316.891C174.22 319.731 162.18 328.271 155.84 329.361C149.5 330.451 147.94 332.361 145 336.101L136 318.721Z" fill="#FFBE9D"/>
<path d="M158.69 298.211C158.76 298.351 156.76 299.521 154.5 301.261C152.24 303.001 150.58 304.601 150.5 304.501C152.68 301.755 155.508 299.594 158.73 298.211H158.69Z" fill="#EB996E"/>
<path d="M174.75 300C173.493 300.757 172.127 301.317 170.7 301.66C169.336 302.164 167.931 302.548 166.5 302.81C167.759 302.059 169.124 301.503 170.55 301.16C171.917 300.662 173.321 300.274 174.75 300V300Z" fill="#EB996E"/>
<path d="M98.4141 331.371L135.544 315.631L149.474 343.401L98.4141 369.441V331.371Z" fill="#FF725E"/>
<path d="M134.831 316.491C134.891 316.631 124.83 320.761 112.42 325.731C100.01 330.701 89.8705 334.611 89.8205 334.481C89.7705 334.351 99.8205 330.211 112.231 325.241C124.641 320.271 134.781 316.361 134.831 316.491Z" fill="#263238"/>
<g opacity="0.3">
<path d="M100.858 329.66C96.343 330.565 91.9257 331.904 87.6684 333.66C85.9029 334.298 84.2517 335.217 82.7784 336.38C82.0447 336.967 81.4345 337.693 80.983 338.517C80.5316 339.341 80.248 340.246 80.1484 341.18C81.3669 340.658 82.5157 339.986 83.5684 339.18C87.7884 334.95 95.0584 332.49 101.218 330.18L100.858 329.66Z" fill="black"/>
</g>
<path d="M466.664 452.401C466.664 452.541 369.664 452.661 250.014 452.661C130.364 452.661 33.3438 452.541 33.3438 452.401C33.3438 452.261 130.344 452.141 250.014 452.141C369.684 452.141 466.664 452.251 466.664 452.401Z" fill="#263238"/>
</svg>
