<svg width="750" height="500" viewBox="0 0 750 500" fill="none" xmlns="http://www.w3.org/2000/svg">
<path d="M660.902 134.9C661.881 138.849 662.603 142.857 663.062 146.9C670.892 217.59 634.202 288.74 575.902 330.61C515.782 373.79 436.312 393.47 354.902 390.01C293.582 387.4 226.232 361.94 187.742 324.15C149.252 286.36 137.312 221.84 157.022 170.88C164.122 152.52 187.022 129.54 205.632 122.01C238.982 108.55 258.892 111.68 299.062 123.81C330.462 133.29 364.212 150.38 392.602 135.5C414.412 124.06 425.262 100.28 441.052 81.8299C467.942 50.4399 512.222 33.9999 554.622 39.6799C560.981 40.5375 567.265 41.8747 573.422 43.6799C617.222 56.4699 650.502 91.8699 660.902 134.9Z" fill="#F5F5F5"/>
<path d="M715.417 425.049C715.417 425.199 562.087 425.309 372.997 425.309C183.907 425.309 30.5469 425.199 30.5469 425.049C30.5469 424.899 183.837 424.789 372.997 424.789C562.157 424.789 715.417 424.909 715.417 425.049Z" fill="#263238"/>
<path d="M683.908 258.75H591.308C584.929 258.75 579.758 263.921 579.758 270.3V413.23C579.758 419.609 584.929 424.78 591.308 424.78H683.908C690.287 424.78 695.458 419.609 695.458 413.23V270.3C695.458 263.921 690.287 258.75 683.908 258.75Z" fill="#263238"/>
<path d="M691.626 270.109H583.406V408.769H691.626V270.109Z" fill="white"/>
<path d="M642.044 416.44C642.044 417.318 641.784 418.177 641.296 418.907C640.808 419.637 640.115 420.206 639.303 420.542C638.492 420.878 637.599 420.966 636.738 420.795C635.877 420.623 635.085 420.201 634.465 419.58C633.844 418.959 633.421 418.167 633.249 417.306C633.078 416.445 633.166 415.552 633.502 414.741C633.838 413.93 634.407 413.236 635.137 412.748C635.867 412.26 636.726 412 637.604 412C638.782 412 639.911 412.468 640.744 413.3C641.576 414.133 642.044 415.262 642.044 416.44Z" fill="#455A64"/>
<path d="M654.128 263.529H621.097C620.595 263.529 620.188 263.937 620.188 264.439V264.449C620.188 264.952 620.595 265.359 621.097 265.359H654.128C654.63 265.359 655.037 264.952 655.037 264.449V264.439C655.037 263.937 654.63 263.529 654.128 263.529Z" fill="#455A64"/>
<path d="M682.395 332.9H639.055V361.17H682.395V332.9Z" fill="#455A64"/>
<path d="M645.347 338.51C645.347 338.854 645.245 339.19 645.054 339.476C644.863 339.762 644.591 339.985 644.273 340.117C643.955 340.249 643.605 340.283 643.268 340.216C642.93 340.149 642.62 339.983 642.377 339.74C642.133 339.497 641.968 339.187 641.901 338.849C641.833 338.512 641.868 338.162 642 337.844C642.131 337.526 642.354 337.254 642.64 337.063C642.927 336.872 643.263 336.77 643.607 336.77C643.836 336.768 644.063 336.812 644.275 336.899C644.486 336.986 644.679 337.114 644.841 337.276C645.002 337.438 645.13 337.63 645.217 337.842C645.304 338.054 645.348 338.281 645.347 338.51Z" fill="#FAFAFA"/>
<path d="M680.047 340L678.617 338.6L677.297 339.96V335.91H680.057L680.047 340ZM678.617 338.43L679.867 339.66V335.97H677.367V339.6L678.617 338.43Z" fill="#FAFAFA"/>
<path d="M669.127 337.59C669.127 337.73 664.367 337.85 658.497 337.85C652.627 337.85 647.867 337.73 647.867 337.59C647.867 337.45 652.627 337.33 658.497 337.33C664.367 337.33 669.127 337.44 669.127 337.59Z" fill="#FAFAFA"/>
<path d="M656.067 340C653.345 340.347 650.59 340.347 647.867 340C650.59 339.654 653.345 339.654 656.067 340V340Z" fill="#FAFAFA"/>
<path d="M593.416 274.54C590.166 275.17 586.796 274.49 583.526 274.99H583.406V297.65C593.566 298.65 603.626 301.21 613.726 302.98C627.216 305.34 641.726 306.17 654.066 300.28C664.066 295.54 671.556 286.93 680.776 280.87C684.185 278.63 687.826 276.766 691.636 275.31V270.09H599.226C598.426 272.35 595.896 274.06 593.416 274.54ZM623.046 278.39C624.431 278.39 625.784 278.8 626.935 279.57C628.086 280.339 628.984 281.432 629.513 282.711C630.043 283.99 630.182 285.398 629.912 286.755C629.642 288.113 628.975 289.361 627.996 290.34C627.017 291.319 625.77 291.985 624.412 292.255C623.054 292.525 621.647 292.387 620.367 291.857C619.088 291.327 617.995 290.43 617.226 289.279C616.457 288.128 616.046 286.774 616.046 285.39C616.046 284.471 616.227 283.56 616.579 282.711C616.931 281.862 617.447 281.09 618.097 280.44C618.747 279.79 619.518 279.274 620.367 278.923C621.217 278.571 622.127 278.39 623.046 278.39V278.39Z" fill="#FF725E"/>
<path d="M654.066 300.3C641.696 306.19 627.216 305.36 613.726 303C603.626 301.23 593.566 298.67 583.406 297.67V313.53H691.636V275.33C687.826 276.786 684.185 278.65 680.776 280.89C671.556 287 663.996 295.56 654.066 300.3ZM633.986 309.3C633.868 309.298 633.753 309.261 633.656 309.194C633.558 309.127 633.483 309.033 633.439 308.923C633.395 308.813 633.385 308.693 633.409 308.577C633.433 308.461 633.491 308.355 633.576 308.272C633.66 308.19 633.767 308.133 633.883 308.111C633.999 308.089 634.119 308.101 634.228 308.147C634.337 308.192 634.43 308.269 634.496 308.368C634.561 308.466 634.596 308.582 634.596 308.7C634.594 308.857 634.529 309.008 634.417 309.118C634.305 309.228 634.154 309.29 633.996 309.29L633.986 309.3ZM637.796 309.3C637.678 309.298 637.563 309.261 637.466 309.194C637.368 309.127 637.293 309.033 637.249 308.923C637.205 308.813 637.195 308.693 637.219 308.577C637.243 308.461 637.301 308.355 637.386 308.272C637.47 308.19 637.577 308.133 637.693 308.111C637.809 308.089 637.929 308.101 638.038 308.147C638.147 308.192 638.24 308.269 638.306 308.368C638.371 308.466 638.406 308.582 638.406 308.7C638.405 308.779 638.388 308.857 638.357 308.929C638.325 309.001 638.28 309.067 638.224 309.121C638.167 309.176 638.1 309.219 638.027 309.248C637.953 309.277 637.875 309.291 637.796 309.29V309.3ZM641.606 309.3C641.527 309.3 641.449 309.285 641.377 309.254C641.304 309.224 641.238 309.18 641.182 309.124C641.126 309.069 641.082 309.002 641.052 308.93C641.022 308.857 641.006 308.779 641.006 308.7C641.006 308.621 641.022 308.543 641.052 308.47C641.082 308.398 641.126 308.332 641.182 308.276C641.238 308.22 641.304 308.176 641.377 308.146C641.449 308.116 641.527 308.1 641.606 308.1C641.685 308.1 641.763 308.116 641.836 308.146C641.909 308.176 641.975 308.22 642.031 308.276C642.086 308.332 642.13 308.398 642.161 308.47C642.191 308.543 642.206 308.621 642.206 308.7C642.206 308.779 642.191 308.857 642.161 308.93C642.13 309.002 642.086 309.069 642.031 309.124C641.975 309.18 641.909 309.224 641.836 309.254C641.763 309.285 641.685 309.3 641.606 309.3V309.3Z" fill="#FF725E"/>
<g opacity="0.3">
<path d="M654.066 300.3C641.696 306.19 627.216 305.36 613.726 303C603.626 301.23 593.566 298.67 583.406 297.67V313.53H691.636V275.33C687.826 276.786 684.185 278.65 680.776 280.89C671.556 287 663.996 295.56 654.066 300.3ZM633.986 309.3C633.868 309.298 633.753 309.261 633.656 309.194C633.558 309.127 633.483 309.033 633.439 308.923C633.395 308.813 633.385 308.693 633.409 308.577C633.433 308.461 633.491 308.355 633.576 308.272C633.66 308.19 633.767 308.133 633.883 308.111C633.999 308.089 634.119 308.101 634.228 308.147C634.337 308.192 634.43 308.269 634.496 308.368C634.561 308.466 634.596 308.582 634.596 308.7C634.594 308.857 634.529 309.008 634.417 309.118C634.305 309.228 634.154 309.29 633.996 309.29L633.986 309.3ZM637.796 309.3C637.678 309.298 637.563 309.261 637.466 309.194C637.368 309.127 637.293 309.033 637.249 308.923C637.205 308.813 637.195 308.693 637.219 308.577C637.243 308.461 637.301 308.355 637.386 308.272C637.47 308.19 637.577 308.133 637.693 308.111C637.809 308.089 637.929 308.101 638.038 308.147C638.147 308.192 638.24 308.269 638.306 308.368C638.371 308.466 638.406 308.582 638.406 308.7C638.405 308.779 638.388 308.857 638.357 308.929C638.325 309.001 638.28 309.067 638.224 309.121C638.167 309.176 638.1 309.219 638.027 309.248C637.953 309.277 637.875 309.291 637.796 309.29V309.3ZM641.606 309.3C641.527 309.3 641.449 309.285 641.377 309.254C641.304 309.224 641.238 309.18 641.182 309.124C641.126 309.069 641.082 309.002 641.052 308.93C641.022 308.857 641.006 308.779 641.006 308.7C641.006 308.621 641.022 308.543 641.052 308.47C641.082 308.398 641.126 308.332 641.182 308.276C641.238 308.22 641.304 308.176 641.377 308.146C641.449 308.116 641.527 308.1 641.606 308.1C641.685 308.1 641.763 308.116 641.836 308.146C641.909 308.176 641.975 308.22 642.031 308.276C642.086 308.332 642.13 308.398 642.161 308.47C642.191 308.543 642.206 308.621 642.206 308.7C642.206 308.779 642.191 308.857 642.161 308.93C642.13 309.002 642.086 309.069 642.031 309.124C641.975 309.18 641.909 309.224 641.836 309.254C641.763 309.285 641.685 309.3 641.606 309.3V309.3Z" fill="black"/>
</g>
<path d="M633.996 308.09C633.878 308.092 633.763 308.129 633.666 308.196C633.568 308.263 633.493 308.357 633.449 308.467C633.405 308.577 633.395 308.697 633.419 308.813C633.443 308.929 633.501 309.035 633.585 309.118C633.67 309.201 633.777 309.257 633.893 309.279C634.009 309.301 634.129 309.289 634.238 309.243C634.347 309.198 634.44 309.121 634.506 309.022C634.571 308.924 634.606 308.808 634.606 308.69C634.606 308.61 634.59 308.531 634.56 308.458C634.529 308.385 634.484 308.318 634.427 308.262C634.37 308.206 634.303 308.162 634.229 308.133C634.155 308.103 634.076 308.089 633.996 308.09V308.09Z" fill="#263238"/>
<path d="M637.801 308.09C637.683 308.092 637.568 308.129 637.47 308.196C637.373 308.263 637.298 308.357 637.254 308.467C637.21 308.577 637.199 308.697 637.224 308.813C637.248 308.929 637.306 309.035 637.39 309.118C637.475 309.201 637.581 309.257 637.698 309.279C637.814 309.301 637.934 309.289 638.043 309.243C638.152 309.198 638.245 309.121 638.31 309.022C638.376 308.924 638.411 308.808 638.411 308.69C638.411 308.61 638.395 308.531 638.364 308.458C638.334 308.385 638.288 308.318 638.232 308.262C638.175 308.206 638.108 308.162 638.034 308.133C637.96 308.103 637.881 308.089 637.801 308.09V308.09Z" fill="#263238"/>
<path d="M641.608 308.09C641.449 308.09 641.296 308.153 641.184 308.266C641.071 308.378 641.008 308.531 641.008 308.69C641.008 308.849 641.071 309.002 641.184 309.114C641.296 309.227 641.449 309.29 641.608 309.29C641.767 309.29 641.92 309.227 642.032 309.114C642.145 309.002 642.208 308.849 642.208 308.69C642.208 308.531 642.145 308.378 642.032 308.266C641.92 308.153 641.767 308.09 641.608 308.09V308.09Z" fill="#263238"/>
<path d="M623.045 292.371C626.905 292.371 630.035 289.241 630.035 285.381C630.035 281.52 626.905 278.391 623.045 278.391C619.184 278.391 616.055 281.52 616.055 285.381C616.055 289.241 619.184 292.371 623.045 292.371Z" fill="#FF725E"/>
<g opacity="0.3">
<path d="M623.045 292.371C626.905 292.371 630.035 289.241 630.035 285.381C630.035 281.52 626.905 278.391 623.045 278.391C619.184 278.391 616.055 281.52 616.055 285.381C616.055 289.241 619.184 292.371 623.045 292.371Z" fill="black"/>
</g>
<path d="M593.416 274.539C595.896 274.059 598.416 272.349 599.226 270.109H583.406V274.999H583.526C586.796 274.489 590.166 275.169 593.416 274.539Z" fill="#FF725E"/>
<path d="M679.591 322.379C679.591 322.529 660.751 322.639 637.531 322.639C614.311 322.639 595.461 322.529 595.461 322.379C595.461 322.229 614.291 322.119 637.531 322.119C660.771 322.119 679.591 322.239 679.591 322.379Z" fill="#263238"/>
<path d="M659.125 325.28C659.125 325.43 649.035 325.54 636.595 325.54C624.155 325.54 614.055 325.43 614.055 325.28C614.055 325.13 624.145 325.02 636.595 325.02C649.045 325.02 659.125 325.14 659.125 325.28Z" fill="#263238"/>
<path d="M633.067 332.9H589.727V361.17H633.067V332.9Z" fill="#FF725E"/>
<path d="M595.996 338.51C595.996 338.854 595.894 339.19 595.702 339.476C595.511 339.762 595.239 339.985 594.921 340.117C594.604 340.249 594.254 340.283 593.916 340.216C593.579 340.149 593.269 339.983 593.025 339.74C592.782 339.497 592.616 339.187 592.549 338.849C592.482 338.512 592.516 338.162 592.648 337.844C592.78 337.526 593.003 337.254 593.289 337.063C593.575 336.872 593.912 336.77 594.256 336.77C594.485 336.768 594.711 336.812 594.923 336.899C595.135 336.986 595.327 337.114 595.489 337.276C595.651 337.438 595.779 337.63 595.866 337.842C595.953 338.054 595.997 338.281 595.996 338.51V338.51Z" fill="#FAFAFA"/>
<path d="M630.715 340.001L629.285 338.601L627.995 339.931L627.945 335.881H630.705L630.715 340.001ZM629.285 338.431H629.335L630.585 339.661V335.971H628.085V339.601L629.285 338.431Z" fill="#FAFAFA"/>
<path d="M619.799 337.59C619.799 337.73 615.039 337.85 609.169 337.85C603.299 337.85 598.539 337.73 598.539 337.59C598.539 337.45 603.299 337.33 609.169 337.33C615.039 337.33 619.799 337.44 619.799 337.59Z" fill="#FAFAFA"/>
<path d="M606.739 340C604.017 340.347 601.261 340.347 598.539 340C601.261 339.654 604.017 339.654 606.739 340V340Z" fill="#FAFAFA"/>
<path d="M633.067 365C633.067 365.14 623.367 365.26 611.397 365.26C599.427 365.26 589.727 365.14 589.727 365C589.727 364.86 599.427 364.74 611.397 364.74C623.367 364.74 633.067 364.87 633.067 365Z" fill="#263238"/>
<path d="M633.067 367.59C633.067 367.73 623.367 367.85 611.397 367.85C599.427 367.85 589.727 367.73 589.727 367.59C589.727 367.45 599.427 367.33 611.397 367.33C623.367 367.33 633.067 367.45 633.067 367.59Z" fill="#263238"/>
<path d="M612.317 370.17C612.317 370.31 607.257 370.43 601.017 370.43C594.777 370.43 589.727 370.31 589.727 370.17C589.727 370.03 594.787 369.91 601.017 369.91C607.247 369.91 612.317 370 612.317 370.17Z" fill="#263238"/>
<path d="M633.067 375.15H589.727V403.42H633.067V375.15Z" fill="#FF725E"/>
<path d="M595.996 380.75C595.996 381.094 595.894 381.43 595.702 381.716C595.511 382.003 595.239 382.226 594.921 382.357C594.604 382.489 594.254 382.523 593.916 382.456C593.579 382.389 593.269 382.223 593.025 381.98C592.782 381.737 592.616 381.427 592.549 381.089C592.482 380.752 592.516 380.402 592.648 380.084C592.78 379.766 593.003 379.494 593.289 379.303C593.575 379.112 593.912 379.01 594.256 379.01C594.717 379.01 595.16 379.193 595.486 379.519C595.812 379.846 595.996 380.288 595.996 380.75V380.75Z" fill="#FAFAFA"/>
<path d="M630.715 382.209L629.285 380.819L627.995 382.169L627.945 378.119H630.705L630.715 382.209ZM629.285 380.639H629.335L630.585 381.869V378.179H628.085V381.799L629.285 380.639Z" fill="#FAFAFA"/>
<path d="M619.799 379.83C619.799 379.97 615.039 380.09 609.169 380.09C603.299 380.09 598.539 379.97 598.539 379.83C598.539 379.69 603.299 379.57 609.169 379.57C615.039 379.57 619.799 379.69 619.799 379.83Z" fill="#FAFAFA"/>
<path d="M606.739 382.209C604.017 382.556 601.261 382.556 598.539 382.209C601.261 381.863 604.017 381.863 606.739 382.209V382.209Z" fill="#FAFAFA"/>
<path d="M633.067 407.25C633.067 407.4 623.367 407.51 611.397 407.51C599.427 407.51 589.727 407.4 589.727 407.25C589.727 407.1 599.427 406.99 611.397 406.99C623.367 406.99 633.067 407.11 633.067 407.25Z" fill="#263238"/>
<path d="M683.559 375.15H640.219V403.42H683.559V375.15Z" fill="#455A64"/>
<path d="M646.511 380.75C646.511 381.094 646.409 381.43 646.218 381.716C646.027 382.003 645.755 382.226 645.437 382.357C645.119 382.489 644.769 382.523 644.432 382.456C644.094 382.389 643.784 382.223 643.541 381.98C643.298 381.737 643.132 381.427 643.065 381.089C642.998 380.752 643.032 380.402 643.164 380.084C643.295 379.766 643.518 379.494 643.805 379.303C644.091 379.112 644.427 379.01 644.771 379.01C645.233 379.01 645.675 379.193 646.002 379.519C646.328 379.846 646.511 380.288 646.511 380.75V380.75Z" fill="#FAFAFA"/>
<path d="M681.221 382.209L679.791 380.819L678.461 382.169V378.119H681.211L681.221 382.209ZM679.791 380.639L681.051 381.869V378.179H678.541V381.799L679.791 380.639Z" fill="#FAFAFA"/>
<path d="M670.3 379.83C670.3 379.97 665.54 380.09 659.67 380.09C653.8 380.09 649 380 649 379.83C649 379.66 653.75 379.57 659.63 379.57C665.51 379.57 670.3 379.69 670.3 379.83Z" fill="#FAFAFA"/>
<path d="M657.229 382.209C654.51 382.556 651.758 382.556 649.039 382.209C651.758 381.863 654.51 381.863 657.229 382.209V382.209Z" fill="#FAFAFA"/>
<path d="M683.569 407.25C683.569 407.4 673.859 407.51 661.899 407.51C649.939 407.51 640.219 407.4 640.219 407.25C640.219 407.1 649.929 406.99 661.899 406.99C673.869 406.99 683.569 407.11 683.569 407.25Z" fill="#263238"/>
<path d="M682.996 365C682.996 365.14 673.296 365.26 661.326 365.26C649.356 365.26 639.656 365.14 639.656 365C639.656 364.86 649.356 364.74 661.326 364.74C673.296 364.74 682.996 364.87 682.996 365Z" fill="#263238"/>
<path d="M682.996 367.59C682.996 367.73 673.296 367.85 661.326 367.85C649.356 367.85 639.656 367.73 639.656 367.59C639.656 367.45 649.356 367.33 661.326 367.33C673.296 367.33 682.996 367.45 682.996 367.59Z" fill="#263238"/>
<path d="M662.238 370.17C662.238 370.31 657.178 370.43 650.948 370.43C644.718 370.43 639.648 370.31 639.648 370.17C639.648 370.03 644.708 369.91 650.948 369.91C657.188 369.91 662.238 370 662.238 370.17Z" fill="#263238"/>
<g opacity="0.3">
<path d="M593.416 274.539C595.896 274.059 598.416 272.349 599.226 270.109H583.406V274.999H583.526C586.796 274.489 590.166 275.169 593.416 274.539Z" fill="white"/>
</g>
<path d="M559.471 144.801H242.291C240.991 144.801 239.703 145.057 238.502 145.554C237.301 146.052 236.21 146.781 235.29 147.7C234.371 148.62 233.642 149.711 233.144 150.912C232.647 152.113 232.391 153.401 232.391 154.701V378.701C232.391 381.326 233.434 383.845 235.29 385.701C237.147 387.558 239.665 388.601 242.291 388.601H364.001C364.001 388.601 371.751 412.551 347.741 424.941H461.591C461.591 424.941 434.481 415.651 441.451 388.601H559.451C562.076 388.601 564.594 387.558 566.451 385.701C568.308 383.845 569.351 381.326 569.351 378.701V154.701C569.351 152.079 568.31 149.564 566.458 147.707C564.606 145.851 562.093 144.806 559.471 144.801V144.801Z" fill="#263238"/>
<path d="M405.11 365.07C409.43 371.24 402.68 377.99 396.51 373.68C396.305 373.535 396.125 373.356 395.98 373.15C391.67 366.98 398.42 360.24 404.58 364.54C404.788 364.683 404.967 364.863 405.11 365.07Z" fill="#455A64"/>
<path d="M558.277 158.23H242.817C241.011 158.23 239.547 159.695 239.547 161.5V345.96C239.547 347.766 241.011 349.23 242.817 349.23H558.277C560.083 349.23 561.547 347.766 561.547 345.96V161.5C561.547 159.695 560.083 158.23 558.277 158.23Z" fill="#FAFAFA"/>
<path d="M558.277 349.73H242.817C241.817 349.73 240.858 349.333 240.151 348.626C239.444 347.919 239.047 346.96 239.047 345.96V161.5C239.047 160.501 239.444 159.542 240.151 158.835C240.858 158.128 241.817 157.73 242.817 157.73H558.277C559.277 157.73 560.236 158.128 560.943 158.835C561.65 159.542 562.047 160.501 562.047 161.5V346C562.036 346.993 561.635 347.942 560.929 348.64C560.223 349.339 559.27 349.731 558.277 349.73V349.73ZM242.817 158.73C242.083 158.733 241.38 159.026 240.861 159.545C240.342 160.064 240.05 160.767 240.047 161.5V346C240.047 346.364 240.119 346.724 240.258 347.061C240.397 347.397 240.601 347.702 240.858 347.959C241.115 348.216 241.421 348.42 241.757 348.56C242.093 348.699 242.453 348.77 242.817 348.77H558.277C559.012 348.77 559.716 348.479 560.236 347.959C560.755 347.44 561.047 346.735 561.047 346V161.5C561.044 160.767 560.752 160.064 560.233 159.545C559.714 159.026 559.011 158.733 558.277 158.73H242.817Z" fill="white"/>
<path d="M266.004 165.611C266.006 166.122 265.856 166.622 265.574 167.047C265.292 167.473 264.889 167.805 264.418 168.002C263.947 168.199 263.428 168.251 262.927 168.153C262.425 168.054 261.965 167.809 261.603 167.449C261.241 167.088 260.994 166.629 260.894 166.128C260.794 165.627 260.844 165.108 261.039 164.636C261.234 164.164 261.565 163.76 261.989 163.477C262.414 163.193 262.913 163.041 263.424 163.041C264.106 163.041 264.761 163.311 265.245 163.793C265.728 164.275 266.001 164.928 266.004 165.611Z" fill="#455A64"/>
<path d="M250.374 165.61C250.366 166.117 250.209 166.609 249.922 167.027C249.634 167.444 249.23 167.767 248.76 167.956C248.29 168.144 247.774 168.189 247.279 168.086C246.783 167.982 246.329 167.734 245.973 167.373C245.618 167.012 245.377 166.554 245.281 166.057C245.185 165.559 245.238 165.045 245.434 164.577C245.629 164.11 245.959 163.711 246.381 163.43C246.802 163.15 247.297 163 247.804 163C248.145 163 248.482 163.068 248.797 163.199C249.111 163.331 249.396 163.524 249.636 163.767C249.875 164.01 250.063 164.298 250.19 164.614C250.317 164.931 250.379 165.269 250.374 165.61V165.61Z" fill="#455A64"/>
<path d="M257.851 165.611C257.851 166.119 257.7 166.616 257.418 167.039C257.135 167.461 256.734 167.791 256.264 167.985C255.795 168.18 255.278 168.231 254.78 168.132C254.281 168.032 253.823 167.788 253.464 167.428C253.104 167.069 252.859 166.611 252.76 166.112C252.661 165.614 252.712 165.097 252.907 164.628C253.101 164.158 253.43 163.757 253.853 163.474C254.276 163.192 254.773 163.041 255.281 163.041C255.963 163.041 256.616 163.312 257.098 163.794C257.58 164.276 257.851 164.929 257.851 165.611V165.611Z" fill="#455A64"/>
<path d="M461.572 263.08C461.572 263.22 434.842 263.34 401.872 263.34C368.902 263.34 342.172 263.22 342.172 263.08C342.172 262.94 368.892 262.82 401.872 262.82C434.852 262.82 461.572 262.94 461.572 263.08Z" fill="#263238"/>
<path d="M432.531 267.192C432.531 267.342 418.211 267.452 400.531 267.452C382.851 267.452 368.531 267.342 368.531 267.192C368.531 267.042 382.851 266.932 400.531 266.932C418.211 266.932 432.531 267.052 432.531 267.192Z" fill="#263238"/>
<path d="M347.538 284.891H271.328V334.601H347.538V284.891Z" fill="#FF725E"/>
<path d="M282.393 294.741C282.395 295.347 282.218 295.94 281.883 296.444C281.548 296.949 281.07 297.342 280.511 297.576C279.952 297.809 279.337 297.871 278.743 297.754C278.148 297.637 277.602 297.346 277.173 296.919C276.744 296.491 276.452 295.946 276.333 295.352C276.214 294.758 276.274 294.142 276.505 293.583C276.737 293.023 277.129 292.544 277.632 292.208C278.136 291.871 278.728 291.691 279.333 291.691C279.735 291.69 280.132 291.768 280.504 291.921C280.875 292.073 281.212 292.298 281.497 292.581C281.781 292.865 282.006 293.201 282.16 293.572C282.314 293.943 282.393 294.34 282.393 294.741V294.741Z" fill="#FAFAFA"/>
<path d="M343.412 297.31L340.902 294.85L338.572 297.24L338.492 290.12L343.332 290.07L343.412 297.31ZM340.902 294.55L340.982 294.62L343.192 296.78L343.122 290.29H338.712L338.782 296.66L340.902 294.55Z" fill="#FAFAFA"/>
<path d="M324.208 293.121C324.208 293.271 315.838 293.381 305.518 293.381C295.198 293.381 286.828 293.271 286.828 293.121C286.828 292.971 295.198 292.861 305.518 292.861C315.838 292.861 324.208 293.001 324.208 293.121Z" fill="#FAFAFA"/>
<path d="M301.238 297.311C298.844 297.568 296.435 297.655 294.028 297.571C291.625 297.655 289.219 297.568 286.828 297.311C289.219 297.053 291.625 296.966 294.028 297.051C296.435 296.967 298.844 297.053 301.238 297.311Z" fill="#FAFAFA"/>
<path d="M439.968 284.891H363.758V334.601H439.968V284.891Z" fill="#455A64"/>
<path d="M438.999 340.371C438.999 340.521 422.519 340.631 402.179 340.631C381.839 340.631 365.359 340.521 365.359 340.371C365.359 340.221 381.839 340.111 402.179 340.111C422.519 340.111 438.999 340.231 438.999 340.371Z" fill="#263238"/>
<path d="M371.761 297.791C373.445 297.791 374.811 296.426 374.811 294.741C374.811 293.057 373.445 291.691 371.761 291.691C370.076 291.691 368.711 293.057 368.711 294.741C368.711 296.426 370.076 297.791 371.761 297.791Z" fill="#FAFAFA"/>
<path d="M435.842 297.31L433.332 294.85L431.002 297.24L430.922 290.12L435.762 290.07L435.842 297.31ZM433.332 294.55L433.402 294.62L435.612 296.78L435.542 290.29H431.142L431.212 296.66L433.332 294.55Z" fill="#FAFAFA"/>
<path d="M416.64 293.121C416.64 293.271 408.27 293.381 397.95 293.381C387.63 293.381 379.25 293.271 379.25 293.121C379.25 292.971 387.62 292.861 397.95 292.861C408.28 292.861 416.64 293.001 416.64 293.121Z" fill="#FAFAFA"/>
<path d="M393.67 297.311C388.87 297.657 384.05 297.657 379.25 297.311C384.05 296.964 388.87 296.964 393.67 297.311V297.311Z" fill="#FAFAFA"/>
<path d="M532.398 284.891H456.188V334.601H532.398V284.891Z" fill="#FF725E"/>
<path d="M531.4 340.371C531.4 340.521 514.91 340.631 494.58 340.631C474.25 340.631 457.75 340.521 457.75 340.371C457.75 340.221 474.24 340.111 494.58 340.111C514.92 340.111 531.4 340.231 531.4 340.371Z" fill="#263238"/>
<path d="M467.241 294.74C467.241 295.343 467.062 295.933 466.727 296.434C466.391 296.936 465.915 297.327 465.358 297.558C464.8 297.789 464.187 297.849 463.596 297.731C463.004 297.614 462.461 297.323 462.034 296.897C461.607 296.47 461.317 295.927 461.199 295.335C461.082 294.743 461.142 294.13 461.373 293.573C461.604 293.015 461.995 292.539 462.496 292.204C462.998 291.869 463.587 291.69 464.191 291.69C464.593 291.683 464.993 291.757 465.366 291.908C465.739 292.059 466.078 292.284 466.362 292.568C466.647 292.853 466.871 293.192 467.022 293.565C467.173 293.938 467.247 294.337 467.241 294.74V294.74Z" fill="#FAFAFA"/>
<path d="M528.272 297.31L525.762 294.85L523.422 297.24L523.352 290.12L528.192 290.07L528.272 297.31ZM525.752 294.55L525.832 294.62L528.042 296.78L527.972 290.29H523.572L523.642 296.66L525.752 294.55Z" fill="#FAFAFA"/>
<path d="M509.07 293.121C509.07 293.271 500.7 293.381 490.38 293.381C480.06 293.381 471.68 293.271 471.68 293.121C471.68 292.971 480.05 292.861 490.38 292.861C500.71 292.861 509.07 293.001 509.07 293.121Z" fill="#FAFAFA"/>
<path d="M486.1 297.311C481.299 297.657 476.48 297.657 471.68 297.311C476.48 296.964 481.299 296.964 486.1 297.311V297.311Z" fill="#FAFAFA"/>
<path d="M559.054 310.41C559.054 312.5 558.434 314.544 557.273 316.282C556.111 318.02 554.46 319.375 552.529 320.175C550.598 320.975 548.472 321.185 546.422 320.777C544.372 320.369 542.488 319.362 541.01 317.884C539.532 316.406 538.525 314.522 538.117 312.472C537.709 310.422 537.919 308.296 538.719 306.365C539.519 304.433 540.873 302.783 542.612 301.621C544.35 300.46 546.393 299.84 548.484 299.84C551.287 299.84 553.976 300.953 555.958 302.936C557.94 304.918 559.054 307.607 559.054 310.41V310.41Z" fill="#E0E0E0"/>
<path d="M546.883 314.91C547.328 314.404 547.824 313.945 548.363 313.54C549.313 312.72 550.643 311.62 552.123 310.42V310.7L552.053 310.64C550.593 309.37 549.283 308.21 548.353 307.35C547.821 306.919 547.332 306.436 546.893 305.91C547.471 306.275 548.016 306.69 548.523 307.15C549.523 307.96 550.843 309.09 552.303 310.35L552.373 310.42L552.543 310.57L552.373 310.71C550.883 311.91 549.533 312.98 548.543 313.71C548.028 314.161 547.472 314.562 546.883 314.91V314.91Z" fill="#263238"/>
<path d="M243.141 310.411C243.145 308.322 243.768 306.28 244.932 304.544C246.096 302.809 247.748 301.457 249.68 300.66C251.611 299.863 253.736 299.657 255.785 300.067C257.834 300.477 259.716 301.485 261.192 302.964C262.668 304.443 263.673 306.327 264.079 308.377C264.485 310.426 264.275 312.551 263.474 314.481C262.674 316.411 261.319 318.061 259.581 319.221C257.843 320.382 255.8 321.001 253.711 321.001C252.321 321.001 250.945 320.727 249.661 320.195C248.377 319.662 247.211 318.882 246.229 317.898C245.248 316.915 244.47 315.747 243.939 314.462C243.409 313.178 243.138 311.801 243.141 310.411V310.411Z" fill="#E0E0E0"/>
<path d="M255.308 305.91C254.863 306.416 254.367 306.875 253.828 307.28C252.828 308.09 251.548 309.2 250.068 310.4V310.11L250.138 310.18C251.598 311.44 252.908 312.61 253.838 313.46C254.373 313.893 254.862 314.379 255.298 314.91C254.72 314.545 254.175 314.13 253.668 313.67C252.668 312.86 251.348 311.73 249.888 310.46L249.818 310.4L249.648 310.25L249.818 310.11C251.308 308.91 252.658 307.83 253.648 307.11C254.165 306.661 254.72 306.259 255.308 305.91V305.91Z" fill="#263238"/>
<path d="M259.23 169L258.87 181.48L259.23 169L355.42 172C356.12 177.1 350.82 181.2 345.73 182C340.64 182.8 335.42 181.62 330.3 182.26C320.08 183.52 312.21 191.7 302.73 195.7C287.16 202.28 267.45 196.11 258.87 181.54L257 246.38L257.1 243.13C268.15 224.85 291.73 216.54 313.1 216.51C334.47 216.48 355.2 222.97 376.1 227.26C397 231.55 419.55 233.51 439.1 224.88C454.83 217.94 466.97 204.88 481.61 195.88C511.32 177.53 551.55 177.88 580.95 196.7L579.24 255.7L257 246.38L579.61 255.89L581.85 178.51L259.23 169ZM391.12 211.11C388.965 211.048 386.877 210.348 385.12 209.099C383.363 207.85 382.015 206.108 381.248 204.093C380.481 202.078 380.328 199.881 380.81 197.78C381.291 195.679 382.385 193.767 383.953 192.288C385.521 190.808 387.492 189.826 389.618 189.467C391.744 189.108 393.928 189.387 395.895 190.269C397.862 191.151 399.524 192.597 400.669 194.424C401.814 196.25 402.392 198.375 402.33 200.53C402.29 201.961 401.968 203.37 401.383 204.677C400.797 205.984 399.96 207.162 398.919 208.145C397.878 209.127 396.653 209.895 395.315 210.404C393.977 210.913 392.551 211.153 391.12 211.11V211.11Z" fill="#FF725E"/>
<path d="M580.997 196.651C551.597 177.811 511.367 177.481 481.657 195.831C467.017 204.831 454.877 217.941 439.147 224.831C419.607 233.461 397.077 231.501 376.147 227.211C355.217 222.921 334.477 216.431 313.147 216.461C291.817 216.491 268.207 224.801 257.147 243.081L257.047 246.331L579.297 255.641L580.997 196.651ZM409.717 241.651C409.466 241.643 409.223 241.56 409.019 241.414C408.814 241.268 408.658 241.065 408.569 240.83C408.481 240.595 408.464 240.339 408.52 240.094C408.577 239.85 408.705 239.627 408.888 239.455C409.071 239.284 409.301 239.17 409.549 239.129C409.797 239.087 410.051 239.12 410.28 239.224C410.509 239.327 410.702 239.496 410.835 239.709C410.968 239.922 411.035 240.17 411.027 240.421C411.026 240.594 410.989 240.765 410.919 240.924C410.849 241.083 410.747 241.225 410.62 241.342C410.492 241.46 410.341 241.549 410.177 241.606C410.014 241.662 409.84 241.684 409.667 241.671L409.717 241.651ZM417.717 241.891C417.466 241.885 417.222 241.804 417.017 241.66C416.811 241.515 416.653 241.313 416.563 241.079C416.472 240.845 416.453 240.589 416.508 240.344C416.563 240.099 416.689 239.875 416.871 239.702C417.052 239.529 417.281 239.413 417.529 239.37C417.776 239.327 418.031 239.358 418.261 239.459C418.49 239.561 418.685 239.728 418.819 239.94C418.954 240.152 419.023 240.4 419.017 240.651C419.016 240.82 418.981 240.987 418.914 241.143C418.847 241.299 418.749 241.439 418.627 241.557C418.505 241.674 418.361 241.766 418.203 241.827C418.045 241.887 417.876 241.916 417.707 241.911L417.717 241.891ZM425.717 242.121C425.465 242.115 425.221 242.034 425.016 241.889C424.81 241.744 424.652 241.541 424.562 241.306C424.472 241.072 424.453 240.815 424.509 240.57C424.565 240.325 424.692 240.101 424.875 239.928C425.057 239.756 425.287 239.641 425.535 239.599C425.783 239.557 426.038 239.589 426.268 239.692C426.497 239.796 426.691 239.964 426.824 240.178C426.958 240.391 427.025 240.639 427.017 240.891C427.012 241.224 426.876 241.542 426.638 241.776C426.4 242.01 426.08 242.141 425.747 242.141L425.717 242.121ZM549.197 221.301C548.688 221.786 548.046 222.108 547.353 222.228C546.66 222.348 545.947 222.259 545.305 221.973C544.662 221.687 544.119 221.217 543.744 220.622C543.37 220.027 543.18 219.334 543.2 218.631C543.22 217.928 543.448 217.246 543.855 216.673C544.262 216.1 544.831 215.661 545.488 215.411C546.146 215.162 546.863 215.113 547.548 215.271C548.233 215.43 548.856 215.788 549.337 216.301C549.659 216.637 549.912 217.034 550.081 217.469C550.25 217.904 550.332 218.367 550.322 218.833C550.312 219.3 550.21 219.759 550.022 220.186C549.834 220.613 549.564 220.998 549.227 221.321L549.197 221.301Z" fill="#FF725E"/>
<g opacity="0.3">
<path d="M580.997 196.651C551.597 177.811 511.367 177.481 481.657 195.831C467.017 204.831 454.877 217.941 439.147 224.831C419.607 233.461 397.077 231.501 376.147 227.211C355.217 222.921 334.477 216.431 313.147 216.461C291.817 216.491 268.207 224.801 257.147 243.081L257.047 246.331L579.297 255.641L580.997 196.651ZM409.717 241.651C409.466 241.643 409.223 241.56 409.019 241.414C408.814 241.268 408.658 241.065 408.569 240.83C408.481 240.595 408.464 240.339 408.52 240.094C408.577 239.85 408.705 239.627 408.888 239.455C409.071 239.284 409.301 239.17 409.549 239.129C409.797 239.087 410.051 239.12 410.28 239.224C410.509 239.327 410.702 239.496 410.835 239.709C410.968 239.922 411.035 240.17 411.027 240.421C411.026 240.594 410.989 240.765 410.919 240.924C410.849 241.083 410.747 241.225 410.62 241.342C410.492 241.46 410.341 241.549 410.177 241.606C410.014 241.662 409.84 241.684 409.667 241.671L409.717 241.651ZM417.717 241.891C417.466 241.885 417.222 241.804 417.017 241.66C416.811 241.515 416.653 241.313 416.563 241.079C416.472 240.845 416.453 240.589 416.508 240.344C416.563 240.099 416.689 239.875 416.871 239.702C417.052 239.529 417.281 239.413 417.529 239.37C417.776 239.327 418.031 239.358 418.261 239.459C418.49 239.561 418.685 239.728 418.819 239.94C418.954 240.152 419.023 240.4 419.017 240.651C419.016 240.82 418.981 240.987 418.914 241.143C418.847 241.299 418.749 241.439 418.627 241.557C418.505 241.674 418.361 241.766 418.203 241.827C418.045 241.887 417.876 241.916 417.707 241.911L417.717 241.891ZM425.717 242.121C425.465 242.115 425.221 242.034 425.016 241.889C424.81 241.744 424.652 241.541 424.562 241.306C424.472 241.072 424.453 240.815 424.509 240.57C424.565 240.325 424.692 240.101 424.875 239.928C425.057 239.756 425.287 239.641 425.535 239.599C425.783 239.557 426.038 239.589 426.268 239.692C426.497 239.796 426.691 239.964 426.824 240.178C426.958 240.391 427.025 240.639 427.017 240.891C427.012 241.224 426.876 241.542 426.638 241.776C426.4 242.01 426.08 242.141 425.747 242.141L425.717 242.121ZM549.197 221.301C548.688 221.786 548.046 222.108 547.353 222.228C546.66 222.348 545.947 222.259 545.305 221.973C544.662 221.687 544.119 221.217 543.744 220.622C543.37 220.027 543.18 219.334 543.2 218.631C543.22 217.928 543.448 217.246 543.855 216.673C544.262 216.1 544.831 215.661 545.488 215.411C546.146 215.162 546.863 215.113 547.548 215.271C548.233 215.43 548.856 215.788 549.337 216.301C549.659 216.637 549.912 217.034 550.081 217.469C550.25 217.904 550.332 218.367 550.322 218.833C550.312 219.3 550.21 219.759 550.022 220.186C549.834 220.613 549.564 220.998 549.227 221.321L549.197 221.301Z" fill="black"/>
</g>
<path d="M409.747 239.139C409.496 239.131 409.248 239.198 409.034 239.332C408.821 239.465 408.652 239.659 408.549 239.888C408.446 240.118 408.413 240.373 408.455 240.621C408.497 240.869 408.612 241.099 408.785 241.282C408.958 241.464 409.181 241.592 409.426 241.647C409.672 241.703 409.928 241.684 410.163 241.594C410.398 241.504 410.601 241.346 410.746 241.14C410.89 240.935 410.971 240.691 410.977 240.439C410.985 240.104 410.86 239.779 410.63 239.536C410.4 239.292 410.082 239.15 409.747 239.139V239.139Z" fill="#263238"/>
<path d="M417.778 239.37C417.527 239.362 417.279 239.429 417.066 239.562C416.852 239.696 416.683 239.889 416.58 240.119C416.477 240.348 416.445 240.603 416.487 240.851C416.529 241.099 416.643 241.329 416.816 241.512C416.989 241.695 417.212 241.822 417.458 241.878C417.703 241.933 417.959 241.915 418.194 241.825C418.429 241.734 418.632 241.576 418.777 241.371C418.922 241.165 419.002 240.921 419.008 240.67C419.014 240.503 418.986 240.338 418.927 240.182C418.868 240.027 418.779 239.884 418.664 239.763C418.55 239.643 418.413 239.546 418.261 239.478C418.109 239.41 417.945 239.374 417.778 239.37V239.37Z" fill="#263238"/>
<path d="M425.817 239.6C425.566 239.592 425.318 239.659 425.105 239.792C424.892 239.925 424.724 240.118 424.62 240.347C424.517 240.576 424.484 240.83 424.525 241.078C424.566 241.326 424.68 241.556 424.852 241.739C425.024 241.922 425.246 242.05 425.491 242.107C425.735 242.164 425.991 242.146 426.226 242.058C426.461 241.969 426.665 241.813 426.811 241.608C426.957 241.404 427.039 241.161 427.047 240.91C427.054 240.743 427.027 240.576 426.969 240.42C426.91 240.263 426.821 240.119 426.707 239.997C426.592 239.875 426.455 239.778 426.302 239.709C426.149 239.641 425.984 239.604 425.817 239.6V239.6Z" fill="#263238"/>
<path d="M302.727 195.69C312.207 191.69 320.077 183.51 330.297 182.25C335.417 181.61 340.647 182.82 345.727 181.99C350.807 181.16 356.117 177.06 355.417 171.99L259.227 168.99L258.867 181.47V181.52C267.447 196.1 287.157 202.27 302.727 195.69Z" fill="#FF725E"/>
<g opacity="0.3">
<path d="M302.727 195.69C312.207 191.69 320.077 183.51 330.297 182.25C335.417 181.61 340.647 182.82 345.727 181.99C350.807 181.16 356.117 177.06 355.417 171.99L259.227 168.99L258.867 181.47V181.52C267.447 196.1 287.157 202.27 302.727 195.69Z" fill="white"/>
</g>
<path d="M391.747 189.321C389.592 189.259 387.467 189.837 385.64 190.982C383.814 192.127 382.368 193.789 381.486 195.756C380.604 197.723 380.324 199.907 380.684 202.033C381.043 204.159 382.025 206.13 383.504 207.698C384.984 209.266 386.895 210.36 388.997 210.841C391.098 211.323 393.295 211.17 395.31 210.403C397.325 209.636 399.067 208.288 400.316 206.531C401.565 204.774 402.264 202.686 402.327 200.531C402.41 197.641 401.342 194.837 399.358 192.735C397.374 190.633 394.636 189.405 391.747 189.321Z" fill="#FF725E"/>
<g opacity="0.3">
<path d="M391.747 189.321C389.592 189.259 387.467 189.837 385.64 190.982C383.814 192.127 382.368 193.789 381.486 195.756C380.604 197.723 380.324 199.907 380.684 202.033C381.043 204.159 382.025 206.13 383.504 207.698C384.984 209.266 386.895 210.36 388.997 210.841C391.098 211.323 393.295 211.17 395.31 210.403C397.325 209.636 399.067 208.288 400.316 206.531C401.565 204.774 402.264 202.686 402.327 200.531C402.41 197.641 401.342 194.837 399.358 192.735C397.374 190.633 394.636 189.405 391.747 189.321Z" fill="black"/>
</g>
<path d="M544.347 216.151C543.834 216.632 543.476 217.255 543.318 217.94C543.159 218.625 543.208 219.342 543.458 220C543.707 220.657 544.147 221.225 544.72 221.633C545.293 222.04 545.974 222.268 546.677 222.288C547.38 222.308 548.073 222.118 548.668 221.743C549.263 221.369 549.734 220.826 550.02 220.183C550.306 219.541 550.394 218.828 550.275 218.135C550.155 217.442 549.832 216.8 549.347 216.291C548.701 215.613 547.813 215.217 546.876 215.191C545.939 215.165 545.03 215.51 544.347 216.151V216.151Z" fill="#FF725E"/>
<path d="M532.382 256.06C535.052 251.58 535.822 245.61 536.512 240.45C536.832 238.02 537.402 234.55 535.692 233.03C533.982 231.51 533.692 228.88 531.602 227.62C530.552 226.957 529.334 226.611 528.093 226.621C526.852 226.632 525.64 226.999 524.602 227.68" fill="#263238"/>
<path d="M524.998 271.91C524.033 271.985 523.063 271.864 522.146 271.555C521.229 271.246 520.384 270.755 519.662 270.112C518.939 269.469 518.354 268.686 517.941 267.811C517.527 266.936 517.295 265.987 517.258 265.02C517.108 261.1 516.978 257.14 516.978 257.14C516.978 257.14 511.048 256.59 510.618 250.71C510.188 244.83 510.378 231.28 510.378 231.28C513.633 229.64 517.266 228.898 520.904 229.132C524.541 229.366 528.05 230.567 531.068 232.61L530.698 253.28V264.4C530.638 268.13 528.698 271.63 524.998 271.91Z" fill="#FFBE9D"/>
<path d="M516.452 243.54C516.885 242.916 517.539 242.478 518.281 242.317C519.023 242.155 519.799 242.282 520.452 242.67C521.119 243.127 521.601 243.808 521.81 244.589C522.019 245.371 521.942 246.201 521.592 246.93C521.291 247.475 520.88 247.95 520.384 248.325C519.887 248.701 519.318 248.968 518.712 249.11C518.173 249.232 517.696 249.545 517.37 249.992C517.045 250.439 516.893 250.989 516.942 251.54C517.112 253.02 519.572 253.54 520.672 254.79C522.392 256.69 526.172 257.49 528.722 257.79C531.272 258.09 530.922 258.11 532.372 256.06C533.35 254.666 533.852 252.993 533.802 251.29L534.072 238.29C534.168 236.73 534.068 235.165 533.772 233.63C533.469 232.079 532.59 230.7 531.312 229.77C529.892 228.83 528.082 228.77 526.452 228.22C524.452 227.57 522.692 226.22 520.782 225.22C518.872 224.22 516.552 223.67 514.642 224.63C513.272 225.32 512.352 226.68 511.012 227.44C509.112 228.52 506.532 228.28 505.612 231.07C505.285 232.043 505.285 233.097 505.612 234.07C506.902 237.87 511.612 239.4 514.992 237.76C515.062 238.4 514.422 239.83 515.102 241.86C515.322 242.51 515.402 243.5 516.412 243.52" fill="#263238"/>
<path d="M517.499 247.21C517.559 247.21 517.769 247.5 518.239 247.46C518.527 247.383 518.781 247.213 518.962 246.976C519.143 246.739 519.241 246.449 519.239 246.15C519.252 245.835 519.161 245.525 518.981 245.267C518.8 245.008 518.539 244.816 518.239 244.72C517.769 244.53 517.419 244.61 517.399 244.53C517.379 244.45 517.719 244.24 518.339 244.36C518.702 244.435 519.032 244.624 519.279 244.9C519.438 245.07 519.56 245.27 519.637 245.488C519.715 245.707 519.746 245.939 519.729 246.17C519.73 246.596 519.567 247.005 519.275 247.314C518.983 247.622 518.584 247.807 518.159 247.83C518.029 247.822 517.903 247.787 517.787 247.727C517.672 247.666 517.57 247.582 517.489 247.48C517.469 247.33 517.469 247.22 517.499 247.21Z" fill="#EB996E"/>
<path d="M534.441 239.7C534.931 238.725 535.636 237.873 536.501 237.208C537.367 236.543 538.372 236.082 539.441 235.86C540.521 235.663 541.634 235.757 542.666 236.134C543.698 236.51 544.611 237.154 545.311 238C545.978 238.872 546.36 239.927 546.407 241.024C546.453 242.121 546.161 243.205 545.571 244.13C544.151 246.2 541.431 246.84 538.951 247.13C539.859 248.172 540.971 249.019 542.217 249.617C543.464 250.215 544.819 250.553 546.201 250.61C545.212 251.26 544.066 251.633 542.884 251.689C541.702 251.745 540.527 251.483 539.481 250.93L543.481 254.38C541.439 254.904 539.278 254.695 537.375 253.789C535.471 252.884 533.946 251.338 533.066 249.423C532.185 247.508 532.004 245.345 532.555 243.31C533.106 241.276 534.354 239.499 536.081 238.29" fill="#263238"/>
<path d="M538.151 246.89C537.825 247.056 537.466 247.143 537.101 247.143C536.736 247.143 536.376 247.056 536.051 246.89C535.261 246.528 534.577 245.971 534.062 245.271C533.548 244.571 533.22 243.752 533.111 242.89C532.977 242.026 533.054 241.143 533.336 240.316C533.619 239.489 534.097 238.742 534.731 238.14C535.208 237.6 535.846 237.229 536.551 237.08C536.008 237.452 535.49 237.86 535.001 238.3C534.457 238.888 534.05 239.59 533.812 240.354C533.573 241.119 533.508 241.927 533.621 242.72C533.717 243.512 534.002 244.269 534.451 244.928C534.899 245.588 535.499 246.13 536.201 246.51C536.814 246.781 537.48 246.911 538.151 246.89Z" fill="#FF725E"/>
<path d="M546.659 241C546.176 240.538 545.614 240.165 544.999 239.9C543.45 239.417 541.798 239.362 540.219 239.74C538.622 240.074 537.106 240.719 535.759 241.64C534.759 242.33 534.169 242.91 534.109 242.85C534.462 242.243 534.952 241.726 535.539 241.34C536.882 240.292 538.45 239.57 540.119 239.23C541.781 238.83 543.525 238.945 545.119 239.56C546.369 240.13 546.709 241 546.659 241Z" fill="#455A64"/>
<path d="M544.878 244.931C544.446 245.191 543.952 245.329 543.448 245.331C542.24 245.45 541.023 245.242 539.923 244.728C538.823 244.215 537.882 243.414 537.198 242.411C536.688 241.641 536.538 241.081 536.598 241.061C536.658 241.041 536.928 241.511 537.488 242.191C538.217 243.061 539.124 243.763 540.148 244.251C541.176 244.725 542.296 244.968 543.428 244.961C543.91 244.912 544.395 244.902 544.878 244.931V244.931Z" fill="#455A64"/>
<path d="M535.932 252.811C535.342 252.619 534.814 252.274 534.403 251.811C533.295 250.805 532.506 249.498 532.133 248.05C531.76 246.602 531.819 245.076 532.302 243.661C532.448 243.061 532.748 242.509 533.172 242.061C533.242 242.061 532.923 242.711 532.653 243.761C532.293 245.122 532.287 246.552 532.637 247.916C532.988 249.28 533.681 250.531 534.653 251.551C535.403 252.361 536.002 252.741 535.932 252.811Z" fill="#455A64"/>
<path d="M523.609 229.5C523.878 229.143 524.221 228.849 524.615 228.638C525.008 228.428 525.443 228.305 525.889 228.28C526.853 228.151 527.834 228.297 528.719 228.7C529.786 229.224 530.689 230.029 531.329 231.03C532.414 232.853 533.039 234.912 533.149 237.03C533.276 237.88 533.316 238.742 533.269 239.6C533.017 238.776 532.853 237.928 532.779 237.07C532.567 235.051 531.926 233.101 530.899 231.35C530.308 230.426 529.484 229.674 528.509 229.17C527.71 228.776 526.818 228.607 525.929 228.68C525.103 228.771 524.309 229.052 523.609 229.5V229.5Z" fill="#455A64"/>
<path d="M507.082 235.51C506.784 235.53 506.49 235.433 506.262 235.24C505.915 235.015 505.644 234.69 505.485 234.308C505.326 233.926 505.287 233.505 505.372 233.1C505.506 232.52 505.866 232.016 506.372 231.7C506.947 231.39 507.602 231.261 508.252 231.33C508.87 231.399 509.493 231.239 510.002 230.88C510.52 230.407 510.998 229.892 511.432 229.34C512.423 228.287 513.703 227.55 515.112 227.22C516.245 226.939 517.428 226.915 518.572 227.15C519.34 227.303 520.074 227.591 520.742 228C521.202 228.3 521.422 228.51 521.402 228.53C520.487 228.063 519.51 227.727 518.502 227.53C517.412 227.348 516.296 227.406 515.232 227.7C513.924 228.027 512.738 228.721 511.812 229.7C511.364 230.284 510.858 230.82 510.302 231.3C510.009 231.53 509.667 231.688 509.302 231.76C508.971 231.812 508.636 231.832 508.302 231.82C507.741 231.736 507.169 231.827 506.662 232.08C506.407 232.232 506.193 232.443 506.039 232.695C505.884 232.948 505.793 233.235 505.775 233.53C505.756 233.826 505.81 234.122 505.931 234.392C506.053 234.662 506.238 234.898 506.472 235.08C506.668 235.234 506.871 235.377 507.082 235.51Z" fill="#455A64"/>
<path d="M522.79 251.851C523.037 251.676 523.294 251.516 523.56 251.371C524.223 250.91 524.765 250.296 525.14 249.581C525.406 249.056 525.565 248.483 525.61 247.897C525.655 247.31 525.583 246.72 525.4 246.161C525.181 245.509 524.819 244.914 524.34 244.421C523.793 243.894 523.177 243.443 522.51 243.081C521.83 242.681 521.13 242.311 520.51 241.881C519.882 241.457 519.328 240.933 518.87 240.331C518.11 239.31 517.637 238.105 517.5 236.841C517.395 235.995 517.467 235.137 517.71 234.321C517.768 234.013 517.894 233.723 518.08 233.471C517.804 234.555 517.733 235.681 517.87 236.791C518.042 237.975 518.517 239.094 519.25 240.041C520.241 241.136 521.446 242.018 522.79 242.631C523.495 243.018 524.144 243.499 524.72 244.061C525.265 244.62 525.661 245.308 525.87 246.061C526.063 246.678 526.129 247.328 526.061 247.971C525.994 248.614 525.796 249.237 525.48 249.801C525.057 250.55 524.434 251.167 523.68 251.581C523.408 251.737 523.103 251.83 522.79 251.851V251.851Z" fill="#455A64"/>
<path d="M533.002 243.231C533.002 243.231 532.742 243.331 532.252 243.421C531.549 243.511 530.84 243.538 530.132 243.501C527.779 243.357 525.509 242.579 523.562 241.251C521.542 239.988 520.02 238.067 519.252 235.811C519.057 235.114 519.033 234.38 519.182 233.671C519.227 233.41 519.333 233.163 519.492 232.951C519.295 233.866 519.337 234.817 519.612 235.711C520.45 237.82 521.934 239.609 523.852 240.821C525.735 242.095 527.902 242.888 530.162 243.131C531.872 243.331 533.002 243.131 533.002 243.231Z" fill="#455A64"/>
<path d="M512.617 442.561L509.688 448.751L522.797 448.591L523.378 442.041L512.617 442.561Z" fill="#FF725E"/>
<path d="M523.051 447.35C522.422 447.471 521.782 447.521 521.141 447.5C519.961 447.5 518.331 447.5 516.541 447.5L511.941 447.35C511.301 447.365 510.661 447.315 510.031 447.2C510.66 447.073 511.301 447.023 511.941 447.05C513.121 447.05 514.751 447.05 516.551 447.05L521.141 447.19C521.782 447.179 522.422 447.232 523.051 447.35V447.35Z" fill="#263238"/>
<path d="M517.429 441.791C517.589 442.703 517.609 443.633 517.489 444.551C517.5 445.477 517.379 446.4 517.129 447.291C516.97 446.379 516.949 445.449 517.069 444.531C517.058 443.605 517.179 442.683 517.429 441.791V441.791Z" fill="#263238"/>
<g opacity="0.6">
<path d="M509.711 448.891L522.811 448.451L522.891 447.211L510.371 447.311L509.711 448.741" fill="white"/>
</g>
<path d="M569.578 445.101L549.198 327.871C549.198 327.701 549.108 327.531 549.068 327.361C545.588 313.581 542.848 310.201 542.848 310.201L508.998 311.101C506.348 315.871 505.998 327.331 505.998 327.331C505.638 328.741 512.598 442.571 512.598 442.571L523.048 442.281L528.718 334.581L558.998 445.341L569.578 445.101Z" fill="#FFBE9D"/>
<path d="M456.002 252.13C455.922 249.99 456.822 245.9 457.332 245.58C457.842 245.26 458.432 245.87 458.192 246.48C457.988 247.172 457.88 247.889 457.872 248.61C457.838 249.188 457.906 249.766 458.072 250.32C458.212 250.8 458.352 251.22 458.482 251.6L458.712 252.29L481.102 272.29L495.102 271.43L497.882 285.71L475.122 283.71L451.712 258C449.712 256.58 447.712 254.83 446.432 254C444.132 252.5 444.792 252.09 445.072 251.85L456.002 252.13Z" fill="#FFBE9D"/>
<path d="M581.722 240.21L567.783 268.68L553.783 274.63L548.562 262.06L558.812 259.35L574.763 233.89V233.16C574.763 232.77 574.763 232.33 574.763 231.84C574.762 231.255 574.664 230.673 574.472 230.12C574.273 229.414 573.973 228.741 573.583 228.12C573.173 227.6 573.582 226.85 574.162 227.01C574.742 227.17 575.883 228.58 576.393 230.65C576.903 232.72 578.283 229.7 578.812 228.65C579.342 227.6 581.102 224.27 581.562 224.18C582.233 224.03 582.562 224.74 581.972 225.82C581.382 226.9 579.973 230.24 580.583 230.51L581.583 230.45L582.362 234.31C582.805 236.294 582.58 238.368 581.722 240.21V240.21Z" fill="#FFBE9D"/>
<path d="M572.567 446.211L572.517 444.881L558.977 445.271L559.097 449.671H559.937C563.657 449.761 578.877 449.891 581.337 449.131C584.087 448.301 572.567 446.211 572.567 446.211Z" fill="#FF725E"/>
<g opacity="0.6">
<path d="M564 449.44C563.756 448.37 563.112 447.433 562.2 446.82C561.264 446.178 560.13 445.887 559 446L559.11 449.5L564 449.44Z" fill="white"/>
</g>
<g opacity="0.6">
<path d="M578.202 447.42C578.202 447.42 582.202 448.42 581.762 449.01C581.322 449.6 565.902 450.01 559.102 449.67V449.39L577.052 449.06C577.052 449.06 577.422 447.47 578.202 447.42Z" fill="white"/>
</g>
<path d="M558.898 449.39H559.138H559.798H562.248C564.318 449.39 567.178 449.39 570.338 449.31C573.498 449.23 576.338 449.1 578.418 448.98L580.868 448.82L581.528 448.76H581.758H581.528H580.858L578.418 448.87C576.348 448.96 573.488 449.08 570.338 449.16C567.188 449.24 564.338 449.27 562.248 449.28H559.798H558.898V449.39Z" fill="#263238"/>
<path d="M577.057 449.26C577.153 448.876 577.298 448.506 577.487 448.16C577.72 447.831 577.988 447.529 578.287 447.26C577.886 447.416 577.55 447.705 577.337 448.08C577.095 448.422 576.994 448.845 577.057 449.26V449.26Z" fill="#263238"/>
<path d="M573 447.491C573 447.491 573.22 447.291 573.41 446.991C573.6 446.691 573.72 446.451 573.68 446.421C573.64 446.391 573.46 446.621 573.27 446.921C573.08 447.221 573 447.461 573 447.491Z" fill="#263238"/>
<path d="M571.918 447C571.918 447 572.158 446.89 572.388 446.69C572.618 446.49 572.768 446.3 572.738 446.27C572.708 446.24 572.498 446.38 572.278 446.58C572.058 446.78 571.888 447 571.918 447Z" fill="#263238"/>
<path d="M571.203 445.811C571.203 445.861 571.513 445.891 571.903 445.881C572.14 445.899 572.378 445.869 572.603 445.791C572.141 445.697 571.665 445.697 571.203 445.791V445.811Z" fill="#263238"/>
<path d="M570.93 445.001C571.175 445.132 571.451 445.198 571.73 445.191C572.002 445.228 572.28 445.186 572.53 445.071C572.264 445.043 571.996 445.043 571.73 445.071C571.466 445.019 571.198 444.995 570.93 445.001V445.001Z" fill="#263238"/>
<path d="M573.453 446.379C573.741 446.431 574.035 446.431 574.323 446.379C574.633 446.34 574.938 446.27 575.233 446.169C575.417 446.116 575.595 446.042 575.763 445.949C575.859 445.895 575.931 445.805 575.963 445.699C575.975 445.638 575.967 445.575 575.942 445.518C575.917 445.461 575.876 445.413 575.823 445.379C575.484 445.223 575.103 445.185 574.74 445.272C574.377 445.359 574.054 445.566 573.823 445.859C573.697 446.022 573.608 446.209 573.563 446.409C573.563 446.549 573.563 446.629 573.563 446.629C573.644 446.376 573.77 446.139 573.933 445.929C574.127 445.707 574.38 445.544 574.663 445.459C574.986 445.342 575.34 445.342 575.663 445.459C575.803 445.549 575.753 445.699 575.603 445.789C575.451 445.876 575.29 445.946 575.123 445.999C574.836 446.1 574.542 446.18 574.243 446.239C573.783 446.349 573.453 446.359 573.453 446.379Z" fill="#263238"/>
<path d="M573.677 446.421C573.771 446.246 573.799 446.044 573.757 445.851C573.72 445.641 573.635 445.442 573.507 445.271C573.423 445.152 573.312 445.055 573.184 444.987C573.055 444.919 572.912 444.883 572.767 444.881C572.725 444.888 572.684 444.904 572.649 444.927C572.613 444.95 572.582 444.981 572.559 445.016C572.535 445.052 572.52 445.092 572.512 445.134C572.505 445.176 572.507 445.219 572.517 445.261C572.541 445.392 572.596 445.515 572.677 445.621C572.796 445.795 572.937 445.953 573.097 446.091C573.237 446.237 573.413 446.343 573.607 446.401C573.607 446.401 573.427 446.261 573.177 446.021C573.039 445.872 572.915 445.712 572.807 445.541C572.677 445.381 572.587 445.071 572.807 445.031C573.027 444.991 573.247 445.201 573.387 445.361C573.51 445.509 573.599 445.684 573.647 445.871C573.671 446.053 573.681 446.237 573.677 446.421V446.421Z" fill="#263238"/>
<path d="M559.07 445.999C559.07 445.999 559.46 445.999 560.07 445.999C560.858 446.069 561.615 446.337 562.27 446.779C562.89 447.22 563.378 447.822 563.68 448.519C563.9 449.049 563.93 449.409 563.96 449.409C563.976 449.327 563.976 449.242 563.96 449.159C563.933 448.931 563.879 448.706 563.8 448.489C563.517 447.748 563.019 447.107 562.37 446.649C561.697 446.187 560.907 445.924 560.09 445.889C559.844 445.865 559.596 445.865 559.35 445.889L559.07 445.999Z" fill="#263238"/>
<path d="M565.641 448.18C566.949 448.377 568.28 448.353 569.581 448.11C569.581 448.06 568.691 448.11 567.581 448.11C566.471 448.11 565.641 448.13 565.641 448.18Z" fill="#263238"/>
<path d="M563 448.24C563 448.24 563.08 448.41 563.17 448.6C563.26 448.79 563.32 448.95 563.37 448.94C563.42 448.93 563.43 448.75 563.37 448.53C563.31 448.31 563 448.21 563 448.24Z" fill="#263238"/>
<path d="M562 447.12C562 447.12 562.06 447.28 562.2 447.4C562.34 447.52 562.49 447.61 562.52 447.58C562.55 447.55 562.46 447.42 562.32 447.29C562.18 447.16 562 447.09 562 447.12Z" fill="#263238"/>
<path d="M560.532 446.63C560.532 446.63 560.722 446.63 560.922 446.72C561.122 446.81 561.272 446.88 561.302 446.85C561.332 446.82 561.222 446.65 560.972 446.58C560.722 446.51 560.522 446.59 560.532 446.63Z" fill="#263238"/>
<path d="M559.508 446.411C559.508 446.411 559.568 446.511 559.688 446.551C559.808 446.591 559.898 446.551 559.918 446.551C559.938 446.551 559.858 446.451 559.738 446.411C559.618 446.371 559.528 446.371 559.508 446.411Z" fill="#263238"/>
<path d="M539.841 285.321L540.251 283.821C541.251 283.171 553.521 275.541 553.981 275.471C554.441 275.401 548.531 261.471 548.531 261.471L534.611 263.471C533.317 263.194 532.002 263.034 530.681 262.991L517.481 262.881C517.481 262.881 511.571 263.581 509.691 264.951L494.891 270.541L498.241 287.761L511.141 285.491C510.511 287.251 511.141 290.311 511.661 293.791C512.331 298.081 512.661 304.071 510.511 307.791C510.511 307.791 507.781 317.201 507.781 324.681L545.631 320.261C545.631 320.261 545.521 312.131 538.031 302.481L538.381 292.311L539.841 285.321Z" fill="#263238"/>
<path d="M512.35 281C512.076 279.927 511.886 278.833 511.78 277.73L512.07 277.85L508.5 280.5L508.14 280.77V280.32C508.05 279.21 507.95 278.01 507.85 276.76L508.26 276.96L508.09 277.07L504.15 279.69L503.88 279.87L503.79 279.57C503.436 278.479 503.228 277.346 503.17 276.2L503.44 276.36C502.697 276.694 502.037 277.19 501.51 277.81C501.33 278.058 501.137 278.295 500.93 278.52C501.01 278.217 501.153 277.935 501.35 277.69C501.843 276.981 502.507 276.407 503.28 276.02L503.52 275.9V276.18C503.622 277.285 503.857 278.372 504.22 279.42L503.86 279.3L507.78 276.64L507.95 276.53L508.32 276.28V276.72C508.41 277.97 508.5 279.17 508.58 280.29L508.19 280.1L511.84 277.56L512.1 277.37V277.68C512.27 278.779 512.353 279.889 512.35 281V281Z" fill="#FAFAFA"/>
<path d="M531.342 274.5C530.528 273.744 529.775 272.925 529.092 272.05L529.402 272L527.832 276.17L527.682 276.58L527.412 276.23L525.242 273.39L525.682 273.34L525.612 273.52C524.932 275.06 524.302 276.52 523.712 277.86L523.592 278.15L523.342 277.95C522.453 277.229 521.666 276.391 521.002 275.46H521.312C520.866 276.143 520.582 276.92 520.482 277.73C520.402 278.31 520.422 278.63 520.382 278.64C520.272 278.343 520.234 278.024 520.272 277.71C520.304 276.849 520.552 276.01 520.992 275.27L521.132 275.04L521.302 275.25C521.983 276.125 522.769 276.915 523.642 277.6L523.282 277.7C523.852 276.35 524.472 274.88 525.132 273.34L525.212 273.15L525.382 272.74L525.652 273.1L527.802 275.95L527.372 276.01L529.062 271.89L529.182 271.6L529.372 271.84C530.095 272.675 530.754 273.564 531.342 274.5Z" fill="#FAFAFA"/>
<path d="M515.153 285.131C514.907 286.216 514.572 287.28 514.153 288.311L513.953 288.071L518.333 287.301L518.773 287.221L518.603 287.631C518.183 288.631 517.733 289.781 517.273 290.941L516.993 290.591H517.193L521.893 290.011H522.203V290.321C522.016 291.457 521.679 292.563 521.203 293.611L521.033 293.361C521.849 293.388 522.661 293.238 523.413 292.921C523.682 292.778 523.959 292.651 524.243 292.541C524.041 292.784 523.784 292.976 523.493 293.101C522.735 293.514 521.886 293.731 521.023 293.731H520.763L520.863 293.471C521.261 292.433 521.54 291.352 521.693 290.251L521.953 290.521L517.263 291.151H517.063L516.613 291.211L516.783 290.801L518.153 287.501L518.413 287.831L514.013 288.481L513.703 288.531L513.813 288.241C514.184 287.173 514.632 286.134 515.153 285.131Z" fill="#FAFAFA"/>
<path d="M537.552 266.061C537.305 267.146 536.971 268.209 536.552 269.241L536.352 269.001L540.732 268.231L541.162 268.151L541.002 268.561L539.662 271.871L539.392 271.521H539.592L544.292 270.941H544.602V271.251C544.419 272.387 544.082 273.494 543.602 274.541L543.442 274.281C544.254 274.316 545.064 274.169 545.812 273.851C546.08 273.707 546.357 273.58 546.642 273.471C546.642 273.471 546.432 273.731 545.902 274.031C545.144 274.443 544.294 274.657 543.432 274.651H543.162L543.262 274.391C543.669 273.355 543.948 272.274 544.092 271.171L544.362 271.441L539.662 272.071H539.462L539.022 272.131L539.192 271.721C539.672 270.561 540.132 269.451 540.552 268.421L540.822 268.751L536.422 269.401H536.102L536.222 269.121C536.581 268.066 537.026 267.043 537.552 266.061V266.061Z" fill="#FAFAFA"/>
<path d="M510.109 266.541C510.636 267.503 511.084 268.506 511.449 269.541L511.139 269.491C511.959 268.491 512.919 267.331 513.969 266.051L514.249 265.711L514.389 266.141L515.519 269.521L515.079 269.431L515.219 269.281L518.419 265.791L518.629 265.561L518.789 265.821C519.399 266.813 519.873 267.883 520.199 269.001L519.909 268.921C520.546 268.412 521.065 267.77 521.429 267.041C521.537 266.757 521.668 266.483 521.819 266.221C521.812 266.532 521.74 266.838 521.609 267.121C521.302 267.926 520.796 268.642 520.139 269.201L519.939 269.381L519.849 269.121C519.483 268.066 518.993 267.059 518.389 266.121H518.769L515.599 269.641L515.469 269.791L515.159 270.121L515.029 269.691L513.919 266.301L514.339 266.381L511.409 269.731L511.209 269.971L511.099 269.681C510.69 268.661 510.359 267.611 510.109 266.541V266.541Z" fill="#FAFAFA"/>
<path d="M530.203 283.281C531.137 283.873 532.02 284.542 532.843 285.281L532.553 285.381C532.793 284.101 533.063 282.631 533.373 281.011L533.453 280.571L533.773 280.881C534.603 281.631 535.483 282.451 536.403 283.291L535.973 283.421V283.231C536.363 281.601 536.743 280.051 537.083 278.621L537.163 278.321L537.433 278.471C538.433 279.034 539.354 279.727 540.173 280.531L539.873 280.591C540.189 279.842 540.336 279.033 540.303 278.221C540.262 277.919 540.242 277.615 540.243 277.311C540.398 277.583 540.487 277.888 540.503 278.201C540.619 279.055 540.52 279.925 540.213 280.731L540.123 280.981L539.923 280.801C539.094 280.06 538.181 279.418 537.203 278.891L537.553 278.731C537.223 280.161 536.853 281.731 536.473 283.351V283.541L536.373 283.981L536.043 283.671L533.433 281.241L533.843 281.101C533.493 282.721 533.173 284.181 532.843 285.451L532.783 285.761L532.553 285.551C531.718 284.85 530.932 284.091 530.203 283.281V283.281Z" fill="#FAFAFA"/>
<path d="M532.16 291.68C531.256 292.323 530.303 292.894 529.31 293.39V293.08L533.07 295.45L533.44 295.68L533.04 295.88L529.83 297.43V296.98L529.99 297.1L533.86 299.83L534.12 300.01L533.88 300.21C532.999 300.924 532.031 301.525 531 302V301.7C531.583 302.272 532.287 302.706 533.06 302.97C533.355 303.047 533.646 303.141 533.93 303.25C533.618 303.294 533.299 303.263 533 303.16C532.164 302.954 531.391 302.545 530.75 301.97L530.55 301.79L530.8 301.66C531.795 301.169 532.725 300.558 533.57 299.84V300.22L529.67 297.53L529.51 297.41L529.14 297.15L529.54 296.96L532.77 295.43V295.86L529.08 293.38L528.82 293.21L529.09 293.07C530.076 292.528 531.102 292.063 532.16 291.68Z" fill="#FAFAFA"/>
<path d="M511.656 306.2C512.731 306.483 513.781 306.851 514.796 307.3L514.546 307.49C514.376 306.2 514.176 304.71 513.966 303.08L513.906 302.64L514.306 302.82L517.556 304.3L517.196 304.56V304.36C517.066 302.69 516.936 301.1 516.826 299.64V299.33L517.136 299.39C518.26 299.612 519.35 299.982 520.376 300.49L520.116 300.64C520.178 299.829 520.062 299.013 519.776 298.25C519.649 297.973 519.535 297.689 519.436 297.4C519.671 297.612 519.853 297.875 519.966 298.17C520.341 298.949 520.519 299.807 520.486 300.67V300.93L520.226 300.82C519.212 300.364 518.148 300.028 517.056 299.82L517.336 299.57L517.756 304.29V304.49V304.93L517.356 304.75L514.116 303.24L514.466 302.99C514.626 304.63 514.786 306.12 514.916 307.41V307.73L514.636 307.6C513.608 307.211 512.612 306.743 511.656 306.2V306.2Z" fill="#FAFAFA"/>
<path d="M510.508 265.171C510.85 265.075 511.209 265.058 511.558 265.121C512.524 265.236 513.449 265.579 514.258 266.121C515.474 266.901 516.447 268.006 517.068 269.311C517.827 270.898 518.2 272.642 518.158 274.401C518.088 277.6 516.863 280.666 514.708 283.031C514.062 283.733 513.337 284.357 512.548 284.891C512.264 285.097 511.95 285.259 511.618 285.371C512.633 284.598 513.577 283.734 514.438 282.791C516.431 280.438 517.56 277.474 517.638 274.391C517.681 272.713 517.338 271.047 516.638 269.521C516.073 268.277 515.182 267.209 514.058 266.431C513.003 265.711 511.78 265.277 510.508 265.171V265.171Z" fill="#455A64"/>
<path d="M508.392 311.59C498.532 342.7 510.002 381.41 507.002 417.66C506.722 420.99 505.442 424.93 508.002 427.08C508.786 427.647 509.691 428.023 510.646 428.177C511.601 428.332 512.579 428.261 513.502 427.97C515.335 427.379 517.126 426.664 518.862 425.83C523.424 424.027 528.465 423.833 533.152 425.28C536.302 426.28 539.422 427.99 542.672 427.5C547.002 426.84 549.802 422.57 553.782 420.76C557.512 419.06 561.782 419.69 565.912 419.59C570.042 419.49 574.692 418.13 576.252 414.34C576.252 414.34 547.972 308.73 538.062 302.43L511.792 304.1L508.392 311.59Z" fill="#455A64"/>
<path d="M537.698 330.919C537.698 331.029 533.958 332.099 529.278 333.309C524.598 334.519 520.788 335.419 520.758 335.309C523.523 334.369 526.333 333.568 529.178 332.909C533.848 331.699 537.668 330.809 537.698 330.919Z" fill="#263238"/>
<path d="M203.068 241.851L150.218 241.601C148.708 241.597 147.214 241.295 145.821 240.713C144.428 240.132 143.163 239.281 142.098 238.21C141.034 237.14 140.191 235.87 139.618 234.473C139.045 233.076 138.753 231.58 138.758 230.071L139.318 98.0005C139.327 96.4903 139.634 94.9967 140.22 93.605C140.806 92.2132 141.661 90.9506 142.736 89.8892C143.81 88.8279 145.083 87.9885 146.482 87.4191C147.88 86.8496 149.378 86.5613 150.888 86.5705L203.728 86.8205C205.237 86.8231 206.731 87.1233 208.124 87.7039C209.517 88.2845 210.782 89.1342 211.847 90.2041C212.911 91.2741 213.754 92.5435 214.327 93.9397C214.901 95.3358 215.193 96.8313 215.188 98.3405L214.628 230.461C214.599 233.502 213.366 236.408 211.2 238.542C209.033 240.677 206.109 241.867 203.068 241.851Z" fill="#263238"/>
<path d="M203.656 91.3308H193.406C193.072 91.336 192.743 91.4069 192.437 91.5393C192.131 91.6718 191.854 91.8633 191.621 92.1029C191.389 92.3425 191.207 92.6255 191.084 92.9357C190.961 93.2459 190.901 93.5772 190.906 93.9108V95.7608C190.913 96.0944 190.853 96.426 190.732 96.7367C190.61 97.0474 190.429 97.3311 190.197 97.5716C189.966 97.8121 189.69 98.0047 189.384 98.1384C189.079 98.2721 188.75 98.3443 188.416 98.3508L168.416 98.2508C168.083 98.2367 167.756 98.1568 167.453 98.0158C167.151 97.8748 166.88 97.6754 166.655 97.4291C166.43 97.1828 166.256 96.8945 166.143 96.5807C166.03 96.267 165.98 95.9339 165.996 95.6008V93.7508C166.005 93.4172 165.949 93.085 165.83 92.7733C165.711 92.4616 165.531 92.1763 165.302 91.934C165.072 91.6916 164.797 91.4968 164.493 91.3607C164.188 91.2246 163.86 91.1498 163.526 91.1408H159.916H150.916C149.859 91.1342 148.811 91.3359 147.831 91.7344C146.852 92.1329 145.961 92.7203 145.209 93.4632C144.457 94.206 143.858 95.0898 143.448 96.064C143.037 97.0381 142.822 98.0836 142.816 99.1408L142.266 228.141C142.257 229.197 142.457 230.245 142.855 231.224C143.253 232.202 143.84 233.093 144.584 233.843C145.328 234.593 146.213 235.189 147.188 235.595C148.163 236.002 149.209 236.211 150.266 236.211L203.006 236.451C204.063 236.457 205.111 236.256 206.09 235.857C207.07 235.459 207.961 234.871 208.713 234.128C209.465 233.386 210.063 232.502 210.474 231.528C210.885 230.553 211.099 229.508 211.106 228.451L211.646 99.4508C211.662 98.391 211.467 97.3386 211.073 96.3548C210.678 95.3709 210.093 94.4752 209.349 93.7198C208.606 92.9643 207.72 92.364 206.742 91.9539C205.765 91.5438 204.716 91.332 203.656 91.3308Z" fill="white"/>
<path d="M202.996 144.141C202.996 144.281 191.526 144.401 177.386 144.401C163.246 144.401 151.766 144.281 151.766 144.141C151.766 144.001 163.236 143.881 177.386 143.881C191.536 143.881 202.996 144.001 202.996 144.141Z" fill="#263238"/>
<path d="M202.996 147.291C202.996 147.441 191.526 147.551 177.386 147.551C163.246 147.551 151.766 147.441 151.766 147.291C151.766 147.141 163.236 147.031 177.386 147.031C191.536 147.031 202.996 147.151 202.996 147.291Z" fill="#263238"/>
<path d="M185.69 150.121C185.69 150.261 181.07 150.381 175.38 150.381C169.69 150.381 165.07 150.261 165.07 150.121C168.5 149.857 171.941 149.77 175.38 149.861C178.819 149.771 182.26 149.857 185.69 150.121V150.121Z" fill="#263238"/>
<path d="M202.971 157.061H148.781V191.751H202.971V157.061Z" fill="#FF725E"/>
<path d="M154.467 166.071C155.665 166.071 156.637 165.117 156.637 163.941C156.637 162.764 155.665 161.811 154.467 161.811C153.268 161.811 152.297 162.764 152.297 163.941C152.297 165.117 153.268 166.071 154.467 166.071Z" fill="#FAFAFA"/>
<path d="M199.999 165.74L198.249 164L196.599 165.66L196.539 160.66H199.979L199.999 165.74ZM198.209 163.81L198.269 163.86L199.839 165.37V160.83H196.709L196.759 165.27L198.209 163.81Z" fill="#FAFAFA"/>
<path d="M186.387 162.811C186.387 162.961 180.437 163.071 173.087 163.071C165.737 163.071 159.797 162.961 159.797 162.811C159.797 162.661 165.747 162.551 173.087 162.551C180.427 162.551 186.387 162.671 186.387 162.811Z" fill="#FAFAFA"/>
<path d="M170.047 165.741C168.353 165.998 166.638 166.085 164.927 166.001C163.212 166.085 161.494 165.998 159.797 165.741C161.493 165.472 163.212 165.382 164.927 165.471C166.638 165.381 168.354 165.472 170.047 165.741Z" fill="#FAFAFA"/>
<path d="M163.484 91.1408H159.874H150.874C149.817 91.1342 148.769 91.3359 147.79 91.7344C146.81 92.1329 145.919 92.7203 145.167 93.4632C144.415 94.206 143.817 95.0898 143.406 96.064C142.995 97.0381 142.781 98.0836 142.774 99.1408L142.664 123.591C145.374 124.141 148.084 124.671 150.794 125.141C164.794 127.581 179.724 128.451 192.514 122.351C199.604 118.981 205.514 113.711 211.594 108.711V99.4508C211.603 98.3943 211.403 97.3465 211.005 96.3678C210.607 95.3891 210.02 94.4989 209.276 93.7486C208.532 92.9983 207.647 92.4028 206.672 91.9964C205.697 91.59 204.651 91.3807 203.594 91.3808H193.344C193.011 91.386 192.681 91.4569 192.375 91.5894C192.069 91.7218 191.792 91.9133 191.56 92.1529C191.327 92.3925 191.145 92.6755 191.022 92.9857C190.899 93.2959 190.839 93.6272 190.844 93.9608V95.8108C190.851 96.1444 190.792 96.476 190.67 96.7867C190.548 97.0974 190.367 97.3811 190.136 97.6216C189.904 97.8621 189.628 98.0547 189.322 98.1884C189.017 98.3221 188.688 98.3943 188.354 98.4008L168.354 98.3008C168.022 98.2792 167.697 98.1921 167.398 98.0446C167.099 97.8971 166.832 97.692 166.613 97.4411C166.394 97.1902 166.226 96.8985 166.12 96.5827C166.014 96.2669 165.971 95.9332 165.994 95.6008V93.7508C166.003 93.4139 165.946 93.0785 165.824 92.7642C165.702 92.4499 165.519 92.1629 165.286 91.92C165.052 91.6771 164.773 91.4831 164.463 91.3493C164.154 91.2155 163.821 91.1446 163.484 91.1408V91.1408ZM167.704 106.871C167.704 108.301 167.28 109.699 166.485 110.889C165.69 112.078 164.56 113.004 163.239 113.551C161.917 114.098 160.463 114.241 159.06 113.961C157.657 113.681 156.369 112.992 155.358 111.98C154.347 110.967 153.66 109.678 153.382 108.275C153.104 106.872 153.249 105.418 153.797 104.097C154.346 102.776 155.274 101.648 156.465 100.854C157.655 100.061 159.054 99.6388 160.484 99.6408C162.4 99.6434 164.236 100.406 165.59 101.762C166.944 103.118 167.704 104.955 167.704 106.871V106.871Z" fill="#FF725E"/>
<path d="M150.836 125.09C148.126 124.62 145.416 124.09 142.706 123.54L142.656 136H211.526L211.636 108.67C205.546 113.67 199.636 118.94 192.556 122.31C179.766 128.4 164.796 127.53 150.836 125.09ZM171.836 131.6C171.714 131.6 171.594 131.564 171.492 131.495C171.39 131.427 171.31 131.33 171.263 131.217C171.217 131.104 171.204 130.979 171.228 130.859C171.252 130.739 171.311 130.628 171.398 130.542C171.485 130.455 171.595 130.396 171.715 130.372C171.836 130.348 171.96 130.36 172.074 130.407C172.187 130.454 172.284 130.534 172.352 130.635C172.42 130.737 172.456 130.857 172.456 130.98C172.456 131.065 172.439 131.149 172.406 131.227C172.372 131.305 172.323 131.375 172.261 131.433C172.199 131.491 172.126 131.536 172.046 131.565C171.966 131.593 171.881 131.605 171.796 131.6H171.836ZM175.776 131.6C175.654 131.6 175.534 131.564 175.432 131.495C175.33 131.427 175.25 131.33 175.203 131.217C175.157 131.104 175.144 130.979 175.168 130.859C175.192 130.739 175.251 130.628 175.338 130.542C175.425 130.455 175.535 130.396 175.655 130.372C175.776 130.348 175.9 130.36 176.014 130.407C176.127 130.454 176.224 130.534 176.292 130.635C176.36 130.737 176.396 130.857 176.396 130.98C176.396 131.065 176.379 131.149 176.346 131.227C176.312 131.305 176.263 131.375 176.201 131.433C176.139 131.491 176.066 131.536 175.986 131.565C175.906 131.593 175.821 131.605 175.736 131.6H175.776ZM179.716 131.6C179.594 131.6 179.474 131.564 179.372 131.495C179.27 131.427 179.19 131.33 179.143 131.217C179.097 131.104 179.084 130.979 179.108 130.859C179.132 130.739 179.191 130.628 179.278 130.542C179.365 130.455 179.475 130.396 179.595 130.372C179.716 130.348 179.84 130.36 179.954 130.407C180.067 130.454 180.164 130.534 180.232 130.635C180.3 130.737 180.336 130.857 180.336 130.98C180.336 131.065 180.319 131.149 180.286 131.227C180.252 131.305 180.203 131.375 180.141 131.433C180.079 131.491 180.006 131.536 179.926 131.565C179.846 131.593 179.761 131.605 179.676 131.6H179.716Z" fill="#FF725E"/>
<path d="M171.8 130.361C171.677 130.361 171.557 130.398 171.455 130.466C171.353 130.534 171.274 130.631 171.227 130.744C171.18 130.857 171.168 130.982 171.192 131.102C171.216 131.223 171.275 131.333 171.361 131.42C171.448 131.506 171.558 131.565 171.679 131.589C171.799 131.613 171.924 131.601 172.037 131.554C172.15 131.507 172.247 131.428 172.315 131.326C172.383 131.224 172.42 131.104 172.42 130.981C172.42 130.817 172.354 130.659 172.238 130.543C172.122 130.427 171.964 130.361 171.8 130.361Z" fill="#263238"/>
<path d="M175.737 130.361C175.615 130.361 175.495 130.398 175.393 130.466C175.291 130.534 175.211 130.631 175.164 130.744C175.117 130.857 175.105 130.982 175.129 131.102C175.153 131.223 175.212 131.333 175.299 131.42C175.385 131.506 175.496 131.565 175.616 131.589C175.737 131.613 175.861 131.601 175.974 131.554C176.088 131.507 176.185 131.428 176.253 131.326C176.321 131.224 176.357 131.104 176.357 130.981C176.357 130.817 176.292 130.659 176.176 130.543C176.059 130.427 175.902 130.361 175.737 130.361V130.361Z" fill="#263238"/>
<path d="M179.675 130.361C179.552 130.361 179.432 130.398 179.33 130.466C179.228 130.534 179.149 130.631 179.102 130.744C179.055 130.857 179.043 130.982 179.067 131.102C179.091 131.223 179.15 131.333 179.236 131.42C179.323 131.506 179.433 131.565 179.554 131.589C179.674 131.613 179.799 131.601 179.912 131.554C180.025 131.507 180.122 131.428 180.19 131.326C180.258 131.224 180.295 131.104 180.295 130.981C180.295 130.9 180.279 130.819 180.247 130.744C180.216 130.669 180.171 130.6 180.113 130.543C180.056 130.485 179.987 130.44 179.912 130.409C179.837 130.377 179.756 130.361 179.675 130.361V130.361Z" fill="#263238"/>
<path d="M160.49 99.6406C159.06 99.6387 157.661 100.061 156.471 100.854C155.28 101.647 154.352 102.776 153.803 104.097C153.254 105.418 153.11 106.872 153.388 108.275C153.666 109.678 154.353 110.967 155.364 111.979C156.375 112.992 157.663 113.681 159.066 113.961C160.469 114.241 161.923 114.098 163.244 113.551C164.566 113.004 165.696 112.078 166.491 110.888C167.286 109.699 167.71 108.301 167.71 106.871C167.71 104.955 166.95 103.117 165.596 101.762C164.242 100.406 162.406 99.6433 160.49 99.6406V99.6406Z" fill="#FF725E"/>
<g opacity="0.3">
<path d="M160.49 99.6406C159.06 99.6387 157.661 100.061 156.471 100.854C155.28 101.647 154.352 102.776 153.803 104.097C153.254 105.418 153.11 106.872 153.388 108.275C153.666 109.678 154.353 110.967 155.364 111.979C156.375 112.992 157.663 113.681 159.066 113.961C160.469 114.241 161.923 114.098 163.244 113.551C164.566 113.004 165.696 112.078 166.491 110.888C167.286 109.699 167.71 108.301 167.71 106.871C167.71 104.955 166.95 103.117 165.596 101.762C164.242 100.406 162.406 99.6433 160.49 99.6406V99.6406Z" fill="black"/>
</g>
<path d="M148.781 236.001C149.282 236.097 149.791 236.147 150.301 236.151L201.971 236.391V209.201H148.781V236.001ZM199.001 212.821L199.061 217.871L197.311 216.161L195.681 217.821L195.631 212.821H199.001ZM154.371 214.001C154.793 214.001 155.204 214.126 155.555 214.36C155.905 214.594 156.178 214.927 156.339 215.316C156.5 215.705 156.543 216.134 156.46 216.547C156.378 216.96 156.175 217.339 155.877 217.637C155.58 217.935 155.2 218.138 154.787 218.22C154.374 218.302 153.945 218.26 153.556 218.099C153.167 217.938 152.834 217.665 152.6 217.315C152.366 216.964 152.241 216.552 152.241 216.131C152.241 215.566 152.466 215.024 152.865 214.625C153.265 214.226 153.806 214.001 154.371 214.001Z" fill="#455A64"/>
<path d="M197.335 215.941L197.385 216.001L198.925 217.501L198.875 212.971L195.805 213.001L195.855 217.451L197.335 215.941Z" fill="#455A64"/>
<path d="M154.364 218.211C155.541 218.211 156.494 217.258 156.494 216.081C156.494 214.905 155.541 213.951 154.364 213.951C153.188 213.951 152.234 214.905 152.234 216.081C152.234 217.258 153.188 218.211 154.364 218.211Z" fill="#FAFAFA"/>
<path d="M197.336 216.16L199.086 217.87L199.026 212.82H195.656L195.706 217.82L197.336 216.16ZM198.876 212.97L198.926 217.51L197.386 216L197.326 215.94L195.856 217.45L195.806 213L198.876 212.97Z" fill="#FAFAFA"/>
<g opacity="0.3">
<path d="M150.836 125.09C148.126 124.62 145.416 124.09 142.706 123.54L142.656 136H211.526L211.636 108.67C205.546 113.67 199.636 118.94 192.556 122.31C179.766 128.4 164.796 127.53 150.836 125.09ZM171.836 131.6C171.714 131.6 171.594 131.564 171.492 131.495C171.39 131.427 171.31 131.33 171.263 131.217C171.217 131.104 171.204 130.979 171.228 130.859C171.252 130.739 171.311 130.628 171.398 130.542C171.485 130.455 171.595 130.396 171.715 130.372C171.836 130.348 171.96 130.36 172.074 130.407C172.187 130.454 172.284 130.534 172.352 130.635C172.42 130.737 172.456 130.857 172.456 130.98C172.456 131.065 172.439 131.149 172.406 131.227C172.372 131.305 172.323 131.375 172.261 131.433C172.199 131.491 172.126 131.536 172.046 131.565C171.966 131.593 171.881 131.605 171.796 131.6H171.836ZM175.776 131.6C175.654 131.6 175.534 131.564 175.432 131.495C175.33 131.427 175.25 131.33 175.203 131.217C175.157 131.104 175.144 130.979 175.168 130.859C175.192 130.739 175.251 130.628 175.338 130.542C175.425 130.455 175.535 130.396 175.655 130.372C175.776 130.348 175.9 130.36 176.014 130.407C176.127 130.454 176.224 130.534 176.292 130.635C176.36 130.737 176.396 130.857 176.396 130.98C176.396 131.065 176.379 131.149 176.346 131.227C176.312 131.305 176.263 131.375 176.201 131.433C176.139 131.491 176.066 131.536 175.986 131.565C175.906 131.593 175.821 131.605 175.736 131.6H175.776ZM179.716 131.6C179.594 131.6 179.474 131.564 179.372 131.495C179.27 131.427 179.19 131.33 179.143 131.217C179.097 131.104 179.084 130.979 179.108 130.859C179.132 130.739 179.191 130.628 179.278 130.542C179.365 130.455 179.475 130.396 179.595 130.372C179.716 130.348 179.84 130.36 179.954 130.407C180.067 130.454 180.164 130.534 180.232 130.635C180.3 130.737 180.336 130.857 180.336 130.98C180.336 131.065 180.319 131.149 180.286 131.227C180.252 131.305 180.203 131.375 180.141 131.433C180.079 131.491 180.006 131.536 179.926 131.565C179.846 131.593 179.761 131.605 179.676 131.6H179.716Z" fill="black"/>
</g>
<path d="M201.531 195.231C201.531 195.381 189.721 195.491 175.161 195.491C160.601 195.491 148.781 195.381 148.781 195.231C148.781 195.081 160.591 194.971 175.161 194.971C189.731 194.971 201.531 195.091 201.531 195.231Z" fill="#263238"/>
<path d="M201.531 197.901C201.531 198.041 189.721 198.161 175.161 198.161C160.601 198.161 148.781 198.041 148.781 197.901C148.781 197.761 160.591 197.641 175.161 197.641C189.731 197.641 201.531 197.751 201.531 197.901Z" fill="#263238"/>
<path d="M201.531 200.94C201.531 201.08 189.721 201.2 175.161 201.2C160.601 201.2 148.781 201.08 148.781 200.94C148.781 200.8 160.591 200.68 175.161 200.68C189.731 200.68 201.531 200.8 201.531 200.94Z" fill="#263238"/>
<path d="M176.271 203.58C176.271 203.73 170.121 203.84 162.531 203.84C154.941 203.84 148.781 203.73 148.781 203.58C148.781 203.43 154.941 203.32 162.531 203.32C170.121 203.32 176.271 203.44 176.271 203.58Z" fill="#263238"/>
<path d="M65.8216 252.689H308.502C310.289 252.689 312.003 253.4 313.267 254.664C314.531 255.928 315.242 257.642 315.242 259.429V408.179C315.242 412.044 313.706 415.75 310.974 418.482C308.242 421.214 304.536 422.749 300.672 422.749H72.6716C68.8074 422.749 65.1014 421.214 62.369 418.482C59.6366 415.75 58.1016 412.044 58.1016 408.179V260.439C58.1016 258.384 58.9181 256.413 60.3715 254.959C61.8249 253.506 63.7961 252.689 65.8516 252.689H65.8216Z" fill="#263238"/>
<path d="M47.3213 410.17H325.941V411.33C325.941 414.969 324.496 418.458 321.923 421.031C319.35 423.604 315.86 425.05 312.221 425.05H61.0013C57.3625 425.05 53.8727 423.604 51.2997 421.031C48.7267 418.458 47.2812 414.969 47.2812 411.33V410.17H47.3213Z" fill="#263238"/>
<path d="M307.609 259.439H64.9688V403.049H307.609V259.439Z" fill="#455A64"/>
<path d="M161.305 410.17L164.765 415.67H213.415L216.625 410.17H161.305Z" fill="#455A64"/>
<path d="M296.47 269.01H73.0703V403H296.47V269.01Z" fill="white"/>
<path d="M82.6037 275.62C82.6037 275.993 82.4932 276.356 82.2862 276.666C82.0792 276.975 81.785 277.216 81.4409 277.358C81.0968 277.5 80.7182 277.537 80.3533 277.463C79.9883 277.39 79.6534 277.21 79.3908 276.946C79.1283 276.682 78.9501 276.346 78.8787 275.981C78.8073 275.616 78.8459 275.237 78.9897 274.894C79.1336 274.551 79.3761 274.258 79.6866 274.052C79.997 273.847 80.3615 273.738 80.7338 273.74C80.9802 273.74 81.2242 273.789 81.4517 273.884C81.6792 273.978 81.8858 274.117 82.0596 274.291C82.2334 274.466 82.3709 274.674 82.4643 274.902C82.5577 275.13 82.6051 275.374 82.6037 275.62Z" fill="#263238"/>
<path d="M90.2522 275.62C90.2522 275.993 90.1417 276.356 89.9346 276.666C89.7276 276.975 89.4334 277.216 89.0893 277.358C88.7452 277.5 88.3667 277.537 88.0017 277.463C87.6368 277.39 87.3018 277.21 87.0393 276.946C86.7768 276.682 86.5985 276.346 86.5271 275.981C86.4557 275.616 86.4944 275.237 86.6382 274.894C86.782 274.551 87.0245 274.258 87.335 274.052C87.6455 273.847 88.0099 273.738 88.3822 273.74C88.6286 273.74 88.8726 273.789 89.1001 273.884C89.3277 273.978 89.5343 274.117 89.708 274.291C89.8818 274.466 90.0193 274.674 90.1127 274.902C90.2061 275.13 90.2535 275.374 90.2522 275.62V275.62Z" fill="#263238"/>
<path d="M97.9006 275.619C97.9006 275.989 97.7908 276.352 97.5851 276.661C97.3794 276.97 97.087 277.211 96.7446 277.353C96.4023 277.496 96.0253 277.535 95.6611 277.464C95.297 277.393 94.962 277.216 94.6983 276.955C94.4346 276.694 94.254 276.361 94.1792 275.997C94.1044 275.634 94.1388 275.257 94.2781 274.913C94.4173 274.569 94.6551 274.274 94.9617 274.065C95.2682 273.856 95.6297 273.742 96.0006 273.739C96.2496 273.735 96.4968 273.78 96.7278 273.873C96.9588 273.966 97.169 274.104 97.3459 274.279C97.5229 274.454 97.6631 274.663 97.7584 274.893C97.8536 275.123 97.902 275.37 97.9006 275.619V275.619Z" fill="#263238"/>
<path d="M315.24 410.289H58.0703V411.109H315.24V410.289Z" fill="#455A64"/>
<path d="M238.38 345.6C238.38 345.74 214.57 345.86 185.21 345.86C155.85 345.86 132 345.74 132 345.6C132 345.46 155.8 345.34 185.17 345.34C214.54 345.34 238.38 345.45 238.38 345.6Z" fill="#263238"/>
<path d="M212.525 349.26C212.525 349.41 199.775 349.52 184.045 349.52C168.315 349.52 155.555 349.41 155.555 349.26C155.555 349.11 168.305 349 184.005 349C199.705 349 212.525 349.12 212.525 349.26Z" fill="#263238"/>
<path d="M148.958 361.66H89.3281V400.55H148.958V361.66Z" fill="#FF725E"/>
<path d="M97.9987 369.38C98.0007 369.852 97.8627 370.315 97.6022 370.708C97.3416 371.102 96.9702 371.41 96.5348 371.593C96.0995 371.776 95.6196 371.826 95.1559 371.737C94.6922 371.647 94.2654 371.422 93.9294 371.091C93.5934 370.759 93.3632 370.335 93.2679 369.872C93.1726 369.41 93.2165 368.929 93.394 368.492C93.5716 368.054 93.8748 367.679 94.2654 367.413C94.656 367.148 95.1165 367.004 95.5887 367C95.9034 366.997 96.2155 367.057 96.5072 367.175C96.7988 367.294 97.0642 367.468 97.2881 367.689C97.512 367.911 97.6901 368.174 97.812 368.464C97.934 368.754 97.9974 369.065 97.9987 369.38V369.38Z" fill="#FAFAFA"/>
<path d="M145.732 371.39L143.732 369.46L141.912 371.33L141.852 365.76H145.642L145.732 371.39ZM143.732 369.22L143.792 369.28L145.522 370.97L145.472 365.89H142.022V370.89L143.732 369.22Z" fill="#FAFAFA"/>
<path d="M130.713 368.11C130.713 368.25 124.163 368.37 116.083 368.37C108.003 368.37 101.453 368.25 101.453 368.11C101.453 367.97 108.003 367.85 116.083 367.85C124.163 367.85 130.713 368 130.713 368.11Z" fill="#FAFAFA"/>
<path d="M112.733 371.39C110.865 371.647 108.977 371.734 107.093 371.65C105.209 371.734 103.321 371.647 101.453 371.39C103.321 371.127 105.209 371.04 107.093 371.13C108.977 371.04 110.865 371.128 112.733 371.39V371.39Z" fill="#FAFAFA"/>
<path d="M215.021 361.66H155.391V400.55H215.021V361.66Z" fill="#455A64"/>
<path d="M163.999 369.38C163.999 369.853 163.859 370.315 163.596 370.708C163.333 371.101 162.96 371.407 162.523 371.588C162.087 371.769 161.606 371.817 161.142 371.724C160.679 371.632 160.253 371.404 159.919 371.07C159.585 370.736 159.357 370.31 159.265 369.846C159.172 369.383 159.22 368.902 159.401 368.466C159.582 368.029 159.888 367.656 160.281 367.393C160.674 367.13 161.136 366.99 161.609 366.99C162.243 366.99 162.851 367.242 163.299 367.69C163.747 368.138 163.999 368.746 163.999 369.38V369.38Z" fill="#FAFAFA"/>
<path d="M211.787 371.39L209.787 369.46L207.997 371.33L207.938 365.76H211.727L211.787 371.39ZM209.787 369.22L209.857 369.28L211.577 370.97L211.527 365.89H208.087V370.89L209.787 369.22Z" fill="#FAFAFA"/>
<path d="M196.768 368.11C196.768 368.25 190.218 368.37 182.138 368.37C174.058 368.37 167.508 368.25 167.508 368.11C167.508 367.97 174.058 367.85 182.138 367.85C190.218 367.85 196.768 368 196.768 368.11Z" fill="#FAFAFA"/>
<path d="M178.788 371.39C176.92 371.647 175.032 371.734 173.148 371.65C171.264 371.734 169.376 371.647 167.508 371.39C169.376 371.128 171.264 371.04 173.148 371.13C175.032 371.04 176.92 371.127 178.788 371.39V371.39Z" fill="#FAFAFA"/>
<path d="M280.958 361.66H221.328V400.55H280.958V361.66Z" fill="#FF725E"/>
<path d="M229.999 369.38C229.999 369.853 229.859 370.315 229.596 370.708C229.333 371.101 228.96 371.407 228.523 371.588C228.087 371.769 227.606 371.817 227.142 371.724C226.679 371.632 226.253 371.404 225.919 371.07C225.585 370.736 225.357 370.31 225.265 369.846C225.172 369.383 225.22 368.902 225.401 368.466C225.582 368.029 225.888 367.656 226.281 367.393C226.674 367.13 227.136 366.99 227.609 366.99C228.243 366.99 228.851 367.242 229.299 367.69C229.747 368.138 229.999 368.746 229.999 369.38V369.38Z" fill="#FAFAFA"/>
<path d="M277.734 371.39L275.734 369.46L273.904 371.33L273.844 365.76H277.634L277.734 371.39ZM275.734 369.22L275.794 369.28L277.524 370.97L277.464 365.89H274.024L274.074 370.89L275.734 369.22Z" fill="#FAFAFA"/>
<path d="M262.711 368.11C262.711 368.25 256.161 368.37 248.091 368.37C240.021 368.37 233.461 368.25 233.461 368.11C233.461 367.97 240.001 367.85 248.091 367.85C256.181 367.85 262.711 368 262.711 368.11Z" fill="#FAFAFA"/>
<path d="M244.731 371.39C242.866 371.647 240.982 371.734 239.101 371.65C237.217 371.734 235.329 371.647 233.461 371.39C235.329 371.127 237.217 371.04 239.101 371.13C240.982 371.04 242.867 371.127 244.731 371.39V371.39Z" fill="#FAFAFA"/>
<path d="M125.874 287.409C121.774 288.199 117.504 287.339 113.374 287.979C105.124 289.239 98.9438 296.049 91.3738 299.519C85.6292 302.068 79.2051 302.655 73.0938 301.189V322.869C81.5446 318.672 90.8112 316.375 100.244 316.139C117.554 315.619 134.514 320.389 151.574 323.379C168.634 326.369 186.924 327.379 202.574 319.969C215.164 313.969 224.694 303.099 236.344 295.429C253.834 283.919 276.214 280.559 296.504 285.479V281.809H133.224C132.204 284.639 129.004 286.799 125.874 287.409ZM163.334 292.269C165.082 292.269 166.791 292.787 168.245 293.758C169.699 294.73 170.832 296.11 171.501 297.726C172.17 299.341 172.345 301.118 172.004 302.833C171.663 304.548 170.821 306.123 169.585 307.359C168.348 308.596 166.773 309.438 165.058 309.779C163.344 310.12 161.566 309.945 159.951 309.276C158.336 308.607 156.955 307.474 155.984 306.02C155.012 304.566 154.494 302.857 154.494 301.109C154.494 298.764 155.425 296.516 157.083 294.858C158.741 293.2 160.989 292.269 163.334 292.269Z" fill="#FF725E"/>
<path d="M236.305 295.429C224.655 303.099 215.125 313.999 202.535 319.999C186.905 327.449 168.605 326.389 151.535 323.409C134.465 320.429 117.535 315.649 100.205 316.169C90.7722 316.406 81.5056 318.703 73.0547 322.899V336.719H296.465V285.479C276.175 280.559 253.795 283.919 236.305 295.429ZM178.425 330.239C178.251 330.239 178.08 330.188 177.936 330.091C177.791 329.994 177.678 329.857 177.612 329.696C177.545 329.535 177.528 329.358 177.562 329.188C177.596 329.017 177.679 328.86 177.802 328.737C177.925 328.614 178.082 328.53 178.253 328.496C178.424 328.462 178.601 328.48 178.761 328.546C178.922 328.613 179.06 328.726 179.156 328.87C179.253 329.015 179.305 329.185 179.305 329.359C179.305 329.593 179.212 329.816 179.047 329.981C178.882 330.146 178.658 330.239 178.425 330.239V330.239ZM184.005 330.239C183.771 330.239 183.547 330.146 183.382 329.981C183.217 329.816 183.125 329.593 183.125 329.359C183.125 329.126 183.217 328.902 183.382 328.737C183.547 328.572 183.771 328.479 184.005 328.479C184.238 328.479 184.462 328.572 184.627 328.737C184.792 328.902 184.885 329.126 184.885 329.359C184.885 329.593 184.792 329.816 184.627 329.981C184.462 330.146 184.238 330.239 184.005 330.239ZM189.575 330.239C189.401 330.239 189.231 330.188 189.086 330.091C188.941 329.994 188.828 329.857 188.762 329.696C188.695 329.535 188.678 329.358 188.712 329.188C188.746 329.017 188.829 328.86 188.952 328.737C189.075 328.614 189.232 328.53 189.403 328.496C189.574 328.462 189.751 328.48 189.911 328.546C190.072 328.613 190.21 328.726 190.306 328.87C190.403 329.015 190.455 329.185 190.455 329.359C190.455 329.593 190.362 329.816 190.197 329.981C190.032 330.146 189.808 330.239 189.575 330.239V330.239ZM287.625 310.429C288.027 310.026 288.54 309.751 289.099 309.64C289.658 309.528 290.237 309.585 290.764 309.803C291.29 310.021 291.74 310.39 292.057 310.864C292.374 311.337 292.543 311.894 292.543 312.464C292.543 313.034 292.374 313.591 292.057 314.065C291.74 314.538 291.29 314.908 290.764 315.125C290.237 315.343 289.658 315.4 289.099 315.289C288.54 315.177 288.027 314.902 287.625 314.499C287.356 314.233 287.144 313.915 286.998 313.566C286.853 313.217 286.778 312.842 286.778 312.464C286.778 312.086 286.853 311.712 286.998 311.362C287.144 311.013 287.356 310.696 287.625 310.429Z" fill="#FF725E"/>
<path d="M178.419 328.479C178.186 328.479 177.962 328.571 177.797 328.736C177.632 328.901 177.539 329.125 177.539 329.358C177.539 329.592 177.632 329.816 177.797 329.981C177.962 330.146 178.186 330.238 178.419 330.238C178.652 330.238 178.876 330.146 179.041 329.981C179.206 329.816 179.299 329.592 179.299 329.358C179.299 329.125 179.206 328.901 179.041 328.736C178.876 328.571 178.652 328.479 178.419 328.479Z" fill="#263238"/>
<path d="M184.005 330.238C184.491 330.238 184.885 329.845 184.885 329.358C184.885 328.872 184.491 328.479 184.005 328.479C183.519 328.479 183.125 328.872 183.125 329.358C183.125 329.845 183.519 330.238 184.005 330.238Z" fill="#263238"/>
<path d="M189.568 330.238C190.054 330.238 190.447 329.845 190.447 329.358C190.447 328.872 190.054 328.479 189.568 328.479C189.081 328.479 188.688 328.872 188.688 329.358C188.688 329.845 189.081 330.238 189.568 330.238Z" fill="#263238"/>
<path d="M91.3503 299.519C98.9403 296.049 105.12 289.239 113.35 287.979C117.48 287.339 121.75 288.199 125.85 287.409C128.99 286.799 132.18 284.639 133.2 281.809H73.0703V301.189C79.1817 302.655 85.6058 302.068 91.3503 299.519V299.519Z" fill="#FF725E"/>
<g opacity="0.3">
<path d="M91.3503 299.519C98.9403 296.049 105.12 289.239 113.35 287.979C117.48 287.339 121.75 288.199 125.85 287.409C128.99 286.799 132.18 284.639 133.2 281.809H73.0703V301.189C79.1817 302.655 85.6058 302.068 91.3503 299.519V299.519Z" fill="white"/>
</g>
<path d="M169.581 307.356C173.033 303.904 173.033 298.307 169.581 294.855C166.128 291.402 160.531 291.402 157.079 294.855C153.627 298.307 153.627 303.904 157.079 307.356C160.531 310.809 166.128 310.809 169.581 307.356Z" fill="#FF725E"/>
<g opacity="0.3">
<path d="M169.581 307.356C173.033 303.904 173.033 298.307 169.581 294.855C166.128 291.402 160.531 291.402 157.079 294.855C153.627 298.307 153.627 303.904 157.079 307.356C160.531 310.809 166.128 310.809 169.581 307.356Z" fill="black"/>
</g>
<path d="M289.661 315.34C291.252 315.34 292.541 314.051 292.541 312.46C292.541 310.87 291.252 309.58 289.661 309.58C288.071 309.58 286.781 310.87 286.781 312.46C286.781 314.051 288.071 315.34 289.661 315.34Z" fill="#FF725E"/>
<g opacity="0.3">
<path d="M236.305 295.429C224.655 303.099 215.125 313.999 202.535 319.999C186.905 327.449 168.605 326.389 151.535 323.409C134.465 320.429 117.535 315.649 100.205 316.169C90.7722 316.406 81.5056 318.703 73.0547 322.899V336.719H296.465V285.479C276.175 280.559 253.795 283.919 236.305 295.429ZM178.425 330.239C178.251 330.239 178.08 330.188 177.936 330.091C177.791 329.994 177.678 329.857 177.612 329.696C177.545 329.535 177.528 329.358 177.562 329.188C177.596 329.017 177.679 328.86 177.802 328.737C177.925 328.614 178.082 328.53 178.253 328.496C178.424 328.462 178.601 328.48 178.761 328.546C178.922 328.613 179.06 328.726 179.156 328.87C179.253 329.015 179.305 329.185 179.305 329.359C179.305 329.593 179.212 329.816 179.047 329.981C178.882 330.146 178.658 330.239 178.425 330.239V330.239ZM184.005 330.239C183.771 330.239 183.547 330.146 183.382 329.981C183.217 329.816 183.125 329.593 183.125 329.359C183.125 329.126 183.217 328.902 183.382 328.737C183.547 328.572 183.771 328.479 184.005 328.479C184.238 328.479 184.462 328.572 184.627 328.737C184.792 328.902 184.885 329.126 184.885 329.359C184.885 329.593 184.792 329.816 184.627 329.981C184.462 330.146 184.238 330.239 184.005 330.239ZM189.575 330.239C189.401 330.239 189.231 330.188 189.086 330.091C188.941 329.994 188.828 329.857 188.762 329.696C188.695 329.535 188.678 329.358 188.712 329.188C188.746 329.017 188.829 328.86 188.952 328.737C189.075 328.614 189.232 328.53 189.403 328.496C189.574 328.462 189.751 328.48 189.911 328.546C190.072 328.613 190.21 328.726 190.306 328.87C190.403 329.015 190.455 329.185 190.455 329.359C190.455 329.593 190.362 329.816 190.197 329.981C190.032 330.146 189.808 330.239 189.575 330.239V330.239ZM287.625 310.429C288.027 310.026 288.54 309.751 289.099 309.64C289.658 309.528 290.237 309.585 290.764 309.803C291.29 310.021 291.74 310.39 292.057 310.864C292.374 311.337 292.543 311.894 292.543 312.464C292.543 313.034 292.374 313.591 292.057 314.065C291.74 314.538 291.29 314.908 290.764 315.125C290.237 315.343 289.658 315.4 289.099 315.289C288.54 315.177 288.027 314.902 287.625 314.499C287.356 314.233 287.144 313.915 286.998 313.566C286.853 313.217 286.778 312.842 286.778 312.464C286.778 312.086 286.853 311.712 286.998 311.362C287.144 311.013 287.356 310.696 287.625 310.429Z" fill="black"/>
</g>
<path d="M287.773 384.829C288.027 384.555 288.301 384.301 288.593 384.069C289.123 383.619 289.853 383.009 290.673 382.339V382.499L288.623 380.679C288.331 380.436 288.06 380.169 287.813 379.879C288.139 380.078 288.444 380.309 288.723 380.569C289.263 381.009 290.003 381.639 290.813 382.339L290.903 382.429L290.813 382.499C289.983 383.169 289.233 383.759 288.693 384.179C288.407 384.423 288.099 384.64 287.773 384.829V384.829Z" fill="#263238"/>
<path d="M82.7816 379.85C82.5311 380.127 82.2567 380.381 81.9616 380.61C81.4416 381.06 80.7016 381.67 79.8816 382.33V382.18C80.6916 382.88 81.4216 383.53 81.8816 384C82.1774 384.239 82.4487 384.507 82.6916 384.8C82.3705 384.599 82.0691 384.367 81.7916 384.11C81.2516 383.67 80.5116 383.04 79.7016 382.34L79.6016 382.26L79.7016 382.18C80.5216 381.52 81.2716 380.93 81.8216 380.5C82.1195 380.252 82.441 380.034 82.7816 379.85V379.85Z" fill="#263238"/>
</svg>
