<svg width="750" height="500" viewBox="0 0 750 500" fill="none" xmlns="http://www.w3.org/2000/svg">
<path d="M684.269 306.359L682.899 304.099C671.339 285.049 650.439 273.569 628.399 274.959C625.565 275.141 622.747 275.528 619.969 276.119C599.969 280.409 582.499 295.559 575.269 314.969C571.019 326.379 569.829 339.519 561.769 348.579C551.269 360.369 533.449 360.739 517.769 360.249C502.089 359.759 484.269 360.179 473.829 372.009C467.289 379.419 465.209 390.009 465.739 399.889C467.129 426.169 485.449 449.669 508.739 461.349C532.029 473.029 559.449 474.079 584.939 468.939C620.649 461.749 654.599 441.939 675.019 411.449C695.439 380.959 700.599 339.319 684.269 306.359Z" fill="white"/>
<path d="M35.1805 193.429L36.6605 195.339C49.1205 211.439 69.2905 219.709 89.1505 216.169C91.7076 215.711 94.2277 215.066 96.6905 214.239C114.44 208.239 128.69 192.719 133.26 174.359C135.94 163.559 135.66 151.499 142.04 142.449C150.36 130.659 166.5 128.449 180.77 127.299C195.04 126.149 211.2 123.909 219.46 112.079C224.63 104.679 225.46 94.8894 223.92 85.9294C219.92 62.2094 200.92 42.7694 178.53 34.5694C156.14 26.3694 131.17 28.2594 108.53 35.5694C76.8805 45.7794 48.0905 67.2394 32.7105 97.0694C17.3305 126.899 17.0005 165.199 35.1805 193.429Z" fill="white"/>
<path d="M675.981 242.959C696.465 242.959 713.071 226.354 713.071 205.869C713.071 185.385 696.465 168.779 675.981 168.779C655.496 168.779 638.891 185.385 638.891 205.869C638.891 226.354 655.496 242.959 675.981 242.959Z" fill="white"/>
<path d="M618.069 44.3906H112.289V408.471H618.069V44.3906Z" fill="white"/>
<path d="M617.436 44.3906H111.656V71.3006H617.436V44.3906Z" fill="#E0E0E0"/>
<path d="M129.568 58.3301C129.531 58.9758 129.305 59.5964 128.919 60.1154C128.533 60.6344 128.004 61.0289 127.396 61.2502C126.788 61.4716 126.129 61.51 125.5 61.3608C124.87 61.2116 124.298 60.8814 123.855 60.4108C123.411 59.9402 123.115 59.35 123.003 58.713C122.891 58.076 122.968 57.4201 123.225 56.8265C123.482 56.2328 123.907 55.7274 124.447 55.3726C124.988 55.0178 125.621 54.8292 126.268 54.8301C126.714 54.843 127.154 54.9438 127.561 55.1268C127.969 55.3097 128.337 55.5712 128.643 55.8962C128.949 56.2213 129.189 56.6035 129.348 57.0211C129.506 57.4387 129.581 57.8835 129.568 58.3301Z" fill="#263238"/>
<path d="M141.849 58.3301C141.812 58.9753 141.587 59.5956 141.201 60.1144C140.816 60.6332 140.287 61.0277 139.679 61.2494C139.072 61.471 138.414 61.51 137.785 61.3617C137.155 61.2133 136.584 60.884 136.139 60.4144C135.695 59.9448 135.398 59.3555 135.285 58.7191C135.172 58.0827 135.248 57.4272 135.503 56.8334C135.758 56.2395 136.182 55.7334 136.721 55.3774C137.261 55.0214 137.893 54.8311 138.539 54.8301C138.986 54.8417 139.427 54.9416 139.836 55.124C140.244 55.3063 140.613 55.5676 140.921 55.8927C141.228 56.2179 141.469 56.6006 141.628 57.0189C141.787 57.4371 141.862 57.8827 141.849 58.3301V58.3301Z" fill="#263238"/>
<path d="M154.118 58.3301C154.081 58.9758 153.856 59.5964 153.47 60.1154C153.084 60.6344 152.554 61.0289 151.947 61.2502C151.339 61.4716 150.68 61.51 150.05 61.3608C149.421 61.2116 148.849 60.8814 148.406 60.4108C147.962 59.9402 147.666 59.35 147.554 58.713C147.442 58.076 147.519 57.4201 147.776 56.8265C148.032 56.2328 148.457 55.7274 148.998 55.3726C149.539 55.0178 150.172 54.8292 150.818 54.8301C151.265 54.8417 151.706 54.9416 152.114 55.1241C152.522 55.3066 152.89 55.568 153.197 55.8933C153.504 56.2187 153.743 56.6014 153.901 57.0196C154.059 57.4378 154.133 57.8832 154.118 58.3301V58.3301Z" fill="#263238"/>
<path d="M329.727 100.28C329.727 100.47 318.677 100.62 305.057 100.62C291.437 100.62 280.387 100.47 280.387 100.28C280.387 100.09 291.387 99.9297 305.057 99.9297C318.727 99.9297 329.727 100.08 329.727 100.28Z" fill="#263238"/>
<path d="M395.36 100.28C395.36 100.47 384.31 100.62 370.69 100.62C357.07 100.62 346.02 100.47 346.02 100.28C346.02 100.09 357.02 99.9297 370.69 99.9297C384.36 99.9297 395.36 100.08 395.36 100.28Z" fill="#263238"/>
<path d="M460.996 100.28C460.996 100.47 449.946 100.62 436.326 100.62C422.706 100.62 411.656 100.47 411.656 100.28C411.656 100.09 422.656 99.9297 436.326 99.9297C449.996 99.9297 460.996 100.08 460.996 100.28Z" fill="#263238"/>
<path d="M527.199 100.28C527.199 100.47 516.199 100.62 502.529 100.62C488.859 100.62 477.859 100.47 477.859 100.28C477.859 100.09 488.909 99.9297 502.529 99.9297C516.149 99.9297 527.199 100.08 527.199 100.28Z" fill="#263238"/>
<path d="M584.717 108.591C584.717 108.591 585.137 108.591 585.897 108.381C587.014 108.079 588.008 107.431 588.737 106.531C589.272 105.873 589.654 105.105 589.857 104.281C590.053 103.27 590.113 102.238 590.037 101.211C589.897 99.0211 590.527 96.2111 588.657 94.0911C588.22 93.5681 587.685 93.1369 587.08 92.8228C586.476 92.5086 585.815 92.3177 585.137 92.2611C583.727 92.2611 582.137 92.2611 580.607 92.2611H570.607H547.607C546.635 92.2802 545.687 92.5714 544.872 93.1017C544.058 93.632 543.408 94.3801 542.997 95.2611C542.573 96.1601 542.374 97.1483 542.417 98.1411V101.231C542.353 102.208 542.413 103.189 542.597 104.151C542.824 105.05 543.271 105.878 543.897 106.561C544.468 107.206 545.189 107.7 545.997 108.001C546.838 108.222 547.709 108.306 548.577 108.251L567.367 108.321L580.037 108.431L583.487 108.501H584.377C584.587 108.501 584.687 108.501 584.687 108.501C584.584 108.514 584.479 108.514 584.377 108.501H583.487L580.037 108.571L567.367 108.681L548.577 108.751C547.649 108.821 546.715 108.733 545.817 108.491C544.88 108.178 544.038 107.635 543.367 106.911C542.663 106.151 542.161 105.226 541.907 104.221C541.775 103.705 541.708 103.174 541.707 102.641C541.707 102.131 541.707 101.641 541.707 101.121V98.1811C541.655 97.0814 541.875 95.9858 542.347 94.9911C542.808 93.9989 543.54 93.1566 544.458 92.5607C545.375 91.9647 546.442 91.6391 547.537 91.6211H570.537H580.537C582.117 91.6211 583.617 91.6211 585.107 91.6211C585.843 91.6871 586.56 91.8977 587.216 92.2409C587.871 92.5841 588.452 93.0531 588.927 93.6211C589.822 94.6987 590.323 96.0499 590.347 97.4511C590.347 98.7211 590.347 99.9311 590.347 101.061C590.412 102.12 590.331 103.184 590.107 104.221C589.879 105.084 589.458 105.884 588.877 106.561C588.103 107.476 587.048 108.108 585.877 108.361C585.504 108.497 585.113 108.575 584.717 108.591Z" fill="#263238"/>
<path d="M295.218 195.5H159.258C154.503 195.5 150.648 199.355 150.648 204.11V218.3C150.648 223.055 154.503 226.91 159.258 226.91H295.218C299.974 226.91 303.828 223.055 303.828 218.3V204.11C303.828 199.355 299.974 195.5 295.218 195.5Z" fill="#E0E0E0"/>
<path d="M111.656 44.3906L617.446 44.1406H617.706V44.3906C617.706 154.251 617.706 277.991 617.706 408.391V408.721H617.426L111.636 408.671H111.406V408.441C111.546 187.441 111.636 46.2506 111.636 44.3506C111.636 46.2506 111.736 187.461 111.866 408.441L111.636 408.211L617.426 408.151L617.146 408.441V408.391C617.146 277.951 617.146 154.211 617.146 44.3906L617.406 44.6506L111.656 44.3906Z" fill="#263238"/>
<path d="M574.308 260.74C574.308 260.74 574.308 260.1 574.308 258.88C574.308 257.66 574.308 255.88 574.308 253.5C574.308 248.77 574.308 241.81 574.308 232.88C574.308 215.03 574.248 189.29 574.198 157.66L574.398 157.86L392.998 157.92L393.258 157.66C393.258 194.12 393.258 228.98 393.258 260.73L393.008 260.49L523.418 260.61L560.858 260.68H570.858H573.438H574.318H570.918H560.988L523.598 260.75L392.998 261H392.758V260.75C392.758 229 392.758 194.14 392.758 157.68V157.42H392.998L574.268 157.48H574.468V157.68C574.468 189.36 574.388 215.15 574.368 233.02C574.368 241.94 574.368 248.87 574.368 253.59C574.368 255.94 574.368 257.73 574.368 258.94C574.368 260.15 574.308 260.74 574.308 260.74Z" fill="#FF725E"/>
<path d="M570.388 157.521L569.948 157.821L568.648 158.651L563.648 161.791C559.278 164.501 552.928 168.401 545.058 173.161C529.328 182.711 507.458 195.691 483.058 209.641C458.658 223.591 436.398 235.851 420.208 244.641C412.108 249.021 405.538 252.531 400.988 254.921L395.738 257.671L394.368 258.381C394.216 258.463 394.059 258.536 393.898 258.601C394.044 258.504 394.194 258.414 394.348 258.331L395.688 257.581L400.888 254.741L419.998 244.281C436.148 235.451 458.388 223.131 482.768 209.181C507.148 195.231 529.028 182.311 544.768 172.851L563.448 161.611L568.528 158.561L569.858 157.781C570.228 157.601 570.388 157.521 570.388 157.521Z" fill="#FF725E"/>
<path d="M572.216 260.741C572.146 260.861 532.367 238.081 483.387 209.871C434.407 181.661 394.746 158.671 394.816 158.551C394.886 158.431 434.656 181.201 483.646 209.421C532.636 237.641 572.286 260.611 572.216 260.741Z" fill="#FF725E"/>
<path d="M570.616 312.001C570.616 312.201 530.996 312.361 482.146 312.361C433.296 312.361 393.656 312.201 393.656 312.001C393.656 311.801 433.266 311.631 482.146 311.631C531.026 311.631 570.616 311.791 570.616 312.001Z" fill="#263238"/>
<path d="M570.616 322.722C570.616 322.922 530.996 323.082 482.146 323.082C433.296 323.082 393.656 322.922 393.656 322.722C393.656 322.522 433.266 322.352 482.146 322.352C531.026 322.352 570.616 322.522 570.616 322.722Z" fill="#263238"/>
<path d="M472.59 349.42C472.59 349.61 455.22 349.76 433.81 349.76C412.4 349.76 395.02 349.61 395.02 349.42C395.02 349.23 412.38 349.09 433.81 349.09C455.24 349.09 472.59 349.24 472.59 349.42Z" fill="#263238"/>
<path d="M548.19 336.49C548.19 336.67 513.9 336.82 471.61 336.82C429.32 336.82 395.02 336.67 395.02 336.49C395.02 336.31 429.3 336.15 471.61 336.15C513.92 336.15 548.19 336.3 548.19 336.49Z" fill="#263238"/>
<path d="M593.928 369.26C593.928 369.26 593.928 368.76 593.928 367.81C593.928 366.86 593.928 365.45 593.928 363.6C593.928 359.89 593.928 354.42 593.928 347.36C593.928 333.26 593.878 312.78 593.838 287.26L594.018 287.43L373.768 287.52L374.028 287.26C374.028 315.88 374.028 343.57 374.028 369.26L373.778 369.01L531.588 369.12L577.478 369.19H589.768H592.948H594.038H592.978H589.828H577.588L531.758 369.26L373.758 369.38H373.508V369.13C373.508 343.44 373.508 315.75 373.508 287.13V287H373.778L594.028 287.08H594.198V287.26C594.198 312.82 594.128 333.34 594.108 347.47C594.108 354.47 594.108 359.96 594.108 363.66C594.108 365.5 594.108 366.9 594.108 367.85C594.108 368.8 593.928 369.26 593.928 369.26Z" fill="#263238"/>
<path d="M158.679 111.871C164.87 111.871 169.889 107.076 169.889 101.161C169.889 95.2462 164.87 90.4512 158.679 90.4512C152.488 90.4512 147.469 95.2462 147.469 101.161C147.469 107.076 152.488 111.871 158.679 111.871Z" fill="#FF725E"/>
<path d="M154.788 230.891H75.5781V286.001H154.788V230.891Z" fill="#455A64"/>
<path d="M154.78 230.891C154.87 231.011 137.23 243.552 115.4 258.892C93.5696 274.232 75.7896 286.602 75.6996 286.482C75.6096 286.362 93.2496 273.822 115.1 258.482C136.95 243.142 154.7 230.771 154.78 230.891Z" fill="#263238"/>
<path d="M154.779 286.001L154.569 285.881L153.959 285.481L151.659 283.911L143.269 278.001L115.669 258.491L88.1694 238.901L79.8694 232.901L77.6294 231.241C77.3894 231.071 77.1994 230.921 77.0494 230.801L76.8594 230.641C76.8594 230.641 76.9394 230.641 77.0794 230.761L77.6894 231.161L79.9894 232.731L88.3794 238.591L115.999 258.111L143.499 277.741L151.799 283.741L154.039 285.391L154.619 285.831C154.729 285.931 154.789 286.001 154.779 286.001Z" fill="#263238"/>
<path d="M352.1 352.801H141.23V472.631H352.1V352.801Z" fill="#FAFAFA"/>
<path d="M352.11 472.631C352.11 472.631 352.11 471.891 352.11 470.481C352.11 469.071 352.11 466.961 352.11 464.221C352.11 458.721 352.11 450.641 352.06 440.221C352.06 419.471 352 389.541 351.96 352.761L352.16 352.961L141.3 353.021L141.56 352.761C141.56 395.151 141.56 435.681 141.56 472.591L141.32 472.351L293.02 472.461L336.57 472.531H348.18H351.18H352.18H351.18H348.18H336.63L293.13 472.591L141.27 472.711H141V472.471C141 435.561 141 395.031 141 352.641V352.381H141.28L352.14 352.441H352.34V352.641C352.29 389.471 352.26 419.451 352.23 440.221C352.23 450.591 352.23 458.651 352.18 464.141C352.18 466.871 352.18 468.951 352.18 470.361C352.18 471.771 352.11 472.631 352.11 472.631Z" fill="#263238"/>
<path d="M226.789 372.352C226.789 372.492 212.459 372.612 194.789 372.612C177.119 372.612 162.789 372.492 162.789 372.352C162.789 372.212 177.109 372.092 194.789 372.092C212.469 372.092 226.789 372.212 226.789 372.352Z" fill="#EBEBEB"/>
<path d="M260.289 383.83C260.289 383.98 245.959 384.09 228.289 384.09C210.619 384.09 196.289 383.98 196.289 383.83C196.289 383.68 210.609 383.57 228.289 383.57C245.969 383.57 260.289 383.69 260.289 383.83Z" fill="#EBEBEB"/>
<path d="M330 372.352C330 372.492 315.68 372.612 298 372.612C280.32 372.612 266 372.492 266 372.352C266 372.212 280.33 372.092 298 372.092C315.67 372.092 330 372.212 330 372.352Z" fill="#EBEBEB"/>
<path d="M253.999 372.34C251.126 372.597 248.241 372.684 245.359 372.6C242.476 372.684 239.591 372.597 236.719 372.34C239.591 372.083 242.476 371.996 245.359 372.08C248.241 371.996 251.126 372.083 253.999 372.34V372.34Z" fill="#EBEBEB"/>
<path d="M181.94 383.83C179.068 384.094 176.183 384.181 173.3 384.09C170.418 384.181 167.532 384.094 164.66 383.83C167.532 383.573 170.418 383.486 173.3 383.57C176.183 383.486 179.068 383.573 181.94 383.83V383.83Z" fill="#EBEBEB"/>
<path d="M285.2 383.352C282.435 383.609 279.656 383.696 276.88 383.612C274.108 383.696 271.332 383.609 268.57 383.352C271.332 383.094 274.108 383.007 276.88 383.092C279.656 383.008 282.435 383.094 285.2 383.352Z" fill="#EBEBEB"/>
<path d="M226.789 398.651C226.789 398.791 212.459 398.911 194.789 398.911C177.119 398.911 162.789 398.791 162.789 398.651C162.789 398.511 177.109 398.391 194.789 398.391C212.469 398.391 226.789 398.501 226.789 398.651Z" fill="#EBEBEB"/>
<path d="M260.289 410.131C260.289 410.281 245.959 410.391 228.289 410.391C210.619 410.391 196.289 410.281 196.289 410.131C196.289 409.981 210.609 409.871 228.289 409.871C245.969 409.871 260.289 410.001 260.289 410.131Z" fill="#EBEBEB"/>
<path d="M330 398.651C330 398.791 315.68 398.911 298 398.911C280.32 398.911 266 398.791 266 398.651C266 398.511 280.33 398.391 298 398.391C315.67 398.391 330 398.501 330 398.651Z" fill="#EBEBEB"/>
<path d="M253.999 398.641C251.126 398.898 248.241 398.985 245.359 398.901C242.476 398.985 239.591 398.898 236.719 398.641C239.591 398.383 242.476 398.297 245.359 398.381C248.241 398.297 251.126 398.383 253.999 398.641Z" fill="#EBEBEB"/>
<path d="M181.94 410.131C179.068 410.395 176.183 410.482 173.3 410.391C170.418 410.481 167.532 410.395 164.66 410.131C167.532 409.874 170.418 409.787 173.3 409.871C176.183 409.787 179.068 409.873 181.94 410.131V410.131Z" fill="#EBEBEB"/>
<path d="M285.2 409.65C282.435 409.907 279.656 409.994 276.88 409.91C274.108 409.994 271.332 409.907 268.57 409.65C271.332 409.387 274.108 409.3 276.88 409.39C279.656 409.3 282.435 409.387 285.2 409.65V409.65Z" fill="#EBEBEB"/>
<path d="M227.379 444.24C227.379 444.39 213.059 444.5 195.379 444.5C177.699 444.5 163.379 444.39 163.379 444.24C163.379 444.09 177.709 443.98 195.379 443.98C213.049 443.98 227.379 444.1 227.379 444.24Z" fill="#EBEBEB"/>
<path d="M260.879 455.731C260.879 455.871 246.549 455.991 228.879 455.991C211.209 455.991 196.879 455.871 196.879 455.731C196.879 455.591 211.209 455.471 228.879 455.471C246.549 455.471 260.879 455.591 260.879 455.731Z" fill="#EBEBEB"/>
<path d="M330.59 444.24C330.59 444.39 316.26 444.5 298.59 444.5C280.92 444.5 266.59 444.39 266.59 444.24C266.59 444.09 280.91 443.98 298.59 443.98C316.27 443.98 330.59 444.1 330.59 444.24Z" fill="#EBEBEB"/>
<path d="M254.581 444.24C251.708 444.497 248.823 444.584 245.941 444.5C243.058 444.585 240.173 444.498 237.301 444.24C240.173 443.976 243.058 443.889 245.941 443.98C248.823 443.89 251.709 443.977 254.581 444.24V444.24Z" fill="#EBEBEB"/>
<path d="M182.542 455.731C179.669 455.988 176.784 456.075 173.902 455.991C171.019 456.075 168.134 455.988 165.262 455.731C168.134 455.473 171.019 455.386 173.902 455.471C176.784 455.386 179.669 455.473 182.542 455.731V455.731Z" fill="#EBEBEB"/>
<path d="M285.79 455.24C283.029 455.504 280.253 455.591 277.48 455.5C274.704 455.591 271.925 455.504 269.16 455.24C271.926 454.983 274.704 454.896 277.48 454.98C280.253 454.896 283.028 454.983 285.79 455.24V455.24Z" fill="#EBEBEB"/>
<path d="M226.789 423.381C226.789 423.521 212.459 423.641 194.789 423.641C177.119 423.641 162.789 423.521 162.789 423.381C162.789 423.241 177.109 423.121 194.789 423.121C212.469 423.121 226.789 423.231 226.789 423.381Z" fill="#EBEBEB"/>
<path d="M260.289 434.862C260.289 435.002 245.959 435.122 228.289 435.122C210.619 435.122 196.289 435.002 196.289 434.862C196.289 434.722 210.609 434.602 228.289 434.602C245.969 434.602 260.289 434.722 260.289 434.862Z" fill="#EBEBEB"/>
<path d="M330 423.381C330 423.521 315.68 423.641 298 423.641C280.32 423.641 266 423.521 266 423.381C266 423.241 280.33 423.121 298 423.121C315.67 423.121 330 423.231 330 423.381Z" fill="#EBEBEB"/>
<path d="M253.999 423.371C251.126 423.628 248.241 423.715 245.359 423.631C242.476 423.715 239.591 423.628 236.719 423.371C239.591 423.107 242.476 423.02 245.359 423.111C248.241 423.02 251.127 423.107 253.999 423.371V423.371Z" fill="#EBEBEB"/>
<path d="M181.94 434.862C179.068 435.119 176.183 435.206 173.3 435.122C170.418 435.206 167.532 435.119 164.66 434.862C167.532 434.604 170.418 434.517 173.3 434.602C176.183 434.517 179.068 434.604 181.94 434.862V434.862Z" fill="#EBEBEB"/>
<path d="M285.2 434.38C282.435 434.638 279.656 434.725 276.88 434.64C274.108 434.725 271.332 434.638 268.57 434.38C271.332 434.117 274.108 434.03 276.88 434.12C279.656 434.03 282.435 434.117 285.2 434.38V434.38Z" fill="#EBEBEB"/>
<path d="M215.201 399.561V421.411H211.141V412.001H199.841V421.371H195.781V399.561H199.841V408.561H211.141V399.561H215.201Z" fill="#263238"/>
<path d="M225.49 403H218.25V399.57H236.8V403H229.55V421.42H225.49V403Z" fill="#263238"/>
<path d="M259.922 421.411V406.922L252.742 418.922H250.902L243.722 407.121V421.422H239.852V399.561H243.192L251.872 414.001L260.392 399.521H263.732V421.371L259.922 421.411Z" fill="#263238"/>
<path d="M269.66 399.561H273.72V418.001H285.14V421.441H269.66V399.561Z" fill="#263238"/>
<path d="M209.158 155.51L197.958 149.81C197.724 142.509 194.768 135.56 189.67 130.329C184.573 125.097 177.703 121.962 170.411 121.538C163.12 121.114 155.933 123.432 150.264 128.038C144.594 132.643 140.853 139.203 139.774 146.427C138.695 153.651 140.358 161.017 144.434 167.078C148.51 173.139 154.706 177.456 161.804 179.181C168.901 180.906 176.387 179.913 182.791 176.399C189.194 172.885 194.051 167.103 196.408 160.19V160.19L209.158 155.51Z" fill="white"/>
<path d="M209.158 155.51L196.448 160.32C196.433 160.328 196.417 160.332 196.4 160.333C196.383 160.334 196.366 160.331 196.351 160.324C196.335 160.317 196.322 160.307 196.311 160.294C196.3 160.281 196.292 160.266 196.288 160.25C196.283 160.23 196.283 160.209 196.288 160.19V160.19H196.538C194.894 165.096 191.979 169.478 188.088 172.89C186.929 173.919 185.677 174.84 184.348 175.64C183.658 176.05 182.978 176.48 182.248 176.87L179.998 178C173.046 180.86 165.264 180.964 158.238 178.29C154.339 176.815 150.8 174.524 147.858 171.57C144.77 168.434 142.413 164.653 140.958 160.5C139.417 156.177 138.923 151.55 139.518 147C140.121 142.329 141.836 137.871 144.518 134C147.088 130.32 150.455 127.267 154.368 125.07C158.052 122.985 162.148 121.732 166.368 121.4C173.96 120.83 181.48 123.204 187.368 128.03C189.833 130.106 191.962 132.552 193.678 135.28C196.386 139.658 197.886 144.674 198.028 149.82L197.958 149.71L209.098 155.52L197.838 149.93C197.818 149.92 197.802 149.904 197.791 149.884C197.78 149.864 197.776 149.842 197.778 149.82C197.593 144.734 196.076 139.785 193.378 135.47C191.661 132.789 189.547 130.385 187.108 128.34C181.276 123.611 173.853 121.299 166.368 121.88C162.209 122.207 158.174 123.446 154.548 125.51C150.705 127.674 147.397 130.675 144.868 134.29C142.26 138.08 140.59 142.437 139.998 147C139.394 151.476 139.864 156.031 141.368 160.29C142.798 164.375 145.113 168.094 148.148 171.18C151.033 174.089 154.507 176.347 158.338 177.8C165.254 180.447 172.918 180.368 179.778 177.58L182.018 176.58C182.728 176.19 183.408 175.77 184.098 175.37C185.409 174.581 186.647 173.677 187.798 172.67C191.667 169.316 194.581 165.001 196.248 160.16C196.26 160.128 196.282 160.103 196.312 160.088C196.342 160.073 196.376 160.07 196.408 160.08C196.436 160.09 196.46 160.11 196.476 160.135C196.492 160.16 196.5 160.19 196.498 160.22V160.22L196.318 160.09L209.158 155.51Z" fill="#263238"/>
<path d="M175.356 157.159C175.487 156.973 175.638 156.802 175.806 156.649L177.116 155.329C178.226 154.239 179.776 152.729 181.506 151.089V151.309C179.766 149.699 178.206 148.219 177.086 147.149L175.776 145.859C175.608 145.707 175.454 145.54 175.316 145.359C175.316 145.359 175.526 145.489 175.856 145.769L177.236 146.989C178.386 147.989 179.976 149.469 181.716 151.089L181.826 151.199L181.716 151.309C179.986 152.949 178.416 154.429 177.266 155.489L175.896 156.729C175.734 156.893 175.552 157.037 175.356 157.159Z" fill="#263238"/>
<path d="M175.357 157.289C175.328 157.299 175.296 157.299 175.267 157.289C175.177 157.189 175.207 157.149 175.717 156.609L177.027 155.299C178.157 154.179 179.647 152.739 181.247 151.209C179.667 149.749 178.187 148.349 177.037 147.209L175.727 145.919C175.227 145.419 175.167 145.349 175.267 145.239C175.367 145.129 175.427 145.239 175.977 145.649L177.357 146.869C178.537 147.869 180.047 149.309 181.647 150.789L181.817 150.949L182.037 151.149L181.777 151.389L181.657 151.509C180.027 153.059 178.497 154.509 177.347 155.509L175.997 156.829C175.587 157.169 175.437 157.289 175.357 157.289ZM181.427 151.289L178.057 154.539C179.057 153.619 180.227 152.539 181.467 151.329L181.427 151.289ZM178.087 147.809C179.087 148.749 180.227 149.809 181.427 150.949C180.257 149.829 179.087 148.759 178.087 147.849V147.809Z" fill="#263238"/>
<path d="M161.938 145.32C161.813 145.511 161.662 145.682 161.488 145.83L160.188 147.14C159.068 148.24 157.518 149.74 155.798 151.39V151.17C157.538 152.78 159.098 154.25 160.218 155.33L161.528 156.62C161.838 156.92 161.998 157.1 161.978 157.12C161.791 156.995 161.613 156.855 161.448 156.7L159.998 155.53C158.838 154.53 157.258 153.04 155.518 151.43L155.398 151.32L155.518 151.21C157.238 149.56 158.818 148.09 159.968 147.03L161.338 145.78C161.52 145.604 161.721 145.45 161.938 145.32V145.32Z" fill="#263238"/>
<path d="M161.996 157.289C161.916 157.289 161.776 157.179 161.376 156.839L159.996 155.619C158.836 154.619 157.316 153.199 155.706 151.699L155.536 151.539L155.316 151.339L155.566 151.099L155.696 150.979C157.326 149.429 158.846 147.979 159.996 146.929L161.376 145.689C161.916 145.219 161.976 145.169 162.076 145.269C162.176 145.369 162.076 145.449 161.626 145.959L160.316 147.269C159.196 148.379 157.706 149.819 156.106 151.349C157.696 152.839 159.186 154.239 160.306 155.349L161.626 156.639C162.126 157.149 162.176 157.199 162.086 157.309C162.055 157.313 162.023 157.306 161.996 157.289V157.289ZM155.886 151.519C157.106 152.659 158.266 153.719 159.266 154.619L155.926 151.489L155.886 151.519ZM155.876 151.109C157.106 149.939 158.276 148.819 159.256 147.859C158.246 148.819 157.066 149.929 155.826 151.109H155.876Z" fill="#263238"/>
<path d="M165.39 160C165.31 160 166.72 156 168.53 151.15C170.34 146.3 171.89 142.39 171.96 142.42C172.03 142.45 170.63 146.42 168.82 151.26C167.01 156.1 165.47 160 165.39 160Z" fill="#263238"/>
<path d="M165.399 160.08H165.339C165.189 160.03 165.169 160.02 166.129 157.31C166.729 155.64 167.539 153.43 168.419 151.08C169.299 148.73 170.129 146.53 170.779 144.88C171.829 142.21 171.859 142.21 172.009 142.27C172.159 142.33 172.179 142.33 171.219 145.04C170.619 146.71 169.809 148.93 168.929 151.27C168.049 153.61 167.219 155.82 166.569 157.48C165.649 159.78 165.519 160.08 165.399 160.08ZM170.549 146.15C170.019 147.52 169.379 149.21 168.649 151.15C167.919 153.09 167.299 154.79 166.799 156.15C167.329 154.79 167.969 153.15 168.699 151.15C169.429 149.15 170.049 147.53 170.549 146.15Z" fill="#263238"/>
<path d="M676 472.629C676 472.769 539 472.889 370 472.889C201 472.889 64 472.769 64 472.629C64 472.489 201 472.369 370 472.369C539 472.369 676 472.489 676 472.629Z" fill="#263238"/>
<path d="M243.121 126.731C243.541 124.078 244.824 121.637 246.771 119.786C248.717 117.935 251.22 116.777 253.891 116.491C255.296 116.517 256.698 116.359 258.061 116.021C259.099 115.52 260.101 114.949 261.061 114.311C262.716 113.468 264.609 113.215 266.427 113.593C268.245 113.971 269.88 114.958 271.061 116.391C273.201 119.131 274.061 115.321 279.121 118.321C283.311 120.811 281.121 124.321 281.121 124.321C283.291 124.29 285.404 125.012 287.1 126.366C288.796 127.719 289.97 129.619 290.421 131.741C290.921 134.441 290.371 137.741 292.471 139.481C293.471 140.341 294.911 140.571 295.971 141.391C297.921 142.901 297.971 145.821 297.551 148.251C297.131 150.681 296.351 153.251 297.251 155.551C298.731 159.331 304.111 160.821 304.771 164.821C305.081 166.711 304.291 168.981 305.601 170.371C306.193 170.874 306.871 171.266 307.601 171.531C309.007 172.222 310.197 173.287 311.039 174.608C311.881 175.93 312.344 177.457 312.377 179.024C312.41 180.59 312.012 182.136 311.226 183.492C310.44 184.847 309.297 185.961 307.921 186.711C307.161 187.131 306.251 187.511 305.921 188.331C305.591 189.151 306.201 190.191 306.631 191.061C307.437 192.662 307.697 194.482 307.371 196.245C307.045 198.007 306.152 199.614 304.827 200.821C303.502 202.028 301.819 202.769 300.034 202.929C298.249 203.09 296.46 202.662 294.941 201.711C293.299 204.615 290.591 206.767 287.391 207.711C285.938 208.19 284.377 208.231 282.901 207.831C281.756 207.413 280.709 206.766 279.821 205.931C275.451 202.121 269.321 196.291 268.911 190.511" fill="#263238"/>
<path d="M343.999 194.911L317.799 218.911C314.549 218.161 274.659 194.311 274.659 194.311L268.379 225.001C268.379 225.001 309.209 243.771 320.439 241.501C322.279 241.121 325.289 240.891 327.179 238.501C336.179 226.951 355.239 198.371 355.239 198.371L343.999 194.911Z" fill="#FFBE9D"/>
<path d="M356.691 168.501C354.961 169.211 348.781 179.631 348.781 179.631L347.231 179.711C346.557 179.747 345.899 179.921 345.295 180.223C344.692 180.524 344.157 180.946 343.724 181.463C343.291 181.979 342.968 182.58 342.777 183.226C342.585 183.873 342.529 184.552 342.611 185.221C343.121 189.561 344.031 194.911 344.031 194.911L352.671 198.851L355.241 198.311C357.621 198.191 359.941 193.311 361.411 189.931C362.881 186.551 360.471 185.841 360.471 185.841C360.471 182.451 357.601 183.121 357.601 183.121C357.593 182.724 357.507 182.333 357.347 181.97C357.187 181.607 356.956 181.28 356.669 181.006C356.382 180.733 356.043 180.519 355.672 180.377C355.302 180.236 354.907 180.169 354.511 180.181C354.511 180.181 358.341 173.181 359.091 170.691C359.841 168.201 358.421 167.801 356.691 168.501Z" fill="#FFBE9D"/>
<path d="M357.428 183.12C357.18 183.87 356.88 184.602 356.528 185.31C356.373 185.682 356.192 186.043 355.988 186.39C355.728 186.784 355.411 187.138 355.048 187.44C354.642 187.789 354.159 188.035 353.638 188.16C353.347 188.213 353.049 188.205 352.761 188.136C352.474 188.067 352.204 187.939 351.968 187.76C351.728 187.561 351.556 187.292 351.478 186.99C351.419 186.703 351.419 186.407 351.478 186.12C351.582 185.618 351.729 185.126 351.918 184.65C352.224 183.843 352.585 183.058 352.998 182.3C353.271 181.792 353.575 181.301 353.908 180.83C354.014 180.643 354.149 180.474 354.308 180.33C354.358 180.33 353.848 181.11 353.208 182.41C352.829 183.173 352.495 183.958 352.208 184.76C352.034 185.222 351.897 185.697 351.798 186.18C351.743 186.415 351.752 186.661 351.824 186.891C351.896 187.121 352.029 187.328 352.208 187.49C352.406 187.638 352.633 187.744 352.874 187.801C353.115 187.858 353.365 187.864 353.608 187.82C354.072 187.711 354.503 187.495 354.868 187.19C355.217 186.904 355.52 186.567 355.768 186.19C355.98 185.872 356.168 185.537 356.328 185.19C356.643 184.474 357.01 183.782 357.428 183.12V183.12Z" fill="#EB996E"/>
<path d="M360.369 185.361C360.349 185.566 360.302 185.768 360.229 185.961C360.072 186.496 359.881 187.02 359.659 187.531C359.341 188.311 358.899 189.033 358.349 189.671C358.025 190.066 357.614 190.381 357.149 190.591C356.888 190.729 356.592 190.787 356.299 190.759C356.005 190.731 355.726 190.617 355.496 190.432C355.267 190.247 355.096 189.998 355.006 189.717C354.916 189.437 354.91 189.135 354.989 188.851C355.073 188.359 355.207 187.876 355.389 187.411C355.655 186.631 355.965 185.866 356.319 185.121C356.619 184.481 356.889 183.971 357.089 183.631C357.173 183.443 357.288 183.271 357.429 183.121C357.479 183.121 357.079 183.921 356.539 185.211C356.269 185.861 355.969 186.641 355.689 187.511C355.518 187.956 355.397 188.419 355.329 188.891C355.258 189.115 355.257 189.356 355.324 189.581C355.391 189.806 355.523 190.007 355.705 190.156C355.887 190.305 356.109 190.397 356.343 190.419C356.577 190.442 356.812 190.394 357.019 190.281C357.441 190.087 357.816 189.804 358.119 189.451C358.66 188.857 359.105 188.182 359.439 187.451C359.999 186.171 360.319 185.341 360.369 185.361Z" fill="#EB996E"/>
<path d="M361.9 187.872C361.901 188.426 361.786 188.975 361.56 189.482C361.359 190.05 361.094 190.593 360.77 191.102C360.584 191.413 360.363 191.702 360.11 191.962C359.959 192.117 359.773 192.233 359.568 192.301C359.362 192.369 359.144 192.386 358.93 192.352C358.716 192.293 358.524 192.172 358.379 192.005C358.233 191.838 358.139 191.632 358.11 191.412C358.058 191.041 358.078 190.665 358.17 190.302C358.313 189.718 358.528 189.153 358.81 188.622C359.037 188.124 359.295 187.639 359.58 187.172C359.473 187.713 359.288 188.235 359.03 188.722C358.789 189.251 358.604 189.804 358.48 190.372C358.422 190.703 358.422 191.041 358.48 191.372C358.5 191.526 358.563 191.672 358.662 191.792C358.762 191.913 358.892 192.003 359.04 192.052C359.201 192.076 359.365 192.06 359.518 192.006C359.672 191.952 359.81 191.861 359.92 191.742C360.157 191.507 360.365 191.245 360.54 190.962C360.866 190.475 361.148 189.96 361.38 189.422C361.73 188.482 361.85 187.862 361.9 187.872Z" fill="#EB996E"/>
<path d="M347.23 179.71C349.777 179.603 352.327 179.627 354.87 179.78C355.053 180.421 355 181.106 354.721 181.712C354.442 182.317 353.956 182.803 353.35 183.08C352.119 183.593 350.777 183.786 349.45 183.64C349.959 184.117 350.363 184.694 350.635 185.335C350.908 185.977 351.043 186.668 351.033 187.365C351.022 188.062 350.866 188.748 350.575 189.381C350.284 190.014 349.863 190.579 349.34 191.04" fill="#FFBE9D"/>
<path d="M349.34 191C349.871 190.434 350.294 189.777 350.59 189.06C350.94 188.147 351.007 187.15 350.785 186.198C350.562 185.247 350.059 184.383 349.34 183.72L349.02 183.42H349.46C350.639 183.533 351.828 183.397 352.95 183.02C354.3 182.5 355.21 180.96 354.72 179.79L354.86 179.89C352.63 179.72 350.72 179.72 349.37 179.7H347.8C347.611 179.726 347.42 179.726 347.23 179.7C347.414 179.655 347.602 179.631 347.79 179.63C348.16 179.63 348.69 179.57 349.37 179.55C350.72 179.55 352.63 179.47 354.88 179.61H354.98V179.71C355.111 180.06 355.161 180.436 355.127 180.808C355.092 181.18 354.974 181.54 354.78 181.86C354.39 182.546 353.781 183.081 353.05 183.38C351.877 183.776 350.632 183.915 349.4 183.79L349.52 183.51C350.366 184.304 350.916 185.362 351.08 186.51C351.21 187.408 351.092 188.324 350.74 189.16C350.5 189.707 350.161 190.205 349.74 190.63C349.627 190.773 349.492 190.898 349.34 191V191Z" fill="#EB996E"/>
<path d="M297.211 453.701C297.404 453.443 297.537 453.146 297.601 452.831C297.854 451.995 297.925 451.116 297.811 450.251C297.786 449.948 297.715 449.652 297.601 449.371C297.536 449.189 297.422 449.029 297.272 448.907C297.122 448.786 296.942 448.707 296.751 448.681C296.635 448.668 296.517 448.681 296.406 448.719C296.296 448.757 296.195 448.819 296.111 448.901C295.962 449.063 295.87 449.271 295.851 449.491C295.821 449.85 295.821 450.211 295.851 450.571C295.911 451.301 295.911 451.991 296.021 452.841C296.059 453.083 296.162 453.31 296.319 453.498C296.475 453.687 296.68 453.829 296.911 453.911C297.35 454.039 297.813 454.06 298.261 453.971C299.068 453.825 299.856 453.59 300.611 453.271C300.971 453.117 301.321 452.944 301.661 452.751C302.023 452.577 302.346 452.332 302.611 452.031C302.761 451.851 302.843 451.625 302.843 451.391C302.843 451.157 302.761 450.93 302.611 450.751C302.457 450.613 302.271 450.516 302.07 450.469C301.87 450.421 301.66 450.426 301.461 450.481C300.873 450.636 300.308 450.868 299.781 451.171C299.018 451.583 298.318 452.101 297.701 452.711C297.271 453.141 297.081 453.431 297.111 453.451C297.997 452.72 298.951 452.077 299.961 451.531C300.463 451.273 300.993 451.075 301.541 450.941C301.821 450.941 302.121 450.941 302.231 451.081C302.296 451.178 302.325 451.295 302.315 451.411C302.304 451.528 302.253 451.637 302.171 451.721C301.938 451.952 301.668 452.141 301.371 452.281C301.051 452.451 300.711 452.611 300.371 452.761C299.65 453.058 298.899 453.276 298.131 453.411C297.783 453.497 297.419 453.497 297.071 453.411C296.928 453.364 296.801 453.277 296.707 453.16C296.613 453.043 296.555 452.9 296.541 452.751C296.431 452.061 296.411 451.261 296.341 450.571C296.301 450.239 296.284 449.905 296.291 449.571C296.291 449.291 296.451 449.151 296.651 449.171C297.121 449.171 297.281 449.821 297.361 450.331C297.529 451.453 297.478 452.598 297.211 453.701V453.701Z" fill="#263238"/>
<path d="M339.779 413.5C339.851 413.188 339.851 412.863 339.779 412.55C339.617 411.686 339.276 410.866 338.779 410.141C338.625 409.883 338.433 409.65 338.209 409.451C338.07 409.315 337.897 409.22 337.709 409.176C337.52 409.132 337.323 409.14 337.139 409.201C337.028 409.24 336.928 409.303 336.845 409.386C336.762 409.469 336.698 409.57 336.659 409.68C336.593 409.889 336.593 410.112 336.659 410.32C336.793 410.669 336.961 411.004 337.159 411.32C337.529 411.95 337.829 412.57 338.309 413.32C338.451 413.52 338.644 413.677 338.867 413.777C339.09 413.878 339.336 413.917 339.579 413.891C340.029 413.815 340.453 413.626 340.809 413.34C341.795 412.633 342.648 411.756 343.329 410.75C343.571 410.433 343.754 410.074 343.869 409.69C343.928 409.463 343.905 409.223 343.805 409.011C343.704 408.799 343.532 408.629 343.319 408.53C343.123 408.471 342.916 408.462 342.716 408.506C342.516 408.55 342.331 408.644 342.179 408.78C341.717 409.182 341.311 409.643 340.969 410.15C340.47 410.858 340.073 411.633 339.789 412.451C339.658 412.74 339.586 413.053 339.579 413.37C340.058 412.321 340.63 411.317 341.289 410.37C341.625 409.919 342.015 409.509 342.449 409.15C342.538 409.066 342.647 409.005 342.766 408.973C342.885 408.942 343.01 408.941 343.129 408.97C343.228 409.029 343.303 409.119 343.343 409.227C343.383 409.334 343.385 409.452 343.349 409.56C343.249 409.873 343.093 410.164 342.889 410.421C342.676 410.724 342.446 411.014 342.199 411.291C341.689 411.879 341.111 412.406 340.479 412.86C340.189 413.092 339.845 413.247 339.479 413.31C339.33 413.33 339.178 413.307 339.041 413.243C338.905 413.179 338.79 413.078 338.709 412.951C338.309 412.381 337.929 411.67 337.569 411.08C337.385 410.804 337.224 410.513 337.089 410.21C336.989 409.94 337.089 409.77 337.229 409.69C337.669 409.51 338.089 410.001 338.379 410.421C339.032 411.352 339.507 412.396 339.779 413.5V413.5Z" fill="#263238"/>
<path d="M310.128 423.261L297.928 449.711L278.238 440.611L290.858 407.881L310.128 423.261Z" fill="#FFBE9D"/>
<path d="M300.238 447.941L293.108 461.541C293.108 461.541 311.358 480.411 309.638 484.621L266.738 464.051L278.528 436.791L300.238 447.941Z" fill="#455A64"/>
<path d="M280.729 453.321C280.256 453.248 279.772 453.353 279.372 453.615C278.971 453.877 278.682 454.278 278.559 454.741C278.47 455.218 278.571 455.71 278.84 456.114C279.109 456.517 279.525 456.8 279.999 456.901C280.501 456.976 281.013 456.862 281.436 456.582C281.859 456.301 282.163 455.873 282.289 455.381C282.317 454.885 282.16 454.396 281.847 454.01C281.535 453.623 281.09 453.367 280.599 453.291" fill="#E0E0E0"/>
<g opacity="0.6">
<path d="M266.738 464.051L268.528 460.631L308.988 481.631C308.988 481.631 310.498 483.381 309.638 484.631L266.738 464.051Z" fill="white"/>
</g>
<path d="M293.91 461.65C293.8 461.86 292.71 461.45 291.35 461.65C289.99 461.85 289.03 462.45 288.87 462.27C288.71 462.09 289.61 461.03 291.26 460.85C292.91 460.67 294 461.48 293.91 461.65Z" fill="#263238"/>
<path d="M297.509 465.671C297.459 465.901 296.389 465.821 295.249 466.361C294.109 466.901 293.459 467.751 293.249 467.641C293.039 467.531 293.479 466.281 294.909 465.641C296.339 465.001 297.599 465.471 297.509 465.671Z" fill="#263238"/>
<path d="M297.491 472.281C297.281 472.281 297.491 471.051 298.571 470.161C299.651 469.271 300.861 469.281 300.861 469.501C300.861 469.721 299.971 470.041 299.091 470.781C298.211 471.521 297.701 472.361 297.491 472.281Z" fill="#263238"/>
<path d="M296 456.411C295.82 456.561 295 455.811 293.78 455.331C292.56 454.851 291.45 454.771 291.43 454.541C291.41 454.311 292.65 453.981 294.08 454.541C295.51 455.101 296.13 456.301 296 456.411Z" fill="#263238"/>
<path d="M310.409 432.34L341.489 355C341.489 355 340.769 341.26 338.239 336.93C335.709 332.6 259.089 307.29 259.089 307.29C259.089 307.29 239.569 302.59 226.559 307.29C213.549 311.99 203.789 328.29 205.559 337.29C207.329 346.29 214.999 353 214.999 353L271.339 354.68L302.059 365.88L281.399 425.11C281.399 425.11 291.999 436.68 310.409 432.34Z" fill="#263238"/>
<path d="M337.932 380.491L338.662 409.601L316.982 410.131L313.852 375.191L337.932 380.491Z" fill="#FFBE9D"/>
<path d="M340 407L339.6 422.35C339.6 422.35 364.31 431.22 364.6 435.76L317.03 436.25L315.57 406.57L340 407Z" fill="#455A64"/>
<path d="M324.819 420.432C324.368 420.586 323.988 420.897 323.746 421.308C323.504 421.719 323.416 422.202 323.499 422.672C323.629 423.131 323.928 423.523 324.337 423.768C324.746 424.014 325.233 424.094 325.699 423.992C326.182 423.837 326.591 423.509 326.847 423.072C327.104 422.635 327.19 422.118 327.089 421.622C326.905 421.156 326.549 420.78 326.094 420.571C325.64 420.363 325.122 420.338 324.649 420.502" fill="#E0E0E0"/>
<g opacity="0.6">
<path d="M317 436.251L317.09 432.391L362.67 433.391C362.67 433.391 364.8 434.291 364.57 435.781L317 436.251Z" fill="white"/>
</g>
<path d="M340.319 422.101C340.319 422.331 339.159 422.451 338.019 423.211C336.879 423.971 336.289 424.951 336.069 424.861C335.849 424.771 336.189 423.421 337.579 422.531C338.969 421.641 340.369 421.881 340.319 422.101Z" fill="#263238"/>
<path d="M345.33 424.11C345.39 424.33 344.39 424.74 343.61 425.73C342.83 426.72 342.61 427.73 342.38 427.73C342.15 427.73 341.99 426.4 342.98 425.19C343.97 423.98 345.33 423.89 345.33 424.11Z" fill="#263238"/>
<path d="M348.232 430.051C348.022 430.111 347.682 428.951 348.232 427.671C348.782 426.391 349.892 425.871 349.992 426.071C350.092 426.271 349.432 426.951 348.992 428.001C348.552 429.051 348.462 430.001 348.232 430.051Z" fill="#263238"/>
<path d="M339.85 416.491C339.75 416.711 338.68 416.401 337.37 416.491C336.06 416.581 335.04 417.021 334.92 416.821C334.8 416.621 335.77 415.821 337.32 415.681C338.87 415.541 340 416.311 339.85 416.491Z" fill="#263238"/>
<path d="M325.27 299.65C325.27 299.65 338.27 298.65 339.71 312.71C341.15 326.77 342.57 392.58 342.57 392.58L312.22 395.11L307.52 327.89L259.09 307.29C259.09 307.29 316.6 297.85 325.27 299.65Z" fill="#263238"/>
<path d="M271.721 280.631C271.721 280.631 279.611 302.741 278.111 305.201C276.611 307.661 256.331 317.801 256.331 317.801L205.601 337.291C205.601 337.291 200.391 329.001 200.391 316.291C200.391 303.581 218.001 280.631 218.001 280.631H271.721Z" fill="#263238"/>
<path d="M256.691 306.16C256.691 306.16 256.761 306.16 256.921 306.29L257.641 306.62L260.451 307.87L271.001 312.47L307.411 328.14L307.251 327.91C307.711 334.55 308.201 341.72 308.721 349.14C309.951 366.49 311.091 382.48 311.991 395.14V395.37H312.211L334.331 393.43L340.421 392.86L342.011 392.69C342.194 392.687 342.376 392.66 342.551 392.61H342.011L340.411 392.71L334.311 393.15L312.181 394.9L312.421 395.11C311.551 382.45 310.421 366.46 309.261 349.11C308.741 341.69 308.261 334.52 307.771 327.88V327.71L307.611 327.65L271.131 312.16L260.521 307.71L257.671 306.55L256.931 306.26C256.857 306.215 256.776 306.181 256.691 306.16V306.16Z" fill="#455A64"/>
<path d="M216.34 308.371C216.826 308.293 217.302 308.163 217.76 307.981L221.58 306.751C225.751 305.338 230.028 304.258 234.37 303.521C238.706 302.813 243.133 302.871 247.45 303.691C249.225 304.106 250.978 304.613 252.7 305.211C252.287 304.939 251.844 304.714 251.38 304.541C250.137 304.02 248.853 303.605 247.54 303.301C243.181 302.352 238.682 302.237 234.28 302.961C229.906 303.695 225.611 304.837 221.45 306.371C219.85 306.941 218.57 307.431 217.69 307.781C217.221 307.932 216.769 308.13 216.34 308.371V308.371Z" fill="#455A64"/>
<path d="M223.512 296.72C224.987 296.63 226.466 296.63 227.942 296.72C229.312 296.81 230.942 297.02 232.752 297.23C234.562 297.44 236.542 297.69 238.592 298.08C242.114 298.644 245.491 299.894 248.532 301.76C249.745 302.605 250.898 303.534 251.982 304.54C251.786 304.187 251.536 303.867 251.242 303.59C250.496 302.782 249.664 302.058 248.762 301.43C245.725 299.425 242.295 298.092 238.702 297.52C236.622 297.13 234.622 296.9 232.802 296.71C230.982 296.52 229.352 296.36 227.972 296.32C226.873 296.267 225.772 296.314 224.682 296.46C224.281 296.488 223.886 296.575 223.512 296.72V296.72Z" fill="#455A64"/>
<path d="M273 193.541C276.576 194.921 279.556 197.511 281.42 200.861C284.59 206.461 283.74 209.231 282.92 212.541C282.1 215.851 280.63 222.421 280.55 222.001C280.47 221.581 273 193.541 273 193.541Z" fill="#FFBE9D"/>
<path d="M272.619 193.532L265.969 189.592L228.469 188.602L241.099 230.022L263.939 244.412L277.479 237.632L278.829 222.582L272.619 193.532Z" fill="#FFBE9D"/>
<path d="M272.999 193.541C272.999 193.541 281.619 221.201 281.419 229.121C281.219 237.041 277.939 259.541 278.319 263.971C278.699 268.401 277.149 280.631 271.739 280.631H217.999C217.999 280.631 205.879 277.281 205.349 269.991C204.819 262.701 214.679 200.381 214.679 200.381C214.679 200.381 221.559 190.001 225.999 189.091C230.439 188.181 238.679 186.311 241.649 195.501C244.619 204.691 245.589 209.401 251.919 215.741C258.249 222.081 267.279 229.191 267.279 229.191C267.279 229.191 274.559 223.101 274.879 214.861C275.199 206.621 272.129 193.271 272.129 193.271L272.999 193.541Z" fill="#FF725E"/>
<path d="M265 281.231C265.786 281.033 266.513 280.648 267.12 280.111C268.649 278.888 269.877 277.332 270.71 275.561C271.535 273.809 272.149 271.967 272.54 270.071C272.772 269.308 272.897 268.517 272.91 267.721C272.578 268.442 272.323 269.196 272.15 269.971C271.651 271.801 271.002 273.587 270.21 275.311C269.398 277.01 268.264 278.534 266.87 279.801C265.81 280.751 265 281.141 265 281.231Z" fill="#263238"/>
<path d="M236.609 246.941C236.872 247.236 237.175 247.492 237.509 247.701C238.379 248.334 239.31 248.877 240.289 249.321C241.742 249.999 243.284 250.464 244.869 250.701C246.821 250.983 248.809 250.898 250.729 250.451C254.2 249.564 257.356 247.733 259.849 245.161C260.602 244.397 261.3 243.582 261.939 242.721C262.193 242.417 262.405 242.081 262.569 241.721C262.489 241.651 261.519 243.021 259.569 244.861C257.054 247.281 253.952 249.004 250.569 249.861C247.173 250.636 243.618 250.31 240.419 248.931C237.999 247.911 236.669 246.851 236.609 246.941Z" fill="#263238"/>
<path d="M265.691 280.232C265.801 280.332 266.541 279.482 266.791 278.162C267.041 276.842 266.69 275.782 266.55 275.832C266.4 276.564 266.296 277.306 266.24 278.052C266 279.252 265.551 280.152 265.691 280.232Z" fill="#263238"/>
<g opacity="0.3">
<path d="M261.67 243C261.302 247.107 259.321 250.901 256.16 253.55C254.572 254.832 252.704 255.721 250.708 256.147C248.712 256.573 246.643 256.522 244.67 256C242.704 255.438 240.931 254.344 239.546 252.839C238.161 251.334 237.218 249.476 236.82 247.47C239.525 248.859 242.409 249.869 245.39 250.47C248.607 250.9 251.879 250.392 254.813 249.007C257.747 247.621 260.219 245.417 261.93 242.66L261.49 243.12" fill="black"/>
</g>
<g opacity="0.3">
<path d="M273.002 268.561C273.388 270.601 273.238 272.706 272.566 274.671C271.895 276.636 270.725 278.393 269.172 279.771C268.874 280.101 268.495 280.35 268.073 280.492C267.651 280.633 267.199 280.664 266.762 280.581C269.786 277.052 271.907 272.841 272.942 268.311" fill="black"/>
</g>
<path d="M200.391 230.701L227.441 243.391C227.441 243.391 238.441 218.991 239.441 215.651C240.441 212.311 243.361 207.041 240.311 200.081C237.261 193.121 229.581 189.251 224.481 191.081C212.531 195.231 200.391 230.701 200.391 230.701Z" fill="#FF725E"/>
<path d="M278.829 230.621C280.089 230.621 294.599 238.211 294.599 238.211L302.859 210.851C290.519 202.631 277.919 194.081 270.699 192.141L276.999 213.911L278.829 230.621Z" fill="#FF725E"/>
<path d="M224.79 241.67C219.66 250.09 216.09 254.93 216.09 254.93L262.09 282.93L256.74 295.37L197.14 270.84C197.14 270.84 191.26 264.84 193.34 258.06L202.84 231.83L224.79 241.67Z" fill="#FFBE9D"/>
<path d="M204.909 259.211C206.664 258.114 208.503 257.158 210.409 256.351C212.368 255.72 214.375 255.245 216.409 254.931C214.293 254.779 212.169 255.082 210.18 255.82C208.191 256.558 206.383 257.715 204.879 259.211H204.909Z" fill="#EB996E"/>
<path d="M200.391 230.701C200.573 230.747 200.75 230.811 200.921 230.891L202.421 231.531L207.891 233.961L225.891 242.141L228.081 243.141L227.731 243.271C230.861 236.831 233.591 231.071 235.531 226.921C236.471 224.921 237.231 223.231 237.791 222.001C238.041 221.471 238.241 221.001 238.401 220.671C238.47 220.515 238.551 220.365 238.641 220.221C238.619 220.392 238.569 220.557 238.491 220.711C238.381 221.031 238.211 221.491 237.971 222.081C237.501 223.261 236.781 224.961 235.851 227.081C234.001 231.281 231.321 237.081 228.201 243.511L228.091 243.741L227.861 243.631L225.671 242.631L207.771 234.301L202.381 231.721L200.921 231.001C200.729 230.93 200.55 230.829 200.391 230.701V230.701Z" fill="#263238"/>
<path d="M277.16 205.871C277.412 206.28 277.623 206.712 277.79 207.161C278.286 208.368 278.697 209.607 279.02 210.871C280.039 215.046 280.659 219.309 280.87 223.601C281.136 227.885 281.096 232.183 280.75 236.461C280.61 238.101 280.42 239.461 280.26 240.331C280.202 240.808 280.095 241.277 279.94 241.731C279.939 241.252 279.979 240.773 280.06 240.301C280.15 239.391 280.29 238.071 280.38 236.431C280.631 232.168 280.631 227.894 280.38 223.631C280.154 219.381 279.579 215.157 278.66 211.001C278.372 209.74 278.018 208.495 277.6 207.271C277.412 206.819 277.264 206.35 277.16 205.871V205.871Z" fill="#263238"/>
<path d="M297.688 291.44L286.228 286L263.868 284.23L261.998 282.91L256.648 295.35C256.648 295.35 262.508 298.16 265.578 298.41L284.388 297.84L294.218 298.84L297.688 291.44Z" fill="#FFBE9D"/>
<path d="M283.328 147.872C283.988 148.01 284.669 148.01 285.328 147.872C286.957 147.608 288.513 147.009 289.898 146.112C291.283 145.22 292.465 144.048 293.368 142.672C293.776 142.127 294.069 141.504 294.228 140.842C293.804 141.353 293.413 141.891 293.058 142.452C291.117 144.973 288.36 146.741 285.258 147.452C284.606 147.55 283.962 147.69 283.328 147.872V147.872Z" fill="#455A64"/>
<path d="M280.398 134.58C280.398 134.58 280.798 135.19 281.708 135.89C284.153 137.712 287.22 138.492 290.238 138.06C290.863 138.023 291.472 137.845 292.018 137.54C292.018 137.36 289.208 138.16 285.898 137.29C283.927 136.7 282.068 135.784 280.398 134.58Z" fill="#455A64"/>
<path d="M301.879 200.382H302.059C302.179 200.382 302.349 200.312 302.579 200.232C303.232 199.997 303.843 199.66 304.389 199.232C305.268 198.557 305.974 197.683 306.449 196.682C307.078 195.337 307.254 193.825 306.949 192.372C306.781 191.53 306.459 190.727 305.999 190.002C305.487 189.228 304.864 188.534 304.149 187.942C303.412 187.352 302.768 186.654 302.239 185.872C301.999 185.46 301.865 184.995 301.849 184.518C301.833 184.042 301.936 183.569 302.149 183.142C302.677 182.223 303.308 181.368 304.029 180.592C304.407 180.155 304.742 179.683 305.029 179.182C305.31 178.65 305.502 178.076 305.599 177.482C305.767 176.242 305.543 174.981 304.959 173.874C304.374 172.768 303.458 171.872 302.339 171.312C301.181 170.929 299.989 170.655 298.779 170.492C298.242 170.38 297.732 170.163 297.279 169.852C296.857 169.535 296.548 169.089 296.399 168.582C296.178 167.531 296.301 166.437 296.749 165.462C297.159 164.462 297.749 163.522 298.099 162.512C298.532 161.507 298.606 160.385 298.309 159.332C297.969 158.366 297.341 157.529 296.509 156.932C295.039 155.962 293.396 155.283 291.669 154.932C290.289 154.61 288.987 154.015 287.839 153.182C287.026 152.501 286.463 151.569 286.239 150.532C286.071 149.863 286.138 149.157 286.429 148.532C286.629 148.112 286.819 147.942 286.789 147.922C286.597 148.072 286.44 148.264 286.329 148.482C286.001 149.094 285.895 149.801 286.029 150.482C286.221 151.592 286.789 152.602 287.639 153.342C288.803 154.225 290.133 154.864 291.549 155.222C293.221 155.591 294.808 156.269 296.229 157.222C296.98 157.769 297.546 158.534 297.849 159.412C298.109 160.359 298.031 161.366 297.629 162.262C297.259 163.262 296.709 164.142 296.269 165.192C295.766 166.276 295.633 167.495 295.889 168.662C296.063 169.281 296.435 169.826 296.949 170.212C297.464 170.572 298.045 170.823 298.659 170.952C299.83 171.114 300.985 171.378 302.109 171.742C303.129 172.245 303.967 173.054 304.505 174.056C305.042 175.059 305.254 176.204 305.109 177.332C305.022 177.864 304.853 178.38 304.609 178.862C304.339 179.331 304.027 179.776 303.679 180.192C302.932 181 302.288 181.897 301.759 182.862C301.514 183.36 301.397 183.912 301.418 184.467C301.439 185.022 301.597 185.563 301.879 186.042C302.436 186.859 303.11 187.591 303.879 188.212C304.568 188.767 305.171 189.421 305.669 190.152C306.103 190.84 306.414 191.598 306.589 192.392C306.898 193.767 306.754 195.205 306.179 196.492C305.742 197.463 305.089 198.321 304.269 199.002C303.548 199.581 302.742 200.046 301.879 200.382V200.382Z" fill="#455A64"/>
<path d="M242.38 135.641L242.46 131.531L267.34 127.831C274.99 127.331 282.91 135.301 283.08 142.961C283.27 151.471 283.17 161.871 281.91 168.161C279.37 180.811 269.54 182.001 269.54 182.001L269 194.681L240.82 193.891L242.38 135.641Z" fill="#FFBE9D"/>
<path d="M279.872 152.311C279.856 152.735 279.676 153.137 279.371 153.432C279.065 153.726 278.656 153.891 278.232 153.891C278.023 153.899 277.815 153.865 277.619 153.791C277.424 153.718 277.245 153.606 277.093 153.463C276.941 153.32 276.82 153.147 276.735 152.956C276.651 152.765 276.605 152.559 276.602 152.351C276.617 151.925 276.796 151.522 277.102 151.226C277.408 150.93 277.816 150.763 278.242 150.761C278.451 150.754 278.659 150.789 278.855 150.863C279.05 150.938 279.229 151.051 279.381 151.195C279.532 151.339 279.654 151.512 279.738 151.703C279.822 151.895 279.868 152.101 279.872 152.311Z" fill="#263238"/>
<path d="M280.169 148.262C279.959 148.462 278.759 147.502 276.999 147.432C275.239 147.362 273.919 148.192 273.739 147.972C273.559 147.752 273.869 147.492 274.449 147.112C275.228 146.611 276.144 146.366 277.069 146.412C277.984 146.442 278.864 146.769 279.579 147.342C280.109 147.772 280.279 148.172 280.169 148.262Z" fill="#263238"/>
<path d="M263.61 151.66C263.597 152.087 263.418 152.491 263.112 152.788C262.806 153.085 262.396 153.251 261.97 153.25C261.761 153.257 261.552 153.222 261.357 153.147C261.161 153.073 260.982 152.96 260.831 152.816C260.679 152.672 260.558 152.499 260.473 152.307C260.389 152.116 260.344 151.91 260.34 151.7C260.355 151.276 260.535 150.874 260.841 150.579C261.147 150.285 261.555 150.12 261.98 150.12C262.189 150.112 262.397 150.146 262.592 150.219C262.788 150.293 262.967 150.405 263.118 150.548C263.27 150.691 263.392 150.864 263.476 151.055C263.561 151.246 263.606 151.452 263.61 151.66V151.66Z" fill="#263238"/>
<path d="M262.879 147.89C262.669 148.09 261.469 147.12 259.709 147.06C257.949 147 256.629 147.82 256.449 147.59C256.269 147.36 256.579 147.12 257.159 146.73C257.942 146.238 258.856 145.997 259.779 146.04C260.693 146.072 261.572 146.395 262.289 146.96C262.819 147.4 262.999 147.79 262.879 147.89Z" fill="#263238"/>
<path d="M268.731 161.181C269.67 160.926 270.638 160.791 271.611 160.781C272.061 160.781 272.491 160.681 272.611 160.381C272.668 159.917 272.584 159.447 272.371 159.031C271.991 157.931 271.601 156.771 271.181 155.561C269.531 150.621 268.361 146.561 268.561 146.501C268.761 146.441 270.261 150.391 271.901 155.331C272.301 156.551 272.681 157.711 273.031 158.821C273.292 159.373 273.352 159.999 273.201 160.591C273.127 160.746 273.02 160.883 272.887 160.992C272.754 161.1 272.598 161.179 272.431 161.221C272.182 161.276 271.927 161.299 271.671 161.291C270.691 161.383 269.702 161.346 268.731 161.181Z" fill="#263238"/>
<path d="M269.54 182.071C263.396 181.917 257.411 180.088 252.23 176.781C252.23 176.781 256.17 185.881 269.4 185.241L269.54 182.071Z" fill="#EB996E"/>
<path d="M267.818 165.38C267.498 164.946 267.074 164.6 266.584 164.375C266.095 164.149 265.556 164.051 265.018 164.09C264.635 164.117 264.262 164.219 263.918 164.391C263.575 164.562 263.269 164.8 263.018 165.09C262.772 165.375 262.62 165.727 262.58 166.101C262.541 166.475 262.617 166.851 262.798 167.18C263.067 167.508 263.428 167.747 263.834 167.868C264.241 167.99 264.674 167.987 265.078 167.86C265.919 167.597 266.7 167.172 267.378 166.61C267.582 166.476 267.762 166.307 267.908 166.11C267.971 166.012 268.005 165.897 268.005 165.78C268.005 165.663 267.971 165.549 267.908 165.45" fill="#EB996E"/>
<path d="M263.509 162.182C263.799 162.182 263.719 164.092 265.299 165.512C266.879 166.932 268.919 166.802 268.919 167.072C268.919 167.342 268.449 167.422 267.589 167.412C266.48 167.374 265.419 166.949 264.589 166.212C263.781 165.503 263.285 164.504 263.209 163.432C263.149 162.632 263.379 162.172 263.509 162.182Z" fill="#263238"/>
<path d="M263.619 141.001C263.419 141.471 261.679 141.171 259.619 141.331C257.559 141.491 255.859 141.991 255.619 141.551C255.499 141.341 255.809 140.911 256.499 140.471C257.414 139.936 258.441 139.621 259.499 139.551C260.561 139.469 261.627 139.641 262.609 140.051C263.329 140.401 263.699 140.791 263.619 141.001Z" fill="#263238"/>
<path d="M279.732 143.152C279.412 143.532 278.212 143.072 276.732 142.992C275.252 142.912 274.032 143.152 273.732 142.722C273.612 142.512 273.822 142.122 274.382 141.722C275.126 141.301 275.977 141.109 276.83 141.172C277.682 141.234 278.497 141.547 279.172 142.072C279.722 142.542 279.882 143.002 279.732 143.152Z" fill="#263238"/>
<path d="M286.359 127.531C284.309 131.981 279.709 138.611 274.829 139.091C272.376 139.305 269.909 138.887 267.663 137.877C265.417 136.867 263.467 135.299 261.999 133.321C261.179 136.931 257.109 138.771 253.439 139.321C250.846 139.785 248.177 139.543 245.709 138.621C244.486 138.141 243.405 137.356 242.57 136.341C241.735 135.326 241.174 134.114 240.939 132.821C240.599 130.221 244.429 123.951 247.019 123.531" fill="#263238"/>
<path d="M246.618 192.621C246.458 194.681 245.666 196.643 244.351 198.237C243.036 199.832 241.261 200.982 239.268 201.531C239.336 203.222 238.799 204.882 237.753 206.212C236.707 207.542 235.22 208.456 233.561 208.788C231.902 209.121 230.178 208.851 228.7 208.026C227.222 207.202 226.087 205.877 225.498 204.291C225.287 203.442 224.95 202.63 224.498 201.881C223.248 200.301 220.818 200.621 218.908 200.001C215.458 198.881 213.958 194.651 214.348 191.051C214.476 190.345 214.51 189.625 214.448 188.911C214.238 187.471 213.108 186.361 212.268 185.171C208.798 180.251 210.268 173.111 214.088 168.481C215.368 166.941 216.988 165.331 216.868 163.331C216.674 162.223 216.306 161.153 215.778 160.161C215.146 158.451 215.043 156.591 215.482 154.822C215.92 153.053 216.881 151.457 218.238 150.241C218.646 150.028 218.969 149.681 219.151 149.259C219.333 148.836 219.364 148.363 219.238 147.921C219.023 145.24 219.832 142.577 221.502 140.469C223.172 138.361 225.579 136.965 228.238 136.561C228.562 136.552 228.881 136.481 229.178 136.351C229.998 135.931 230.018 134.801 230.128 133.881C230.408 131.461 232.288 126.941 234.128 125.351C239.268 120.961 244.248 124.531 246.028 126.211C246.028 126.211 249.548 143.651 248.868 146.901C248.188 150.151 245.798 158.251 246.748 161.901C247.698 165.551 249.238 173.121 247.748 176.431C246.258 179.741 246.618 192.621 246.618 192.621Z" fill="#263238"/>
<path d="M227.391 136.501C227.391 136.501 227.611 136.721 228.061 137.051C228.701 137.499 229.369 137.907 230.061 138.271C234.763 140.705 240.117 141.584 245.351 140.781C246.135 140.664 246.91 140.493 247.671 140.271C248.211 140.111 248.501 140.001 248.491 139.961C248.481 139.921 247.261 140.171 245.291 140.401C242.726 140.674 240.137 140.607 237.591 140.201C235.045 139.779 232.569 139.011 230.231 137.921C228.481 137.091 227.441 136.421 227.391 136.501Z" fill="#455A64"/>
<path d="M225.711 137.732C225.79 138.08 225.914 138.416 226.081 138.732C226.238 139.132 226.425 139.52 226.641 139.892C226.894 140.405 227.178 140.903 227.491 141.382C228.294 142.643 229.218 143.822 230.251 144.902C231.522 146.218 232.93 147.394 234.451 148.412C235.988 149.403 237.624 150.234 239.331 150.892C240.731 151.41 242.178 151.791 243.651 152.032C244.213 152.131 244.781 152.198 245.351 152.232C245.78 152.264 246.212 152.264 246.641 152.232C247.009 152.256 247.378 152.236 247.741 152.172C247.741 152.062 246.171 152.082 243.741 151.602C242.308 151.312 240.903 150.901 239.541 150.372C237.879 149.702 236.285 148.874 234.781 147.902C233.295 146.904 231.908 145.765 230.641 144.502C229.612 143.46 228.679 142.329 227.851 141.122C226.411 139.142 225.811 137.682 225.711 137.732Z" fill="#455A64"/>
<path d="M234.83 202.542C234.83 202.542 234.61 202.542 234.22 202.472C233.649 202.348 233.133 202.043 232.75 201.602C232.136 200.914 231.797 200.024 231.8 199.102C231.837 197.869 232.06 196.648 232.461 195.482C233.008 194.013 233.102 192.414 232.73 190.892C232.2 189.242 230.86 187.962 229.73 186.602C229.104 185.94 228.591 185.18 228.211 184.352C228.033 183.934 227.948 183.482 227.962 183.028C227.976 182.574 228.088 182.128 228.29 181.722C228.772 180.866 229.46 180.145 230.29 179.622C231.11 179.022 232.01 178.502 232.88 177.852C233.808 177.247 234.535 176.38 234.97 175.362C235.14 174.843 235.198 174.294 235.142 173.751C235.085 173.209 234.914 172.684 234.64 172.212C233.64 170.402 232.12 169.082 231.75 167.342C231.623 166.516 231.674 165.672 231.898 164.867C232.122 164.062 232.515 163.313 233.05 162.672C233.948 161.471 234.975 160.371 236.11 159.392C237.05 158.55 237.914 157.626 238.69 156.632C239.264 155.867 239.707 155.012 240 154.102C240.168 153.517 240.236 152.909 240.2 152.302C240.185 152.092 240.148 151.884 240.09 151.682C240.127 152.476 240.025 153.271 239.79 154.032C238.914 156.037 237.536 157.783 235.79 159.102C234.614 160.08 233.551 161.187 232.62 162.402C232.098 163.095 231.683 163.864 231.39 164.682C231.072 165.57 231.006 166.529 231.2 167.452C231.62 169.452 233.2 170.772 234.11 172.452C234.348 172.859 234.497 173.312 234.547 173.781C234.597 174.249 234.547 174.723 234.4 175.172C233.994 176.082 233.334 176.856 232.5 177.402C231.66 178.022 230.76 178.552 229.91 179.172C229.019 179.751 228.284 180.541 227.77 181.472C227.539 181.946 227.412 182.464 227.396 182.992C227.381 183.52 227.478 184.044 227.68 184.532C228.09 185.415 228.641 186.225 229.31 186.932C230.53 188.302 231.81 189.532 232.31 191.022C232.665 192.461 232.592 193.973 232.101 195.372C231.707 196.576 231.504 197.835 231.5 199.102C231.532 200.088 231.927 201.029 232.61 201.742C233.035 202.191 233.599 202.483 234.211 202.572C234.417 202.61 234.629 202.6 234.83 202.542Z" fill="#455A64"/>
<path d="M362.171 247.291L297.691 247.811C295.601 247.811 293.601 248.811 293.291 250.891L286.241 297.891H253.001C252.735 297.872 252.468 297.908 252.217 297.996C251.966 298.085 251.735 298.224 251.54 298.406C251.345 298.587 251.19 298.807 251.083 299.052C250.977 299.296 250.922 299.56 250.922 299.826C250.922 300.093 250.977 300.356 251.083 300.6C251.19 300.845 251.345 301.065 251.54 301.246C251.735 301.428 251.966 301.567 252.217 301.656C252.468 301.744 252.735 301.78 253.001 301.761H359.101L366.351 252.161C366.445 251.558 366.407 250.942 366.24 250.356C366.073 249.769 365.781 249.225 365.384 248.763C364.986 248.3 364.493 247.928 363.939 247.674C363.384 247.42 362.781 247.29 362.171 247.291Z" fill="#E0E0E0"/>
<path d="M362.168 247.292C362.504 247.269 362.841 247.3 363.168 247.382C364.029 247.583 364.805 248.048 365.39 248.711C365.974 249.374 366.337 250.203 366.428 251.082C366.451 251.971 366.374 252.86 366.198 253.732L365.268 260.272C363.848 270.132 361.798 284.322 359.268 301.782V301.952H359.098L256.188 302.002H253.418C252.914 302.054 252.407 301.957 251.958 301.722C251.495 301.47 251.139 301.057 250.958 300.562C250.778 300.069 250.78 299.529 250.963 299.037C251.146 298.546 251.499 298.136 251.958 297.882C252.407 297.66 252.909 297.567 253.408 297.612H286.228L285.978 297.822C288.518 280.992 290.878 265.292 292.978 251.212C293.039 250.268 293.466 249.386 294.168 248.752C294.871 248.162 295.728 247.784 296.638 247.662C297.502 247.583 298.37 247.553 299.238 247.572H301.768L311.468 247.502L328.728 247.392L353.288 247.272H359.858H361.548H362.128H361.548H359.858L353.288 247.372L328.728 247.642L311.478 247.812L301.768 247.902H299.238C298.39 247.881 297.542 247.912 296.698 247.992C295.868 248.105 295.088 248.452 294.448 248.992C293.823 249.559 293.446 250.349 293.398 251.192L286.448 297.822V298.032H253.448C253.036 297.988 252.62 298.061 252.248 298.242C251.907 298.434 251.645 298.739 251.506 299.104C251.367 299.47 251.361 299.872 251.488 300.242C251.621 300.62 251.888 300.937 252.238 301.132C252.611 301.322 253.033 301.395 253.448 301.342H256.218L359.128 301.402L358.938 301.572C361.518 284.132 363.628 269.942 365.088 260.092C365.458 257.632 365.778 255.452 366.088 253.552C366.271 252.694 366.358 251.819 366.348 250.942C366.284 250.22 366.025 249.528 365.598 248.942C365.024 248.128 364.181 247.544 363.218 247.292C362.869 247.262 362.517 247.262 362.168 247.292Z" fill="#263238"/>
<path d="M327.188 277.961C329.42 277.961 331.228 276.152 331.228 273.921C331.228 271.69 329.42 269.881 327.188 269.881C324.957 269.881 323.148 271.69 323.148 273.921C323.148 276.152 324.957 277.961 327.188 277.961Z" fill="white"/>
<path d="M288.851 301.321C288.941 301.321 291.001 289.371 293.441 274.591C295.881 259.811 297.781 247.831 297.691 247.811C297.601 247.791 295.551 259.761 293.111 274.541C290.671 289.321 288.761 301.301 288.851 301.321Z" fill="#263238"/>
<path d="M463.728 214.91C463.728 214.91 463.728 214.31 463.728 213.17C463.728 212.03 463.728 210.34 463.728 208.17C463.728 203.77 463.728 197.33 463.678 189.17C463.678 172.77 463.608 149.33 463.558 121.17L463.778 121.39H358.688L358.948 121.13C358.948 155.28 358.948 187.41 358.948 215L358.718 214.77L434.718 214.89L456.158 214.95H461.838H463.298H461.858H456.228L434.798 215L358.628 215.12H358.398V214.89C358.398 187.3 358.398 155.17 358.398 121.02V120.76H358.668H463.758H463.998V121C463.998 149.27 463.918 172.76 463.888 189.19C463.888 197.37 463.888 203.8 463.828 208.19C463.828 210.37 463.828 212.04 463.828 213.19C463.828 214.34 463.728 214.91 463.728 214.91Z" fill="#263238"/>
<path d="M455.168 126.381H365.488V209.571H455.168V126.381Z" fill="#FF725E"/>
<g opacity="0.3">
<path d="M419.727 145.13C418.515 145.181 417.345 145.587 416.362 146.297C415.378 147.008 414.626 147.991 414.197 149.126C413.768 150.261 413.682 151.496 413.949 152.679C414.217 153.863 414.826 154.941 415.701 155.781C416.576 156.621 417.679 157.185 418.872 157.404C420.065 157.622 421.296 157.485 422.412 157.01C423.528 156.535 424.48 155.742 425.149 154.731C425.818 153.719 426.176 152.533 426.177 151.32C426.16 150.49 425.98 149.672 425.646 148.911C425.313 148.151 424.833 147.464 424.234 146.889C423.635 146.314 422.929 145.863 422.156 145.561C421.382 145.259 420.557 145.113 419.727 145.13Z" fill="black"/>
<path d="M448.208 132.92L372.448 132.86C372.528 132.77 371.628 133.64 372.008 133.28V138C372.008 139.57 372.008 141.13 372.008 142.69V152C372.008 158.11 372.008 164.1 372.008 169.92C372.008 181.57 372.008 192.59 372.008 202.72V203H372.378L427.378 202.82L442.748 202.73H446.748H447.748C447.857 202.747 447.969 202.747 448.078 202.73H447.708H446.648H442.548L427.098 202.64L410.168 202.58H448.068C448.068 202.72 448.068 202.81 448.068 202.81C448.085 202.711 448.085 202.609 448.068 202.51C448.068 202.27 448.068 201.97 448.068 201.58C448.068 200.71 448.068 199.49 448.118 197.9C448.118 194.62 448.168 189.9 448.208 183.85C448.258 171.65 448.318 154.27 448.398 133.4V133.05L448.208 132.92ZM429.868 172.47L417.538 187L397.248 159.63L372.808 201.8C372.808 191.91 372.808 181.19 372.808 169.87C372.808 164.05 372.808 158.06 372.808 151.95C372.808 148.89 372.808 145.8 372.808 142.68V133.68L447.808 133.62C447.878 154.24 447.948 171.42 447.988 183.5C447.988 189.56 448.068 194.33 448.088 197.63C448.088 199.24 448.088 200.49 448.088 201.37C448.088 201.78 448.088 202.09 448.088 202.37V202.46L429.868 172.47Z" fill="black"/>
</g>
<path d="M361.389 117.58H355.879V123.09H361.389V117.58Z" fill="#263238"/>
<path d="M465.6 117.58H460.09V123.09H465.6V117.58Z" fill="#263238"/>
<path d="M465.6 211.25H460.09V216.76H465.6V211.25Z" fill="#263238"/>
<path d="M362.158 211.25H356.648V216.76H362.158V211.25Z" fill="#263238"/>
<path d="M362.158 164.961H356.648V170.471H362.158V164.961Z" fill="#263238"/>
<path d="M413.26 212.16H407.75V217.67H413.26V212.16Z" fill="#263238"/>
<path d="M466.49 162.211H460.98V167.721H466.49V162.211Z" fill="#263238"/>
<path d="M413.28 118.08H407.77V123.59H413.28V118.08Z" fill="#263238"/>
<path d="M624.35 376.45C624.25 376.58 623.42 376.08 622.49 375.34C621.56 374.6 620.89 373.89 620.99 373.77C621.09 373.65 621.93 374.15 622.85 374.89C623.77 375.63 624.45 376.33 624.35 376.45Z" fill="#263238"/>
<path d="M649.617 338.691C649.767 335.161 649.867 331.541 648.757 328.191C647.647 324.841 645.057 321.751 641.597 321.031C637.597 320.221 633.597 322.711 631.387 326.081C629.177 329.451 628.387 333.541 627.767 337.521C623.265 364.943 621.606 392.758 622.817 420.521L638.997 422.831C646.067 393.841 648.327 368.501 649.617 338.691Z" fill="#455A64"/>
<path d="M639.358 320.91C639.342 321 639.315 321.087 639.278 321.17L639.018 321.9C638.751 322.567 638.391 323.497 637.938 324.69C637.708 325.3 637.418 325.96 637.168 326.69L636.388 329.14L635.488 331.94C635.221 332.96 634.941 334.03 634.648 335.15C633.298 340.418 632.256 345.761 631.528 351.15C630.658 357.23 630.078 363.96 629.628 371.03C628.808 385.18 628.628 398.03 628.308 407.32C628.138 411.96 627.978 415.72 627.798 418.32C627.718 419.58 627.648 420.57 627.598 421.32C627.598 421.64 627.548 421.89 627.528 422.1C627.544 422.186 627.544 422.274 627.528 422.36C627.517 422.274 627.517 422.186 627.528 422.1C627.528 421.89 627.528 421.63 627.528 421.32C627.528 420.58 627.528 419.59 627.618 418.32C627.728 415.72 627.828 411.96 627.948 407.32C628.208 398.03 628.268 385.18 629.098 371C629.548 363.92 630.098 357.18 631.038 351.09C631.799 345.696 632.887 340.352 634.298 335.09C634.598 333.97 634.898 332.9 635.168 331.89C635.438 330.88 635.828 329.96 636.168 329.08L637.008 326.65C637.258 325.9 637.578 325.24 637.818 324.65L638.998 321.89L639.318 321.18C639.313 321.088 639.327 320.997 639.358 320.91V320.91Z" fill="#263238"/>
<path d="M640.85 320.92C641.698 321.914 642.374 323.043 642.85 324.26C644.082 327.598 644.584 331.162 644.32 334.71C643.89 343.64 643.09 355.94 642.03 369.52C640.97 383.1 639.78 395.38 638.82 404.25C638.35 408.69 637.93 412.25 637.63 414.75C637.48 415.95 637.35 416.9 637.26 417.61C637.26 417.9 637.18 418.14 637.15 418.35C637.12 418.56 637.15 418.6 637.15 418.59C637.137 418.507 637.137 418.423 637.15 418.34V417.59C637.21 416.89 637.3 415.93 637.41 414.73C637.65 412.19 637.99 408.61 638.41 404.21C639.26 395.33 640.41 383.05 641.41 369.47C642.41 355.89 643.34 343.59 643.87 334.7C644.171 331.196 643.739 327.667 642.6 324.34C642.118 323.151 641.532 322.007 640.85 320.92V320.92Z" fill="#263238"/>
<path d="M652.047 362.73C650.988 362.647 649.951 362.376 648.987 361.93C647.958 361.664 646.985 361.213 646.117 360.6C648.209 360.934 650.221 361.656 652.047 362.73V362.73Z" fill="#263238"/>
<path d="M653.997 346.26C653.127 346.962 652.143 347.509 651.088 347.88C650.105 348.417 649.041 348.789 647.938 348.98C648.806 348.275 649.791 347.727 650.847 347.36C651.828 346.819 652.893 346.447 653.997 346.26Z" fill="#263238"/>
<path d="M652.999 332.83C651.402 333.102 649.763 332.989 648.219 332.5C649.001 332.267 649.826 332.223 650.629 332.37C651.444 332.339 652.255 332.497 652.999 332.83V332.83Z" fill="#263238"/>
<path d="M636.319 324.22C636.189 324.3 635.479 323.42 634.739 322.22C633.999 321.02 633.509 320.03 633.649 319.94C633.789 319.85 634.489 320.74 635.229 321.94C635.759 322.608 636.131 323.388 636.319 324.22V324.22Z" fill="#263238"/>
<path d="M630.808 332.339C630.077 332.608 629.29 332.69 628.518 332.579C627.248 332.579 626.228 332.399 626.238 332.239C626.971 331.977 627.757 331.894 628.528 331.999C629.788 331.999 630.818 332.179 630.808 332.339Z" fill="#263238"/>
<path d="M626.857 348.6C626.011 348.565 625.184 348.339 624.437 347.94C623.167 347.42 622.177 346.89 622.237 346.74C623.083 346.776 623.91 347.001 624.657 347.4C625.927 347.91 626.917 348.45 626.857 348.6Z" fill="#263238"/>
<path d="M626.429 362.269C626.429 362.429 625.549 362.749 624.429 362.999C623.309 363.249 622.289 363.309 622.259 363.159C622.229 363.009 623.139 362.679 624.259 362.429C625.379 362.179 626.399 362.109 626.429 362.269Z" fill="#263238"/>
<path d="M624.57 384.63C624.57 384.79 623.57 385.1 622.39 385.32C621.21 385.54 620.14 385.59 620.11 385.43C620.08 385.27 621.06 384.97 622.29 384.75C623.03 384.529 623.811 384.488 624.57 384.63Z" fill="#263238"/>
<path d="M623.339 397C623.409 397.14 622.599 397.72 621.519 398.29C620.439 398.86 619.519 399.21 619.429 399.07C619.339 398.93 620.169 398.35 621.249 397.78C622.329 397.21 623.259 396.84 623.339 397Z" fill="#263238"/>
<path d="M633.42 411.001C633.28 411.081 632.57 410.101 631.83 408.811C631.3 408.073 630.932 407.231 630.75 406.341C630.89 406.261 631.6 407.241 632.33 408.521C632.863 409.261 633.235 410.106 633.42 411.001V411.001Z" fill="#263238"/>
<path d="M636.329 387.709C636.439 387.819 635.649 388.779 634.559 389.839C633.469 390.899 632.499 391.679 632.389 391.559C632.279 391.439 633.069 390.489 634.159 389.429C635.249 388.369 636.209 387.589 636.329 387.709Z" fill="#263238"/>
<path d="M635.679 375.489C635.569 375.599 634.829 374.989 634.039 374.139C633.249 373.289 632.709 372.519 632.829 372.409C632.949 372.299 633.679 372.899 634.469 373.749C635.259 374.599 635.799 375.379 635.679 375.489Z" fill="#263238"/>
<path d="M637.677 359.88C637.797 359.98 637.137 360.88 636.207 361.95C635.277 363.02 634.427 363.75 634.307 363.64C634.187 363.53 634.847 362.64 635.777 361.57C636.707 360.5 637.557 359.77 637.677 359.88Z" fill="#263238"/>
<path d="M638.807 348.55C638.697 348.66 637.807 347.94 636.747 346.93C635.687 345.92 634.987 345.02 635.097 344.93C635.207 344.84 636.097 345.54 637.157 346.54C638.217 347.54 638.917 348.44 638.807 348.55Z" fill="#263238"/>
<path d="M641 333.23C641.14 333.32 640.67 334.34 640 335.53C639.33 336.72 638.61 337.61 638.47 337.53C638.33 337.45 638.8 336.43 639.47 335.24C640.14 334.05 640.88 333.15 641 333.23Z" fill="#263238"/>
<path d="M645.178 319C645.053 319.826 644.742 320.613 644.268 321.3C643.618 322.49 642.988 323.39 642.848 323.3C642.708 323.21 643.118 322.2 643.758 321C644.398 319.8 644.998 319 645.178 319Z" fill="#263238"/>
<path d="M649.899 325.49C649.969 325.63 649.319 326.09 648.459 326.49C647.599 326.89 646.829 327.12 646.759 326.98C646.689 326.84 647.339 326.38 648.209 325.98C649.079 325.58 649.829 325.35 649.899 325.49Z" fill="#263238"/>
<path d="M649.998 376.459C647.806 376.296 645.731 375.41 644.098 373.939C645.136 374.244 646.141 374.652 647.098 375.159C648.106 375.493 649.078 375.928 649.998 376.459Z" fill="#263238"/>
<path d="M648.08 387.249C648.08 387.409 647.14 387.729 645.91 387.959C644.68 388.189 643.66 388.269 643.63 388.109C643.6 387.949 644.57 387.639 645.8 387.399C646.536 387.166 647.319 387.114 648.08 387.249V387.249Z" fill="#263238"/>
<path d="M645.707 405.761C644.71 405.271 643.862 404.526 643.247 403.601C642.483 402.794 641.951 401.795 641.707 400.711C642.442 401.498 643.11 402.344 643.707 403.241C644.445 404.022 645.114 404.865 645.707 405.761V405.761Z" fill="#263238"/>
<path d="M619.75 414.23C619.64 414.1 620.3 413.37 621.21 412.59C622.12 411.81 622.95 411.28 623.05 411.4C623.15 411.52 622.5 412.25 621.59 413.03C620.68 413.81 619.85 414.35 619.75 414.23Z" fill="#263238"/>
<path d="M612.279 373.83C611.279 370.54 609.279 366.72 605.809 366.67C604.786 366.728 603.798 367.059 602.946 367.629C602.095 368.199 601.412 368.987 600.969 369.91C600.024 371.743 599.573 373.79 599.659 375.85C600.083 390.461 602.575 404.938 607.059 418.85H619.679C619.522 403.554 617.027 388.371 612.279 373.83V373.83Z" fill="#455A64"/>
<path d="M589.469 353.159C587.709 346.109 582.469 342.299 576.339 341.949C570.769 342.949 568.609 348.409 567.939 354.039C567.269 359.669 569.029 365.249 570.749 370.639C576.275 387.973 581.809 405.283 587.349 422.569L602.999 420.859C598.079 397.669 595.229 376.169 589.469 353.159Z" fill="#455A64"/>
<path d="M605.807 366.67C605.404 367.234 605.046 367.829 604.737 368.45C604.097 370.236 603.895 372.149 604.147 374.03C604.397 376.43 604.667 379.31 605.067 382.48C605.467 385.65 606.067 389.12 606.757 392.74C608.187 399.99 609.757 406.49 610.817 411.23C611.327 413.59 611.717 415.52 611.967 416.85C612.067 417.46 612.157 417.97 612.227 418.39C612.274 418.566 612.294 418.748 612.287 418.93C612.203 418.767 612.145 418.591 612.117 418.41C612.017 418 611.897 417.5 611.747 416.9C611.407 415.49 610.957 413.61 610.417 411.32C609.297 406.61 607.627 400.12 606.197 392.85C605.487 389.22 604.927 385.73 604.547 382.54C604.337 380.95 604.207 379.43 604.077 378.01C603.947 376.59 603.807 375.27 603.747 374.06C603.517 372.124 603.789 370.161 604.537 368.36C604.838 367.714 605.27 367.138 605.807 366.67Z" fill="#263238"/>
<path d="M576.57 341.5C575.872 342.3 575.237 343.153 574.67 344.05C573.226 346.555 572.41 349.371 572.29 352.26C572.05 355.91 572.86 360.26 574.23 364.89C575.6 369.52 577.12 374.69 578.7 380.06C581.83 390.82 584.7 400.55 586.7 407.67C587.7 411.16 588.49 414.01 589.07 416.05C589.32 417 589.53 417.76 589.68 418.34C589.768 418.603 589.828 418.874 589.86 419.15C589.736 418.901 589.639 418.639 589.57 418.37L588.85 416.12C588.23 414.12 587.37 411.26 586.3 407.78L578.11 380.23L573.72 365C572.37 360.32 571.58 355.91 571.88 352.19C572.038 349.249 572.932 346.395 574.48 343.89C575.042 342.985 575.748 342.178 576.57 341.5Z" fill="#263238"/>
<path d="M599.617 419.179C599.475 418.942 599.357 418.69 599.267 418.429C599.057 417.919 598.727 417.189 598.367 416.219C597.627 414.289 596.667 411.449 595.677 407.889C594.687 404.329 593.677 400.029 592.747 395.229C591.817 390.429 590.837 385.159 589.747 379.619C588.657 374.079 587.437 368.869 586.027 364.209C584.808 360.071 583.28 356.029 581.457 352.119C580.215 349.489 578.802 346.944 577.227 344.499C576.687 343.619 576.227 342.979 575.897 342.499C575.736 342.272 575.589 342.035 575.457 341.789C575.656 341.985 575.837 342.2 575.997 342.429C576.317 342.859 576.837 343.479 577.407 344.339C579.069 346.746 580.543 349.276 581.817 351.909C583.71 355.817 585.289 359.87 586.537 364.029C588.057 369.111 589.316 374.268 590.307 379.479C591.307 385.019 592.307 390.289 593.217 395.099C594.127 399.909 595.077 404.189 596.017 407.749C596.957 411.309 597.847 414.169 598.537 416.109C598.857 417.109 599.147 417.839 599.327 418.349C599.454 418.614 599.552 418.892 599.617 419.179Z" fill="#263238"/>
<path d="M571 368.049C571 368.209 570.19 368.549 569.09 368.809C567.99 369.069 567.09 369.159 567.09 369.009C567.09 368.859 567.91 368.509 569 368.249C570.09 367.989 571 367.899 571 368.049Z" fill="#263238"/>
<path d="M569.369 357.34C567.617 357.656 565.83 357.727 564.059 357.55C565.769 356.955 567.617 356.882 569.369 357.34V357.34Z" fill="#263238"/>
<path d="M571.137 347.559C571.027 347.679 570.137 347.129 569.227 346.329C568.317 345.529 567.597 344.769 567.697 344.649C567.797 344.529 568.697 345.079 569.607 345.879C570.517 346.679 571.237 347.439 571.137 347.559Z" fill="#263238"/>
<path d="M575.92 338.509C576.08 338.509 576.04 339.309 576.01 340.229C575.98 341.149 576.01 341.909 575.82 341.939C575.63 341.969 575.41 341.199 575.44 340.209C575.47 339.219 575.77 338.469 575.92 338.509Z" fill="#263238"/>
<path d="M585.698 342.77C585.828 342.86 585.448 343.64 584.848 344.5C584.248 345.36 583.648 345.99 583.518 345.89C583.388 345.79 583.768 345.03 584.378 344.17C584.988 343.31 585.568 342.68 585.698 342.77Z" fill="#263238"/>
<path d="M592.048 353.801C592.108 353.951 591.298 354.421 590.238 354.851C589.178 355.281 588.238 355.521 588.238 355.371C588.238 355.221 588.998 354.751 590.058 354.321C591.118 353.891 591.998 353.651 592.048 353.801Z" fill="#263238"/>
<path d="M595.899 365.15C595.193 365.746 594.327 366.122 593.409 366.23C592.534 366.524 591.593 366.559 590.699 366.33C591.528 365.993 592.4 365.771 593.289 365.67C594.131 365.377 595.009 365.202 595.899 365.15V365.15Z" fill="#263238"/>
<path d="M578.22 361.92C578.07 361.92 578.22 361.09 578.47 360.17C578.72 359.25 579.11 358.55 579.27 358.59C579.43 358.63 579.27 359.43 579.02 360.35C578.77 361.27 578.37 362 578.22 361.92Z" fill="#263238"/>
<path d="M580.688 376.17C580.737 375.339 580.98 374.531 581.398 373.81C581.938 372.57 582.488 371.62 582.638 371.68C582.581 372.51 582.339 373.317 581.927 374.04C581.387 375.28 580.838 376.23 580.688 376.17Z" fill="#263238"/>
<path d="M574.6 380.07C574.54 380.22 573.54 379.94 572.34 379.57C571.14 379.2 570.16 378.85 570.2 378.69C570.986 378.582 571.786 378.696 572.51 379.02C573.74 379.4 574.66 379.92 574.6 380.07Z" fill="#263238"/>
<path d="M578.11 391.679C578.2 391.809 577.53 392.449 576.61 393.109C575.69 393.769 574.86 394.189 574.77 394.059C574.68 393.929 575.35 393.289 576.27 392.639C577.19 391.989 578 391.549 578.11 391.679Z" fill="#263238"/>
<path d="M580.93 403.259C580.93 403.409 580.13 403.749 579.07 404.009C578.01 404.269 577.07 404.349 577.07 404.199C577.07 404.049 577.86 403.709 578.92 403.449C579.98 403.189 580.89 403.099 580.93 403.259Z" fill="#263238"/>
<path d="M596.209 374.821C596.289 374.951 595.579 375.521 594.549 375.911C593.519 376.301 592.599 376.341 592.549 376.191C592.499 376.041 593.329 375.741 594.309 375.371C595.289 375.001 596.129 374.681 596.209 374.821Z" fill="#263238"/>
<path d="M598.4 392.83C598.33 392.98 597.48 392.72 596.51 392.26C595.54 391.8 594.79 391.31 594.86 391.17C594.93 391.03 595.77 391.28 596.75 391.74C597.73 392.2 598.46 392.69 598.4 392.83Z" fill="#263238"/>
<path d="M602.247 405.72C601.375 405.683 600.521 405.454 599.747 405.05C598.427 404.54 597.407 404 597.467 403.85C598.34 403.888 599.193 404.117 599.967 404.52C601.287 405 602.307 405.57 602.247 405.72Z" fill="#263238"/>
<path d="M581.539 415.821C581.459 415.681 582.539 414.991 583.679 414.051C584.819 413.111 585.789 412.281 585.909 412.391C586.029 412.501 585.279 413.531 584.039 414.501C583.344 415.163 582.479 415.62 581.539 415.821V415.821Z" fill="#263238"/>
<path d="M591.739 409.27C591.569 409.27 591.349 408.42 590.959 407.41C590.569 406.4 590.149 405.61 590.289 405.52C590.429 405.43 591.079 406.12 591.499 407.21C591.919 408.3 591.889 409.25 591.739 409.27Z" fill="#263238"/>
<path d="M588.997 393.76C588.907 393.89 588.247 393.58 587.527 393.06C586.807 392.54 586.307 392.06 586.397 391.89C586.487 391.72 587.147 392.08 587.867 392.59C588.587 393.1 589.127 393.63 588.997 393.76Z" fill="#263238"/>
<path d="M612.787 369.47C612.887 369.6 612.247 370.23 611.357 370.88C610.467 371.53 609.677 371.96 609.587 371.83C609.497 371.7 610.127 371.07 611.017 370.42C611.907 369.77 612.697 369.34 612.787 369.47Z" fill="#263238"/>
<path d="M616.37 379.261C616.37 379.411 615.37 379.621 614.14 379.491C612.91 379.361 611.96 378.931 612.01 378.791C612.06 378.651 613.01 378.791 614.2 378.911C615.39 379.031 616.36 379.091 616.37 379.261Z" fill="#263238"/>
<path d="M601 381.45C601 381.6 600.11 381.94 598.91 382.02C597.71 382.1 596.74 381.89 596.75 381.74C596.76 381.59 597.75 381.52 598.87 381.44C599.99 381.36 601 381.29 601 381.45Z" fill="#263238"/>
<path d="M602.299 372.2C602.299 372.35 601.349 372.38 600.299 371.9C599.249 371.42 598.669 370.7 598.779 370.59C598.889 370.48 599.599 370.95 600.539 371.38C601.479 371.81 602.319 372 602.299 372.2Z" fill="#263238"/>
<path d="M617.687 389.769C617.607 389.899 616.687 389.449 615.547 388.769C614.407 388.089 613.617 387.409 613.697 387.269C613.777 387.129 614.697 387.589 615.847 388.269C616.997 388.949 617.777 389.629 617.687 389.769Z" fill="#263238"/>
<path d="M655.249 417.24H573.129V431.79H655.249V417.24Z" fill="#FF725E"/>
<path d="M579.27 428.9L589.25 472.4H638.19L649.12 428.9H579.27Z" fill="#FF725E"/>
<path d="M655.199 431.81C655.199 431.97 636.679 432.1 613.839 432.1C590.999 432.1 572.469 431.97 572.469 431.81C572.469 431.65 590.989 431.52 613.839 431.52C636.689 431.52 655.199 431.65 655.199 431.81Z" fill="#263238"/>
<path d="M609.54 381.769C609.4 381.849 608.84 381.199 608.28 380.309C607.72 379.419 607.39 378.629 607.52 378.539C607.65 378.449 608.22 379.109 608.77 379.999C609.32 380.889 609.67 381.689 609.54 381.769Z" fill="#263238"/>
<path d="M609.568 393.481C609.418 393.431 609.568 392.481 609.998 391.271C610.428 390.061 610.818 389.191 610.998 389.271C611.178 389.351 610.998 390.271 610.578 391.481C610.158 392.691 609.718 393.531 609.568 393.481Z" fill="#263238"/>
<path d="M613.579 405.771C613.429 405.841 612.819 404.861 612.209 403.581C611.744 402.839 611.453 402.002 611.359 401.131C611.963 401.761 612.43 402.511 612.729 403.331C613.184 404.074 613.474 404.906 613.579 405.771V405.771Z" fill="#263238"/>
<path d="M604.897 415.66C604.777 415.56 605.267 414.8 605.997 413.96C606.727 413.12 607.407 412.54 607.527 412.64C607.647 412.74 607.157 413.51 606.427 414.34C605.697 415.17 604.997 415.77 604.897 415.66Z" fill="#263238"/>
<path d="M603.079 397.71C603.079 397.86 602.259 397.86 601.319 397.71C600.379 397.56 599.629 397.28 599.649 397.12C599.669 396.96 600.469 396.97 601.419 397.12C602.369 397.27 603.109 397.55 603.079 397.71Z" fill="#263238"/>
</svg>
