<svg width="1131" height="814" viewBox="0 0 1131 814" fill="none" xmlns="http://www.w3.org/2000/svg">
<g clip-path="url(#clip0_122_14880)">
<path opacity="0.1" d="M584.481 132.75C513.111 144.81 441.841 139.64 373.281 132.12C304.721 124.6 236.331 114.78 164.931 117.74C119.001 119.64 67.8513 128.74 35.7813 155.19C4.91126 180.63 0.101269 214.96 0.041269 245.95C-0.038731 269.26 1.98127 293.38 18.5013 311.95C29.9813 324.83 47.6513 334.06 60.9613 345.95C107.271 387.25 93.1913 452.28 62.8013 507.57C48.5413 533.51 31.1013 559.02 21.3913 585.57C11.6813 612.12 10.3913 640.57 27.7713 662.22C44.9513 683.57 78.2613 695.71 113.041 701.98C183.581 714.72 262.171 706.81 338.211 696.09C506.491 672.36 673.041 635.24 839.231 598.21C900.721 584.5 962.481 570.73 1021.72 550.97C1054.62 539.97 1088.12 526.28 1109.37 504.97C1136.37 477.97 1137.05 441.04 1111.03 418.97C1067.37 381.97 968.551 390.18 934.781 347.88C916.201 324.59 924.291 292.96 939.081 265.02C970.791 205.1 1032.08 145.9 1024.14 86.16C1018.66 45.16 976.851 11.23 920.811 2.38999C862.071 -6.87001 786.631 10.69 752.811 51.95C718.041 94.46 647.501 122.11 584.481 132.75Z" fill="#DE1731"/>
<path d="M502.77 105.03H87.0703V300.82H502.77V105.03Z" fill="black"/>
<path d="M494.648 119.43H96.6484V286.42H494.648V119.43Z" fill="#DFE6F5"/>
<path d="M124.669 200.04C118.945 200.735 113.348 202.23 108.039 204.48L119.039 194.02C119.834 193.169 120.793 192.489 121.859 192.02C123.639 191.34 125.689 191.86 127.509 191.26C130.439 190.26 131.899 186.74 134.819 185.73C136.819 185.05 138.999 185.73 141.099 185.58C145.289 185.3 148.609 181.88 150.739 178.25C152.869 174.62 154.299 170.55 157.029 167.35C160.899 162.8 166.899 160.6 171.219 156.46C173.139 154.62 174.689 152.46 176.529 150.53C180.159 146.891 184.757 144.371 189.778 143.27C194.799 142.169 200.03 142.534 204.849 144.32C206.153 144.979 207.58 145.357 209.039 145.43C210.189 145.292 211.3 144.928 212.309 144.36L225.849 137.87C233.431 140.302 240.582 143.912 247.039 148.57C248.042 149.454 249.265 150.051 250.579 150.3C254.199 150.59 255.739 145.94 258.049 143.14C261.209 139.3 267.109 138.7 271.759 140.47C276.409 142.24 280.039 145.9 283.339 149.57C284.849 151.26 286.439 153.05 288.599 153.72C290.39 154.142 292.26 154.097 294.029 153.59C304.48 151.213 313.667 145.018 319.789 136.22C320.719 134.86 321.869 133.28 323.519 133.3C324.316 133.376 325.081 133.655 325.739 134.11C331.586 137.504 337.025 141.558 341.949 146.19C345.689 149.71 349.189 153.6 353.679 156.1C358.169 158.6 364.029 159.42 368.319 156.61C367.619 159.4 370.319 162.08 373.129 162.67C375.939 163.26 378.849 162.45 381.709 162.08C385.659 161.59 389.668 161.92 393.485 163.051C397.301 164.181 400.843 166.087 403.889 168.65C410.299 169.358 416.413 171.727 421.627 175.523C426.841 179.318 430.975 184.408 433.619 190.29C435.739 195.18 438.549 201.73 443.819 200.92C445.589 200.65 447.289 199.47 449.029 199.92C450.2 200.347 451.236 201.079 452.029 202.04C456.549 206.44 462.719 208.57 468.409 211.27C474.099 213.97 479.859 217.83 481.859 223.8C476.929 224.49 472.059 222.5 467.149 221.67C462.239 220.84 456.249 221.72 453.899 226.12C452.959 227.9 452.649 230.17 450.999 231.32C449.87 231.953 448.58 232.242 447.289 232.15C436.082 232.293 425.009 229.69 415.039 224.57C408.279 234.402 398.269 241.537 386.769 244.72C386.449 240.38 381.929 237.22 377.569 237.16C373.209 237.1 369.149 239.42 365.789 242.16C362.517 244.865 359.674 248.051 357.359 251.61C355.429 254.61 353.829 257.84 351.209 260.21C348.589 262.58 344.489 263.82 341.479 261.96C339.809 260.96 338.739 259.11 337.099 258.01C333.369 255.52 327.669 257.34 324.389 254.27C322.019 252.05 321.979 248.13 319.709 245.81C316.839 242.88 311.709 243.86 308.499 246.39C305.289 248.92 303.149 252.6 300.199 255.44C292.549 262.81 280.839 263.44 270.199 263.64C270.199 261.27 271.679 259.21 272.719 257.09C275.669 251.09 274.859 243.84 272.149 237.75C269.439 231.66 265.039 226.57 260.729 221.57C255.869 226.75 258.099 235.78 253.729 241.41C251.959 243.7 249.279 245.15 247.429 247.41C245.119 250.19 243.319 254.55 239.719 254.28C237.959 254.15 236.539 252.83 235.349 251.53C230.759 246.53 226.529 240.21 219.859 238.91C217.249 238.4 214.549 238.75 211.859 238.52C207.551 238.006 203.559 236.001 200.574 232.852C197.59 229.703 195.801 225.609 195.519 221.28C189.879 222.81 183.839 224.12 178.199 225.65C176.629 226.08 174.919 226.51 173.399 225.92C171.399 225.13 170.399 222.87 168.749 221.48C166.319 219.48 162.749 219.56 159.689 220.22C156.629 220.88 153.519 222 150.379 221.65C149.73 218.788 149.568 215.836 149.899 212.92L138.699 211.92C137.223 211.875 135.764 211.591 134.379 211.08C133.333 210.595 132.368 209.95 131.519 209.17C128.76 206.515 126.447 203.432 124.669 200.04V200.04Z" fill="#EAEAEA"/>
<path d="M152.259 192.91C153.639 191.48 154.819 189.82 156.469 188.72C157.929 187.855 159.496 187.183 161.129 186.72C173.129 182.49 182.499 173.25 192.079 164.89C200.519 157.52 209.389 150.66 218.249 143.81L221.619 146.27L213.529 149.57C212.749 149.89 211.849 150.37 211.809 151.21C211.845 151.745 212.072 152.249 212.449 152.63C214.529 155.31 216.869 158.17 220.179 158.92C221.759 159.28 223.669 159.23 224.649 160.52C225.04 161.159 225.311 161.864 225.449 162.6C226.729 166.96 230.679 169.95 234.559 172.32C242.223 176.984 250.532 180.495 259.219 182.74C252.652 182.54 246.167 181.228 240.039 178.86C238.209 178.192 236.456 177.331 234.809 176.29C231.319 174.01 228.699 170.62 225.309 168.2C221.919 165.78 217.079 164.49 213.669 166.88C212.739 167.54 211.839 168.48 210.669 168.42C209.499 168.36 208.669 167.24 207.669 166.55C205.119 164.73 201.559 165.94 198.829 167.48C190.664 172.129 184.128 179.178 180.109 187.67C192.316 188.484 204.42 184.983 214.309 177.78C220.211 186.043 228.783 192.016 238.579 194.69C237.139 196.44 234.769 197.01 232.659 197.83C229.782 198.971 227.183 200.715 225.036 202.943C222.889 205.171 221.243 207.833 220.209 210.75C218.577 208.541 217.4 206.028 216.749 203.36C213.505 205.181 210.366 207.184 207.349 209.36C210.219 207.511 212.578 204.97 214.209 201.97C209.019 200.707 203.552 201.294 198.749 203.63C195.249 205.35 192.009 208.03 188.109 208.24C188.364 206.143 187.874 204.024 186.724 202.253C185.574 200.481 183.838 199.17 181.819 198.55C179.069 197.78 175.519 198.1 174.039 195.65C173.701 194.948 173.404 194.226 173.149 193.49C172.009 190.94 168.989 189.66 166.199 189.74C163.409 189.82 160.779 190.96 158.199 192.09C154.519 193.71 150.869 195.49 147.129 196.95C148.819 195.51 150.709 194.47 152.259 192.91Z" fill="white"/>
<path d="M216.549 227.98C221.516 228.56 226.546 227.761 231.089 225.67C233.569 224.52 235.939 222.98 238.629 222.52C241.319 222.06 244.569 223.13 245.459 225.72C248.689 223.4 249.279 218.79 251.869 215.77C255.679 211.32 263.069 211.6 267.869 214.97C272.669 218.34 275.349 223.97 277.349 229.43C278.859 233.59 280.209 238.04 283.349 241.13C286.489 244.22 292.259 245.22 295.189 241.9C293.24 239.297 292.059 236.2 291.78 232.961C291.501 229.721 292.134 226.468 293.609 223.57C294.289 222.28 295.159 220.98 295.109 219.57C294.999 216.43 291.109 215.19 288.609 213.27C283.199 209.13 283.909 200.49 279.529 195.27C277.209 192.5 273.279 190.06 273.949 186.51C287.269 189.154 299.897 194.527 311.039 202.29C312.841 203.681 314.793 204.865 316.859 205.82C319.619 206.93 322.669 207.06 325.479 208.02C334.829 211.2 340.239 222.9 350.079 223.71C354.979 224.11 359.569 221.59 364.149 219.78C383.619 212.09 405.589 216.94 425.719 222.69C418.719 218.84 408.829 219.41 404.389 212.77C402.869 210.5 402.199 207.58 400.089 205.84C395.949 202.42 389.899 205.71 384.549 206.22C382 206.43 379.44 205.97 377.124 204.884C374.808 203.798 372.817 202.124 371.349 200.03C369.909 197.92 368.999 195.4 367.109 193.7C364.339 191.22 360.249 191.12 356.529 191.16L339.079 191.32C336.149 191.32 332.849 191.21 330.889 189.03C330.247 188.084 329.538 187.185 328.769 186.34C327.619 185.34 326.019 185.21 324.529 185C319.663 184.322 314.96 182.767 310.649 180.41C309.8 180.051 309.095 179.417 308.649 178.61C307.529 175.96 311.589 174.49 313.859 172.72C317.559 169.82 316.739 164.11 315.559 159.57C318.627 158.912 321.45 157.409 323.709 155.23C319.509 151.36 314.899 146.08 316.709 140.67C317.109 139.48 317.329 137.55 316.079 137.58C314.398 141.232 311.595 144.252 308.079 146.2C306.956 146.659 305.966 147.391 305.199 148.33C303.929 150.33 305.249 153.38 303.669 155.16C303.098 155.726 302.393 156.139 301.619 156.36C296.349 158.25 289.859 158.64 286.689 163.26C285.619 165.14 284.815 167.159 284.299 169.26C282.477 174.496 279.37 179.191 275.262 182.914C271.154 186.637 266.178 189.269 260.789 190.57C258.969 190.99 256.979 191.32 255.699 192.68C254.699 193.68 254.359 195.11 253.529 196.23C251.869 198.48 248.859 199.09 246.249 200.09C238.779 202.94 234.189 209.46 230.019 215.91C228.259 218.63 226.969 219.45 224.079 220.72C222.316 221.387 220.697 222.385 219.309 223.66C219.039 223.96 216.319 227.95 216.549 227.98Z" fill="white"/>
<path d="M348.58 172.27C345.275 173.992 341.786 175.334 338.18 176.27C339.897 176.761 341.543 177.47 343.08 178.38C342.563 180.454 341.348 182.286 339.64 183.57C343.64 183.7 347.43 185.17 351.28 186.22C357.67 187.95 364.28 188.52 370.9 189.09L361.9 182.52C360.58 181.52 359.16 180.46 358.83 178.86C358.698 177.381 359.079 175.901 359.91 174.67C362.19 170.36 364.96 166.42 367.58 162.34C364.36 163.45 360.13 162.53 357.23 163.88C355.42 164.72 355.1 166.5 354.02 167.99C352.562 169.819 350.7 171.284 348.58 172.27Z" fill="white"/>
<path d="M403.042 182.33C402.101 184.643 400.745 186.765 399.042 188.59C400.645 190.054 402.646 191.011 404.792 191.34C405.89 191.431 406.982 191.588 408.062 191.81C409.314 192.236 410.487 192.868 411.532 193.68C418.532 198.53 426.062 204.12 428.012 212.41C429.277 211.701 430.759 211.486 432.173 211.805C433.588 212.125 434.834 212.957 435.672 214.14C436.532 215.45 436.972 217.23 438.402 217.87C439.832 218.51 441.402 217.67 442.532 216.7C443.662 215.73 444.782 214.54 446.252 214.2C447.169 214.05 448.106 214.081 449.012 214.29L462.322 216.44C460.476 214.577 458.239 213.15 455.772 212.263C453.305 211.375 450.67 211.05 448.062 211.31C444.842 211.66 441.482 212.88 438.492 211.66C435.502 210.44 433.962 207.22 431.602 205.04C428.602 202.26 424.272 201.2 421.282 198.39C418.792 196.03 417.472 192.69 415.212 190.11C412.762 187.3 409.272 185.48 407.122 182.44C406.252 181.21 405.562 179.76 404.282 178.98C402.032 177.62 397.412 177.74 394.852 177.5C395.462 180.51 400.162 182.88 403.042 182.33Z" fill="white"/>
<path d="M171.789 156.57C174.049 156.725 176.315 156.765 178.579 156.69C178.799 156.699 179.017 156.647 179.209 156.54C179.406 156.352 179.53 156.101 179.559 155.83L180.369 152.25C180.404 151.933 180.545 151.637 180.769 151.41C180.977 151.294 181.211 151.234 181.449 151.234C181.687 151.234 181.921 151.294 182.129 151.41C184.467 152.287 186.661 153.507 188.639 155.03C187.786 152.45 187.026 149.84 186.359 147.2L192.489 146.12C187.839 145.01 185.489 145.57 182.489 148.86C180.729 150.75 174.489 156.74 171.789 156.57Z" fill="white"/>
<path d="M294.922 88.49C297.998 88.49 300.492 85.9962 300.492 82.92C300.492 79.8438 297.998 77.35 294.922 77.35C291.845 77.35 289.352 79.8438 289.352 82.92C289.352 85.9962 291.845 88.49 294.922 88.49Z" fill="#565661"/>
<path d="M259.219 110.42L294.919 82.92L330.989 110.42" stroke="#565661" stroke-miterlimit="10"/>
<path d="M300.629 184.19L301.069 184.47L301.989 184.37L300.629 184.19Z" fill="url(#paint0_linear_122_14880)"/>
<path d="M302.039 184.37L309.749 185.37C307.283 184.477 304.651 184.135 302.039 184.37V184.37Z" fill="url(#paint1_linear_122_14880)"/>
<path d="M605.43 461.24H322V526.87H605.43V461.24Z" fill="#565661"/>
<path opacity="0.1" d="M605.43 461.24H322V526.87H605.43V461.24Z" fill="black"/>
<path d="M355.911 529.03L357.901 704.24L330.641 773.06L328.531 529.03H355.911Z" fill="#BCBEC9"/>
<path d="M324.988 473.84L600.938 475.5V524.38H324.988V473.84Z" fill="#353536"/>
<path d="M577.328 529.03L600.938 532.36V770.4L577.328 697.59V529.03Z" fill="#BCBEC9"/>
<path d="M742.9 463.87H609.91V746.47H742.9V463.87Z" fill="#EFEFF0"/>
<path d="M732.261 471.72H620.551V688.95H732.261V471.72Z" fill="#565661"/>
<path opacity="0.1" d="M732.261 471.72H620.551V688.95H732.261V471.72Z" fill="black"/>
<path d="M732.261 476.17H620.551V524.38H732.261V476.17Z" fill="#353536"/>
<path d="M732.261 529.03H620.551V631.43H732.261V529.03Z" fill="#353536"/>
<path d="M732.261 637.75H620.551V740.15H732.261V637.75Z" fill="#353536"/>
<path d="M625.212 764.87C629.188 764.87 632.412 760.751 632.412 755.67C632.412 750.589 629.188 746.47 625.212 746.47C621.235 746.47 618.012 750.589 618.012 755.67C618.012 760.751 621.235 764.87 625.212 764.87Z" fill="#565661"/>
<path d="M725.059 765.31C729.036 765.31 732.259 761.191 732.259 756.11C732.259 751.029 729.036 746.91 725.059 746.91C721.083 746.91 717.859 751.029 717.859 756.11C717.859 761.191 721.083 765.31 725.059 765.31Z" fill="#565661"/>
<path d="M321.002 773.06H330.642L327.992 466.32H313.352L321.002 773.06Z" fill="#EFEFF0"/>
<path d="M600.941 463.87V770.4H609.911V466.32L600.941 463.87Z" fill="#EFEFF0"/>
<path d="M328.461 521.38V532.36H600.941V524.38L328.461 521.38Z" fill="#EFEFF0"/>
<path d="M346.931 443.26H692.371L742.571 459.88V469.52L311.691 466.2V456.39L346.931 443.26Z" fill="#EFEFF0"/>
<path d="M311.691 456.39L742.571 459.88V469.52L311.691 466.2V456.39Z" fill="#BCBEC9"/>
<path d="M425.72 545.71L423.72 545.41C423.72 545.32 423.72 545.24 423.72 545.16C423.66 544.69 423.59 544.23 423.52 543.76C424.34 544.41 425.12 545.06 425.84 545.71H425.72Z" fill="url(#paint2_linear_122_14880)"/>
<path d="M382.262 700.12C383.562 699.82 384.882 699.57 386.202 699.39C395.267 698.099 404.513 699.461 412.821 703.31C411.981 709.49 411.152 715.88 412.932 721.85C414.172 726.05 416.661 729.85 417.191 734.23C418.527 734.46 419.772 735.057 420.788 735.954C421.803 736.851 422.549 738.013 422.941 739.31C423.325 740.458 423.518 741.66 423.512 742.87C423.5 744.367 423.312 745.857 422.952 747.31C422.83 748.471 422.26 749.538 421.364 750.285C420.467 751.032 419.315 751.4 418.151 751.31C410.411 752.19 402.821 749.14 395.621 746.15L381.621 740.33C379.981 739.65 378.332 738.96 376.762 738.12C373.784 736.511 371.14 734.349 368.971 731.75C368.525 731.292 368.211 730.722 368.061 730.1C367.801 728.34 369.862 727.29 371.172 726.1C371.555 725.737 371.891 725.327 372.172 724.88C373.722 722.54 373.872 719.31 374.802 716.55C377.002 710 383.802 705.78 386.202 699.39C386.332 699.04 386.452 698.69 386.552 698.33" fill="#DE1731"/>
<path opacity="0.1" d="M423.512 742.87C423.5 744.367 423.312 745.857 422.952 747.31C422.83 748.471 422.26 749.538 421.364 750.285C420.467 751.032 419.315 751.4 418.151 751.31C410.411 752.19 402.821 749.14 395.621 746.15L381.621 740.33C379.981 739.65 378.332 738.96 376.762 738.12C373.784 736.511 371.14 734.349 368.971 731.75C368.525 731.292 368.211 730.722 368.061 730.1C367.801 728.34 369.862 727.29 371.172 726.1C371.555 725.737 371.891 725.327 372.172 724.88C376.032 725.71 380.822 728.14 383.772 729.08C386.726 729.885 389.564 731.071 392.212 732.61C395.892 734.97 398.541 738.61 401.661 741.61C404.781 744.61 408.811 747.34 413.161 746.97C415.461 746.623 417.678 745.857 419.702 744.71L423.512 742.87Z" fill="black"/>
<path d="M407.119 600.76C407.379 601.667 407.356 602.632 407.052 603.526C406.748 604.42 406.178 605.199 405.419 605.76C404.109 606.57 402.419 606.46 401.119 607.34C399.509 608.47 399.279 610.71 398.999 612.65C397.999 619.32 394.689 625.37 391.859 631.5C389.029 637.63 386.639 644.32 387.679 650.98C388.389 655.5 390.609 660.32 388.529 664.39C388.019 665.39 387.259 666.28 386.679 667.25C383.829 672.01 385.449 678.04 385.339 683.58C385.381 684.195 385.245 684.809 384.949 685.35C384.512 685.861 383.974 686.276 383.369 686.57C382.354 687.316 381.52 688.282 380.93 689.395C380.339 690.509 380.007 691.741 379.959 693C379.875 695.518 380.178 698.034 380.859 700.46C380.969 701.439 381.402 702.354 382.089 703.06C382.885 703.586 383.825 703.852 384.779 703.82C391.062 704.329 397.224 705.828 403.039 708.26C406.829 709.84 410.509 711.82 414.539 712.58C414.929 712.701 415.339 712.741 415.745 712.698C416.151 712.655 416.543 712.53 416.899 712.33C417.406 711.873 417.756 711.267 417.899 710.6C419.449 705.5 421.019 700.24 420.489 694.94C420.259 692.66 419.649 690.43 419.489 688.15C418.789 679.15 424.879 671.03 426.809 662.15C427.679 658.15 427.679 654.01 428.299 649.97C429.979 638.9 436.079 628.97 438.429 618.02C438.756 615.979 439.265 613.971 439.949 612.02C441.699 607.78 445.749 604.34 445.839 599.75C445.895 598.74 445.629 597.739 445.079 596.89C444.136 595.855 442.884 595.154 441.509 594.89C436.05 593.399 430.493 592.289 424.879 591.57C422.318 591.067 419.705 590.886 417.099 591.03C413.715 591.428 410.463 592.576 407.579 594.39C403.799 596.75 406.279 597.32 407.119 600.76Z" fill="#454B69"/>
<path opacity="0.05" d="M407.119 600.76C407.379 601.667 407.356 602.632 407.052 603.526C406.748 604.42 406.178 605.199 405.419 605.76C404.109 606.57 402.419 606.46 401.119 607.34C399.509 608.47 399.279 610.71 398.999 612.65C397.999 619.32 394.689 625.37 391.859 631.5C389.029 637.63 386.639 644.32 387.679 650.98C388.389 655.5 390.609 660.32 388.529 664.39C388.019 665.39 387.259 666.28 386.679 667.25C383.829 672.01 385.449 678.04 385.339 683.58C385.381 684.195 385.245 684.809 384.949 685.35C384.512 685.861 383.974 686.276 383.369 686.57C382.354 687.316 381.52 688.282 380.93 689.395C380.339 690.509 380.007 691.741 379.959 693C379.875 695.518 380.178 698.034 380.859 700.46C380.969 701.439 381.402 702.354 382.089 703.06C382.885 703.586 383.825 703.852 384.779 703.82C391.062 704.329 397.224 705.828 403.039 708.26C406.829 709.84 410.509 711.82 414.539 712.58C414.929 712.701 415.339 712.741 415.745 712.698C416.151 712.655 416.543 712.53 416.899 712.33C417.406 711.873 417.756 711.267 417.899 710.6C419.449 705.5 421.019 700.24 420.489 694.94C420.259 692.66 419.649 690.43 419.489 688.15C418.789 679.15 424.879 671.03 426.809 662.15C427.679 658.15 427.679 654.01 428.299 649.97C429.979 638.9 436.079 628.97 438.429 618.02C438.756 615.979 439.265 613.971 439.949 612.02C441.699 607.78 445.749 604.34 445.839 599.75C445.895 598.74 445.629 597.739 445.079 596.89C444.136 595.855 442.884 595.154 441.509 594.89C436.05 593.399 430.493 592.289 424.879 591.57C422.318 591.067 419.705 590.886 417.099 591.03C413.715 591.428 410.463 592.576 407.579 594.39C403.799 596.75 406.279 597.32 407.119 600.76Z" fill="black"/>
<path d="M387.551 751.47H379.021L373.441 636.83L373.051 630.31L380.301 627.76L380.791 634.69L387.551 751.47Z" fill="#565661"/>
<path opacity="0.1" d="M380.791 634.69L373.441 636.83L373.051 630.31L380.301 627.76L380.791 634.69Z" fill="black"/>
<path d="M494.58 775.72L480.51 777.42L415.69 630.31L398.21 629.03L367.51 637.99L361.54 813.14H347.47L353.01 631.59L319.32 632.45L259.2 782.11H246.41L309.64 607.2L312.08 600.46L406.31 597.23L429.8 610.4L430.1 611.16L494.58 775.72Z" fill="#565661"/>
<path opacity="0.1" d="M430.101 611.16C409.851 617.26 388.831 623.92 388.831 623.92C388.831 623.92 369.661 630.61 361.541 623.92C360.517 623.121 359.372 622.49 358.151 622.05C359.204 622.803 360.342 623.43 361.541 623.92L309.641 607.19L312.071 600.46L406.311 597.23L429.801 610.4L430.101 611.16Z" fill="black"/>
<path d="M334.25 582.13L372.62 573.57C372.62 573.57 464.3 590.63 471.12 597.45C471.12 597.45 397.78 612.37 389.68 617.45C381.58 622.53 333.39 628.18 334.25 582.13Z" fill="white"/>
<path d="M317.75 486.24C314.75 495.75 306.56 504.32 296.59 504.73C295.864 504.815 295.13 504.683 294.48 504.35C293.23 503.57 293.2 501.74 293.71 500.35C294.22 498.96 295.11 497.71 295.25 496.25C295.28 495.952 295.259 495.651 295.19 495.36C294.93 494.17 293.96 493.11 292.82 493.36C293.596 492.739 294.113 491.851 294.27 490.869C294.427 489.887 294.213 488.882 293.67 488.05C293.217 487.539 292.809 486.99 292.45 486.41C291.62 484.71 292.91 482.8 293.45 480.98C294.56 476.98 291.74 472.98 291.51 468.81C291.31 465.08 293.2 461.57 293.67 457.87C294.42 451.87 291.44 446.12 291.09 440.13C290.85 435.95 291.88 431.81 293.03 427.78C294.03 424.18 295.16 420.54 295.23 416.78C295.23 414.05 294.76 411.35 294.63 408.63C294.422 406.143 294.874 403.646 295.94 401.39C296.632 400.063 297.811 399.056 299.23 398.58C302.51 397.48 304.66 399.19 305.14 402.3C305.94 407.59 305.48 412.99 306.53 418.3C307.501 423.266 308.971 428.12 310.92 432.79C312.69 437.01 314.84 441.09 316.2 445.46C317.224 449.062 317.956 452.741 318.39 456.46C319.73 466.45 320.78 476.73 317.75 486.24Z" fill="#DE1731"/>
<path d="M545.508 728.28C544.243 730.063 542.616 731.559 540.732 732.668C538.848 733.778 536.751 734.477 534.578 734.72C530.238 735.26 525.728 734.17 521.518 735.36C520.866 735.467 520.251 735.734 519.728 736.137C519.204 736.541 518.789 737.067 518.518 737.67C518.414 738.483 518.351 739.301 518.328 740.12C517.838 742.79 514.328 743.39 511.598 743.37L500.338 743.3C497.998 743.3 495.408 743.17 493.728 741.55C492.93 740.665 492.479 739.521 492.461 738.329C492.442 737.137 492.857 735.979 493.628 735.07C494.185 734.879 494.644 734.475 494.902 733.946C495.161 733.417 495.199 732.807 495.008 732.25C494.817 731.693 494.413 731.235 493.884 730.976C493.355 730.717 492.745 730.679 492.188 730.87C491.984 729.4 492.055 727.904 492.398 726.46C492.398 722.28 493.398 715.28 496.338 712.01C499.948 707.94 506.208 702.68 511.658 701.59C513.501 701.241 515.4 701.329 517.203 701.846C519.005 702.364 520.661 703.297 522.038 704.57C524.618 706.97 526.498 710.73 530.038 711.15C531.968 711.39 533.828 710.48 535.738 710.15C537.909 709.871 540.113 710.269 542.048 711.291C543.984 712.314 545.555 713.909 546.548 715.86C547.033 716.849 547.37 717.903 547.548 718.99C548.066 722.233 547.337 725.552 545.508 728.28V728.28Z" fill="#DE1731"/>
<path opacity="0.1" d="M545.509 728.28C544.244 730.063 542.616 731.559 540.733 732.669C538.849 733.778 536.752 734.478 534.579 734.72C530.239 735.26 525.729 734.17 521.519 735.36C520.867 735.467 520.252 735.734 519.729 736.138C519.205 736.541 518.79 737.067 518.519 737.67C518.415 738.483 518.352 739.301 518.329 740.12C517.839 742.79 514.329 743.39 511.599 743.37L500.339 743.3C497.999 743.3 495.409 743.17 493.729 741.55C492.93 740.665 492.48 739.521 492.462 738.329C492.443 737.137 492.858 735.979 493.629 735.07C500.129 734.8 506.519 735.07 512.999 733.73C515.629 733.2 518.219 732.5 520.879 732.13C526.639 731.31 532.769 732.01 538.059 729.57C542.469 727.57 545.629 723.5 547.499 718.96C548.04 722.207 547.328 725.537 545.509 728.28V728.28Z" fill="black"/>
<path d="M515.801 712.47C511.801 715.57 507.111 717.99 502.071 718.25C497.031 718.51 491.681 716.25 489.211 711.87C485.601 705.44 488.801 696.5 484.381 690.6C483.001 688.75 481.011 687.44 479.551 685.65C478.091 683.86 477.251 681.17 478.551 679.27C476.981 679.87 475.321 678.35 474.861 676.73C474.401 675.11 474.691 673.37 474.411 671.73C473.681 667.38 469.411 664.59 467.361 660.73C465.311 656.87 465.591 651.86 465.361 647.29C464.85 636.156 460.705 625.495 453.561 616.94C452.201 615.32 450.461 613.67 448.341 613.75C448.711 610.09 446.271 606.59 443.111 604.75C439.951 602.91 436.191 602.29 432.531 601.93C395.601 598.29 357.121 612.02 321.861 600.47C312.051 597.26 302.591 591.89 296.591 583.47C294.254 580.266 292.582 576.626 291.673 572.765C290.764 568.904 290.638 564.9 291.301 560.99V560.85C292.691 553.75 296.441 552 302.651 548.76C309.82 544.97 317.313 541.827 325.041 539.37C340.041 534.68 356.191 532.99 371.671 536.43C378.901 538.05 385.871 540.73 393.111 542.3C395.961 542.92 398.831 543.36 401.721 543.73C406.211 544.29 410.721 544.66 415.241 545.18C429.694 546.844 443.927 550.046 457.701 554.73C462.831 556.47 467.961 558.46 472.371 561.61C475.867 564.146 478.823 567.354 481.065 571.045C483.308 574.737 484.792 578.838 485.431 583.11C485.851 586.05 485.861 589.11 486.501 591.96C487.107 594.355 487.91 596.697 488.901 598.96C497.445 620.086 504.427 641.811 509.791 663.96C510.095 665.605 510.659 667.192 511.461 668.66C512.741 670.73 514.941 672.12 516.231 674.19C519.231 679.07 516.341 685.88 519.001 690.96C519.921 692.72 521.451 694.11 522.371 695.87C525.351 701.57 520.921 708.5 515.801 712.47Z" fill="#454B69"/>
<path opacity="0.1" d="M464.698 597.57C466.12 596.445 467.346 595.094 468.328 593.57C469.314 592.039 469.705 590.2 469.428 588.4C469.818 590.677 469.67 593.013 468.994 595.222C468.319 597.431 467.135 599.451 465.538 601.12C463.028 603.69 458.318 606.21 454.648 605.33C455.168 602.39 462.368 599.57 464.698 597.57Z" fill="black"/>
<path opacity="0.1" d="M402.218 547.73C401.916 548.802 401.352 549.782 400.577 550.581C399.802 551.381 398.84 551.975 397.778 552.31C395.646 552.962 393.413 553.223 391.188 553.08H389.188C362.948 552.5 336.428 546.68 310.798 552.23C307.709 552.867 304.679 553.76 301.738 554.9C297.992 556.377 294.484 558.398 291.328 560.9V560.76C292.718 553.66 296.468 551.91 302.678 548.67C309.841 544.912 317.323 541.8 325.038 539.37C340.038 534.68 356.188 532.99 371.668 536.43C378.898 538.05 385.868 540.73 393.108 542.3C395.958 542.92 398.828 543.36 401.718 543.73C402.279 544.984 402.453 546.377 402.218 547.73V547.73Z" fill="black"/>
<path d="M402.22 546.3C401.92 547.374 401.357 548.356 400.582 549.158C399.807 549.96 398.843 550.555 397.78 550.89C395.648 551.543 393.414 551.801 391.19 551.65H389.19C362.95 551.07 336.43 545.25 310.8 550.8C307.712 551.438 304.682 552.328 301.74 553.46C297.816 555.025 294.157 557.183 290.89 559.86C290.123 557.753 289.36 555.643 288.6 553.53C287.68 551.01 290.6 550.45 291.16 548.19C291.53 546.66 290.9 544.92 290.58 543.29C290.498 542.891 290.444 542.487 290.42 542.08C290.24 538.47 291.53 536.39 294.49 534.44C303.27 528.64 313.98 524.66 324 521.67C329.327 519.986 334.829 518.919 340.4 518.49C348.28 518.03 356.15 519.49 363.82 521.34C373.25 523.67 382.58 526.75 390.94 531.68C395.05 534.1 399.04 537.11 401.23 541.36C402.112 542.846 402.461 544.589 402.22 546.3Z" fill="#A26565"/>
<path opacity="0.1" d="M317.749 486.24C314.749 495.75 306.559 504.32 296.589 504.73C295.863 504.815 295.129 504.683 294.479 504.35C293.229 503.57 293.199 501.74 293.709 500.35C294.219 498.96 295.109 497.71 295.249 496.25C295.278 495.952 295.258 495.651 295.189 495.36C300.479 487.9 305.609 480.36 307.639 471.53C308.05 470.01 308.175 468.426 308.009 466.86C307.739 465.06 306.829 463.43 306.329 461.69C305.449 458.61 305.859 455.35 306.109 452.16C307.158 438.097 304.812 423.987 299.269 411.02C297.919 407.9 296.379 404.74 295.909 401.41C296.601 400.083 297.78 399.076 299.199 398.6C302.479 397.5 304.629 399.21 305.109 402.32C305.909 407.61 305.449 413.01 306.499 418.32C307.469 423.286 308.94 428.14 310.889 432.81C312.659 437.03 314.809 441.11 316.169 445.48C317.192 449.082 317.925 452.761 318.359 456.48C319.729 466.45 320.779 476.73 317.749 486.24Z" fill="black"/>
<path opacity="0.1" d="M402.22 546.3C401.92 547.374 401.357 548.356 400.582 549.158C399.807 549.96 398.844 550.555 397.78 550.89C395.648 551.543 393.415 551.801 391.19 551.65H389.19C380.648 545.977 370.379 543.498 360.19 544.65C356.93 545.04 353.67 545.8 350.41 545.5C343.82 544.9 338.48 540.16 332.61 537.13C325.93 533.832 318.418 532.605 311.036 533.606C303.654 534.607 296.74 537.792 291.18 542.75L290.61 543.25C290.528 542.851 290.475 542.447 290.45 542.04C290.27 538.43 291.56 536.35 294.52 534.4C303.3 528.6 314.01 524.62 324.03 521.63C329.357 519.946 334.86 518.879 340.43 518.45C348.31 517.99 356.18 519.45 363.85 521.3C373.28 523.63 382.61 526.71 390.97 531.64C395.08 534.06 399.07 537.07 401.26 541.32C402.141 542.821 402.48 544.579 402.22 546.3V546.3Z" fill="black"/>
<path d="M424.65 436.76L424.51 437.12C422.27 442.93 418.15 447.84 415.51 453.5C412.18 460.67 411.36 468.71 410.62 476.59C409.98 483.34 409.35 490.13 409.86 496.9C411.14 513.58 419.29 529.4 421.47 545.76C422.007 549.538 422.145 553.363 421.88 557.17C421.7 559.58 421.26 562.17 419.66 563.95C418.06 565.73 414.95 566.43 413.23 564.72C414 563.25 414.78 561.79 415.56 560.32C410.99 556.77 404.11 559.32 398.77 557.1C396.42 556.1 394.54 554.3 392.57 552.69C388.074 549.034 382.892 546.314 377.33 544.69C371.768 543.065 365.937 542.569 360.18 543.23C356.92 543.63 353.66 544.39 350.4 544.09C343.81 543.48 338.47 538.75 332.6 535.72C325.921 532.423 318.409 531.196 311.028 532.195C303.647 533.195 296.732 536.376 291.17 541.33C289.77 542.63 287.89 544.15 286.17 543.33C285.505 542.923 284.968 542.337 284.62 541.64C278.07 530.45 282.89 516.02 289.89 505.12C296.89 494.22 306.16 484.17 309.04 471.57C309.456 470.05 309.581 468.466 309.41 466.9C309.14 465.1 308.23 463.47 307.73 461.73C306.85 458.65 307.26 455.39 307.51 452.2C308.559 438.137 306.213 424.027 300.67 411.06C299.07 407.33 297.17 403.55 297.17 399.5C297.17 393.12 301.74 387.83 305.52 382.7C309.87 376.8 313.52 370.27 319.03 365.42C324.25 360.81 331.81 357.99 338.27 360.33C349.248 357.675 360.547 356.584 371.83 357.09C375.73 357.27 379.76 357.68 383.18 359.57C386.84 361.57 389.47 365.13 393.07 367.26C395.7 368.83 398.73 369.57 401.59 370.67C409.492 373.762 416.012 379.603 419.95 387.12C423.95 394.87 424.95 403.78 425.83 412.46C426.69 420.57 427.49 429.07 424.65 436.76Z" fill="#DE1731"/>
<path opacity="0.1" d="M409.862 496.9C411.142 513.58 419.292 529.4 421.472 545.76C417.112 542.04 411.062 538.36 410.232 534.07C409.332 529.43 406.452 523.35 405.972 518.66C405.492 513.97 408.782 508.24 405.332 505.02C403.652 503.45 408.122 503.89 406.482 502.28C402.792 498.69 401.882 493.16 401.652 488.03C401.262 478.95 402.412 469.77 400.742 460.84C399.742 455.33 397.652 450.08 395.982 444.73C394.042 438.5 392.642 432.12 391.242 425.73C389.864 420.049 388.862 414.283 388.242 408.47C387.812 403.47 388.012 398.17 390.242 393.61C392.472 389.05 396.982 385.35 402.042 385.42C418.962 385.64 416.042 408.58 419.762 419.18C421.252 423.4 423.262 427.48 424.072 431.88C424.367 433.605 424.528 435.35 424.552 437.1C422.312 442.91 418.192 447.82 415.552 453.48C412.222 460.65 411.402 468.69 410.662 476.57C409.982 483.34 409.352 490.13 409.862 496.9Z" fill="black"/>
<path d="M420.862 418.92C422.352 423.14 424.362 427.22 425.172 431.62C426.522 438.99 424.432 446.82 426.702 453.96C427.293 455.484 427.787 457.044 428.182 458.63C428.572 460.9 428.122 463.22 428.122 465.53C428.122 469.25 429.292 472.85 430.332 476.42C433.848 488.549 436.176 500.991 437.282 513.57C437.447 516.951 437.98 520.304 438.872 523.57C439.292 524.677 439.652 525.805 439.952 526.95C440.22 528.478 440.284 530.035 440.142 531.58C439.872 536.48 439.322 541.4 439.872 546.28C440.422 551.16 442.202 556.11 445.872 559.38C442.592 560.09 439.122 560.8 435.922 559.75C431.422 558.28 428.722 553.75 426.432 549.63C423.532 544.37 412.512 539.63 411.372 533.72C410.482 529.09 407.602 523.01 407.122 518.31C406.642 513.61 409.922 507.9 406.472 504.68C404.802 503.11 409.272 503.54 407.622 501.94C403.942 498.35 403.032 492.82 402.802 487.68C402.412 478.61 403.552 469.43 401.892 460.5C400.892 454.99 398.802 449.74 397.132 444.38C395.192 438.16 393.792 431.78 392.392 425.38C391.01 419.7 390.008 413.934 389.392 408.12C388.962 403.12 389.152 397.81 391.392 393.25C393.632 388.69 398.142 385 403.192 385.06C420.042 385.37 417.142 408.32 420.862 418.92Z" fill="#DE1731"/>
<path opacity="0.1" d="M372.642 422.83C374.222 424.68 376.252 426.71 378.642 426.35C378.46 426.638 378.173 426.843 377.842 426.921C377.511 427 377.163 426.945 376.872 426.77C376.298 426.39 375.838 425.861 375.542 425.24L372.122 419.47C371.672 418.72 368.572 414.35 367.812 416.87C367.512 417.94 371.872 421.93 372.642 422.83Z" fill="black"/>
<path opacity="0.1" d="M370.8 437.22C370.701 435.335 369.907 433.553 368.57 432.22C367.368 431.13 365.965 430.284 364.44 429.73C360.69 428.19 356.25 426.95 352.18 427.15C353.66 429.31 358.41 430.6 360.79 431.82C364.163 433.56 367.5 435.36 370.8 437.22Z" fill="black"/>
<path opacity="0.1" d="M381.451 478.18C380.761 483.3 376.571 487.18 372.331 490.18C368.091 493.18 363.331 495.76 360.561 500.1C358.641 503.1 357.781 506.58 356.151 509.71C354.351 513.16 351.661 516.06 349.511 519.3C347.361 522.54 345.681 526.41 346.341 530.25C346.35 530.427 346.396 530.6 346.475 530.758C346.554 530.916 346.665 531.056 346.801 531.17C347.007 531.257 347.232 531.29 347.454 531.265C347.676 531.241 347.889 531.16 348.071 531.03C352.431 528.75 354.151 523.54 355.981 519.03C357.902 514.478 360.065 510.031 362.461 505.71C363.541 503.71 364.731 501.53 366.741 500.42C368.117 499.847 369.526 499.356 370.961 498.95C372.996 498.017 374.781 496.615 376.171 494.86C381.63 488.348 384.48 480.042 384.171 471.55C384.111 469.76 384.011 461.14 381.321 463.8C378.631 466.46 381.911 474.7 381.451 478.18Z" fill="black"/>
<path d="M388.042 281.81C396.642 285.56 404.042 293.81 403.772 303.16C403.542 312.98 395.322 322.23 398.152 331.64C399.792 337.1 404.732 340.76 408.642 344.91C423.532 360.67 423.502 388.18 408.562 403.91C402.842 409.91 395.492 414.18 389.442 419.91C368.112 440.01 367.202 474.78 378.622 501.77C369.872 503.662 360.953 504.668 352.002 504.77C347.812 504.82 342.682 504.06 341.162 500.15C339.762 496.54 342.162 491.66 339.402 488.99C338.102 487.74 336.152 487.57 334.402 487.28C323.142 485.46 313.902 476.47 309.682 465.88C305.462 455.29 305.682 443.37 308.102 432.23C309.822 424.18 312.512 415.32 308.522 408.12C303.522 399.06 289.142 395.24 289.362 384.88C289.542 376.39 299.552 372.26 305.232 365.95C315.712 354.33 310.722 336.3 310.702 320.64C310.702 306.86 315.522 292.64 325.782 283.46C341.042 269.69 370.432 274.16 388.042 281.81Z" fill="#2A1E17"/>
<g opacity="0.1">
<path d="M310.161 397.85C305.771 389.93 294.241 386.01 291.561 378.22C290.22 380.038 289.467 382.222 289.401 384.48C289.181 394.84 303.541 398.66 308.561 407.73C310.209 410.941 310.903 414.557 310.561 418.15C312.141 411.19 313.531 403.93 310.161 397.85Z" fill="black"/>
<path d="M399.303 318.82C401.103 313.57 403.713 308.27 403.843 302.82C403.861 302.23 403.844 301.639 403.793 301.05C401.783 307.04 398.703 312.91 399.303 318.82Z" fill="black"/>
<path d="M311.88 346.79C315.32 335.92 312.35 322.44 312.34 310.38C312.34 308.92 312.4 307.45 312.51 305.99C311.326 310.651 310.728 315.441 310.73 320.25C310.75 328.86 312.26 338.2 311.88 346.79Z" fill="black"/>
<path d="M410.231 393.68C404.511 399.68 397.161 403.95 391.111 409.68C380.311 419.85 374.761 433.78 373.371 448.55C375.951 437.55 381.161 427.42 389.511 419.55C395.511 413.85 402.911 409.6 408.631 403.55C415.435 396.135 419.386 386.546 419.781 376.49C418.054 382.916 414.775 388.819 410.231 393.68Z" fill="black"/>
<path d="M353.67 494.51C349.48 494.51 344.35 493.79 342.83 489.88C341.43 486.28 343.83 481.4 341.07 478.72C339.77 477.47 337.81 477.3 336.07 477.01C324.82 475.2 315.58 466.2 311.36 455.62C308.25 447.8 307.58 439.27 308.36 430.85C308.28 431.18 308.21 431.51 308.14 431.85C305.76 442.99 305.51 454.92 309.72 465.51C313.93 476.1 323.18 485.09 334.43 486.9C336.21 487.19 338.17 487.37 339.43 488.61C342.22 491.29 339.79 496.17 341.19 499.77C342.71 503.68 347.84 504.45 352.03 504.4C360.982 504.297 369.9 503.292 378.65 501.4C377.416 498.483 376.338 495.502 375.42 492.47C368.239 493.746 360.964 494.429 353.67 494.51V494.51Z" fill="black"/>
</g>
<path opacity="0.1" d="M386.419 450.9C388.889 452.76 391.569 445.67 390.039 443.9C389.629 444.36 386.039 450.64 386.419 450.9Z" fill="black"/>
<path opacity="0.1" d="M396.949 579.24C399.859 578.24 402.949 577.24 404.849 574.84C406.419 572.91 407.709 565.25 404.389 568.92C401.569 572.05 400.239 576.22 396.949 579.24Z" fill="black"/>
<path opacity="0.1" d="M426.58 571.21C426.23 573.57 425.58 576.02 423.91 577.72C423.6 578.04 422.91 578.24 422.82 577.81C424.686 576.817 426.419 575.594 427.98 574.17C431.36 570.82 431.82 562.57 426.67 560.38C426.62 564 427.13 567.57 426.58 571.21Z" fill="black"/>
<path d="M462.151 556.34C462.151 556.34 433.771 545.19 423.511 546.34C413.251 547.49 435.131 563.66 435.131 563.66L448.211 572.48C448.211 572.48 456.211 569.48 456.741 569.25C457.271 569.02 462.151 556.34 462.151 556.34Z" fill="#454B69"/>
<path d="M266.879 436.72C266.879 436.72 288.199 424.36 316.339 439.72C344.479 455.08 349.169 545.47 349.169 545.47C349.169 545.47 337.659 637.57 382.039 617.09C382.039 617.09 463.039 591.94 471.149 597.48C471.149 597.48 478.829 597.48 463.479 600.89C448.129 604.3 388.859 623.06 388.859 623.06C388.859 623.06 369.689 629.76 361.569 623.06C353.449 616.36 330.439 623.92 327.449 577.86C325.47 548.834 321.912 519.938 316.789 491.3L308.879 467.85L266.879 436.72Z" fill="#565661"/>
<path d="M264.319 579.14C264.319 579.14 273.699 485.76 258.319 452.07C244.939 422.71 296.679 436.44 310.179 440.44C312.269 441.065 314.091 442.366 315.359 444.14C323.359 455.39 352.059 500.48 343.599 560.81C343.599 560.81 340.189 614.54 361.509 623.06L295.819 601.9C290.489 600.18 285.079 598.75 279.619 597.51C272.659 595.93 261.319 591.44 264.319 579.14Z" fill="white"/>
<path d="M666.898 412.08C666.898 412.08 662.308 433.46 682.738 435.99L684.008 433.62C684.008 433.62 668.168 418.73 666.898 412.08Z" fill="#6C63FF"/>
<path d="M690.499 433.45L685.749 434.45L685.279 434.56C685.279 434.56 672.599 424.27 672.759 401.3C674.444 404.68 676.453 407.889 678.759 410.88C683.839 417.57 689.549 426.4 690.499 433.45Z" fill="#6C63FF"/>
<path d="M692.112 435.66C691.736 435.902 691.312 436.057 690.869 436.114C690.426 436.172 689.976 436.129 689.552 435.99C677.352 433.14 681.482 393.4 681.482 393.4C682.152 393.71 682.892 398.76 685.692 405.29C690.622 416.76 696.042 432.78 692.112 435.66Z" fill="#6C63FF"/>
<path d="M719.162 412.08C719.162 412.08 719.952 433.46 699.522 435.99L698.262 433.62C698.262 433.62 717.892 418.73 719.162 412.08Z" fill="#6C63FF"/>
<path d="M713.3 401.31C713.46 424.28 697.04 434.57 697.04 434.57L696.57 434.46L691.82 433.46C692.76 426.41 698.48 417.54 703.49 410.9C706.318 407.28 709.617 404.055 713.3 401.31Z" fill="#6C63FF"/>
<path d="M696.442 433.57C695.706 434.462 694.775 435.174 693.722 435.65C693.401 435.795 693.066 435.906 692.722 435.98C689.722 436.68 688.722 434.52 688.842 430.84C689.122 424.29 693.242 412.94 696.932 404.45C699.592 398.33 703.932 393.69 704.592 393.39C704.592 393.4 704.412 424.34 696.442 433.57Z" fill="#6C63FF"/>
<path d="M693.041 379.46C693.041 379.46 679.421 427.76 691.141 435.04C702.861 442.32 696.041 383.73 693.041 379.46Z" fill="#6C63FF"/>
<path opacity="0.1" d="M666.898 412.08C666.898 412.08 662.308 433.46 682.738 435.99L684.008 433.62C684.008 433.62 668.168 418.73 666.898 412.08Z" fill="black"/>
<path opacity="0.1" d="M690.499 433.45L685.749 434.45L685.279 434.56C685.279 434.56 672.599 424.27 672.759 401.3C674.444 404.68 676.453 407.889 678.759 410.88C683.839 417.57 689.549 426.4 690.499 433.45Z" fill="black"/>
<path opacity="0.1" d="M692.112 435.66C691.736 435.902 691.312 436.057 690.869 436.114C690.426 436.172 689.976 436.129 689.552 435.99C677.352 433.14 681.482 393.4 681.482 393.4C682.152 393.71 682.892 398.76 685.692 405.29C690.622 416.76 696.042 432.78 692.112 435.66Z" fill="black"/>
<path opacity="0.1" d="M719.162 412.08C719.162 412.08 719.952 433.46 699.522 435.99L698.262 433.62C698.262 433.62 717.892 418.73 719.162 412.08Z" fill="black"/>
<path opacity="0.1" d="M713.3 401.31C713.46 424.28 697.04 434.57 697.04 434.57L696.57 434.46L691.82 433.46C692.76 426.41 698.48 417.54 703.49 410.9C706.318 407.28 709.617 404.055 713.3 401.31Z" fill="black"/>
<path opacity="0.1" d="M696.442 433.57C695.706 434.462 694.775 435.174 693.722 435.65C693.401 435.795 693.066 435.906 692.722 435.98C689.722 436.68 688.722 434.52 688.842 430.84C689.122 424.29 693.242 412.94 696.932 404.45C699.592 398.33 703.932 393.69 704.592 393.39C704.592 393.4 704.412 424.34 696.442 433.57Z" fill="black"/>
<path opacity="0.1" d="M693.041 379.46C693.041 379.46 679.421 427.76 691.141 435.04C702.861 442.32 696.041 383.73 693.041 379.46Z" fill="black"/>
<path d="M666.898 412.08C666.898 412.08 664.208 433.46 684.638 435.99L685.908 433.62C685.908 433.62 668.168 418.73 666.898 412.08Z" fill="#1A5C28"/>
<path d="M692.399 433.45L687.649 434.45L687.179 434.56C687.179 434.56 672.599 424.27 672.759 401.3C672.759 401.3 676.499 405.3 680.709 410.88C685.739 417.57 691.449 426.4 692.399 433.45Z" fill="#1A5C28"/>
<path opacity="0.1" d="M692.401 433.45L687.651 434.45C683.151 430.5 681.361 420.18 680.711 410.88C685.741 417.57 691.451 426.4 692.401 433.45Z" fill="black"/>
<path d="M694.039 435.66C693.664 435.902 693.239 436.057 692.796 436.114C692.353 436.172 691.903 436.129 691.479 435.99C679.279 433.14 681.479 393.4 681.479 393.4C682.149 393.71 684.789 398.76 687.589 405.29C692.519 416.76 697.919 432.78 694.039 435.66Z" fill="#1A5C28"/>
<path d="M719.16 412.08C719.16 412.08 721.85 433.46 701.42 435.99L700.16 433.62C700.16 433.62 717.89 418.73 719.16 412.08Z" fill="#1A5C28"/>
<path d="M713.302 401.31C713.462 424.31 698.892 434.57 698.892 434.57L698.422 434.46L693.672 433.46C694.612 426.41 700.332 417.54 705.342 410.9C709.572 405.31 713.302 401.31 713.302 401.31Z" fill="#1A5C28"/>
<path opacity="0.1" d="M705.339 410.89C704.729 419.56 703.149 429.11 699.339 433.58C699.069 433.893 698.778 434.187 698.469 434.46L693.719 433.46C694.609 426.4 700.329 417.57 705.339 410.89Z" fill="black"/>
<path d="M698.34 433.57C697.604 434.462 696.674 435.174 695.62 435.65C695.299 435.795 694.964 435.906 694.62 435.98C691.62 436.68 690.57 434.52 690.74 430.84C691.02 424.29 695.14 412.94 698.83 404.45C701.49 398.33 703.95 393.69 704.59 393.39C704.59 393.4 706.31 424.34 698.34 433.57Z" fill="#1A5C28"/>
<path opacity="0.1" d="M694.04 435.66C693.348 435.658 692.674 435.441 692.11 435.04C686.37 431.47 686.26 418.04 687.62 405.29C692.52 416.76 697.92 432.78 694.04 435.66Z" fill="black"/>
<path opacity="0.1" d="M698.34 433.57C697.68 434.99 696.79 435.75 695.62 435.65C695.037 435.568 694.48 435.356 693.99 435.03C692.499 434.005 691.366 432.54 690.75 430.84C691.03 424.29 695.15 412.94 698.84 404.45C700.15 416.25 700.59 428.74 698.34 433.57Z" fill="black"/>
<path d="M693.041 379.46C693.041 379.46 681.321 427.76 693.041 435.04C704.761 442.32 696.041 383.73 693.041 379.46Z" fill="#1A5C28"/>
<path d="M711.409 437.42L710.589 441.69L707.609 457.37H679.249L676.269 441.69L675.449 437.42H711.409Z" fill="#565661"/>
<path opacity="0.1" d="M711.409 437.42L710.589 441.69H676.269L675.449 437.42H711.409Z" fill="black"/>
<path d="M717.418 432.67H668.648V440.75H717.418V432.67Z" fill="#565661"/>
<path d="M552.769 448.18L526.039 450.33L487.949 447.85L488.609 447.79L523.889 444.39C531.969 441.39 526.369 423.94 526.369 423.94L553.369 425.32L555.519 425.43C565.129 447.85 552.769 448.18 552.769 448.18Z" fill="#D1D9EC"/>
<path opacity="0.1" d="M552.769 448.18L526.039 450.33L487.949 447.85L488.609 447.79L527.109 449.17L552.909 446.37C560.229 444.44 556.039 431.73 553.399 425.32L555.549 425.43C565.129 447.85 552.769 448.18 552.769 448.18Z" fill="black"/>
<path d="M599.54 289.38L591.37 406.57L590.3 421.96C590.181 423.654 589.421 425.239 588.174 426.393C586.928 427.546 585.289 428.182 583.59 428.17H581.11L458.11 427.42C457.631 427.417 457.157 427.313 456.719 427.117C456.282 426.92 455.89 426.634 455.569 426.278C455.248 425.921 455.005 425.501 454.855 425.045C454.706 424.589 454.653 424.107 454.7 423.63L455.76 413.24L464.41 328.18C464.548 326.834 465.066 325.555 465.904 324.493C466.741 323.431 467.864 322.628 469.14 322.18L586.37 281.59C590.37 280.21 594.37 280.7 596.96 282.81C597.898 283.608 598.624 284.625 599.074 285.772C599.524 286.918 599.684 288.157 599.54 289.38Z" fill="#4C4C56"/>
<path d="M591.37 406.57L590.3 421.96C590.181 423.654 589.421 425.239 588.174 426.393C586.928 427.546 585.289 428.182 583.59 428.17H581.11L458.11 427.42C457.631 427.417 457.157 427.314 456.719 427.117C456.282 426.92 455.89 426.634 455.569 426.278C455.248 425.921 455.005 425.501 454.855 425.045C454.706 424.59 454.653 424.107 454.7 423.63L455.76 413.24L591.37 406.57Z" fill="#DFE6F5"/>
<path d="M508.912 422.63C509.823 422.63 510.562 421.153 510.562 419.33C510.562 417.507 509.823 416.03 508.912 416.03C508 416.03 507.262 417.507 507.262 419.33C507.262 421.153 508 422.63 508.912 422.63Z" fill="white"/>
<path d="M569.121 452.04C569.121 452.04 602.761 439.34 611.831 448.58C611.831 448.58 613.311 451.38 607.211 452.04L582.561 454.04C582.561 454.04 572.421 455.01 569.121 452.04Z" fill="#D1D9EC"/>
<path d="M570.042 448.74C576.652 446.04 596.542 439.05 609.272 446.74C609.272 446.74 595.182 445.18 587.452 449.65C579.722 454.12 569.142 452 569.142 452L568.992 451.72C568.85 451.458 568.765 451.17 568.741 450.873C568.718 450.576 568.756 450.278 568.855 449.997C568.954 449.716 569.111 449.459 569.315 449.243C569.52 449.026 569.767 448.855 570.042 448.74V448.74Z" fill="#DFE6F5"/>
<path d="M599.539 289.38L590.299 421.98C590.18 423.674 589.42 425.259 588.173 426.413C586.927 427.566 585.288 428.202 583.589 428.19H581.109C582.813 426.563 584.263 424.688 585.409 422.63C585.409 422.63 594.479 289.41 595.139 286.11C595.434 284.874 596.068 283.745 596.969 282.85C597.899 283.645 598.62 284.656 599.068 285.795C599.516 286.933 599.678 288.164 599.539 289.38V289.38Z" fill="#DFE6F5"/>
<path opacity="0.1" d="M599.539 289.38L590.299 421.98C590.18 423.674 589.42 425.259 588.173 426.413C586.927 427.566 585.288 428.202 583.589 428.19H581.109C582.813 426.563 584.263 424.688 585.409 422.63C585.409 422.63 594.479 289.41 595.139 286.11C595.434 284.874 596.068 283.745 596.969 282.85C597.899 283.645 598.62 284.656 599.068 285.795C599.516 286.933 599.678 288.164 599.539 289.38V289.38Z" fill="black"/>
<path opacity="0.1" d="M148.971 745.72C202.786 745.72 246.411 738.713 246.411 730.07C246.411 721.427 202.786 714.42 148.971 714.42C95.1566 714.42 51.5312 721.427 51.5312 730.07C51.5312 738.713 95.1566 745.72 148.971 745.72Z" fill="#6C63FF"/>
<path d="M152.098 430.26H145.828V571.43H152.098V430.26Z" fill="#535461"/>
<path d="M191.511 571L191.121 577.36L190.561 586.36L190.331 590.1L189.781 599.1L189.541 602.84L188.981 611.84L182.661 713.91C182.386 718.302 180.448 722.424 177.242 725.437C174.035 728.45 169.801 730.128 165.401 730.13H132.531C128.133 730.128 123.901 728.449 120.697 725.435C117.494 722.422 115.561 718.3 115.291 713.91L108.951 611.77L108.401 602.77L108.171 599.03L107.601 590.03L107.371 586.29L106.821 577.29L106.421 570.93C106.352 569.711 106.531 568.491 106.949 567.343C107.366 566.196 108.012 565.145 108.849 564.255C109.685 563.366 110.694 562.656 111.813 562.168C112.933 561.681 114.14 561.426 115.361 561.42H182.581C183.807 561.427 185.019 561.685 186.142 562.177C187.266 562.669 188.277 563.386 189.113 564.283C189.949 565.18 190.593 566.239 191.005 567.394C191.418 568.549 191.59 569.776 191.511 571Z" fill="#252529"/>
<path d="M191.12 577.36L190.56 586.33H107.38L106.82 577.36H191.12Z" fill="#9D9CB5"/>
<path d="M190.329 590.08L189.779 599.06H108.169L107.609 590.08H190.329Z" fill="#9D9CB5"/>
<path d="M189.538 602.8L188.978 611.77H108.948L108.398 602.8H189.538Z" fill="#9D9CB5"/>
<path d="M97.2387 483.17C133.759 509.59 148.969 550.91 148.969 550.91C148.969 550.91 104.969 549.4 68.4388 522.98C31.9088 496.56 16.7188 455.25 16.7188 455.25C16.7188 455.25 60.7287 456.76 97.2387 483.17Z" fill="#1A5C28"/>
<path d="M16.7188 455.25C16.7188 455.25 62.3888 480.57 77.0387 501.57C91.6887 522.57 148.959 550.89 148.959 550.89" stroke="#535461" stroke-width="2" stroke-miterlimit="10"/>
<path d="M120.809 429.95C140.689 444.32 148.969 466.82 148.969 466.82C148.969 466.82 124.969 465.99 105.139 451.62C85.3091 437.25 77.0391 414.75 77.0391 414.75C77.0391 414.75 100.939 415.57 120.809 429.95Z" fill="#1A5C28"/>
<path d="M77.0391 414.75C77.0391 414.75 101.899 428.55 109.869 439.97C117.839 451.39 149.019 466.82 149.019 466.82" stroke="#535461" stroke-width="2" stroke-miterlimit="10"/>
<path d="M177.851 465.67C155.041 490.76 150.191 523.57 150.191 523.57C150.191 523.57 182.381 515.67 205.191 490.57C228.001 465.47 232.851 432.69 232.851 432.69C232.851 432.69 200.681 440.57 177.851 465.67Z" fill="#1A5C28"/>
<path d="M232.871 432.68C232.871 432.68 203.131 458.4 195.571 476.12C188.011 493.84 150.191 523.57 150.191 523.57" stroke="#535461" stroke-width="2" stroke-miterlimit="10"/>
<g opacity="0.87">
<path d="M818.897 157.03C815.057 153.12 810.997 148.77 810.237 143.11C809.647 138.73 811.237 134.3 813.397 130.56C815.557 126.82 818.397 123.56 820.787 119.96C823.787 115.33 826.067 110.12 829.467 105.8C834.717 99.13 842.367 95.11 850.227 93.06C858.087 91.01 866.227 90.76 874.327 90.52C880.807 90.33 887.397 90.16 893.657 91.97C898.237 93.29 902.507 95.64 906.717 97.97C912.627 101.26 918.607 104.66 923.377 109.68C928.079 114.689 931.353 120.867 932.857 127.57C934.557 134.94 934.067 143.09 930.567 149.67C929.005 152.397 927.187 154.968 925.137 157.35L918.977 164.96C917.693 166.706 916.164 168.259 914.437 169.57C912.234 170.888 909.795 171.764 907.257 172.15C890.003 175.812 872.416 177.682 854.777 177.73C848.407 177.73 843.257 174.23 837.387 171.73C830.227 168.57 824.447 162.67 818.897 157.03Z" fill="#454B69"/>
<path opacity="0.1" d="M824.828 157.03C821.188 153.12 817.338 148.77 816.608 143.11C816.058 138.73 817.528 134.3 819.608 130.56C821.688 126.82 824.378 123.56 826.608 119.96C829.478 115.33 831.608 110.12 834.838 105.8C839.838 99.13 847.078 95.11 854.538 93.06C861.998 91.01 869.728 90.76 877.388 90.52C883.538 90.33 889.778 90.16 895.718 91.97C900.068 93.29 904.108 95.64 908.108 97.97C913.708 101.26 919.388 104.66 923.908 109.68C928.399 114.746 931.499 120.889 932.908 127.51C934.518 134.88 934.048 143.03 930.738 149.61C929.263 152.324 927.539 154.895 925.588 157.29L919.738 164.9C918.536 166.64 917.088 168.196 915.438 169.52C913.366 170.831 911.049 171.708 908.628 172.1C892.29 175.76 875.602 177.631 858.858 177.68C852.858 177.68 847.938 174.18 842.368 171.68C835.578 168.57 830.088 162.67 824.828 157.03Z" fill="black"/>
<path d="M825.168 95.1C829.635 90.3582 834.355 85.8616 839.308 81.63C846.638 75.35 855.448 69.25 865.898 68.84C872.197 68.7673 878.405 70.3538 883.898 73.44C889.288 76.33 893.898 80.1 898.498 83.84L916.668 98.7C918.188 99.94 919.778 101.29 920.178 103.03C920.27 103.492 920.258 103.969 920.143 104.426C920.028 104.882 919.813 105.308 919.513 105.672C919.214 106.035 918.837 106.328 918.411 106.528C917.985 106.729 917.519 106.832 917.048 106.83C916.112 106.704 915.218 106.362 914.438 105.83C902.374 99.3314 888.955 95.7493 875.257 95.3708C861.559 94.9922 847.963 97.8277 835.558 103.65C832.488 105.11 826.558 110.39 823.428 108.25C818.958 105.16 822.448 97.98 825.168 95.1Z" fill="#454B69"/>
<path opacity="0.1" d="M898.818 153.18C886.818 150.31 873.907 150.4 861.257 150.52C852.687 150.6 843.758 150.74 836.128 153.46C830.898 155.33 826.217 159.06 827.207 163.09C828.197 167.12 833.908 169.41 839.048 171.23C850.048 175.13 861.868 179.13 874.048 178C886.668 176.84 927.938 160.17 898.818 153.18Z" fill="black"/>
<path d="M834.439 155.98C829.509 155.98 828.229 162.86 829.049 167.71C829.869 172.56 830.349 179.04 825.799 180.92C824.239 181.393 822.603 181.563 820.979 181.42C809.979 181.47 800.179 188.02 791.139 194.31C789.589 195.4 787.959 196.57 787.219 198.31C786.679 199.58 786.629 201.08 785.739 202.12C784.792 202.982 783.613 203.548 782.349 203.75C777.128 205.383 772.565 208.642 769.327 213.051C766.089 217.461 764.345 222.789 764.349 228.26C752.949 232.11 745.149 244.59 746.699 256.52C742.631 257.846 739.132 260.509 736.772 264.078C734.411 267.646 733.328 271.908 733.699 276.17C723.949 280.62 719.509 293.96 724.699 303.36C726.509 306.66 729.159 311.09 726.339 313.58C729.809 318.28 733.589 323.22 739.079 325.21C744.569 327.2 752.079 324.55 752.979 318.78C755.602 320.201 758.564 320.879 761.544 320.738C764.525 320.597 767.41 319.644 769.887 317.982C772.365 316.32 774.341 314.012 775.602 311.308C776.862 308.604 777.359 305.606 777.039 302.64C785.399 301.33 791.039 291.22 787.859 283.39L796.209 279.69C793.978 282.437 792.638 285.799 792.366 289.328C792.095 292.856 792.905 296.384 794.689 299.44C795.549 300.554 796.169 301.834 796.509 303.2C796.829 305.61 794.929 307.67 793.509 309.69C791.739 312.405 790.771 315.566 790.718 318.807C790.665 322.048 791.529 325.238 793.209 328.01C794.209 329.65 795.589 331.23 795.679 333.16C795.779 335.46 794.069 337.38 792.949 339.39C787.949 348.34 794.859 359.02 801.379 366.89C793.159 375.04 796.639 390.13 805.759 397.26C814.879 404.39 827.349 405.33 838.899 404.53C850.449 403.73 862.069 401.53 873.499 403.34C879.499 404.34 885.239 406.4 891.239 407.19C901.539 408.55 911.979 406.03 921.759 402.53C927.059 400.63 932.759 397.98 934.989 392.82C937.509 387.02 934.769 380.4 934.649 374.08C934.469 364.6 940.239 355.99 941.449 346.58C942.189 340.82 941.199 335.01 940.449 329.26C938.329 312.982 938.158 296.509 939.939 280.19L942.939 284.75C943.282 284.8 943.632 284.774 943.964 284.674C944.296 284.574 944.603 284.403 944.862 284.173C945.121 283.942 945.326 283.658 945.464 283.339C945.602 283.021 945.668 282.677 945.659 282.33C946.249 288.55 941.799 296.74 947.159 299.96C948.739 300.96 950.689 300.96 952.479 301.37C955.87 302.36 958.776 304.568 960.639 307.57C963.439 311.75 964.639 316.91 967.899 320.79C971.159 324.67 977.809 326.55 980.969 322.62C990.71 322.77 1000.15 319.258 1007.43 312.78C1006.6 311.786 1005.99 310.63 1005.64 309.387C1005.28 308.145 1005.18 306.841 1005.36 305.56C1011.45 305.64 1014.01 297.16 1011.76 291.49C1009.51 285.82 1004.61 281.49 1002.4 275.83C1000.4 270.7 1000.63 264.58 997.179 260.28C995.549 258.23 993.179 256.82 991.669 254.7C989.779 252.11 989.289 248.8 988.389 245.7C985.917 237.352 980.289 230.296 972.699 226.03C974.909 215.72 967.699 205.35 957.439 202.77C956.263 202.56 955.113 202.225 954.009 201.77C950.279 199.91 949.579 194.99 947.339 191.47C943.769 185.85 936.479 184.16 929.929 182.96L910.149 179.3C908.992 179.195 907.887 178.769 906.959 178.07C906.175 177.225 905.703 176.139 905.619 174.99C904.799 169.26 907.619 163.53 907.179 157.76C907.029 156.03 906.259 153.99 904.549 153.7C903.623 153.647 902.702 153.866 901.899 154.33C894.975 157.278 887.808 159.62 880.479 161.33C875.108 162.834 869.601 163.799 864.039 164.21C853.379 164.73 843.039 162.31 834.439 155.98Z" fill="#263238"/>
<path d="M911.751 103.63C914.621 101.63 917.571 99.47 919.561 96.17C921.551 92.87 922.321 88.05 920.561 84.6C922.931 88.68 925.051 93.36 924.961 98.42C924.871 103.48 921.781 108.71 917.751 108.63C920.751 108.38 923.991 108.01 926.261 105.53C928.531 103.05 928.941 97.67 926.261 95.9C927.499 97.3012 928.416 98.9566 928.946 100.75C929.476 102.543 929.608 104.431 929.331 106.28C928.781 110.09 926.501 113.43 923.581 114.68C926.141 108 933.581 105.2 938.681 109.03C933.918 111.162 930.049 114.89 927.741 119.57C930.831 117.26 935.131 115.11 937.651 118.32C932.781 119.32 928.291 122.96 925.651 128.19C930.681 127.54 935.764 127.41 940.821 127.8C935.214 129.186 930.286 132.526 926.921 137.22C930.618 138.27 934.24 139.57 937.761 141.11C934.884 142.606 931.657 143.297 928.421 143.11C934.421 147.45 938.701 155.29 939.761 163.86C937.688 161.813 935.363 160.038 932.841 158.58C930.841 157.45 928.501 156.58 926.611 157.9C924.721 159.22 924.561 163.64 926.691 164.17L918.011 163.54C919.483 164.583 920.721 165.922 921.644 167.472C922.567 169.022 923.155 170.749 923.371 172.54C921.693 172.409 920.069 171.885 918.631 171.01C922.368 174.398 925.209 178.658 926.901 183.41C923.341 180.63 919.501 177.75 915.311 177.86C912.241 177.94 909.311 179.63 906.311 180.15C900.911 181.08 895.191 177.95 892.051 172.35C895.717 171.794 899.457 171.977 903.051 172.89C902.451 168.904 901.401 164.999 899.921 161.25C901.977 162.599 903.761 164.322 905.181 166.33C905.77 161.069 905.662 155.753 904.861 150.52L909.421 155.25C908.979 151.732 908.172 148.27 907.011 144.92C909.258 149.176 912.261 152.987 915.871 156.17L909.141 144.53L920.251 152.57C921.401 151.64 920.531 149.39 919.561 148.18C916.582 144.444 913.107 141.133 909.231 138.34C912.284 138.808 915.258 139.693 918.071 140.97C916.861 134.71 911.601 130.12 906.501 130.88C910.257 128.635 914.445 127.21 918.791 126.7C914.441 123.31 908.791 119.93 904.541 123.6C908.606 122.637 912.534 121.165 916.231 119.22C915.156 117.899 913.672 116.974 912.013 116.592C910.354 116.21 908.615 116.392 907.071 117.11C904.071 118.62 901.791 122.41 901.531 126.5C901.381 120.62 904.901 114.91 909.531 113.6C907.741 112.69 905.881 111.76 903.951 111.91C902.884 112.025 901.889 112.497 901.126 113.251C900.363 114.005 899.878 114.995 899.751 116.06C900.291 112.388 901.523 108.853 903.381 105.64C900.841 104.31 897.771 106.24 896.381 109.21C894.991 112.18 894.941 115.86 895.381 119.27C895.816 111.922 895.48 104.548 894.381 97.27C893.216 103.005 892.852 108.875 893.301 114.71" fill="#DE1731"/>
<path opacity="0.2" d="M870.807 164.21H864.027V402.98H870.807V164.21Z" fill="#DE1731"/>
<path opacity="0.1" d="M927.817 775.04C1015.65 775.04 1086.86 759.419 1086.86 740.15C1086.86 720.881 1015.65 705.26 927.817 705.26C839.982 705.26 768.777 720.881 768.777 740.15C768.777 759.419 839.982 775.04 927.817 775.04Z" fill="#6C63FF"/>
<path d="M955.671 91.48H943.961V768.27H955.671V91.48Z" fill="black"/>
<path d="M949.818 140.96C978.907 140.96 1002.49 137.15 1002.49 132.45C1002.49 127.75 978.907 123.94 949.818 123.94C920.73 123.94 897.148 127.75 897.148 132.45C897.148 137.15 920.73 140.96 949.818 140.96Z" stroke="black" stroke-width="9" stroke-miterlimit="10"/>
<path d="M880.379 87.87C876.661 88.7925 873.253 90.6801 870.498 93.342C867.744 96.0039 865.741 99.3458 864.691 103.03C863.642 106.714 863.584 110.61 864.523 114.324C865.462 118.037 867.365 121.437 870.039 124.18C876.169 130.47 885.339 132.45 893.889 134.45C910.299 138.29 927.889 144.31 936.769 158.62C939.579 163.223 941.32 168.398 941.861 173.764C942.403 179.129 941.733 184.548 939.899 189.62C939.064 192.141 937.68 194.446 935.849 196.37C933.537 198.385 930.804 199.858 927.849 200.68C914.556 205.084 900.259 205.467 886.749 201.78" stroke="black" stroke-width="9" stroke-miterlimit="10"/>
<path d="M1017.39 87.87C1021.1 88.7952 1024.51 90.6842 1027.26 93.3464C1030.01 96.0085 1032.02 99.3497 1033.07 103.033C1034.11 106.716 1034.17 110.61 1033.24 114.323C1032.3 118.036 1030.4 121.436 1027.73 124.18C1021.6 130.47 1012.43 132.45 1003.88 134.45C987.467 138.29 969.877 144.31 960.997 158.62C958.187 163.223 956.447 168.398 955.905 173.764C955.363 179.129 956.034 184.548 957.867 189.62C958.688 192.137 960.054 194.442 961.867 196.37C964.179 198.385 966.913 199.858 969.867 200.68C983.16 205.084 997.458 205.467 1010.97 201.78" stroke="black" stroke-width="9" stroke-miterlimit="10"/>
<path d="M949.817 541.07C976.852 541.07 998.767 534.878 998.767 527.24C998.767 519.602 976.852 513.41 949.817 513.41C922.783 513.41 900.867 519.602 900.867 527.24C900.867 534.878 922.783 541.07 949.817 541.07Z" stroke="black" stroke-width="9" stroke-miterlimit="10"/>
<path d="M949.817 714.87C976.852 714.87 998.767 708.678 998.767 701.04C998.767 693.402 976.852 687.21 949.817 687.21C922.783 687.21 900.867 693.402 900.867 701.04C900.867 708.678 922.783 714.87 949.817 714.87Z" stroke="black" stroke-width="9" stroke-miterlimit="10"/>
<path d="M902.358 531.45C921.49 549.574 934.76 573.01 940.458 598.74C941.557 603.45 942.227 608.249 942.458 613.08C942.838 624.08 940.048 635 936.458 645.43C929.688 665.17 919.628 684.35 903.848 697.99C889.688 710.23 871.848 717.26 854.098 723.2" stroke="black" stroke-width="9" stroke-miterlimit="10"/>
<path d="M997.267 531.45C978.135 549.574 964.866 573.01 959.168 598.74C958.073 603.45 957.403 608.25 957.168 613.08C956.788 624.08 959.578 635 963.168 645.43C969.928 665.17 979.987 684.35 995.777 697.99C1009.93 710.23 1027.78 717.26 1045.52 723.2" stroke="black" stroke-width="9" stroke-miterlimit="10"/>
<path d="M866.69 82.48H840.75V93.09H866.69V82.48Z" fill="#454B69"/>
<path d="M897.288 114.76L892.038 100.11C891.562 98.3948 890.7 96.8111 889.518 95.48C888.278 94.33 886.268 94.06 885.178 95.41C886.986 97.8508 888.422 100.547 889.438 103.41C890.348 106.41 890.348 109.89 888.778 112.41C887.935 104.013 884.334 96.1327 878.538 90C880.629 94.288 882.349 98.7477 883.678 103.33L876.528 94.92C874.991 101.289 875.025 107.937 876.628 114.29C872.702 109.427 870.516 103.39 870.418 97.14C870.363 99.792 869.824 102.412 868.828 104.87C866.849 102.57 865.782 99.6239 865.828 96.59C863.987 99.4007 862.777 102.577 862.281 105.9C861.786 109.223 862.017 112.615 862.958 115.84C859.529 110.246 857.671 103.831 857.578 97.27C855.418 103.859 854.819 110.86 855.828 117.72C851.737 113.184 849.228 107.443 848.678 101.36C848.816 107.6 849.826 113.79 851.678 119.75C848.368 118.82 846.518 114.9 844.758 111.53C842.998 108.16 840.218 104.62 836.848 105.23C839.975 108.661 841.866 113.04 842.218 117.67C840.588 117.45 839.358 115.77 837.758 115.38C835.498 114.84 833.218 117.54 833.578 120.16C833.938 122.78 836.628 124.54 838.818 123.73C837.275 123.095 835.578 122.932 833.942 123.262C832.307 123.591 830.805 124.398 829.628 125.58C828.356 126.916 827.413 128.529 826.874 130.293C826.334 132.056 826.212 133.921 826.518 135.74C827.818 131.96 831.748 129.67 835.158 130.74C829.928 131.5 825.518 136.95 825.158 143.01C826.438 142.12 827.048 140.39 828.098 139.17C829.148 137.95 831.258 137.51 831.888 139.07C832.101 139.839 832.081 140.653 831.828 141.41L829.158 153.07L842.738 147.14C841.876 152.657 840.166 158.007 837.668 163L845.348 160.48C842.117 163.849 839.945 168.09 839.098 172.68C839.888 168.58 845.178 165.25 848.478 165.44C849.118 171.83 845.848 176.5 840.478 176.88C832.808 177.43 825.918 176.1 818.318 178.79C819.817 176.65 821.873 174.96 824.263 173.903C826.652 172.845 829.285 172.461 831.878 172.79C828.008 167.38 821.078 165.2 815.358 167.61C816.419 166.053 817.854 164.786 819.531 163.927C821.208 163.067 823.074 162.642 824.958 162.69C822.338 158.33 816.768 156.78 812.708 159.28C814.305 156.25 816.897 153.863 820.048 152.52C817.148 149.96 813.048 149.76 809.588 150.96C806.128 152.16 803.018 154.58 800.018 156.96C799.502 155.475 799.378 153.882 799.658 152.335C799.938 150.788 800.613 149.339 801.618 148.13C802.554 147.062 803.821 146.338 805.216 146.073C806.612 145.808 808.056 146.019 809.318 146.67C808.078 142.97 804.528 140.5 801.118 140.95C802.133 139.487 803.603 138.401 805.299 137.858C806.995 137.316 808.822 137.348 810.498 137.95C810.563 135.627 810.107 133.318 809.162 131.195C808.217 129.071 806.807 127.187 805.038 125.68C807.611 126.419 809.874 127.974 811.488 130.11C811.868 128.402 811.896 126.635 811.571 124.916C811.246 123.196 810.575 121.561 809.598 120.11C807.686 117.43 805.364 115.067 802.718 113.11C807.98 111.516 813.601 111.544 818.848 113.19L814.248 96.83L823.518 108.49C822.469 102.551 822.16 96.505 822.598 90.49C823.799 94.7651 825.633 98.8367 828.038 102.57C827.344 97.0855 826.951 91.5673 826.858 86.04C826.858 84.63 826.958 82.94 828.028 82.25C829.098 81.56 830.288 82.25 831.028 83.25C831.645 84.3513 832.087 85.5423 832.338 86.78C833.42 90.6667 835.559 94.177 838.518 96.92C838.566 94.0612 839.215 91.2445 840.42 88.6521C841.626 86.0596 843.363 83.7491 845.518 81.87C845.584 86.3225 846.185 90.7509 847.308 95.06C844.308 94.87 842.638 90.54 843.528 87.26C844.418 83.98 846.978 81.71 849.528 79.93C852.078 78.15 854.828 76.53 856.628 73.8C856.02 80.2006 856.452 86.6574 857.908 92.92C858.848 88.6 858.788 84.03 859.998 79.8C861.208 75.57 864.288 71.52 868.138 71.65C866.541 73.9016 865.297 76.3835 864.448 79.01C863.698 81.72 863.818 84.92 865.368 87.14C865.918 83.14 866.488 79.03 868.038 75.37C869.588 71.71 872.268 68.47 875.708 67.55C873.748 74.3595 874.261 81.643 877.158 88.11C877.158 82.29 878.778 75.73 883.288 73.11C882.252 74.8118 881.603 76.7205 881.387 78.7009C881.171 80.6813 881.393 82.6849 882.038 84.57C881.91 79.1769 883.296 73.8559 886.038 69.21C886.034 75.9594 887.16 82.6619 889.368 89.04C891.976 83.4286 895.592 78.3442 900.038 74.04C899.031 80.4589 899.674 87.0285 901.908 93.13C901.639 90.3275 901.754 87.5016 902.248 84.73C902.878 82.01 904.418 79.41 906.708 78.44L907.138 97.34C911.968 94.6 913.598 86.34 910.288 81.47C914.188 83.79 918.288 86.36 920.438 90.78C922.588 95.2 921.568 102.01 917.438 103.62" fill="#DE1731"/>
<path d="M863.529 84.6H857.549C852.021 84.6 847.539 89.0816 847.539 94.61C847.539 100.138 852.021 104.62 857.549 104.62H863.529C869.057 104.62 873.539 100.138 873.539 94.61C873.539 89.0816 869.057 84.6 863.529 84.6Z" fill="#DE1731"/>
</g>
</g>
<defs>
<linearGradient id="paint0_linear_122_14880" x1="300.629" y1="184.33" x2="301.989" y2="184.33" gradientUnits="userSpaceOnUse">
<stop stop-color="#808080" stop-opacity="0.25"/>
<stop offset="0.54" stop-color="#808080" stop-opacity="0.12"/>
<stop offset="1" stop-color="#808080" stop-opacity="0.1"/>
</linearGradient>
<linearGradient id="paint1_linear_122_14880" x1="301.989" y1="184.86" x2="309.699" y2="184.86" gradientUnits="userSpaceOnUse">
<stop stop-color="#808080" stop-opacity="0.25"/>
<stop offset="0.54" stop-color="#808080" stop-opacity="0.12"/>
<stop offset="1" stop-color="#808080" stop-opacity="0.1"/>
</linearGradient>
<linearGradient id="paint2_linear_122_14880" x1="423.45" y1="544.74" x2="425.77" y2="544.74" gradientUnits="userSpaceOnUse">
<stop stop-color="#808080" stop-opacity="0.25"/>
<stop offset="0.54" stop-color="#808080" stop-opacity="0.12"/>
<stop offset="1" stop-color="#808080" stop-opacity="0.1"/>
</linearGradient>
<clipPath id="clip0_122_14880">
<rect width="1130.08" height="813.14" fill="white"/>
</clipPath>
</defs>
</svg>
