<svg width="122" height="120" viewBox="0 0 122 120" fill="none" xmlns="http://www.w3.org/2000/svg">
<path d="M114.78 32.9559C113.638 30.8809 112.37 28.8783 110.985 26.9593C110.015 25.613 108.989 24.3115 107.909 23.055H107.906C105.951 20.7804 103.824 18.6609 101.546 16.7154C101.079 16.3165 100.607 15.9258 100.128 15.5433C95.8041 12.0795 91.0095 9.25814 85.8904 7.16553L85.9358 14.6988L86.4256 100.574H43.9687L41.581 14.8608L41.7589 7.44786C20.9436 16.264 6.32814 36.9924 6.32814 61.1597C6.32426 66.1479 6.95621 71.1161 8.20849 75.9423C8.73743 77.9824 9.3778 79.9916 10.1267 81.9606C10.397 82.6753 10.6823 83.3837 10.9824 84.0857C11.127 84.4274 11.2743 84.7663 11.4271 85.1039C11.6231 85.545 11.8272 85.9847 12.0368 86.419C12.199 86.7607 12.3657 87.1001 12.5369 87.4372C12.7573 87.8797 12.9848 88.3185 13.2196 88.7536C13.4007 89.0953 13.5873 89.4343 13.7765 89.7719C16.8297 95.2105 20.7286 100.121 25.3249 104.318C26.6348 105.514 27.9978 106.649 29.414 107.721C39.4348 115.304 51.6301 119.404 64.1645 119.404C76.699 119.404 88.8943 115.304 98.9151 107.721C99.6856 107.138 100.44 106.536 101.179 105.914C101.67 105.503 102.153 105.084 102.627 104.658C102.753 104.545 102.879 104.432 103.003 104.318C107.24 100.449 110.887 95.9715 113.825 91.0298C114.904 89.218 115.883 87.3474 116.756 85.4266C116.987 84.9202 117.211 84.4092 117.428 83.8937C118.425 81.5303 119.265 79.1021 119.939 76.6256C120.044 76.2431 120.144 75.8592 120.241 75.474V75.4726C120.257 75.4059 120.275 75.3378 120.291 75.2711C120.391 74.8655 120.487 74.4571 120.579 74.0487V74.0473C120.876 72.7309 121.127 71.3986 121.332 70.0505C121.357 69.8776 121.383 69.7047 121.408 69.5318C121.417 69.4692 121.426 69.4066 121.433 69.344V69.3426C121.579 68.3012 121.698 67.2521 121.789 66.1952C121.929 64.5358 122 62.8573 122.001 61.1597C122.016 51.2928 119.531 41.5852 114.78 32.9559V32.9559Z" fill="#F2F2F2"/>
<path d="M109.099 96.3182C112.523 91.6602 113.839 85.0989 111.176 79.9618C108.679 85.7401 104.233 90.4426 98.6237 93.2373C96.4567 94.3072 93.9359 95.2699 92.9329 97.4805C92.3088 98.856 92.4276 100.48 92.9293 101.905C93.4311 103.331 94.2844 104.599 95.1288 105.85L95.1733 106.224C100.489 104.005 105.676 100.976 109.099 96.3182Z" fill="#E6E6E6"/>
<path d="M111.063 80.003C110.909 84.7971 109.26 89.4207 106.349 93.2171C105.736 94.0455 104.998 94.7716 104.161 95.3686C103.327 95.9236 102.361 96.2436 101.363 96.2954C100.433 96.3625 99.4743 96.3227 98.5769 96.6162C98.1198 96.7733 97.7008 97.026 97.3474 97.3576C96.9941 97.6892 96.7143 98.0924 96.5265 98.5405C96.0296 99.6449 95.9565 100.863 95.926 102.057C95.8923 103.383 95.878 104.76 95.2571 105.965C95.1819 106.111 95.4113 106.22 95.4864 106.074C96.5666 103.978 95.8652 101.526 96.509 99.3222C96.8094 98.2937 97.4193 97.3503 98.4389 96.9381C99.3304 96.5777 100.319 96.6179 101.261 96.5582C102.236 96.5221 103.187 96.2462 104.031 95.7547C104.895 95.2025 105.66 94.5063 106.292 93.6957C107.745 91.8939 108.907 89.8732 109.736 87.7077C110.696 85.2416 111.23 82.6283 111.315 79.9808C111.321 79.8169 111.068 79.8402 111.063 80.003V80.003Z" fill="white"/>
<path d="M107.359 92.0503C108.057 92.4557 108.876 92.5978 109.67 92.4511C110.463 92.3045 111.179 91.8787 111.689 91.2498C111.792 91.1221 111.599 90.9553 111.497 91.083C111.022 91.6696 110.356 92.0662 109.617 92.2012C108.878 92.3362 108.115 92.2008 107.467 91.8194C107.326 91.7367 107.218 91.968 107.359 92.0503Z" fill="white"/>
<path d="M101.837 96.3239C101.394 94.7246 101.567 93.0161 102.32 91.5392C102.394 91.3929 102.165 91.2839 102.09 91.43C101.31 92.9684 101.134 94.7467 101.598 96.4099C101.642 96.5684 101.881 96.4816 101.837 96.3239H101.837Z" fill="white"/>
<path d="M110.36 85.2535C110.057 85.1534 109.784 84.979 109.565 84.7462C109.345 84.5134 109.187 84.2293 109.103 83.9195C109.061 83.7605 108.822 83.8476 108.864 84.0055C108.958 84.3474 109.134 84.6609 109.375 84.9187C109.617 85.1765 109.918 85.3707 110.252 85.4844C110.282 85.4977 110.317 85.4989 110.348 85.4876C110.379 85.4763 110.405 85.4534 110.421 85.4235C110.435 85.3929 110.436 85.3579 110.425 85.326C110.414 85.2942 110.39 85.2681 110.36 85.2535V85.2535Z" fill="white"/>
<path d="M92.1215 75.8737C92.1451 75.9737 92.1687 76.0737 92.191 76.1754C92.5016 77.5219 92.7031 78.8916 92.7934 80.271C92.8021 80.3776 92.8093 80.4857 92.8149 80.5922C92.9974 83.9178 92.5652 87.2486 91.5403 90.4153C91.1313 91.6751 90.6277 92.9016 90.0339 94.0844C89.2138 95.7179 88.1955 97.4232 87.9659 99.1823C87.9399 99.3656 87.9252 99.5503 87.9219 99.7354L94.7167 106.25C94.7395 106.257 94.7609 106.266 94.7838 106.273L95.0433 106.545C95.0782 106.487 95.1131 106.425 95.1479 106.366C95.1683 106.332 95.1871 106.296 95.2075 106.262C95.2206 106.239 95.2336 106.216 95.2467 106.196C95.2511 106.188 95.2554 106.18 95.2583 106.174C95.2715 106.154 95.2815 106.134 95.2932 106.115C95.4892 105.771 95.6831 105.424 95.875 105.075C95.8765 105.073 95.8765 105.073 95.8764 105.07C97.3316 102.409 98.5789 99.6015 99.3634 96.6928C99.387 96.6053 99.4121 96.5163 99.4326 96.4258C99.779 95.1127 100.018 93.7733 100.148 92.421C100.217 91.6802 100.248 90.9365 100.242 90.1926C100.223 88.2704 99.9035 86.3633 99.2958 84.5411C98.0838 80.9087 95.7317 77.7071 92.3789 76.0014C92.2931 75.9579 92.2088 75.9157 92.1215 75.8737Z" fill="#E6E6E6"/>
<path d="M92.0493 75.9751C94.793 79.896 96.2402 84.5878 96.1853 89.3841C96.1917 90.4169 96.0364 91.4442 95.7252 92.4282C95.3912 93.3769 94.811 94.2183 94.0449 94.8649C93.3427 95.4822 92.5534 96.0317 92.0124 96.8102C91.7413 97.2128 91.5578 97.6686 91.4739 98.1476C91.3901 98.6266 91.4077 99.1181 91.5257 99.5898C91.7892 100.773 92.4592 101.79 93.1487 102.762C93.9142 103.841 94.7264 104.949 94.9511 106.288C94.9783 106.45 95.2266 106.398 95.1994 106.236C94.8085 103.907 92.7827 102.375 91.979 100.225C91.604 99.2213 91.527 98.0981 92.0946 97.1509C92.591 96.3226 93.4044 95.7552 94.1209 95.1364C94.8774 94.5167 95.4717 93.7199 95.8519 92.8155C96.2119 91.8506 96.4062 90.831 96.4266 89.8005C96.5091 87.481 96.229 85.163 95.5965 82.9312C94.8887 80.38 93.7527 77.9696 92.2378 75.8042C92.1439 75.6702 91.9561 75.842 92.0493 75.9751V75.9751Z" fill="white"/>
<path d="M96.2984 87.8407C97.0987 87.7407 97.8377 87.3575 98.3834 86.7595C98.9291 86.1615 99.2459 85.3876 99.2773 84.5761C99.2831 84.4118 99.0299 84.3951 99.0241 84.5595C98.9963 85.3153 98.7011 86.0361 98.1918 86.5919C97.6826 87.1478 96.9928 87.502 96.247 87.5906C96.0849 87.61 96.1373 87.86 96.2984 87.8407H96.2984Z" fill="white"/>
<path d="M94.4442 94.5991C93.1348 93.5903 92.2511 92.1216 91.9693 90.4859C91.9415 90.3238 91.6932 90.3758 91.7209 90.5376C92.0174 92.2393 92.9401 93.7658 94.3049 94.8125C94.4351 94.9122 94.5737 94.6982 94.4442 94.5991V94.5991Z" fill="white"/>
<path d="M94.632 80.593C94.3303 80.6967 94.0078 80.7233 93.6935 80.6704C93.3791 80.6175 93.0826 80.4869 92.8308 80.2901C92.702 80.1888 92.5635 80.4029 92.6915 80.5036C92.9708 80.7196 93.2983 80.8636 93.6456 80.9228C93.9928 80.982 94.3491 80.9546 94.6834 80.8431C94.7158 80.8353 94.744 80.8153 94.7623 80.7873C94.7806 80.7593 94.7876 80.7253 94.7819 80.6922C94.7749 80.6591 94.7553 80.6302 94.7272 80.6116C94.6991 80.593 94.6649 80.5864 94.632 80.593Z" fill="white"/>
<path d="M2.70002 70.2295C-0.336035 65.3067 -1.11875 58.6594 1.94991 53.7572C3.97273 59.7208 8.025 64.7717 13.3898 68.0161C15.4632 69.2598 17.898 70.4257 18.7193 72.711C19.2304 74.133 18.9809 75.7421 18.3658 77.1216C17.7507 78.5012 16.7978 79.6954 15.8553 80.8728L15.7807 81.2427C10.6617 78.5955 5.73609 75.1524 2.70002 70.2295Z" fill="#E6E6E6"/>
<path d="M2.05905 53.8076C1.82504 58.5984 3.09597 63.3417 5.6913 67.3638C6.23476 68.2396 6.9119 69.0237 7.69781 69.6872C8.48413 70.3086 9.42134 70.7066 10.4121 70.8399C11.3334 70.9829 12.2922 71.0217 13.1629 71.3877C13.6058 71.5817 14.003 71.8678 14.3285 72.2273C14.6539 72.5867 14.9002 73.0114 15.0513 73.4734C15.4573 74.6149 15.4319 75.8351 15.3659 77.0276C15.2926 78.3516 15.1956 79.7256 15.7172 80.9775C15.7804 81.1292 15.543 81.219 15.4799 81.0676C14.5724 78.8896 15.4694 76.5033 15.0056 74.2539C14.7892 73.2043 14.2574 72.2141 13.2745 71.7199C12.415 71.2877 11.4263 71.2468 10.4923 71.1102C9.52388 70.9944 8.59838 70.6416 7.7966 70.0826C6.97968 69.4616 6.27367 68.7051 5.70879 67.8455C4.40642 65.9307 3.41111 63.8216 2.75932 61.5954C2.00145 59.0589 1.68003 56.4105 1.80898 53.7648C1.81703 53.601 2.06705 53.6449 2.05905 53.8076L2.05905 53.8076Z" fill="white"/>
<path d="M9.93775 70.8294C10.5077 69.2716 10.4737 67.5546 9.84247 66.0209C9.77981 65.869 10.0172 65.7791 10.0798 65.9308C10.7337 67.5281 10.7655 69.3149 10.1688 70.9347C10.1119 71.089 9.88108 70.9829 9.93775 70.8294V70.8294Z" fill="white"/>
<path d="M21.2704 51.2421C21.2388 51.3398 21.2071 51.4376 21.1768 51.5371C20.7585 52.8538 20.4472 54.2025 20.2458 55.5699C20.2286 55.6754 20.2127 55.7825 20.1985 55.8883C19.7483 59.1879 19.9102 62.5431 20.6762 65.7832C20.9822 67.0723 21.3851 68.336 21.8814 69.5634C22.567 71.2586 23.4443 73.0416 23.5312 74.8137C23.5424 74.9985 23.5421 75.1838 23.5305 75.3685L16.2324 81.3057C16.2091 81.3108 16.1871 81.3176 16.1637 81.3228L15.883 81.5733C15.8531 81.5118 15.8233 81.4473 15.7933 81.3858C15.7757 81.3502 15.7598 81.3133 15.7423 81.2777C15.7311 81.2535 15.72 81.2293 15.7085 81.2082C15.7048 81.2001 15.7011 81.192 15.6987 81.1857C15.6872 81.1645 15.6788 81.1436 15.6687 81.1242C15.5012 80.7644 15.3359 80.4029 15.1728 80.0395C15.1714 80.0378 15.1714 80.0378 15.1717 80.0348C13.9362 77.263 12.9196 74.3629 12.3723 71.3997C12.3559 71.3105 12.338 71.2197 12.3249 71.1278C12.0856 69.7908 11.9553 68.4362 11.9351 67.0778C11.9264 66.3339 11.9552 65.59 12.0212 64.849C12.1955 62.9348 12.6676 61.0601 13.4204 59.2937C14.9215 55.7725 17.5241 52.7739 21.0035 51.3484C21.0925 51.312 21.18 51.2768 21.2704 51.2421Z" fill="#E6E6E6"/>
<path d="M21.3323 51.3487C18.2812 55.0321 16.4602 59.5899 16.1278 64.3749C16.0381 65.4037 16.11 66.4403 16.3408 67.4466C16.5971 68.4195 17.1075 69.3055 17.8188 70.0126C18.469 70.6854 19.2113 71.2977 19.6877 72.1179C19.9254 72.5413 20.0715 73.0106 20.1164 73.4949C20.1614 73.9793 20.1041 74.4677 19.9485 74.9282C19.5903 76.0857 18.8405 77.0446 18.0749 77.9567C17.2248 78.9694 16.3259 80.0077 15.9939 81.3235C15.9537 81.4829 15.7104 81.4107 15.7506 81.2516C16.3281 78.9623 18.4709 77.6009 19.4454 75.5237C19.9002 74.5544 20.0676 73.4413 19.5783 72.4508C19.1504 71.5846 18.3854 70.9525 17.7213 70.2771C17.0173 69.5975 16.4892 68.7547 16.1833 67.8222C15.9023 66.831 15.7909 65.7989 15.8538 64.7701C15.9587 62.4516 16.4249 60.1641 17.2354 57.9915C18.1468 55.5067 19.4735 53.1972 21.1582 51.1629C21.2626 51.037 21.436 51.2237 21.3323 51.3487V51.3487Z" fill="white"/>
<path d="M16.1422 62.8278C15.3526 62.6627 14.647 62.2203 14.1514 61.5796C13.6558 60.9389 13.4024 60.1416 13.4367 59.3302C13.4384 59.2971 13.4527 59.266 13.4768 59.2434C13.5008 59.2208 13.5326 59.2085 13.5655 59.209C13.5984 59.2095 13.6298 59.2229 13.6531 59.2463C13.6763 59.2697 13.6897 59.3013 13.6903 59.3344C13.6571 60.09 13.8931 60.8326 14.3558 61.4282C14.8185 62.0239 15.4775 62.4334 16.2136 62.5828C16.3736 62.6154 16.3012 62.8603 16.1422 62.8278V62.8278Z" fill="white"/>
<path d="M17.4431 69.7153C18.8295 68.817 19.8288 67.4255 20.2418 65.8182C20.2825 65.6589 20.5258 65.7311 20.4851 65.8902C20.0523 67.5619 19.0095 69.0079 17.5647 69.9394C17.4269 70.0281 17.3061 69.8035 17.4431 69.7153V69.7153Z" fill="white"/>
<path d="M18.3881 55.7404C18.6804 55.8684 18.9997 55.9213 19.3174 55.8943C19.635 55.8673 19.941 55.7614 20.2078 55.5859C20.3444 55.4954 20.4651 55.7202 20.3294 55.81C20.0337 56.0025 19.6956 56.1192 19.3447 56.1498C18.9939 56.1803 18.6409 56.1239 18.3167 55.9855C18.2851 55.975 18.2586 55.9528 18.2426 55.9233C18.2266 55.8939 18.2224 55.8594 18.2308 55.827C18.2404 55.7946 18.2623 55.7673 18.2918 55.7511C18.3212 55.7349 18.3559 55.731 18.3881 55.7404V55.7404Z" fill="white"/>
<path d="M59.0587 19.9785C63.4965 19.9785 67.094 16.3557 67.094 11.8866C67.094 7.41756 63.4965 3.79468 59.0587 3.79468C54.621 3.79468 51.0234 7.41756 51.0234 11.8866C51.0234 16.3557 54.621 19.9785 59.0587 19.9785Z" fill="#FF6584"/>
<path d="M83.6606 11.4643C82.9366 10.694 82.1722 9.96332 81.3707 9.2753C79.8053 7.93849 78.0723 6.80179 76.1406 6.08573C75.4134 5.81526 74.6619 5.61604 73.8966 5.49083C73.8047 5.47586 73.7141 5.46089 73.6222 5.44863C73.6155 5.44795 73.6087 5.44795 73.6019 5.44863C73.5878 5.4446 73.5733 5.44187 73.5587 5.44046C73.3708 5.41596 73.1829 5.3969 72.9936 5.38329C71.9744 5.31506 70.9509 5.40784 69.9602 5.65828C69.3854 5.80433 68.8245 6.00111 68.284 6.24636C67.7425 6.51332 67.2175 6.8129 66.7119 7.14347C66.4403 7.30958 66.1606 7.46179 65.8738 7.59951C65.0364 7.99907 64.1499 8.28473 63.2378 8.44898C62.6218 8.56027 61.998 8.62217 61.3723 8.63412C60.8289 8.64501 60.3165 8.66406 59.8015 8.86146C59.2518 9.06944 58.7581 9.40403 58.3598 9.83849C57.9615 10.2729 57.6696 10.7952 57.5075 11.3636C57.4947 11.414 57.4983 11.4673 57.5178 11.5156C57.5373 11.5638 57.5716 11.6045 57.6157 11.6317C57.7549 11.7325 57.8901 11.8468 58.0374 11.9367C58.1674 11.9964 58.3062 12.0346 58.4484 12.0497C58.6809 12.0987 58.9138 12.1463 59.1472 12.1926C60.0056 12.3641 60.8676 12.5161 61.7332 12.6486C63.4743 12.9141 65.2253 13.1011 66.9863 13.2095C66.997 13.2111 67.0079 13.212 67.0187 13.2122C69.0081 13.3331 71.0023 13.3527 72.9936 13.2708C73.2951 13.2585 73.5952 13.2435 73.8966 13.2258C75.1524 13.1551 76.4051 13.0434 77.6546 12.891C78.8104 12.7494 79.9617 12.5738 81.1084 12.3641C81.9276 12.2144 82.7437 12.0474 83.5565 11.8632C83.596 11.8514 83.6318 11.8296 83.6605 11.7998C83.6891 11.7701 83.7097 11.7334 83.7202 11.6933C83.7306 11.6532 83.7306 11.611 83.7202 11.5709C83.7098 11.5308 83.6893 11.4941 83.6606 11.4643V11.4643Z" fill="#E6E6E6"/>
<path d="M66.9612 22.2542C65.7979 21.0011 64.5162 19.8649 63.1342 18.8618C62.676 18.5378 62.2042 18.2329 61.7189 17.9538C61.1239 17.608 60.5061 17.3037 59.8697 17.0431C59.7277 16.9846 59.5844 16.9288 59.4411 16.8757C58.6271 16.572 57.7827 16.3584 56.9228 16.2386C56.916 16.2372 56.9092 16.2386 56.9025 16.2372C56.889 16.2345 56.8741 16.2318 56.8606 16.229C56.4437 16.1746 56.0237 16.1487 55.6034 16.1514C55.302 16.1514 54.9992 16.1678 54.699 16.1977C54.2142 16.2458 53.7335 16.3296 53.2608 16.4482C53.0269 16.5068 52.7944 16.5748 52.5659 16.6524C52.2327 16.7628 51.9056 16.891 51.5859 17.0363C51.5805 17.039 51.5764 17.0404 51.571 17.0431C51.0343 17.3075 50.5143 17.6048 50.0138 17.9334C50.0029 17.9402 49.9908 17.947 49.98 17.9538C49.4114 18.2963 48.81 18.58 48.1848 18.8006C47.6481 18.9896 47.0976 19.1361 46.5383 19.2389C45.9224 19.3505 45.2985 19.412 44.6728 19.4227C44.1294 19.4336 43.6171 19.4526 43.1034 19.6514C42.5536 19.8593 42.0596 20.1939 41.6611 20.6283C41.2626 21.0628 40.9704 21.5851 40.8081 22.1535C40.7955 22.204 40.7993 22.2571 40.8187 22.3054C40.8381 22.3536 40.8723 22.3943 40.9162 22.4217C41.0554 22.5224 41.192 22.6354 41.338 22.7253C41.4678 22.7855 41.6067 22.8236 41.7489 22.8382C41.9814 22.8873 42.2139 22.9363 42.4478 22.9825C43.3062 23.1541 44.1686 23.3056 45.0351 23.4372C46.2233 23.6183 47.4165 23.763 48.6147 23.8715C49.1824 23.9246 49.7506 23.9681 50.3193 24.0022C51.7778 24.0906 53.2378 24.1251 54.6991 24.1056C55.0005 24.1015 55.302 24.0947 55.6034 24.0852C57.3932 24.0321 59.1776 23.8969 60.9565 23.6795C62.9394 23.4379 64.9088 23.0949 66.8571 22.6517C66.8965 22.6401 66.9322 22.6184 66.9609 22.5888C66.9895 22.5592 67.0101 22.5226 67.0205 22.4826C67.031 22.4426 67.031 22.4006 67.0206 22.3605C67.0102 22.3205 66.9897 22.2839 66.9612 22.2542V22.2542Z" fill="#E6E6E6"/>
<path d="M46.9344 0.537213L54.0133 99.0502L39.8555 100.316V1.79058C41.5425 0.463501 43.9642 0.255876 46.9344 0.537213Z" fill="#CCCCCC"/>
<path d="M81.8719 0.537213L74.793 99.0502L88.9508 100.316V1.79058C87.2638 0.463501 84.8421 0.255876 81.8719 0.537213Z" fill="#CCCCCC"/>
<path d="M89.2846 1.8336C88.8453 0.748866 87.9112 0 86.8311 0H41.8205C40.3187 0 39.098 1.45113 39.098 3.23652V101.15C39.0849 102.056 39.4212 102.932 40.0362 103.593C40.3579 103.933 40.7653 104.179 41.2149 104.305C41.4122 104.36 41.6159 104.387 41.8205 104.387H86.8311C87.0358 104.387 87.2395 104.36 87.4367 104.305C88.6479 103.977 89.5537 102.688 89.5537 101.15V3.23653C89.5549 2.75577 89.4636 2.27933 89.2846 1.8336V1.8336ZM88.6507 101.15C88.6507 102.343 87.8342 103.313 86.8311 103.313H41.8205C40.9892 103.313 40.2849 102.647 40.07 101.739C40.024 101.546 40.0009 101.348 40.001 101.15V3.23653C40.001 2.04412 40.8175 1.0751 41.8205 1.0751H86.8311C87.0158 1.07495 87.1989 1.10815 87.3719 1.17312C88.1113 1.44632 88.6507 2.2675 88.6507 3.23653V101.15Z" fill="#CCCCCC"/>
<path d="M89.1032 29.7623H39.5508V30.6724H89.1032V29.7623Z" fill="#CCCCCC"/>
<path d="M89.1032 10.9762H39.5508V11.8863H89.1032V10.9762Z" fill="#CCCCCC"/>
<path d="M89.1032 44.9301H39.5508V45.8401H89.1032V44.9301Z" fill="#CCCCCC"/>
<path d="M55.6303 0.408447H54.7266V57.8226H55.6303V0.408447Z" fill="#CCCCCC"/>
<path d="M73.9271 0.408447H73.0234V57.8226H73.9271V0.408447Z" fill="#CCCCCC"/>
<path d="M94.7483 98.6995H35.406C34.328 98.7007 33.2945 99.1326 32.5322 99.9002C31.7699 100.668 31.3411 101.709 31.3398 102.794C31.3393 103.316 31.4389 103.834 31.6332 104.318C31.9351 105.077 32.4558 105.728 33.1282 106.186C33.8006 106.645 34.5939 106.89 35.406 106.891H94.7483C95.4582 106.89 96.1556 106.703 96.7713 106.347C97.3869 105.991 97.8993 105.479 98.2576 104.862C98.3596 104.688 98.4482 104.506 98.5225 104.318C98.7168 103.834 98.8164 103.316 98.8159 102.794C98.8143 101.709 98.3852 100.668 97.6227 99.9001C96.8602 99.1325 95.8265 98.7007 94.7483 98.6995Z" fill="#CCCCCC"/>
<path d="M89.1066 55.6991H39.8555V58.7326H89.1066V55.6991Z" fill="#CCCCCC"/>
<path d="M64.024 54.7891H64.9276C65.3671 54.7891 65.7885 54.9648 66.0992 55.2777C66.4099 55.5906 66.5844 56.015 66.5844 56.4575V56.4575H62.3672C62.3672 56.2384 62.41 56.0214 62.4933 55.819C62.5766 55.6166 62.6986 55.4327 62.8524 55.2777C63.0063 55.1228 63.1889 54.9999 63.3899 54.9161C63.5909 54.8322 63.8064 54.7891 64.024 54.7891V54.7891Z" fill="#CCCCCC"/>
<path d="M65.3455 64.2544C70.5005 64.2544 74.6793 60.046 74.6793 54.8548C74.6793 49.6635 70.5005 45.4552 65.3455 45.4552C60.1906 45.4552 56.0117 49.6635 56.0117 54.8548C56.0117 60.046 60.1906 64.2544 65.3455 64.2544Z" fill="#FFB8B8"/>
<path d="M54.9338 45.8123C55.0044 44.7329 55.7132 43.6283 57.9653 43.0512C57.9653 43.0512 61.8303 38.0741 67.0823 40.6841C67.0823 40.6841 69.6285 40.243 71.5165 42.9033C71.5165 42.9033 73.3884 41.7915 74.1781 43.7622C74.1781 43.7622 76.3736 47.7818 75.5653 51.8819C74.757 55.9819 74.3433 56.4936 74.3433 56.4936C74.3433 56.4936 75.3736 48.0127 69.4397 48.6008C63.5058 49.1889 58.7285 47.0874 57.3847 51.6885C56.2689 55.509 56.4094 57.4933 56.4094 57.4933C56.4094 57.4933 52.678 53.6819 53.9467 50.6808C54.5956 49.1458 54.825 47.477 54.9338 45.8123Z" fill="#2F2E41"/>
<path d="M39.9648 106.223H91.5927C91.2477 102.257 91.0221 87.0973 91.0221 86.0995C91.0221 81.6988 87.4464 76.8962 87.4464 76.8962L86.1664 76.1838L75.4777 72.8255L72.7115 69.207C72.4219 68.827 72.0486 68.5199 71.6212 68.3097C71.1937 68.0995 70.7237 67.992 70.248 67.9957L61.51 68.0617C60.7411 68.0677 60.0021 68.3626 59.4378 68.8887L54.027 73.9436L46.0909 77.76L46.0774 77.7465L45.9945 77.8086L44.8167 78.6627L44.0591 79.214C44.0591 79.214 42.0718 81.6153 40.4834 88.8172C40.2444 89.9004 40.0766 103.923 39.9648 106.223Z" fill="#263238"/>
<path d="M103.545 104.318C103.421 104.432 103.295 104.545 103.169 104.658C102.694 105.084 102.211 105.503 101.722 105.914C100.982 106.535 100.227 107.137 99.4574 107.721H29.9564C28.541 106.651 27.178 105.516 25.8672 104.318H103.545Z" fill="#CCCCCC"/>
<path d="M78.0684 105.134H52.5195L53.0602 102.548H77.5276L78.0684 105.134Z" fill="#2F2E41"/>
<path d="M101.182 93.9716H94.5344C94.3843 93.9711 94.236 94.0038 94.0999 94.0673C93.9637 94.1308 93.843 94.2236 93.7463 94.3391C93.6536 94.3211 93.5595 94.312 93.4651 94.3119C93.2579 94.3117 93.0527 94.3526 92.8612 94.4323C92.6697 94.512 92.4957 94.629 92.3491 94.7764C92.2025 94.9239 92.0862 95.0991 92.0069 95.2918C91.9276 95.4846 91.8867 95.6912 91.8867 95.8999C91.8867 96.1085 91.9276 96.3152 92.0069 96.5079C92.0862 96.7007 92.2025 96.8758 92.3491 97.0233C92.4957 97.1708 92.6697 97.2877 92.8612 97.3674C93.0527 97.4471 93.2579 97.488 93.4651 97.4878C93.7032 97.4878 93.9381 97.4329 94.1518 97.3272L94.2627 98.6994L94.7034 104.123C94.7243 104.191 94.7524 104.256 94.7872 104.318C94.8762 104.482 95.0077 104.62 95.1678 104.716C95.3279 104.811 95.5107 104.862 95.6969 104.862H100.02C100.206 104.862 100.389 104.811 100.55 104.715C100.71 104.62 100.842 104.482 100.931 104.318C100.965 104.256 100.992 104.19 101.014 104.123L102.176 95.3261C102.224 95.1695 102.235 95.0038 102.207 94.8424C102.18 94.6809 102.115 94.5282 102.019 94.3964C101.922 94.2646 101.796 94.1576 101.651 94.0838C101.506 94.01 101.345 93.9716 101.182 93.9716ZM93.4651 97.0345C93.1665 97.0342 92.8803 96.9145 92.6693 96.7017C92.4582 96.489 92.3397 96.2006 92.3397 95.8999C92.3397 95.5992 92.4582 95.3108 92.6693 95.098C92.8803 94.8853 93.1665 94.7656 93.4651 94.7652C93.4854 94.7652 93.5043 94.7707 93.5246 94.772C93.4801 94.9548 93.4857 95.1463 93.5408 95.3261L94.0166 96.8834C93.8491 96.9815 93.6589 97.0336 93.4651 97.0345V97.0345Z" fill="#3F3D56"/>
<path d="M86.1667 65.1891H44.0827C43.7211 65.1897 43.3746 65.3346 43.1189 65.592C42.8632 65.8495 42.7193 66.1985 42.7188 66.5626V95.1612C42.7191 95.5254 42.8629 95.8746 43.1186 96.1321C43.3743 96.3896 43.7211 96.5344 44.0827 96.5348H86.1667C86.5283 96.5344 86.875 96.3896 87.1308 96.1321C87.3865 95.8746 87.5303 95.5254 87.5306 95.1612V66.5626C87.5301 66.1985 87.3862 65.8495 87.1305 65.592C86.8748 65.3346 86.5282 65.1897 86.1667 65.1891Z" fill="#3F3D56"/>
<path d="M69.8618 88.1041H60.0167C59.8774 88.1043 59.7439 88.1602 59.6456 88.2595C59.5472 88.3589 59.492 88.4934 59.4922 88.6337V104.296H70.3876V88.6337C70.3877 88.5641 70.3741 88.4953 70.3477 88.431C70.3213 88.3667 70.2825 88.3083 70.2337 88.2591C70.1849 88.21 70.1269 88.171 70.0631 88.1444C69.9992 88.1178 69.9308 88.1041 69.8618 88.1041V88.1041ZM64.9724 97.0031C64.6645 97.0016 64.3696 96.8778 64.1519 96.6586C63.9342 96.4393 63.8112 96.1424 63.8098 95.8323V94.0259C63.8102 93.7156 63.9328 93.4182 64.1508 93.1989C64.3688 92.9796 64.6643 92.8565 64.9723 92.8565C65.2804 92.8565 65.5759 92.9796 65.7939 93.1989C66.0119 93.4182 66.1345 93.7156 66.1349 94.0259V95.8323C66.1335 96.1424 66.0105 96.4393 65.7928 96.6586C65.5751 96.8778 65.2802 97.0016 64.9724 97.0031V97.0031Z" fill="#2F2E41"/>
<path d="M59.457 103.795V105.306C59.4572 105.384 59.4881 105.459 59.5431 105.514C59.5981 105.57 59.6726 105.601 59.7504 105.601H70.1267C70.2044 105.601 70.2788 105.57 70.3337 105.514C70.3886 105.459 70.4197 105.384 70.4201 105.306V103.795H59.457Z" fill="#3F3D56"/>
<path d="M85.2698 94.8622C85.6368 94.8622 85.9342 94.5626 85.9342 94.1931C85.9342 93.8236 85.6368 93.524 85.2698 93.524C84.9029 93.524 84.6055 93.8236 84.6055 94.1931C84.6055 94.5626 84.9029 94.8622 85.2698 94.8622Z" fill="#2F2E41"/>
<path d="M49.3927 93.2228C49.3621 93.2228 49.3319 93.2288 49.3037 93.2406C49.2755 93.2524 49.2498 93.2696 49.2283 93.2914C49.2067 93.3131 49.1895 93.3389 49.1779 93.3673C49.1662 93.3957 49.1602 93.4262 49.1602 93.4569V94.6617C49.1603 94.7237 49.1849 94.7831 49.2285 94.8269C49.2721 94.8707 49.3311 94.8952 49.3927 94.8952C49.4542 94.8952 49.5133 94.8707 49.5569 94.8269C49.6004 94.7831 49.625 94.7237 49.6252 94.6617V93.4569C49.6252 93.4262 49.6192 93.3957 49.6075 93.3673C49.5958 93.3389 49.5787 93.3131 49.5571 93.2914C49.5355 93.2696 49.5099 93.2524 49.4816 93.2406C49.4534 93.2288 49.4232 93.2228 49.3927 93.2228V93.2228Z" fill="#2F2E41"/>
<path d="M50.6583 93.2228C50.6278 93.2228 50.5975 93.2288 50.5693 93.2406C50.5411 93.2524 50.5155 93.2696 50.4939 93.2914C50.4723 93.3131 50.4552 93.3389 50.4435 93.3673C50.4318 93.3957 50.4258 93.4262 50.4258 93.4569V94.6617C50.4258 94.7238 50.4503 94.7834 50.4939 94.8273C50.5375 94.8712 50.5966 94.8958 50.6583 94.8958C50.72 94.8958 50.7791 94.8712 50.8227 94.8273C50.8663 94.7834 50.8908 94.7238 50.8908 94.6617V93.4569C50.8908 93.4262 50.8848 93.3957 50.8731 93.3673C50.8614 93.3389 50.8443 93.3131 50.8227 93.2914C50.8011 93.2696 50.7755 93.2524 50.7473 93.2406C50.7191 93.2288 50.6888 93.2228 50.6583 93.2228V93.2228Z" fill="#2F2E41"/>
<path d="M51.92 93.2228C51.8895 93.2228 51.8592 93.2288 51.831 93.2406C51.8028 93.2524 51.7772 93.2696 51.7556 93.2914C51.734 93.3131 51.7169 93.3389 51.7052 93.3673C51.6935 93.3957 51.6875 93.4262 51.6875 93.4569V94.6617C51.6877 94.7237 51.7122 94.7831 51.7558 94.8269C51.7994 94.8707 51.8584 94.8952 51.92 94.8952C51.9816 94.8952 52.0406 94.8707 52.0842 94.8269C52.1278 94.7831 52.1524 94.7237 52.1525 94.6617V93.4569C52.1525 93.4262 52.1465 93.3957 52.1348 93.3673C52.1231 93.3389 52.106 93.3131 52.0844 93.2914C52.0628 93.2696 52.0372 93.2524 52.009 93.2406C51.9808 93.2288 51.9505 93.2228 51.92 93.2228Z" fill="#2F2E41"/>
<path d="M53.1817 93.2228C53.1512 93.2228 53.121 93.2288 53.0927 93.2406C53.0645 93.2524 53.0389 93.2696 53.0173 93.2914C52.9957 93.3131 52.9786 93.3389 52.9669 93.3673C52.9552 93.3957 52.9492 93.4262 52.9492 93.4569V94.6617C52.9494 94.7237 52.9739 94.7831 53.0175 94.8269C53.0611 94.8707 53.1202 94.8952 53.1817 94.8952C53.2433 94.8952 53.3023 94.8707 53.3459 94.8269C53.3895 94.7831 53.4141 94.7237 53.4142 94.6617V93.4569C53.4142 93.4262 53.4082 93.3957 53.3965 93.3673C53.3849 93.3389 53.3677 93.3131 53.3461 93.2914C53.3245 93.2696 53.2989 93.2524 53.2707 93.2406C53.2425 93.2288 53.2123 93.2228 53.1817 93.2228V93.2228Z" fill="#2F2E41"/>
<path d="M54.1865 104.454C56.1276 104.454 57.7012 102.869 57.7012 100.914C57.7012 98.9594 56.1276 97.3748 54.1865 97.3748C52.2454 97.3748 50.6719 98.9594 50.6719 100.914C50.6719 102.869 52.2454 104.454 54.1865 104.454Z" fill="#FFB8B8"/>
<path d="M78.7412 105.134C80.6823 105.134 82.2559 103.55 82.2559 101.595C82.2559 99.6401 80.6823 98.0554 78.7412 98.0554C76.8001 98.0554 75.2266 99.6401 75.2266 101.595C75.2266 103.55 76.8001 105.134 78.7412 105.134Z" fill="#FFB8B8"/>
<path d="M115.021 58.8729C114.674 58.2945 114.262 57.6768 113.618 57.4879C112.871 57.2692 112.105 57.7037 111.454 58.1325C109.509 59.415 107.636 60.8047 105.844 62.2955L105.846 62.3179C107.241 62.221 108.399 65.9579 109.795 65.861C110.803 65.791 112.084 61.8775 112.975 61.3971C113.313 61.2148 113.642 60.9714 114.026 60.9544C114.502 60.9333 114.917 61.2681 115.243 61.6179C117.172 63.687 117.731 66.8512 119.895 68.6691C118.53 65.2791 116.901 62.0034 115.021 58.8729V58.8729Z" fill="#3F3D56"/>
<path d="M118.732 63.8986C119.75 65.75 120.83 67.5646 121.971 69.3425V69.3438C121.964 69.4065 121.955 69.4691 121.945 69.5317C121.807 69.3193 121.671 69.1061 121.536 68.8919C120.511 67.2733 119.537 65.6238 118.614 63.9435C118.176 63.1444 117.749 62.339 117.333 61.5272C117.011 60.8982 116.696 60.2657 116.388 59.6295C116.3 59.4471 116.215 59.2647 116.13 59.0809C115.93 58.6507 115.732 58.2178 115.521 57.7931C115.281 57.3084 114.988 56.802 114.545 56.4767C114.344 56.3224 114.104 56.2289 113.852 56.2071C113.497 56.2093 113.15 56.3096 112.848 56.4971C110.561 57.7075 108.427 59.1897 106.49 60.9118C104.551 62.6272 102.818 64.5648 101.326 66.6852C101.28 66.7505 101.172 66.6879 101.218 66.6212C101.401 66.3626 101.585 66.108 101.774 65.8548C104.119 62.7138 106.995 60.0126 110.27 57.8747C110.82 57.5154 111.381 57.1728 111.953 56.8469C112.241 56.6822 112.53 56.5202 112.825 56.3678C113.107 56.2012 113.423 56.1025 113.749 56.0792C114.871 56.0615 115.453 57.3411 115.851 58.2015C115.976 58.4724 116.102 58.7428 116.231 59.0128C116.716 60.0338 117.221 61.0466 117.744 62.0513C118.066 62.6707 118.395 63.2864 118.732 63.8986Z" fill="#3F3D56"/>
<path d="M106.379 60.2798C106.314 60.2067 106.249 60.1335 106.184 60.0604C105.667 59.4843 105.112 58.9148 104.401 58.5846C104.063 58.4221 103.693 58.3358 103.318 58.3316C102.931 58.3423 102.549 58.4261 102.193 58.5787C102.023 58.6469 101.858 58.7242 101.695 58.8066C101.508 58.901 101.325 59.0018 101.143 59.1034C100.801 59.294 100.463 59.493 100.13 59.7004C99.4668 60.113 98.8246 60.5572 98.2031 61.0328C97.881 61.2795 97.5655 61.5342 97.2566 61.797C96.9693 62.0412 96.6879 62.2919 96.4122 62.5491C96.3533 62.6039 96.2652 62.5153 96.3242 62.4605C96.3968 62.3924 96.4703 62.3246 96.5438 62.2577C96.7514 62.0688 96.9623 61.8834 97.1765 61.7017C97.5671 61.3698 97.9679 61.0506 98.3788 60.7443C99.0177 60.2677 99.6786 59.8234 100.361 59.4115C100.703 59.2058 101.049 59.0088 101.399 58.8204C101.505 58.7635 101.612 58.7079 101.721 58.6552C101.967 58.5303 102.222 58.4256 102.485 58.3421C102.856 58.2209 103.25 58.182 103.638 58.2279C104.013 58.2829 104.374 58.4087 104.703 58.5988C105.4 58.9913 105.941 59.5984 106.467 60.1908C106.521 60.251 106.433 60.34 106.379 60.2798Z" fill="#3F3D56"/>
<path d="M101.28 63.0518C101.103 63.0606 100.928 63.0101 100.782 62.9081C100.396 62.6136 100.406 61.9064 100.813 60.7458C100.924 60.4313 101.097 60.1431 101.323 59.8988C101.549 59.6546 101.822 59.4595 102.125 59.3256C102.409 59.1976 102.717 59.1306 103.028 59.1287C103.34 59.1268 103.648 59.1902 103.934 59.3148C103.984 59.3366 104.033 59.36 104.082 59.3851C104.412 59.5717 104.722 59.7932 105.007 60.046C105.248 60.2571 105.506 60.4487 105.777 60.6191L105.867 60.6725L105.782 60.7334C103.592 62.2859 102.107 63.0518 101.28 63.0518Z" fill="#3F3D56"/>
<path d="M109.695 53.8127C108.975 53.8126 108.277 53.5608 107.721 53.1004C107.164 52.64 106.784 51.9995 106.645 51.2881C106.042 51.4108 105.49 51.7105 105.057 52.1491C104.624 52.5878 104.329 53.1458 104.211 53.7528C104.092 54.3598 104.155 54.9885 104.391 55.5597C104.627 56.1308 105.026 56.6188 105.537 56.962C106.048 57.3052 106.648 57.4882 107.263 57.488C107.877 57.4878 108.477 57.3044 108.988 56.9608C109.499 56.6173 109.897 56.1291 110.133 55.5578C110.369 54.9865 110.431 54.3577 110.312 53.7508C110.109 53.792 109.902 53.8127 109.695 53.8127V53.8127Z" fill="#3F3D56"/>
<path opacity="0.74" d="M26.4717 58.8496C29.0342 58.8496 31.1114 56.7576 31.1114 54.1772C31.1114 51.5967 29.0342 49.5048 26.4717 49.5048C23.9093 49.5048 21.832 51.5967 21.832 54.1772C21.832 56.7576 23.9093 58.8496 26.4717 58.8496Z" fill="#3F3D56"/>
<path opacity="0.74" d="M31.1084 58.8496C33.6709 58.8496 35.7481 56.7576 35.7481 54.1772C35.7481 51.5967 33.6709 49.5048 31.1084 49.5048C28.546 49.5048 26.4688 51.5967 26.4688 54.1772C26.4688 56.7576 28.546 58.8496 31.1084 58.8496Z" fill="#DE1731"/>
<path opacity="0.74" d="M28.8311 55.1256C31.3935 55.1256 33.4708 53.0336 33.4708 50.4532C33.4708 47.8727 31.3935 45.7808 28.8311 45.7808C26.2687 45.7808 24.1914 47.8727 24.1914 50.4532C24.1914 53.0336 26.2687 55.1256 28.8311 55.1256Z" fill="#FF6584"/>
<path d="M40.9605 49.1142L29.043 52.8846L29.124 53.1444L41.0415 49.374L40.9605 49.1142Z" fill="#3F3D56"/>
<path d="M41.0368 49.7451C41.3354 49.7451 41.5775 49.5013 41.5775 49.2005C41.5775 48.8998 41.3354 48.656 41.0368 48.656C40.7382 48.656 40.4961 48.8998 40.4961 49.2005C40.4961 49.5013 40.7382 49.7451 41.0368 49.7451Z" fill="#3F3D56"/>
<path d="M118.408 73.7029C119.2 74.2651 119.961 74.8383 120.832 75.2712C120.815 75.3379 120.798 75.4059 120.782 75.4726C120.675 75.4223 120.571 75.3692 120.467 75.3147C119.584 74.8491 118.824 74.2161 117.995 73.6662C117.585 73.3802 117.136 73.1539 116.663 72.9937C116.169 72.8443 115.654 72.7835 115.139 72.814C112.994 72.9202 111.155 74.2093 109.162 74.8587C108.186 75.1772 107.147 75.3474 106.129 75.1473C105.112 74.9472 104.207 74.4026 103.308 73.9098C102.421 73.4225 101.455 72.9324 100.419 72.9324C99.576 72.9338 98.6892 73.2741 98.2377 74.0255C98.2237 74.048 98.2015 74.064 98.1759 74.0703C98.1503 74.0766 98.1233 74.0725 98.1006 74.0591C98.0779 74.0456 98.0614 74.0238 98.0544 73.9982C98.0474 73.9726 98.0506 73.9453 98.0633 73.9221C98.1643 73.7508 98.2885 73.5946 98.4324 73.4579C99.0217 72.8956 99.8882 72.6738 100.684 72.7391C101.715 72.8235 102.654 73.3136 103.545 73.8064C104.49 74.3291 105.458 74.8913 106.55 75.0057C107.629 75.12 108.697 74.8355 109.697 74.453C111.634 73.7111 113.545 72.475 115.7 72.6125C116.717 72.6778 117.587 73.1216 118.408 73.7029Z" fill="#3F3D56"/>
<path d="M33.6168 34.3322V34.6086C33.526 34.5905 33.4336 34.5814 33.341 34.5814H31.9271V37.6389C31.9268 38.0916 31.7481 38.5256 31.4303 38.8457C31.1124 39.1658 30.6814 39.3457 30.2319 39.346H28.142V39.817C28.142 40.0058 28.1793 40.1927 28.2515 40.367H27.9622C27.9018 40.19 27.8712 40.0041 27.8717 39.817V39.346H26.7227V39.0737H27.8717V36.0162C27.8719 35.5635 28.0506 35.1295 28.3685 34.8094C28.6863 34.4893 29.1173 34.3094 29.5668 34.3091H31.6567V33.8326H31.9271V34.3091H33.341C33.4334 34.3092 33.5257 34.3169 33.6168 34.3322Z" fill="#DE1731"/>
<path d="M30.2311 32.1309H26.4569C26.0074 32.1311 25.5763 32.3111 25.2585 32.6311C24.9407 32.9512 24.762 33.3853 24.7617 33.838V37.6388C24.762 38.0914 24.9407 38.5255 25.2585 38.8456C25.5763 39.1656 26.0074 39.3456 26.4569 39.3459H30.2311C30.6806 39.3456 31.1116 39.1656 31.4294 38.8456C31.7473 38.5255 31.926 38.0914 31.9262 37.6388V33.8325C31.9246 33.3808 31.7453 32.9481 31.4276 32.6291C31.1099 32.3102 30.6797 32.131 30.2311 32.1309V32.1309ZM31.6559 37.6388C31.6554 38.0191 31.5051 38.3838 31.238 38.6528C30.9709 38.9217 30.6088 39.0731 30.2311 39.0736H26.4569C26.0791 39.0731 25.717 38.9217 25.4499 38.6528C25.1829 38.3838 25.0326 38.0191 25.0321 37.6388V33.838C25.0326 33.4576 25.1829 33.0929 25.4499 32.8239C25.717 32.555 26.0791 32.4036 26.4569 32.4031H30.2311C30.6079 32.4036 30.9692 32.5541 31.2362 32.8219C31.5031 33.0898 31.654 33.453 31.6559 33.8325V37.6388Z" fill="#3F3D56"/>
<path d="M27.875 39.0736V39.3458H28.1454V39.0736H27.875ZM27.875 39.0736V39.3458H28.1454V39.0736H27.875ZM33.6201 34.3321C33.529 34.3168 33.4368 34.3091 33.3444 34.309H29.5702C29.1207 34.3092 28.6896 34.4892 28.3718 34.8092C28.0539 35.1293 27.8753 35.5634 27.875 36.016V39.8169C27.8745 40.004 27.9051 40.1899 27.9656 40.3668C28.0797 40.7042 28.2957 40.9972 28.5835 41.2047C28.8712 41.4122 29.2162 41.5238 29.5702 41.5239H33.3444C33.7939 41.5237 34.2249 41.3437 34.5427 41.0237C34.8606 40.7036 35.0392 40.2695 35.0395 39.8169V36.0161C35.0394 35.6115 34.8966 35.2202 34.6367 34.9118C34.3767 34.6033 34.0165 34.3979 33.6201 34.3321V34.3321ZM34.7691 39.8169C34.7686 40.1972 34.6184 40.5619 34.3513 40.8309C34.0842 41.0998 33.7221 41.2512 33.3444 41.2517H29.5702C29.1924 41.2511 28.8304 41.0998 28.5633 40.8308C28.2962 40.5619 28.1459 40.1972 28.1454 39.8169V36.0161C28.1459 35.6357 28.2961 35.271 28.5632 35.002C28.8303 34.7331 29.1924 34.5817 29.5702 34.5812H33.3444C33.7222 34.5814 34.0845 34.7326 34.3517 35.0016C34.6188 35.2707 34.769 35.6356 34.7691 36.0161V39.8169ZM27.875 39.0736V39.3458H28.1454V39.0736H27.875Z" fill="#3F3D56"/>
<path d="M25.2001 74.5618H9.16785C9.05625 74.5618 8.94922 74.6064 8.87018 74.6858C8.79113 74.7651 8.74652 74.8727 8.74609 74.9851V75.9421C9.27503 77.9823 9.9154 79.9915 10.6643 81.9605H25.2001C25.2553 81.9606 25.31 81.9497 25.361 81.9284C25.4121 81.9072 25.4584 81.876 25.4975 81.8367C25.5365 81.7973 25.5675 81.7506 25.5886 81.6992C25.6097 81.6479 25.6206 81.5928 25.6205 81.5372V74.9851C25.6204 74.8729 25.5761 74.7653 25.4972 74.6859C25.4184 74.6065 25.3116 74.5619 25.2001 74.5618V74.5618Z" fill="#DE1731"/>
<path d="M23.676 84.0856H11.5234C11.6681 84.4273 11.8154 84.7663 11.9682 85.1039H23.676C24.3357 85.1134 24.329 84.0761 23.676 84.0856Z" fill="#E4E4E4"/>
<path d="M23.6763 86.4189H12.5781C12.7403 86.7606 12.9071 87.1 13.0783 87.4371H23.6763C24.336 87.4467 24.3292 86.4107 23.6763 86.4189Z" fill="#E4E4E4"/>
<path d="M23.6732 88.7535H13.7578C13.9389 89.0952 14.1255 89.4341 14.3147 89.7718H23.6732C24.3329 89.7813 24.3261 88.744 23.6732 88.7535Z" fill="#E4E4E4"/>
<path d="M106.791 26.0015H106.714C106.953 26.0017 107.19 26.058 107.404 26.166H107.054C106.676 26.1664 106.314 26.3177 106.047 26.5867C105.78 26.8556 105.629 27.2203 105.629 27.6007V31.4017C105.629 31.782 105.78 32.1467 106.047 32.4157C106.314 32.6847 106.676 32.836 107.054 32.8364H107.277C107.098 32.9074 106.906 32.9439 106.714 32.9442H106.791C107.204 32.9437 107.601 32.778 107.893 32.4836C108.185 32.1891 108.35 31.7898 108.35 31.3733V27.5724C108.35 27.1559 108.185 26.7566 107.893 26.4621C107.601 26.1676 107.204 26.0019 106.791 26.0015V26.0015Z" fill="#3F3D56"/>
<path opacity="0.21" d="M106.791 26.0015H106.714C106.953 26.0017 107.19 26.058 107.404 26.166H107.054C106.676 26.1664 106.314 26.3177 106.047 26.5867C105.78 26.8556 105.629 27.2203 105.629 27.6007V31.4017C105.629 31.782 105.78 32.1467 106.047 32.4157C106.314 32.6847 106.676 32.836 107.054 32.8364H107.277C107.098 32.9074 106.906 32.9439 106.714 32.9442H106.791C107.204 32.9437 107.601 32.778 107.893 32.4836C108.185 32.1891 108.35 31.7898 108.35 31.3733V27.5724C108.35 27.1559 108.185 26.7566 107.893 26.4621C107.601 26.1676 107.204 26.0019 106.791 26.0015V26.0015Z" fill="black"/>
<path d="M96.7866 26.0015H96.7096C96.9494 26.0017 97.1858 26.058 97.4003 26.166H97.0497C96.672 26.1664 96.3099 26.3177 96.0428 26.5867C95.7757 26.8556 95.6254 27.2203 95.625 27.6007V31.4017C95.6254 31.782 95.7757 32.1467 96.0428 32.4157C96.3099 32.6847 96.672 32.836 97.0497 32.8364H97.2732C97.0936 32.9074 96.9025 32.9439 96.7096 32.9442H96.7866C97.2002 32.9437 97.5967 32.778 97.8891 32.4836C98.1816 32.1891 98.3461 31.7898 98.3465 31.3733V27.5724C98.3461 27.1559 98.1816 26.7566 97.8891 26.4621C97.5967 26.1676 97.2002 26.0019 96.7866 26.0015V26.0015Z" fill="#263238"/>
<path opacity="0.21" d="M95.0093 26.7087H94.9323C95.172 26.709 95.4085 26.7653 95.6229 26.8732H95.2724C94.8946 26.8737 94.5325 27.025 94.2654 27.2939C93.9983 27.5629 93.8481 27.9276 93.8477 28.308V32.1089C93.8481 32.4893 93.9983 32.854 94.2654 33.123C94.5325 33.392 94.8946 33.5433 95.2724 33.5437H95.4959C95.3163 33.6146 95.1251 33.6512 94.9323 33.6515H95.0093C95.4229 33.651 95.8193 33.4853 96.1118 33.1908C96.4042 32.8963 96.5687 32.497 96.5692 32.0806V28.2796C96.5687 27.8632 96.4042 27.4639 96.1118 27.1694C95.8193 26.8749 95.4228 26.7092 95.0093 26.7087Z" fill="black"/>
<path d="M97.0611 32.8484C96.6834 32.848 96.3212 32.6967 96.0541 32.4277C95.787 32.1587 95.6368 31.794 95.6364 31.4136V27.6127C95.6368 27.2323 95.787 26.8676 96.0541 26.5986C96.3212 26.3297 96.6834 26.1784 97.0611 26.1779H97.4116C97.1972 26.07 96.9607 26.0136 96.7209 26.0134H92.9466C92.5331 26.0139 92.1366 26.1796 91.8441 26.4741C91.5517 26.7686 91.3872 27.1678 91.3867 27.5843V31.3853C91.3872 31.8017 91.5517 32.201 91.8441 32.4955C92.1366 32.79 92.5331 32.9557 92.9466 32.9562H96.7209C96.9138 32.9559 97.105 32.9193 97.2846 32.8484L97.0611 32.8484Z" fill="#DE1731"/>
<path d="M107.065 32.8484C106.687 32.848 106.325 32.6967 106.058 32.4277C105.791 32.1587 105.641 31.794 105.64 31.4136V27.6127C105.641 27.2323 105.791 26.8676 106.058 26.5986C106.325 26.3297 106.687 26.1784 107.065 26.1779H107.416C107.201 26.07 106.965 26.0136 106.725 26.0134H102.951C102.537 26.0139 102.14 26.1796 101.848 26.4741C101.556 26.7686 101.391 27.1678 101.391 27.5843V31.3853C101.391 31.8017 101.556 32.201 101.848 32.4955C102.14 32.79 102.537 32.9557 102.951 32.9562H106.725C106.918 32.9559 107.109 32.9193 107.288 32.8484L107.065 32.8484Z" fill="#3F3D56"/>
<path d="M111.523 26.9592C112.908 28.8783 114.175 30.8809 115.317 32.9558H112.955C112.541 32.9552 112.145 32.7895 111.852 32.495C111.56 32.2006 111.395 31.8013 111.395 31.3849V27.5841C111.394 27.3691 111.438 27.1565 111.523 26.9592V26.9592Z" fill="#FF6584"/>
<path d="M106.789 34.9502L105.467 32.9559L104.5 31.4979C104.444 31.4128 104.365 31.3455 104.272 31.3038C104.179 31.2621 104.076 31.2478 103.976 31.2624C103.875 31.2771 103.781 31.3202 103.703 31.3867C103.626 31.4532 103.569 31.5404 103.539 31.6382L103.132 32.9559L102.313 35.6037C102.281 35.7092 102.281 35.8221 102.314 35.9274C102.347 36.0326 102.411 36.1253 102.498 36.1929C102.585 36.2605 102.69 36.2998 102.799 36.3057C102.909 36.3116 103.017 36.2837 103.111 36.2258L103.401 36.0447C103.46 36.0084 103.527 35.9877 103.595 35.9847C103.664 35.9816 103.732 35.9962 103.794 36.0272C103.855 36.0581 103.908 36.1044 103.946 36.1615C103.985 36.2187 104.009 36.2848 104.015 36.3538L104.281 39.2806C104.294 39.415 104.356 39.54 104.454 39.6311C104.553 39.7222 104.683 39.7729 104.817 39.7734C104.833 39.7734 104.849 39.772 104.867 39.7707L105.275 39.7339C105.345 39.7275 105.414 39.7071 105.476 39.674C105.539 39.6409 105.594 39.5956 105.64 39.5409C105.685 39.4861 105.719 39.4229 105.74 39.3549C105.761 39.2869 105.768 39.2154 105.762 39.1445L105.487 36.1223C105.481 36.0513 105.493 35.9799 105.522 35.9151C105.552 35.8504 105.598 35.7946 105.656 35.7535C105.714 35.7124 105.781 35.6873 105.852 35.6809C105.922 35.6744 105.993 35.6867 106.058 35.7167L106.117 35.7439C106.224 35.7933 106.343 35.8063 106.458 35.7809C106.572 35.7555 106.675 35.6931 106.751 35.6033C106.827 35.5134 106.872 35.401 106.879 35.2831C106.886 35.1652 106.854 35.0483 106.789 34.9502V34.9502Z" fill="#CCCCCC"/>
</svg>
