<svg width="557" height="401" viewBox="0 0 557 401" fill="none" xmlns="http://www.w3.org/2000/svg">
<g clip-path="url(#clip0_122_15060)">
<path d="M52.3359 400.349C56.2019 400.349 59.3359 397.215 59.3359 393.349C59.3359 389.483 56.2019 386.349 52.3359 386.349C48.4699 386.349 45.3359 389.483 45.3359 393.349C45.3359 397.215 48.4699 400.349 52.3359 400.349Z" fill="#3F3D56"/>
<path d="M36.5374 191.666C37.1238 189.683 38.1094 187.997 39.2741 186.799L43.667 167.557L52.762 169.916L47.3266 189.181C47.6525 190.819 47.5626 192.77 46.9762 194.753C45.6366 199.283 42.2139 202.264 39.3313 201.411C36.4487 200.559 35.1979 196.196 36.5374 191.666V191.666Z" fill="#FFB6B6"/>
<path d="M124.07 378.759L115.462 378.962L110.664 340.291L123.367 339.991L124.07 378.759Z" fill="#FFB6B6"/>
<path d="M94.5391 396.716C94.5391 398.171 95.571 399.349 96.8439 399.349H113.929C113.929 399.349 115.611 392.591 122.466 389.682L122.939 399.349H131.752L130.685 383.805C130.685 383.805 133.042 375.489 128.146 371.238C123.249 366.987 127.215 367.579 127.215 367.579L125.289 357.958L111.971 359.524L111.873 374.626L105.409 389.617L95.9292 394.3C95.0854 394.717 94.5392 395.666 94.5392 396.716L94.5391 396.716H94.5391Z" fill="#2F2E41"/>
<path d="M67.4641 368.65L58.8566 368.853L54.0586 330.183L66.7612 329.882L67.4641 368.65Z" fill="#FFB6B6"/>
<path d="M37.9336 386.608C37.9336 388.062 38.9655 389.241 40.2385 389.241H57.3237C57.3237 389.241 59.0051 382.483 65.8601 379.574L66.3332 389.241H75.1469L74.079 373.697C74.079 373.697 76.4368 365.381 71.5403 361.13C66.6438 356.879 70.6098 357.471 70.6098 357.471L68.6836 347.85L55.3651 349.416L55.2672 364.518L48.8039 379.509L39.3237 384.192C38.4799 384.608 37.9337 385.558 37.9337 386.608L37.9336 386.608H37.9336Z" fill="#2F2E41"/>
<path d="M121.404 70.4975L90.4058 75.8885C88.2702 70.4227 73.9327 33.3397 73.0472 27.9881C70.7451 14.0751 81.1184 1.24816 95.1815 0.19867H95.1815C108.67 -0.80791 116.887 1.71805 118.035 14.5657C118.437 19.0689 122.301 31.1323 123.482 35.4964C129.998 59.5734 122.962 65.3668 121.404 70.4975H121.404Z" fill="#2F2E41"/>
<path d="M70.8638 149.341L68.8422 180.339L49.6367 275.693L50.9845 342.407L68.5053 339.711L73.8963 278.388L104.319 209.316L108.264 352.515L127.133 353.189L140.393 185.021C141.406 172.171 138.039 159.358 130.839 148.667V148.667L70.8638 149.341V149.341Z" fill="#2F2E41"/>
<path d="M109.949 49.6073H85.2171L79.6245 58.3677L60.082 66.4542L70.8641 143.276L68.1686 176.296C83.4039 181.466 118.761 189.467 144.334 168.349L121.405 127.103L126.796 69.1497L116.351 59.6464L109.949 49.6073L109.949 49.6073Z" fill="#FF2E72"/>
<path d="M75.2448 64.0956C75.2448 64.0956 63.7889 59.3785 58.3979 68.1389C55.4642 72.9062 49.9362 105.612 45.5062 134.437C41.7957 158.581 38.8555 180.002 38.8555 180.002L50.6483 181.687L63.8226 134.527L73.8971 98.4633L75.2448 64.0956V64.0956Z" fill="#FF2E72"/>
<path d="M96.2678 45.251C106.588 45.251 114.954 36.8851 114.954 26.5653C114.954 16.2455 106.588 7.87956 96.2678 7.87956C85.9479 7.87956 77.582 16.2455 77.582 26.5653C77.582 36.8851 85.9479 45.251 96.2678 45.251Z" fill="#FFB6B6"/>
<path d="M397.598 376.965L406.889 382.063L430.973 348.653L417.261 341.13L397.598 376.965Z" fill="#FFB6B6"/>
<path d="M429.545 394.222C429.567 394.868 428.857 396.524 428.546 397.091C427.59 398.832 425.404 399.469 423.662 398.514L394.891 382.725C393.703 382.073 393.268 380.581 393.92 379.393L394.578 378.195C394.578 378.195 395.13 373.814 400.495 370.985C400.495 370.985 402.231 376.458 410.659 374.002L413.859 371.976L420.814 386.846L426.818 391.172C428.131 392.119 429.49 392.604 429.545 394.222L429.545 394.222V394.222Z" fill="#2F2E41"/>
<path d="M416.666 392.751L427.264 392.75L432.305 351.874L416.664 351.875L416.666 392.751Z" fill="#FFB6B6"/>
<path d="M452.974 392.51C453.304 393.066 453.478 394.86 453.478 395.506C453.478 397.492 451.868 399.103 449.882 399.103H417.063C415.708 399.103 414.609 398.004 414.609 396.649V395.283C414.609 395.283 412.986 391.176 416.328 386.114C416.328 386.114 420.482 390.078 426.69 383.87L428.521 380.554L441.771 390.245L449.116 391.149C450.723 391.347 452.148 391.118 452.974 392.51H452.974V392.51Z" fill="#2F2E41"/>
<path d="M424.425 169.862L420.031 200.523L414.317 367.982H434.395L456.097 213.664V294.725L410.273 344.396L424.802 354.504L486.015 297.061L497.204 186.709L488.443 170.536L424.425 169.862Z" fill="#2F2E41"/>
<path d="M471.26 48.2054L452.334 47.3494L446.326 56.9658L421.334 69.3494L424.762 143.222L418.023 176.916C418.023 176.916 481.161 199.827 497.334 186.349L492.824 138.505L496.334 70.3494L480.02 62.3568L471.26 48.2054Z" fill="#FF2E72"/>
<path d="M463.493 43.143C474.303 43.143 483.065 34.3805 483.065 23.5714C483.065 12.7623 474.303 3.99977 463.493 3.99977C452.684 3.99977 443.922 12.7623 443.922 23.5714C443.922 34.3805 452.684 43.143 463.493 43.143Z" fill="#FFB6B6"/>
<path d="M448.02 39.561C449.441 39.6999 449.522 42.4505 450.873 42.864C452.108 43.2422 454.264 41.6221 454.476 39.8612C454.645 38.458 453.457 37.986 451.773 35.0568C450.784 33.3348 452.391 33.7972 452.334 31.3494C452.317 30.6204 449.634 26.1887 451.023 24.2467C451.482 23.604 452.134 22.6931 453.275 22.2949C454.992 21.6957 455.914 22.9216 458.079 23.0456C460.149 23.1641 456.741 25.1241 459.14 23.5873C461.593 22.0163 462.523 17.935 462.509 16.1747C462.495 14.3636 462.092 17.7784 462.509 16.1747C462.72 15.3662 470.932 22.5933 471.334 22.3494C473.92 20.7784 475.22 17.833 478.009 19.5441C481.034 21.4006 482.405 20.6605 483.4 20.2179C484.217 19.8544 483.544 12.9114 483.303 11.7852C482.64 8.68716 479.214 7.23858 478.949 7.13083C477.176 6.4114 476.528 6.93683 475.495 6.07985C474.03 4.86275 474.863 3.40824 473.694 2.17622C472.406 0.81926 470.894 3.30426 465.334 3.34937C461.76 3.37836 461.616 1.31464 459.731 1.42552C458.167 1.51751 452.975 1.82283 448.32 5.47929C443.282 9.43744 441.948 14.9063 441.564 16.5896C440.666 20.5232 440.298 27.5355 443.666 31.3033C444.473 32.2067 445.709 33.1623 446.218 35.0568C446.793 37.1932 446.128 39.3489 446.969 39.7111C447.321 39.8629 447.498 39.5099 448.02 39.561H448.02Z" fill="#2F2E41"/>
<path d="M0 399.778C0 400.438 0.53003 400.968 1.19006 400.968H555.48C556.14 400.968 556.67 400.438 556.67 399.778C556.67 399.118 556.14 398.588 555.48 398.588H1.19006C0.53003 398.588 0 399.118 0 399.778Z" fill="#CCCCCC"/>
<path d="M421.316 187.349H135.356C124.866 187.349 116.336 195.879 116.336 206.369V380.329C116.336 390.819 124.866 399.349 135.356 399.349H421.316C431.806 399.349 440.336 390.819 440.336 380.329V206.369C440.336 195.879 431.806 187.349 421.316 187.349Z" fill="white"/>
<path d="M421.316 187.349H135.356C124.866 187.349 116.336 195.879 116.336 206.369V380.329C116.336 390.819 124.866 399.349 135.356 399.349H421.316C431.806 399.349 440.336 390.819 440.336 380.329V206.369C440.336 195.879 431.806 187.349 421.316 187.349ZM438.336 322.653C438.336 363.907 404.893 397.349 363.64 397.349H135.356C125.956 397.349 118.336 389.729 118.336 380.329V206.369C118.336 196.969 125.956 189.349 135.356 189.349H421.316C430.716 189.349 438.336 196.969 438.336 206.369V322.653Z" fill="#3F3D56"/>
<path d="M142.395 194.221C141.993 192.192 142.083 190.241 142.558 188.64L137.512 169.559L146.662 167.423L150.795 187.009C151.845 188.308 152.672 190.078 153.073 192.106C153.991 196.74 152.344 200.97 149.395 201.554C146.446 202.137 143.312 198.854 142.395 194.221V194.221Z" fill="#FFB6B6"/>
<path d="M114.332 64.7695C114.332 64.7695 125.788 60.0524 131.179 68.8128C136.57 77.5732 150.721 180.676 150.721 180.676L138.929 182.361L115.68 99.1372L114.332 64.7695V64.7695Z" fill="#FF2E72"/>
<path d="M396.743 197.26C397.019 195.195 397.736 193.362 398.706 191.988L396.504 147.285L413.24 145.05L407.043 193.102C407.617 194.683 407.828 196.639 407.551 198.704C406.919 203.423 403.988 206.925 401.003 206.526C398.019 206.127 396.111 201.979 396.743 197.26V197.26Z" fill="#FFB6B6"/>
<path d="M439.689 71.1289C439.689 71.1289 423.829 65.1389 418.554 70.5683C413.279 75.9977 395.77 136.521 395.77 136.521L397.41 181.597L409.904 179.441L439.689 71.1289V71.1289Z" fill="#FF2E72"/>
<path d="M245.366 358.036H217.306C215.896 358.036 214.746 359.186 214.746 360.596C214.746 362.016 215.896 363.166 217.306 363.166H245.366C246.776 363.166 247.926 362.016 247.926 360.596C247.926 359.186 246.776 358.036 245.366 358.036Z" fill="#E6E6E6"/>
<path d="M292.366 358.036H264.306C262.896 358.036 261.746 359.186 261.746 360.596C261.746 362.016 262.896 363.166 264.306 363.166H292.366C293.776 363.166 294.926 362.016 294.926 360.596C294.926 359.186 293.776 358.036 292.366 358.036Z" fill="#E6E6E6"/>
<path d="M339.366 358.036H311.306C309.896 358.036 308.746 359.186 308.746 360.596C308.746 362.016 309.896 363.166 311.306 363.166H339.366C340.776 363.166 341.926 362.016 341.926 360.596C341.926 359.186 340.776 358.036 339.366 358.036Z" fill="#E6E6E6"/>
<path d="M452.836 94.3494C452.836 89.1111 457.098 84.8494 462.336 84.8494C467.574 84.8494 471.836 89.1111 471.836 94.3494C471.836 99.5876 467.574 103.849 462.336 103.849C457.098 103.849 452.836 99.5876 452.836 94.3494ZM453.836 94.3494C453.836 99.0359 457.649 102.849 462.336 102.849C467.023 102.849 470.836 99.0359 470.836 94.3494C470.836 89.6628 467.023 85.8494 462.336 85.8494C457.649 85.8494 453.836 89.6628 453.836 94.3494Z" fill="#3F3D56"/>
<path d="M462.336 99.3494C465.097 99.3494 467.336 97.1108 467.336 94.3494C467.336 91.5879 465.097 89.3494 462.336 89.3494C459.575 89.3494 457.336 91.5879 457.336 94.3494C457.336 97.1108 459.575 99.3494 462.336 99.3494Z" fill="#3F3D56"/>
<path d="M473.645 102.078C474.953 103.678 475.792 105.442 476.126 107.079L510.037 135.771L500.228 149.467L469.624 112.393C468.087 111.74 466.525 110.568 465.216 108.967C462.227 105.309 461.69 100.802 464.018 98.8997C466.345 96.9973 470.655 98.4201 473.645 102.078H473.645Z" fill="#FFB6B6"/>
<path d="M487.097 70.7803C487.097 70.7803 496.532 66.0632 501.923 74.1497C507.314 82.2362 512.8 124.042 512.8 124.042C512.8 124.042 519.443 152.993 506.64 152.319C493.836 151.646 470.336 115.484 470.336 115.484L479.336 107.484L480.359 97.7354L487.097 70.7803L487.097 70.7803Z" fill="#FF2E72"/>
<path d="M93.9778 3.17262C86.3772 4.51005 79.0118 8.6252 75.0686 15.2592C71.1254 21.8931 63.9005 31.1363 69.1385 36.8038C70.949 38.7627 73.2555 40.2456 74.8841 42.3581C77.6554 45.9528 78.0556 51.0036 76.6737 55.3271C75.2917 59.6506 72.328 63.3167 68.9374 66.3343C76.1952 65.5856 82.8187 60.4294 85.3252 53.5771C86.485 50.4063 86.7211 46.6027 84.7364 43.8713C83.6926 42.4348 82.1553 41.4527 80.8295 40.2715C77.41 37.2249 79.6061 32.6229 79.6265 28.0432C79.6468 23.4635 80.2234 20.2773 83.6697 17.2612C86.0432 19.1581 93.9134 18.7001 96.9125 18.2135C99.9116 17.7268 108.299 29.2455 109.951 26.6954C113.185 30.8522 110.972 22.2865 110.365 27.5179C109.931 31.2604 107.473 34.4887 106.732 38.1828C106.088 41.3974 106.792 44.7426 107.925 47.8195C110.479 54.7601 115.269 60.8582 121.407 64.9846C117.863 59.9725 114.169 54.4952 114.285 48.3579C114.372 43.8058 122.07 34.4104 123.428 30.0648C126.027 21.7495 120.875 12.5348 115.342 5.80526C110.483 -0.104589 101.09 1.72159 93.642 3.47124" fill="#2F2E41"/>
<path opacity="0.7" d="M337.929 277.751C342.474 281.739 336.969 289.621 335.195 295.076C332.43 303.576 323.702 308.632 314.9 307.077C308.083 305.872 301.222 305.02 294.319 304.531C286.96 304.011 279.559 303.901 272.099 304.201C264.349 304.511 256.549 305.281 248.679 306.511L248.548 306.531C239.516 307.937 230.861 302.512 228.251 293.752C226.74 288.683 222.044 281.729 225.929 277.751C237.92 265.473 231.548 261.369 230.138 256.419C227.927 248.66 240.79 244.412 248.816 245.23C249.151 245.264 249.485 245.298 249.819 245.331C261.67 246.501 273.519 246.961 285.37 246.711C288.349 246.661 291.339 246.551 294.319 246.401C301.079 246.068 307.834 245.505 314.591 244.709C322.442 243.785 336.22 247.941 333.23 255.259C330.149 262.8 329.81 270.626 337.929 277.751Z" fill="#FF2E72"/>
<path opacity="0.7" d="M294.32 246.401V304.531C286.96 304.011 279.56 303.901 272.1 304.201C264.35 304.511 256.55 305.281 248.68 306.511C249.73 296.781 249.06 286.881 256.57 283.251C265.86 278.751 257.61 260.581 249.82 245.331C261.67 246.501 273.52 246.961 285.37 246.711C288.35 246.661 291.34 246.551 294.32 246.401V246.401Z" fill="#3F3D56"/>
<path opacity="0.7" d="M337.93 277.751C342.389 281.835 336.97 289.621 335.195 295.076C332.43 303.576 323.703 308.632 314.901 307.077C308.083 305.872 301.222 305.02 294.32 304.531C286.96 304.011 279.56 303.901 272.1 304.201C265.12 295.191 262.45 286.921 268.87 281.711C276.14 275.821 278.67 261.341 285.37 246.711C288.35 246.661 291.34 246.551 294.32 246.401C301.08 246.068 307.835 245.505 314.591 244.709C322.443 243.785 336.557 248.088 333.23 255.259C329.933 262.368 329.523 270.051 337.93 277.751V277.751Z" fill="#FF6884"/>
<path d="M269.608 293.485H241.548C240.138 293.485 238.988 294.635 238.988 296.045C238.988 297.465 240.138 298.615 241.548 298.615H269.608C271.018 298.615 272.168 297.465 272.168 296.045C272.168 294.635 271.018 293.485 269.608 293.485Z" fill="#3F3D56"/>
<path d="M319.608 275.485H291.548C290.138 275.485 288.988 276.635 288.988 278.045C288.988 279.465 290.138 280.615 291.548 280.615H319.608C321.018 280.615 322.168 279.465 322.168 278.045C322.168 276.635 321.018 275.485 319.608 275.485Z" fill="#3F3D56"/>
<path d="M280.608 258.485H252.548C251.138 258.485 249.988 259.635 249.988 261.045C249.988 262.465 251.138 263.615 252.548 263.615H280.608C282.018 263.615 283.168 262.465 283.168 261.045C283.168 259.635 282.018 258.485 280.608 258.485Z" fill="#3F3D56"/>
<path d="M241.724 289.311H137.715V290.311H241.724V289.311Z" fill="#3F3D56"/>
<path d="M158.723 299.164C153.484 299.164 149.223 294.903 149.223 289.664C149.223 284.426 153.484 280.164 158.723 280.164C163.961 280.164 168.223 284.426 168.223 289.664C168.223 294.903 163.961 299.164 158.723 299.164ZM158.723 281.164C154.036 281.164 150.223 284.978 150.223 289.664C150.223 294.351 154.036 298.164 158.723 298.164C163.41 298.164 167.223 294.351 167.223 289.664C167.223 284.978 163.41 281.164 158.723 281.164Z" fill="#3F3D56"/>
<path d="M158.723 294.664C161.484 294.664 163.723 292.426 163.723 289.664C163.723 286.903 161.484 284.664 158.723 284.664C155.961 284.664 153.723 286.903 153.723 289.664C153.723 292.426 155.961 294.664 158.723 294.664Z" fill="#FF2E72"/>
<path d="M410.954 284.311H306.945V285.311H410.954V284.311Z" fill="#3F3D56"/>
<path d="M380.445 284.664C380.445 279.426 384.707 275.164 389.945 275.164C395.184 275.164 399.445 279.426 399.445 284.664C399.445 289.903 395.184 294.164 389.945 294.164C384.707 294.164 380.445 289.903 380.445 284.664ZM381.445 284.664C381.445 289.351 385.258 293.164 389.945 293.164C394.632 293.164 398.445 289.351 398.445 284.664C398.445 279.978 394.632 276.164 389.945 276.164C385.258 276.164 381.445 279.978 381.445 284.664Z" fill="#3F3D56"/>
<path d="M389.945 289.664C392.707 289.664 394.945 287.426 394.945 284.664C394.945 281.903 392.707 279.664 389.945 279.664C387.184 279.664 384.945 281.903 384.945 284.664C384.945 287.426 387.184 289.664 389.945 289.664Z" fill="#FF6884"/>
<path d="M270.724 253.311H166.715V254.311H270.724V253.311Z" fill="#3F3D56"/>
<path d="M187.723 263.164C182.484 263.164 178.223 258.903 178.223 253.664C178.223 248.426 182.484 244.164 187.723 244.164C192.961 244.164 197.223 248.426 197.223 253.664C197.223 258.903 192.961 263.164 187.723 263.164ZM187.723 245.164C183.036 245.164 179.223 248.978 179.223 253.664C179.223 258.351 183.036 262.164 187.723 262.164C192.41 262.164 196.223 258.351 196.223 253.664C196.223 248.978 192.41 245.164 187.723 245.164Z" fill="#3F3D56"/>
<path d="M187.723 258.664C190.484 258.664 192.723 256.426 192.723 253.664C192.723 250.903 190.484 248.664 187.723 248.664C184.961 248.664 182.723 250.903 182.723 253.664C182.723 256.426 184.961 258.664 187.723 258.664Z" fill="#3F3D56"/>
</g>
<defs>
<clipPath id="clip0_122_15060">
<rect width="556.67" height="400.968" fill="white"/>
</clipPath>
</defs>
</svg>
