<svg width="1046" height="639" viewBox="0 0 1046 639" fill="none" xmlns="http://www.w3.org/2000/svg">
<g clip-path="url(#clip0_122_15019)">
<path d="M161.231 554.645C169.796 586.307 199.134 605.916 199.134 605.916C199.134 605.916 214.584 574.191 206.019 542.529C197.454 510.867 168.117 491.258 168.117 491.258C168.117 491.258 152.666 522.983 161.231 554.645Z" fill="#3F3D56"/>
<path d="M173.816 547.841C197.319 570.72 200.189 605.89 200.189 605.89C200.189 605.89 164.954 603.966 141.452 581.087C117.949 558.208 115.078 523.038 115.078 523.038C115.078 523.038 150.313 524.962 173.816 547.841Z" fill="#DE1731"/>
<path d="M941.077 636.029H113.473V638.584H941.077V636.029Z" fill="#2F2E41"/>
<path d="M210.734 637.306H177.527V604.1H210.734V637.306ZM180.082 634.752H208.179V606.654H180.082V634.752Z" fill="#3F3D56"/>
<path d="M281.42 25.3219H0V306.742H281.42V25.3219Z" fill="#3F3D56"/>
<path d="M281.421 95.3377V101.797C277.132 98.9552 273.67 95.031 271.385 90.4213C267.638 82.7586 267.757 73.9261 267.876 65.3818C268.011 55.227 268.147 45.6485 261.705 39.4098C254.618 32.5607 243.277 33.5271 232.308 34.4596C231.02 34.5613 229.731 34.6799 228.46 34.7816C217.458 35.6124 205.2 32.832 199.25 25.3219H206.675C212.117 28.9837 220.441 30.2721 228.087 29.6957C229.325 29.6109 230.596 29.4922 231.868 29.3905C243.413 28.4073 256.5 27.2884 265.231 35.7479C273.267 43.5124 273.114 54.6675 272.962 65.4496C272.843 73.4006 272.741 81.6058 275.962 88.1835C277.299 90.901 279.153 93.3312 281.421 95.3377Z" fill="#DE1731"/>
<path d="M281.419 140.009V147.57C280.185 145.956 278.799 144.463 277.283 143.111C268.535 135.398 255.973 133.702 243.835 132.041C242.258 131.837 240.715 131.617 239.173 131.397C219.49 128.566 207.284 121.801 201.876 110.765C198.129 103.102 198.248 94.2697 198.367 85.7254C198.502 75.5706 198.638 65.9921 192.196 59.7534C185.109 52.9043 173.768 53.8706 162.799 54.8031C161.511 54.9049 160.222 55.0234 158.951 55.1251C144.812 56.1931 128.588 51.2938 126.367 38.0536C125.604 33.5101 126.74 29.3397 128.419 25.3218H133.979C132.114 29.3567 130.724 33.2558 131.385 37.2059C133.064 47.3098 146.66 50.9378 158.578 50.0392C159.816 49.9545 161.087 49.8358 162.359 49.7341C173.904 48.7509 186.991 47.6319 195.722 56.0915C203.758 63.856 203.605 75.0111 203.453 85.7932C203.334 93.7442 203.232 101.949 206.453 108.527C211.064 117.953 221.999 123.785 239.902 126.362C241.427 126.582 242.97 126.802 244.513 127.006C257.397 128.752 270.739 130.566 280.656 139.297C280.911 139.517 281.165 139.755 281.419 140.009Z" fill="#DE1731"/>
<path d="M281.419 267.461V277.905C275.299 271.395 270.179 262.46 266.263 251.288C265.432 248.915 264.636 246.491 263.839 244.066C259.448 230.792 254.905 217.077 244.089 208.313C232.527 198.954 215.964 196.886 199.943 194.886C197.892 194.631 195.84 194.377 193.806 194.106C167.834 190.664 151.746 182.476 144.608 169.083C139.658 159.776 139.811 149.062 139.963 138.704C140.15 126.396 140.336 114.766 131.826 107.205C122.485 98.8978 107.515 100.068 93.0544 101.204C91.3421 101.339 89.6468 101.475 87.9854 101.593C69.3202 102.882 47.9085 96.9483 44.9926 80.8937C43.5516 73.0276 47.2304 66.0599 50.7736 59.3126C52.8079 55.4473 54.7405 51.7685 55.7238 47.988C57.7921 40.2066 55.2322 31.4419 49.5529 25.3219H57.8599C60.2571 28.8033 61.888 32.7539 62.6449 36.9126C63.4018 41.0712 63.2675 45.3431 62.2507 49.4459C61.081 53.8706 58.911 58.0072 56.8088 62.0082C53.5707 68.1452 50.5362 73.9431 51.6042 79.8766C53.842 92.1166 71.7614 96.5244 87.4767 95.4394C89.1212 95.3207 90.7996 95.1851 92.4779 95.0665C107.702 93.8628 124.96 92.5236 136.488 102.78C147.084 112.189 146.88 125.717 146.677 138.788C146.541 148.435 146.388 158.386 150.627 166.371C156.713 177.78 171.157 184.866 194.772 188.003C196.773 188.274 198.807 188.528 200.841 188.783C217.862 190.902 235.443 193.089 248.513 203.684C260.77 213.619 265.602 228.181 270.247 242.269C271.044 244.677 271.841 247.05 272.654 249.407C274.81 255.768 277.754 261.833 281.419 267.461V267.461Z" fill="#DE1731"/>
<path d="M0 138.958C7.73057 148.316 24.1241 151.774 38.8224 150.757C40.4838 150.638 42.1791 150.503 43.8913 150.367C58.3522 149.231 73.3217 148.062 82.6628 156.369C91.1732 163.93 90.9867 175.559 90.8003 187.867C90.6477 198.226 90.4951 208.94 95.4454 218.247C102.583 231.64 118.671 239.828 144.643 243.27C146.677 243.541 148.729 243.795 150.78 244.049C166.801 246.05 183.364 248.118 194.926 257.476C205.742 266.241 210.285 279.956 214.676 293.23C215.473 295.654 216.269 298.079 217.1 300.452C217.863 302.639 218.677 304.724 219.524 306.742H226.78C225.509 303.978 224.424 301.215 223.491 298.57C222.678 296.214 221.881 293.84 221.084 291.433C216.439 277.345 211.607 262.783 199.35 252.848C186.28 242.253 168.699 240.066 151.678 237.946C149.644 237.692 147.61 237.438 145.609 237.167C121.994 234.03 107.55 226.944 101.464 215.535C97.2255 207.55 97.378 197.598 97.5137 187.952C97.7171 174.881 97.9206 161.353 87.325 151.944C75.797 141.687 58.5388 143.027 43.3149 144.23C41.6366 144.349 39.9583 144.485 38.3138 144.603C22.5984 145.688 4.67907 141.28 2.44127 129.04C1.37327 123.107 4.40782 117.309 7.64584 111.172C9.74801 107.171 11.918 103.035 13.0878 98.6098C16.2749 86.5053 10.9008 73.0955 3.8147e-05 65.7718V74.0788C5.95054 80.2158 8.66304 89.1839 6.56085 97.1518C5.57758 100.932 3.64493 104.611 1.61057 108.476C1.06808 109.511 0.525568 110.528 3.8147e-05 111.579L0 138.958Z" fill="#DE1731"/>
<path d="M124.486 306.742H117.45C117.077 305.64 116.721 304.521 116.348 303.402C111.958 290.128 107.414 276.413 96.5981 267.648C85.0361 258.29 68.4731 256.222 52.4526 254.221C50.4012 253.967 48.35 253.713 46.3156 253.441C23.3951 250.407 8.15439 243.66 0 232.911V216.043C0.524076 219.411 1.58284 222.673 3.13626 225.706C9.22244 237.116 23.6664 244.202 47.2819 247.338C49.2824 247.61 51.3168 247.864 53.351 248.118C70.3719 250.237 87.9522 252.424 101.023 263.02C113.28 272.954 118.112 287.517 122.757 301.605C123.333 303.334 123.893 305.046 124.486 306.742Z" fill="#DE1731"/>
<path d="M662.861 25.3219H381.441V306.742H662.861V25.3219Z" fill="#3F3D56"/>
<path d="M517.065 45.6655C517.064 61.5205 512.868 77.0929 504.903 90.8018C496.937 104.511 485.487 115.868 471.713 123.721C457.939 131.574 442.333 135.642 426.478 135.513C410.624 135.385 395.086 131.063 381.441 122.988V25.3218H514.743C516.294 31.9916 517.074 38.8176 517.065 45.6655V45.6655Z" fill="#DE1731"/>
<path d="M589.964 155.86C619.926 155.86 644.214 131.572 644.214 101.61C644.214 71.6491 619.926 47.3608 589.964 47.3608C560.003 47.3608 535.715 71.6491 535.715 101.61C535.715 131.572 560.003 155.86 589.964 155.86Z" fill="#DE1731"/>
<path d="M467.902 255.883C489.437 255.883 506.894 238.425 506.894 216.891C506.894 195.356 489.437 177.899 467.902 177.899C446.367 177.899 428.91 195.356 428.91 216.891C428.91 238.425 446.367 255.883 467.902 255.883Z" fill="#DE1731"/>
<path d="M662.864 260.629V306.742H607.071C604.702 299.324 604.608 291.367 606.801 283.896C608.994 276.424 613.373 269.781 619.375 264.82C625.377 259.859 632.727 256.809 640.477 256.062C648.228 255.316 656.025 256.906 662.864 260.629H662.864Z" fill="#DE1731"/>
<path d="M566.23 225.367C571.848 225.367 576.402 220.813 576.402 215.195C576.402 209.578 571.848 205.024 566.23 205.024C560.613 205.024 556.059 209.578 556.059 215.195C556.059 220.813 560.613 225.367 566.23 225.367Z" fill="#DE1731"/>
<path d="M1046 25.3219H764.582V306.742H1046V25.3219Z" fill="#3F3D56"/>
<path d="M901.901 25.3218V140.602H764.582V147.383H908.683V25.3218H901.901Z" fill="#DE1731"/>
<path d="M1034.35 306.742L1046 290.179V278.396L1026.06 306.742H1034.35ZM987.052 185.392L924.648 274.141L971.015 306.742H982.797L934.091 272.497L988.697 194.835L1046 235.132V226.842L987.052 185.392Z" fill="#DE1731"/>
<path d="M883.25 174.152L847.293 210.11L883.25 246.067L919.208 210.11L883.25 174.152ZM856.871 210.11L883.25 183.731L909.629 210.11L883.25 236.488L856.871 210.11Z" fill="#DE1731"/>
<path d="M137.934 51.0867C152.041 51.0867 163.477 39.6506 163.477 25.5434C163.477 11.4361 152.041 0 137.934 0C123.827 0 112.391 11.4361 112.391 25.5434C112.391 39.6506 123.827 51.0867 137.934 51.0867Z" fill="#F2F2F2"/>
<path d="M532.578 51.0867C546.686 51.0867 558.122 39.6506 558.122 25.5434C558.122 11.4361 546.686 0 532.578 0C518.471 0 507.035 11.4361 507.035 25.5434C507.035 39.6506 518.471 51.0867 532.578 51.0867Z" fill="#F2F2F2"/>
<path d="M909.344 51.0867C923.451 51.0867 934.888 39.6506 934.888 25.5434C934.888 11.4361 923.451 0 909.344 0C895.237 0 883.801 11.4361 883.801 25.5434C883.801 39.6506 895.237 51.0867 909.344 51.0867Z" fill="#F2F2F2"/>
<path d="M506.395 174.333C519.797 174.333 530.661 163.469 530.661 150.067C530.661 136.665 519.797 125.801 506.395 125.801C492.993 125.801 482.129 136.665 482.129 150.067C482.129 163.469 492.993 174.333 506.395 174.333Z" fill="#FFB8B8"/>
<path d="M493.625 161.562C493.625 161.562 500.011 194.768 497.457 201.154C494.902 207.54 533.217 198.6 533.217 198.6C533.217 198.6 525.554 165.393 526.831 157.73C528.109 150.067 493.625 161.562 493.625 161.562Z" fill="#FFB8B8"/>
<path d="M451.48 276.507L454.034 310.99L466.711 365.146L470.637 379.957L477.023 356.968L470.637 304.604L468.468 281.029L451.48 276.507Z" fill="#FFB8B8"/>
<path d="M585.583 271.398V307.159C585.583 307.159 581.751 353.137 574.088 364.631C566.425 376.126 563.871 318.653 563.871 318.653L569.876 276.507L585.583 271.398Z" fill="#FFB8B8"/>
<path d="M471.914 382.512C471.914 382.512 465.528 390.175 470.637 468.082C475.746 545.989 468.083 602.184 484.686 602.184C484.686 602.184 479.577 618.788 493.626 620.065C507.675 621.342 514.061 622.619 515.338 618.788C516.615 614.956 519.17 597.076 515.338 597.076C515.338 597.076 515.338 602.184 517.892 581.75C520.447 561.315 520.447 464.25 526.833 451.479L547.267 498.734C547.267 498.734 547.267 520.446 551.099 530.663C554.93 540.88 561.316 599.63 561.316 599.63L560.039 608.57C560.039 608.57 590.691 613.679 591.968 608.57C593.245 603.461 593.245 595.798 591.968 593.244C590.691 590.69 590.691 590.69 593.245 585.581C595.8 580.472 595.8 576.641 594.522 572.809C593.245 568.978 593.245 485.962 593.245 485.962C593.245 485.962 590.691 385.066 575.365 379.957C560.039 374.849 471.914 382.512 471.914 382.512Z" fill="#2F2E41"/>
<path d="M488.517 609.847L478.299 627.728C478.299 627.728 462.335 621.98 465.528 636.668C492.987 638.584 512.144 636.029 512.144 636.029C512.144 636.029 518.53 638.584 519.807 634.752C521.084 630.921 516.614 617.51 512.783 617.51C508.951 617.51 488.517 609.847 488.517 609.847Z" fill="white"/>
<path d="M562.593 604.739C562.593 604.739 552.376 627.728 556.207 629.005C560.039 630.282 594.522 635.391 597.077 636.668C599.631 637.945 612.403 639.222 613.68 631.559C614.957 623.896 607.294 621.342 607.294 621.342C607.294 621.342 593.245 618.788 589.414 606.016C585.582 593.244 562.593 604.739 562.593 604.739Z" fill="white"/>
<path d="M535.77 194.768C535.77 194.768 501.286 188.382 493.623 194.768C485.96 201.154 454.031 213.926 454.031 220.311C454.031 226.697 470.634 289.278 470.634 289.278C470.634 289.278 461.694 383.789 470.634 386.343C479.575 388.897 494.901 381.234 512.781 390.175C530.661 399.115 581.748 382.512 581.748 382.512C581.748 382.512 562.59 300.773 567.699 285.447C572.808 270.121 576.639 217.757 576.639 217.757C576.639 217.757 554.927 194.768 535.77 194.768Z" fill="white"/>
<path d="M462.974 216.48L454.034 219.034C454.034 219.034 434.877 279.061 442.54 281.615C450.203 284.17 471.915 289.278 474.469 289.278C477.023 289.278 462.974 216.48 462.974 216.48Z" fill="white"/>
<path d="M556.207 210.094L576.642 217.757C576.642 217.757 603.462 267.567 597.076 273.952C590.691 280.338 562.593 286.724 562.593 286.724L556.207 210.094Z" fill="white"/>
<path d="M505.66 120.095C503.642 119.729 501.568 119.821 499.59 120.363C498.007 121.064 496.549 122.02 495.276 123.193C492.965 125.034 490.497 126.67 487.9 128.08C485.83 129.203 483.606 130.243 482.161 132.102C481.478 133.042 480.932 134.075 480.541 135.168C478.052 141.525 477.383 148.449 478.609 155.164C478.747 156.119 479.034 157.045 479.46 157.91C480.787 160.356 483.719 161.32 486.189 162.602C490.878 165.036 494.432 169.134 498.278 172.757C499.707 174.183 501.312 175.42 503.055 176.438C508.542 179.429 515.248 178.453 521.407 177.395C521.843 177.395 522.275 177.307 522.678 177.139C523.08 176.97 523.446 176.724 523.753 176.413C524.059 176.103 524.302 175.735 524.466 175.33C524.63 174.926 524.712 174.493 524.708 174.057L529.569 152.191C530.45 148.951 530.87 145.603 530.815 142.246C530.476 136.938 527.603 129.586 523.707 125.815C519.168 121.422 511.593 120.723 505.66 120.095Z" fill="#2F2E41"/>
<path d="M341.309 618.048C346.875 618.048 351.388 613.535 351.388 607.969C351.388 602.403 346.875 597.89 341.309 597.89C335.743 597.89 331.23 602.403 331.23 607.969C331.23 613.535 335.743 618.048 341.309 618.048Z" fill="#DE1731"/>
<path d="M341.311 637.085C335.553 637.085 329.923 635.377 325.135 632.178C320.347 628.979 316.615 624.431 314.412 619.111C312.208 613.791 311.631 607.937 312.755 602.289C313.878 596.641 316.651 591.453 320.723 587.381C324.795 583.309 329.983 580.536 335.631 579.412C341.279 578.289 347.133 578.866 352.454 581.069C357.774 583.273 362.321 587.005 365.52 591.793C368.72 596.581 370.427 602.21 370.427 607.969C370.419 615.688 367.348 623.089 361.89 628.548C356.431 634.006 349.031 637.076 341.311 637.085ZM341.311 581.093C335.996 581.093 330.799 582.669 326.38 585.622C321.96 588.575 318.515 592.773 316.481 597.684C314.447 602.595 313.914 607.999 314.951 613.212C315.988 618.426 318.548 623.215 322.307 626.973C326.066 630.732 330.855 633.292 336.068 634.329C341.282 635.366 346.685 634.834 351.596 632.799C356.507 630.765 360.705 627.32 363.658 622.901C366.611 618.481 368.188 613.285 368.188 607.969C368.179 600.843 365.345 594.012 360.307 588.974C355.268 583.935 348.437 581.101 341.311 581.093V581.093Z" fill="#2F2E41"/>
<path d="M831.743 619.325C837.309 619.325 841.821 614.812 841.821 609.246C841.821 603.68 837.309 599.167 831.743 599.167C826.176 599.167 821.664 603.68 821.664 609.246C821.664 614.812 826.176 619.325 831.743 619.325Z" fill="#DE1731"/>
<path d="M831.741 638.362C825.982 638.362 820.353 636.654 815.565 633.455C810.777 630.256 807.045 625.709 804.841 620.388C802.638 615.068 802.061 609.214 803.184 603.566C804.308 597.918 807.081 592.73 811.153 588.658C815.225 584.586 820.413 581.813 826.061 580.69C831.709 579.566 837.563 580.143 842.883 582.346C848.203 584.55 852.751 588.282 855.95 593.07C859.149 597.858 860.857 603.487 860.857 609.246C860.848 616.965 857.778 624.366 852.32 629.825C846.861 635.283 839.46 638.353 831.741 638.362V638.362ZM831.741 582.37C826.425 582.37 821.229 583.946 816.809 586.899C812.39 589.852 808.945 594.05 806.911 598.961C804.876 603.872 804.344 609.276 805.381 614.489C806.418 619.703 808.978 624.492 812.737 628.251C816.495 632.009 821.284 634.569 826.498 635.606C831.711 636.643 837.115 636.111 842.026 634.077C846.937 632.042 851.135 628.598 854.088 624.178C857.041 619.758 858.617 614.562 858.617 609.246C858.609 602.121 855.775 595.289 850.736 590.251C845.698 585.212 838.867 582.378 831.741 582.37V582.37Z" fill="#2F2E41"/>
<path d="M831.743 563.129C837.309 563.129 841.821 558.617 841.821 553.051C841.821 547.484 837.309 542.972 831.743 542.972C826.176 542.972 821.664 547.484 821.664 553.051C821.664 558.617 826.176 563.129 831.743 563.129Z" fill="#DE1731"/>
<path d="M831.741 582.167C825.982 582.167 820.353 580.459 815.565 577.26C810.777 574.06 807.045 569.513 804.841 564.193C802.638 558.873 802.061 553.018 803.184 547.37C804.308 541.722 807.081 536.535 811.153 532.463C815.225 528.391 820.413 525.618 826.061 524.494C831.709 523.371 837.563 523.947 842.883 526.151C848.203 528.355 852.751 532.087 855.95 536.875C859.149 541.663 860.857 547.292 860.857 553.051C860.848 560.77 857.778 568.171 852.32 573.629C846.861 579.088 839.46 582.158 831.741 582.167V582.167ZM831.741 526.174C826.425 526.174 821.229 527.751 816.809 530.704C812.39 533.657 808.945 537.855 806.911 542.766C804.876 547.677 804.344 553.081 805.381 558.294C806.418 563.508 808.978 568.296 812.737 572.055C816.495 575.814 821.284 578.374 826.498 579.411C831.711 580.448 837.115 579.915 842.026 577.881C846.937 575.847 851.135 572.402 854.088 567.982C857.041 563.563 858.617 558.366 858.617 553.051C858.609 545.925 855.775 539.094 850.736 534.055C845.698 529.017 838.867 526.183 831.741 526.174Z" fill="#2F2E41"/>
</g>
<defs>
<clipPath id="clip0_122_15019">
<rect width="1046" height="638.584" fill="white"/>
</clipPath>
</defs>
</svg>
