<svg width="446" height="446" viewBox="0 0 446 446" fill="none" xmlns="http://www.w3.org/2000/svg">
<path d="M309.609 102.096L80.0547 126.264L110.858 418.846L340.412 394.678L309.609 102.096Z" fill="#E0E0E0"/>
<path d="M318.365 108.355L91.1016 142.441L131.235 410.019L358.498 375.932L318.365 108.355Z" fill="#EBEBEB"/>
<path d="M407.754 132.515C407.754 132.515 398.726 126.565 387.791 148.071C376.855 169.577 372.671 181.967 372.671 181.967C372.671 181.967 369.772 186.427 366.677 183.528C363.582 180.629 359.336 172.218 354.073 173.716C348.614 175.277 346.812 181.37 347.829 190.325C348.846 199.281 350.434 218.976 350.567 220.76C350.701 222.544 349.675 225.086 347.267 223.436C344.859 221.786 330.845 206.194 323.852 213.276C316.859 220.359 323.852 244.817 324.575 247.511C325.297 250.205 324.762 251.347 323.477 251.971C322.193 252.596 317.992 246.958 313.835 242.695C309.678 238.431 304.103 234.212 300.41 238.627C296.717 243.042 295.54 261.409 313.005 291.255L322.014 304.573L338.07 303.681C372.395 299.675 386.346 287.678 387.648 282.058C388.95 276.439 382.233 274.548 376.319 273.79C370.405 273.031 363.341 273.103 363.1 271.685C362.859 270.266 363.466 269.151 366.044 268.117C368.621 267.082 392.367 257.921 393.803 248.073C395.239 238.226 374.384 236.477 371.583 235.505C368.782 234.533 370.245 232.222 371.717 231.268C373.189 230.314 389.887 219.672 397.665 215.123C405.443 210.574 409.216 205.462 407.183 200.164C405.211 195.053 395.979 196.703 391.76 196.007C387.541 195.311 389.396 190.281 389.396 190.281C389.396 190.281 396.809 179.487 407.379 157.776C417.949 136.065 407.513 132.417 407.513 132.417" fill="#E0E0E0"/>
<path d="M397.905 151.764C397.905 151.764 397.842 151.924 397.7 152.228L397.075 153.574L394.613 158.775C392.472 163.235 389.324 169.702 385.408 177.658C377.576 193.563 366.613 215.426 354.357 239.563C342.101 263.701 331.076 285.59 323.137 301.459L313.789 320.271L311.309 325.383L310.631 326.712C310.48 327.006 310.391 327.149 310.391 327.149C310.391 327.149 310.453 326.988 310.587 326.685L311.22 325.338L313.682 320.191C315.823 315.731 318.963 309.264 322.879 301.307C330.71 285.394 341.709 263.496 353.938 239.34C366.167 215.185 377.21 193.331 385.158 177.453C389.092 169.523 392.294 163.11 394.497 158.641C395.594 156.438 396.451 154.716 397.048 153.53L397.717 152.21C397.833 151.915 397.905 151.764 397.905 151.764Z" fill="#EBEBEB"/>
<path d="M359.531 185.705C359.711 186.05 359.849 186.416 359.942 186.793C360.173 187.498 360.477 188.577 360.834 189.817C361.565 192.386 362.475 195.954 363.411 199.906C364.348 203.857 365.142 207.345 365.775 210.048C366.07 211.261 366.31 212.287 366.507 213.116C366.621 213.485 366.698 213.865 366.739 214.249C366.558 213.903 366.417 213.538 366.319 213.161C366.087 212.456 365.784 211.421 365.427 210.137C364.723 207.559 363.857 203.982 362.921 200.022C361.984 196.061 361.137 192.6 360.486 189.906C360.191 188.693 359.942 187.667 359.736 186.847C359.634 186.473 359.565 186.091 359.531 185.705Z" fill="#EBEBEB"/>
<path d="M368.219 214.534C368.219 214.401 375.453 212.197 384.462 209.602C393.471 207.006 400.812 205.026 400.848 205.142C400.884 205.258 393.614 207.488 384.605 210.074C375.596 212.661 368.254 214.668 368.219 214.534Z" fill="#EBEBEB"/>
<path d="M347.766 250.767C348.158 250.704 348.556 250.686 348.952 250.713H352.172C354.893 250.713 358.648 250.713 362.787 250.553C366.926 250.392 370.681 250.133 373.384 249.919L376.595 249.669C376.989 249.621 377.387 249.621 377.781 249.669C377.403 249.779 377.014 249.854 376.622 249.892C375.864 250.008 374.775 250.151 373.42 250.303C370.744 250.615 366.961 250.936 362.805 251.088C358.648 251.239 354.893 251.204 352.163 251.088C350.807 251.034 349.71 250.981 348.943 250.918C348.546 250.91 348.152 250.859 347.766 250.767V250.767Z" fill="#EBEBEB"/>
<path d="M334.18 226.416C334.421 226.689 334.631 226.988 334.804 227.308C335.223 227.995 335.741 228.851 336.356 229.85C337.65 232.009 338.702 235.711 341.316 238.324C343.225 241.651 344.937 244.675 346.15 246.878C346.703 247.904 347.176 248.787 347.569 249.492C347.763 249.804 347.916 250.14 348.024 250.491C347.782 250.219 347.573 249.919 347.399 249.599C346.971 248.915 346.454 248.068 345.847 247.057C344.554 244.907 342.796 241.91 340.888 238.583C338.979 235.256 337.266 232.232 336.053 230.038L334.635 227.46C334.437 227.134 334.284 226.783 334.18 226.416V226.416Z" fill="#EBEBEB"/>
<path d="M312.062 256.109C312.364 256.469 312.63 256.858 312.856 257.269L314.854 260.516C316.531 263.272 318.806 267.099 321.304 271.336C323.801 275.573 326.022 279.426 327.619 282.218C328.368 283.565 329.002 284.68 329.483 285.554C329.728 285.951 329.937 286.369 330.108 286.803C329.808 286.445 329.542 286.06 329.314 285.652L327.316 282.397C325.639 279.649 323.364 275.823 320.875 271.586C318.387 267.349 316.148 263.495 314.551 260.694C313.802 259.356 313.178 258.232 312.687 257.367C312.443 256.967 312.234 256.546 312.062 256.109V256.109Z" fill="#EBEBEB"/>
<path d="M329.883 285.948C330.379 285.874 330.88 285.838 331.381 285.841L335.467 285.716C338.91 285.591 343.673 285.413 348.918 285.074C354.163 284.735 358.917 284.307 362.352 283.968L366.419 283.575C366.915 283.501 367.417 283.472 367.918 283.486C367.434 283.612 366.942 283.705 366.446 283.762C365.491 283.914 364.1 284.11 362.387 284.315C358.962 284.744 354.217 285.207 348.954 285.564C343.691 285.921 338.928 286.037 335.467 286.064C333.745 286.064 332.345 286.064 331.381 286.064C330.879 286.074 330.377 286.035 329.883 285.948V285.948Z" fill="#EBEBEB"/>
<path d="M63.263 279.268C64.8519 278.461 66.5875 277.983 68.3655 277.864C70.1436 277.744 71.9275 277.985 73.6102 278.572C76.9803 279.765 80.0319 281.715 82.5302 284.272C87.4718 289.053 90.5582 296.341 92.3422 303.004C84.8494 304.503 77.0979 300.203 73.3069 297.777C67.3037 293.941 58.7851 283.371 63.2719 279.286" fill="#FF725E"/>
<path d="M105.36 304.556C103.581 303.671 102.067 302.332 100.971 300.675C99.8743 299.018 99.2346 297.102 99.116 295.118C99.0287 293.129 99.3378 291.143 100.025 289.275C100.713 287.407 101.765 285.694 103.121 284.236C104.352 282.871 105.984 281.622 107.813 281.712C108.669 281.807 109.484 282.128 110.176 282.642C110.867 283.156 111.409 283.845 111.747 284.637C112.397 286.239 112.609 287.984 112.362 289.695C111.8 295.555 110.186 301.121 105.405 304.556" fill="#FF725E"/>
<path d="M117.458 323.19C117.098 322.884 116.769 322.543 116.476 322.173L113.89 319.309C111.767 316.865 108.662 313.449 106.664 308.811C104.895 304.882 104.199 300.554 104.648 296.269C104.793 294.983 105.092 293.719 105.54 292.505C105.663 292.174 105.803 291.849 105.96 291.533C106.058 291.318 106.12 291.202 106.138 291.211C105.578 292.868 105.186 294.578 104.97 296.314C104.635 300.536 105.378 304.775 107.128 308.632C109.073 313.181 112.097 316.607 114.157 319.104C115.201 320.353 116.057 321.361 116.619 322.075C116.933 322.419 117.214 322.792 117.458 323.19Z" fill="#263238"/>
<path d="M70.4688 286.742C70.6565 286.833 70.8357 286.94 71.0039 287.063L72.4579 288.053C73.7246 288.945 75.5353 290.203 77.7564 291.8C82.2164 295.002 88.2909 299.507 94.8917 304.636C101.493 309.765 107.38 314.546 111.581 318.06C113.677 319.844 115.363 321.254 116.523 322.262L117.843 323.43C118.146 323.707 118.298 323.849 118.28 323.867C118.103 323.764 117.935 323.645 117.78 323.51L116.398 322.413L111.358 318.337C107.041 314.876 101.171 310.157 94.5527 305.064C87.9341 299.971 81.9042 295.395 77.5156 292.121L72.3152 288.25L70.9058 287.179C70.7437 287.051 70.5971 286.904 70.4688 286.742Z" fill="#263238"/>
<path d="M102.583 314.992C98.875 313.017 94.7505 311.953 90.5501 311.888C86.3498 311.823 82.1943 312.758 78.4272 314.618C76.5272 315.581 74.5202 317.204 74.6897 319.327C74.8592 321.45 77.116 322.744 79.1497 323.35C83.4518 324.528 88.0064 324.405 92.2388 322.997C96.4711 321.589 100.192 318.959 102.93 315.438" fill="#FF725E"/>
<path d="M84.1328 317.837C84.4983 317.582 84.89 317.367 85.3013 317.195C85.7629 316.948 86.2396 316.731 86.7285 316.544C87.3627 316.269 88.0119 316.031 88.6731 315.83C89.4657 315.56 90.2728 315.333 91.0904 315.152C92.0294 314.933 92.9792 314.763 93.9359 314.644C96.1352 314.397 98.3552 314.397 100.555 314.644C102.752 314.917 104.91 315.444 106.986 316.214C107.9 316.554 108.793 316.947 109.662 317.391C110.414 317.769 111.147 318.186 111.856 318.64C112.525 319.024 113.051 319.478 113.551 319.826C113.975 320.131 114.381 320.462 114.764 320.816C115.112 321.083 115.435 321.382 115.727 321.708C115.647 321.798 114.265 320.486 111.669 318.908C110.962 318.477 110.232 318.084 109.483 317.73C108.631 317.307 107.755 316.932 106.861 316.606C104.815 315.875 102.694 315.372 100.537 315.108C98.3724 314.876 96.1894 314.876 94.0251 315.108C93.0811 315.214 92.1433 315.369 91.2153 315.571C90.3233 315.723 89.5383 315.973 88.8069 316.169C85.8633 317.043 84.1774 317.935 84.1328 317.837Z" fill="#263238"/>
<path d="M334.145 349.977C327.901 345.963 325.653 340.816 324.672 333.457C324.208 329.765 324.54 326.016 325.647 322.464C326.753 318.911 328.608 315.636 331.086 312.861C335.242 308.276 341.076 305.145 344.1 299.739C347.311 293.977 346.901 286.359 351.486 281.587C354.643 278.331 359.398 277.314 363.287 274.995C366.471 273.104 369.04 270.366 371.921 268.056C374.803 265.745 378.264 263.783 381.956 263.917C387.531 264.122 392.072 269.411 392.545 274.969C393.017 280.526 390.127 285.967 386.015 289.74C383.036 292.47 379.316 294.619 377.434 298.205C373.866 304.922 378.21 313.913 374.383 320.505C371.591 325.295 364.937 327.793 364.215 333.296C363.947 335.321 364.598 337.346 364.661 339.389C364.857 345.767 359.095 351.127 352.859 352.501C346.624 353.875 340.148 352.153 334.127 350.004" fill="#455A64"/>
<path d="M370.779 286.787C370.599 287.057 370.393 287.308 370.163 287.536L368.281 289.561C367.451 290.453 366.435 291.497 365.337 292.799C364.24 294.102 362.884 295.475 361.582 297.206C360.28 298.936 358.745 300.693 357.3 302.763C356.578 303.798 355.766 304.814 355.035 305.947L352.76 309.408C349.48 314.605 346.593 320.041 344.126 325.669C341.725 331.327 339.771 337.163 338.283 343.126C337.65 345.891 337.034 348.478 336.677 351.011C336.321 353.544 335.964 355.819 335.723 357.951C335.482 360.083 335.402 362.018 335.259 363.722C335.116 365.426 335.107 366.889 335.09 368.093C335.072 369.297 335.045 370.145 335.027 370.858C335.035 371.181 335.008 371.504 334.947 371.821C334.887 371.504 334.863 371.181 334.876 370.858C334.876 370.145 334.831 369.226 334.795 368.084C334.76 366.942 334.733 365.408 334.795 363.704C334.858 362.001 334.884 360.038 335.143 357.897C335.402 355.757 335.562 353.437 336.035 350.904C336.508 348.371 336.927 345.748 337.578 342.965C339.048 336.951 341.002 331.065 343.421 325.366C345.907 319.699 348.833 314.235 352.171 309.025L354.482 305.564C355.231 304.44 356.052 303.414 356.792 302.388C358.273 300.328 359.798 298.526 361.172 296.867C362.545 295.208 363.848 293.789 365.016 292.514C366.185 291.238 367.202 290.195 368.067 289.356C368.932 288.518 369.539 287.92 370.056 287.429C370.275 287.191 370.517 286.976 370.779 286.787V286.787Z" fill="#263238"/>
<path d="M339.712 124.121H109.906V394.691H339.712V124.121Z" fill="#FAFAFA"/>
<path d="M339.721 394.692C339.721 392.908 339.632 285.342 339.507 124.122L339.721 124.327H109.933L110.165 124.095C110.165 223.999 110.165 317.044 110.165 394.666L109.969 394.469L339.783 394.666L109.969 394.862H109.719V394.666C109.719 317.062 109.719 223.99 109.719 124.095V123.863H109.977H339.766H339.971V124.077C339.801 285.342 339.721 392.899 339.721 394.692Z" fill="#263238"/>
<path d="M237.784 168.339H233.324L232.361 170.489H231.469L235.144 162.461H235.982L239.657 170.489H238.765L237.784 168.339ZM237.481 167.652L235.545 163.335L233.618 167.697L237.481 167.652Z" fill="black"/>
<path d="M246.267 161.961V170.488H245.482V169.293C245.24 169.689 244.897 170.014 244.487 170.233C244.078 170.453 243.618 170.559 243.154 170.542C242.368 170.5 241.627 170.157 241.086 169.586C240.544 169.014 240.242 168.257 240.242 167.469C240.242 166.682 240.544 165.924 241.086 165.352C241.627 164.781 242.368 164.438 243.154 164.396C243.606 164.385 244.053 164.49 244.454 164.699C244.855 164.908 245.196 165.215 245.446 165.591V161.961H246.267ZM245.455 167.465C245.434 167.025 245.285 166.601 245.025 166.245C244.765 165.89 244.407 165.618 243.994 165.465C243.581 165.311 243.133 165.282 242.704 165.382C242.275 165.481 241.884 165.704 241.581 166.023C241.278 166.342 241.075 166.743 240.997 167.176C240.92 167.61 240.971 168.057 241.146 168.461C241.32 168.865 241.609 169.21 241.977 169.451C242.345 169.693 242.776 169.821 243.216 169.819C243.522 169.824 243.824 169.765 244.106 169.647C244.387 169.528 244.641 169.353 244.851 169.132C245.061 168.911 245.224 168.648 245.328 168.361C245.432 168.074 245.475 167.769 245.455 167.465V167.465Z" fill="black"/>
<path d="M254.056 161.961V170.488H253.271V169.293C253.029 169.689 252.686 170.014 252.276 170.233C251.867 170.453 251.407 170.559 250.943 170.542C250.157 170.5 249.416 170.157 248.875 169.586C248.333 169.014 248.031 168.257 248.031 167.469C248.031 166.682 248.333 165.924 248.875 165.352C249.416 164.781 250.157 164.438 250.943 164.396C251.395 164.385 251.842 164.49 252.243 164.699C252.644 164.908 252.985 165.215 253.235 165.591V161.961H254.056ZM253.244 167.465C253.223 167.025 253.074 166.601 252.814 166.245C252.554 165.89 252.196 165.618 251.783 165.465C251.37 165.311 250.922 165.282 250.493 165.382C250.064 165.481 249.673 165.704 249.37 166.023C249.067 166.342 248.864 166.743 248.786 167.176C248.709 167.61 248.76 168.057 248.935 168.461C249.109 168.865 249.398 169.21 249.766 169.451C250.134 169.693 250.565 169.821 251.005 169.819C251.311 169.824 251.613 169.765 251.895 169.647C252.176 169.528 252.43 169.353 252.64 169.132C252.85 168.911 253.013 168.648 253.117 168.361C253.221 168.074 253.264 167.769 253.244 167.465V167.465Z" fill="black"/>
<path d="M264.772 164.439V170.487H264.031V169.381C263.81 169.753 263.491 170.058 263.109 170.262C262.727 170.467 262.296 170.563 261.864 170.541C261.516 170.575 261.166 170.531 260.837 170.412C260.509 170.293 260.212 170.102 259.967 169.853C259.722 169.604 259.537 169.304 259.423 168.973C259.31 168.643 259.272 168.292 259.313 167.945V164.439H260.133V167.865C260.133 169.149 260.793 169.809 261.917 169.809C262.203 169.824 262.489 169.776 262.755 169.669C263.021 169.563 263.26 169.399 263.456 169.19C263.653 168.981 263.801 168.732 263.891 168.46C263.981 168.188 264.01 167.9 263.978 167.615V164.439H264.772Z" fill="black"/>
<path d="M266.219 169.801L266.584 169.15C267.211 169.598 267.964 169.835 268.734 169.827C269.885 169.827 270.358 169.444 270.358 168.846C270.358 167.267 266.433 168.507 266.433 166.17C266.433 165.18 267.325 164.44 268.823 164.44C269.575 164.431 270.314 164.625 270.964 165.002L270.607 165.662C270.079 165.312 269.457 165.131 268.823 165.144C267.735 165.144 267.253 165.573 267.253 166.143C267.253 167.776 271.169 166.545 271.169 168.819C271.169 169.863 270.277 170.541 268.681 170.541C267.802 170.566 266.938 170.307 266.219 169.801Z" fill="black"/>
<path d="M277.944 167.696H272.886C272.903 167.991 272.979 168.279 273.108 168.545C273.237 168.81 273.418 169.047 273.639 169.242C273.861 169.437 274.119 169.586 274.399 169.68C274.678 169.775 274.974 169.813 275.268 169.792C275.615 169.804 275.961 169.739 276.28 169.602C276.599 169.464 276.884 169.258 277.115 168.999L277.569 169.534C277.278 169.859 276.918 170.116 276.516 170.286C276.113 170.456 275.678 170.534 275.241 170.515C274.827 170.54 274.411 170.478 274.022 170.334C273.632 170.189 273.277 169.965 272.979 169.675C272.681 169.386 272.447 169.037 272.291 168.652C272.135 168.266 272.062 167.853 272.075 167.438C272.053 167.038 272.112 166.638 272.25 166.262C272.388 165.887 272.601 165.543 272.876 165.252C273.151 164.962 273.483 164.73 273.85 164.572C274.218 164.414 274.614 164.332 275.014 164.332C275.414 164.332 275.81 164.414 276.178 164.572C276.545 164.73 276.877 164.962 277.152 165.252C277.427 165.543 277.64 165.887 277.778 166.262C277.915 166.638 277.975 167.038 277.953 167.438C277.953 167.536 277.944 167.625 277.944 167.696ZM272.886 167.081H277.168C277.119 166.547 276.873 166.05 276.477 165.689C276.08 165.327 275.564 165.127 275.027 165.127C274.491 165.127 273.974 165.327 273.578 165.689C273.182 166.05 272.935 166.547 272.886 167.081V167.081Z" fill="black"/>
<path d="M282.66 164.396V165.19H282.464C282.176 165.175 281.888 165.224 281.621 165.334C281.354 165.443 281.115 165.611 280.92 165.824C280.726 166.037 280.581 166.291 280.496 166.567C280.411 166.843 280.389 167.134 280.43 167.42V170.497H279.609V164.449H280.394V165.636C280.604 165.225 280.932 164.887 281.336 164.666C281.74 164.445 282.202 164.351 282.66 164.396Z" fill="black"/>
<path d="M221.068 249.127C221.068 249.127 221.068 248.949 221.068 248.628C221.068 248.307 221.068 247.807 221.068 247.183C221.068 245.898 221.068 244.025 221.068 241.599C221.068 236.738 221.015 229.673 220.979 220.789L221.131 220.931L130.958 221.02L131.19 220.789C131.19 230.601 131.19 240.145 131.19 249.127L130.967 248.904L195.414 249.003L214.289 249.065H219.365H220.685H221.14H220.711H219.347H214.325L195.504 249.136L130.896 249.234H130.664V220.557H130.896L221.068 220.637H221.22V220.789C221.22 229.709 221.157 236.845 221.14 241.688C221.14 244.097 221.14 245.961 221.14 247.236C221.14 247.852 221.14 248.325 221.14 248.655C221.14 248.985 221.068 249.127 221.068 249.127Z" fill="#263238"/>
<path d="M320.883 287.51C320.883 287.51 320.883 286.877 320.883 285.646C320.883 284.415 320.883 282.595 320.883 280.196C320.883 275.406 320.883 268.332 320.821 259.171L320.937 259.287L130.941 259.403L131.173 259.171V287.51L130.941 287.287L266.114 287.385L306.254 287.448H317.11H319.929H320.901C320.901 287.448 320.589 287.448 319.964 287.448H317.172H306.37L266.23 287.519L130.896 287.617H130.664V258.939H130.905L320.901 259.055H321.017V259.171C321.017 268.368 320.963 275.459 320.945 280.267C320.945 282.646 320.945 284.454 320.945 285.691C320.901 286.904 320.883 287.51 320.883 287.51Z" fill="#263238"/>
<path d="M320.883 325.635C320.883 325.635 320.883 324.992 320.883 323.77C320.883 322.548 320.883 320.711 320.883 318.32C320.883 313.521 320.883 306.457 320.821 297.296L320.937 297.403L130.941 297.528L131.173 297.296V325.635L130.941 325.403L266.114 325.501L306.254 325.572H317.11H319.929H320.901H319.964H317.172H306.37L266.23 325.635L130.896 325.742H130.664V297.037H130.905L320.901 297.162H321.017V297.278C321.017 306.466 320.963 313.557 320.945 318.365C320.945 320.743 320.945 322.551 320.945 323.788C320.901 325.028 320.883 325.635 320.883 325.635Z" fill="#263238"/>
<path d="M320.881 249.126C320.881 249.126 320.881 248.948 320.881 248.627C320.881 248.306 320.881 247.806 320.881 247.182C320.881 245.897 320.881 244.024 320.881 241.598C320.881 236.736 320.881 229.672 320.8 220.787L320.952 220.93L230.78 221.019L231.012 220.787V249.126L230.78 248.903L295.236 249.001L314.11 249.064H319.186H320.506H320.961H320.533H319.159H314.137L295.316 249.135L230.7 249.233H230.477V249.01C230.477 240.028 230.477 230.492 230.477 220.671V220.439H230.717L320.89 220.52H321.041V220.671C321.041 229.591 320.979 236.727 320.952 241.571C320.952 243.979 320.952 245.844 320.952 247.119C320.952 247.735 320.952 248.207 320.952 248.537C320.952 248.867 320.881 249.126 320.881 249.126Z" fill="#263238"/>
<path d="M149.777 239.055C149.549 239.085 149.32 239.1 149.09 239.1L147.056 239.162C145.272 239.216 142.721 239.287 139.653 239.323H139.367L139.456 239.055C139.716 238.148 140.208 237.323 140.884 236.665C141.646 235.979 142.597 235.537 143.613 235.398L143.56 235.835C142.988 235.585 142.496 235.184 142.136 234.674C141.776 234.165 141.562 233.567 141.517 232.945C141.455 232.246 141.605 231.545 141.947 230.933C142.289 230.32 142.807 229.825 143.435 229.511C144.033 229.237 144.705 229.164 145.348 229.304C145.991 229.444 146.572 229.789 147.003 230.287C147.385 230.726 147.655 231.253 147.787 231.82C147.919 232.388 147.91 232.979 147.761 233.543C147.639 234.032 147.405 234.487 147.079 234.873C146.752 235.258 146.342 235.563 145.879 235.764V235.452C146.674 235.569 147.429 235.874 148.082 236.344C148.561 236.703 148.967 237.151 149.277 237.664C149.557 238.089 149.743 238.57 149.821 239.073C149.821 239.073 149.75 238.939 149.652 238.725C149.502 238.391 149.326 238.069 149.126 237.762C148.754 237.21 148.266 236.747 147.696 236.405C147.125 236.062 146.487 235.85 145.825 235.782L145.228 235.71L145.79 235.469C146.197 235.279 146.555 234.999 146.838 234.65C147.121 234.3 147.321 233.891 147.422 233.453C147.548 232.954 147.551 232.432 147.43 231.931C147.308 231.431 147.067 230.967 146.726 230.581C146.349 230.165 145.851 229.879 145.301 229.762C144.752 229.645 144.18 229.704 143.667 229.93C143.127 230.206 142.682 230.637 142.389 231.168C142.096 231.699 141.97 232.306 142.025 232.909C142.064 233.452 142.251 233.973 142.565 234.417C142.88 234.86 143.31 235.209 143.809 235.425L144.568 235.728L143.756 235.862C142.826 235.984 141.955 236.385 141.258 237.013C140.628 237.612 140.164 238.365 139.911 239.198L139.715 238.939C142.685 238.939 145.183 238.939 146.976 239.002H149.063C149.302 239.004 149.54 239.022 149.777 239.055Z" fill="#FF725E"/>
<path d="M255.487 239.055C255.262 239.086 255.035 239.101 254.809 239.1L252.766 239.162C250.982 239.216 248.44 239.287 245.362 239.323H245.086L245.166 239.055C245.425 238.148 245.917 237.324 246.593 236.665C247.354 235.972 248.305 235.525 249.323 235.38L249.269 235.817C248.699 235.567 248.208 235.165 247.85 234.656C247.491 234.146 247.279 233.549 247.236 232.927C247.169 232.229 247.316 231.527 247.657 230.914C247.998 230.301 248.517 229.806 249.145 229.493C249.743 229.22 250.414 229.149 251.057 229.288C251.7 229.428 252.281 229.772 252.713 230.269C253.094 230.71 253.361 231.237 253.492 231.804C253.622 232.372 253.612 232.962 253.462 233.525C253.339 234.015 253.106 234.47 252.78 234.855C252.453 235.24 252.043 235.545 251.58 235.746V235.434C252.375 235.551 253.13 235.857 253.783 236.326C254.264 236.683 254.67 237.132 254.978 237.646C255.258 238.072 255.444 238.552 255.522 239.055C255.522 239.055 255.451 238.922 255.353 238.708C255.21 238.37 255.034 238.047 254.827 237.744C254.457 237.193 253.97 236.729 253.402 236.387C252.833 236.045 252.195 235.832 251.535 235.764L250.937 235.693L251.49 235.452C251.898 235.261 252.257 234.98 252.541 234.631C252.825 234.282 253.027 233.874 253.132 233.436C253.256 232.936 253.257 232.413 253.134 231.913C253.011 231.412 252.769 230.949 252.427 230.564C252.056 230.142 251.559 229.85 251.01 229.733C250.46 229.616 249.887 229.679 249.376 229.912C248.834 230.186 248.386 230.616 248.092 231.148C247.798 231.679 247.67 232.287 247.726 232.892C247.765 233.434 247.952 233.956 248.266 234.399C248.581 234.843 249.011 235.191 249.51 235.407L250.268 235.71L249.457 235.844C248.527 235.966 247.656 236.367 246.959 236.995C246.332 237.595 245.871 238.348 245.621 239.18L245.425 238.922C248.395 238.922 250.893 238.922 252.677 238.984H254.773C255.012 238.991 255.251 239.015 255.487 239.055V239.055Z" fill="#FF725E"/>
<path d="M160.35 232.813V235.203H163.49V235.756H160.35V238.334H159.672V232.26H163.838V232.813H160.35Z" fill="#263238"/>
<path d="M164.836 232.322C164.838 232.205 164.886 232.094 164.97 232.013C165.053 231.931 165.165 231.885 165.282 231.885C165.34 231.883 165.398 231.892 165.453 231.912C165.507 231.933 165.557 231.964 165.599 232.004C165.642 232.043 165.676 232.091 165.699 232.145C165.723 232.198 165.736 232.255 165.737 232.313C165.75 232.379 165.749 232.447 165.732 232.513C165.716 232.578 165.685 232.639 165.643 232.691C165.6 232.743 165.546 232.785 165.486 232.814C165.425 232.843 165.358 232.858 165.291 232.858C165.224 232.858 165.157 232.843 165.096 232.814C165.035 232.785 164.982 232.743 164.939 232.691C164.896 232.639 164.866 232.578 164.849 232.513C164.833 232.447 164.832 232.379 164.845 232.313L164.836 232.322ZM164.97 233.758H165.585V238.325H164.97V233.758Z" fill="#263238"/>
<path d="M169.602 233.704V234.31H169.486C169.269 234.299 169.052 234.336 168.851 234.418C168.65 234.5 168.469 234.626 168.323 234.786C168.176 234.947 168.067 235.138 168.002 235.345C167.938 235.553 167.921 235.772 167.951 235.987V238.315H167.336V233.748H167.925V234.64C168.079 234.334 168.321 234.082 168.619 233.915C168.918 233.748 169.261 233.674 169.602 233.704V233.704Z" fill="#263238"/>
<path d="M170.109 237.799L170.386 237.318C170.86 237.653 171.428 237.831 172.009 237.826C172.901 237.826 173.231 237.532 173.231 237.086C173.231 235.89 170.279 236.827 170.279 235.025C170.279 234.285 170.921 233.723 172.063 233.723C172.63 233.716 173.188 233.864 173.677 234.151L173.41 234.651C173.013 234.383 172.542 234.246 172.063 234.258C171.242 234.258 170.876 234.579 170.876 235.007C170.876 236.238 173.829 235.311 173.829 237.068C173.829 237.853 173.142 238.361 171.947 238.361C171.29 238.376 170.646 238.179 170.109 237.799Z" fill="#263238"/>
<path d="M177.387 238.04C177.114 238.258 176.772 238.372 176.423 238.361C176.244 238.382 176.062 238.362 175.892 238.304C175.721 238.245 175.566 238.149 175.437 238.022C175.309 237.895 175.21 237.741 175.149 237.571C175.089 237.401 175.067 237.22 175.085 237.041V234.284H174.273V233.758H175.085V232.812H175.727V233.803H177.11V234.329H175.727V237.049C175.712 237.158 175.722 237.269 175.755 237.373C175.789 237.478 175.845 237.573 175.921 237.653C175.996 237.732 176.088 237.794 176.191 237.833C176.293 237.873 176.403 237.888 176.512 237.879C176.759 237.886 177 237.803 177.19 237.647L177.387 238.04Z" fill="#263238"/>
<path d="M184.958 235.676V238.352H184.343V235.766C184.372 235.576 184.357 235.382 184.3 235.198C184.244 235.015 184.146 234.846 184.014 234.706C183.883 234.566 183.721 234.458 183.541 234.39C183.362 234.321 183.169 234.294 182.978 234.312C182.76 234.295 182.541 234.326 182.337 234.403C182.132 234.48 181.947 234.601 181.795 234.758C181.642 234.915 181.526 235.103 181.455 235.309C181.383 235.516 181.358 235.736 181.381 235.953V238.352H180.766V233.785H181.354V234.597C181.537 234.305 181.795 234.069 182.101 233.911C182.407 233.754 182.75 233.683 183.094 233.705C183.351 233.692 183.609 233.735 183.848 233.831C184.087 233.927 184.303 234.074 184.48 234.261C184.658 234.448 184.792 234.672 184.874 234.916C184.957 235.161 184.985 235.42 184.958 235.676Z" fill="#263238"/>
<path d="M190.068 235.488V238.315H189.479V237.602C189.308 237.855 189.072 238.059 188.796 238.19C188.52 238.322 188.214 238.378 187.909 238.351C186.883 238.351 186.25 237.816 186.25 237.031C186.25 236.246 186.696 235.737 188.034 235.737H189.479V235.488C189.479 234.703 189.042 234.283 188.195 234.283C187.641 234.274 187.103 234.464 186.678 234.819L186.393 234.364C186.906 233.942 187.548 233.709 188.212 233.704C188.458 233.667 188.71 233.687 188.947 233.762C189.184 233.837 189.4 233.966 189.579 234.139C189.759 234.311 189.896 234.522 189.981 234.756C190.065 234.99 190.095 235.24 190.068 235.488V235.488ZM189.452 236.942V236.192H188.025C187.133 236.192 186.857 236.54 186.857 237.013C186.857 237.486 187.276 237.905 188.007 237.905C188.319 237.922 188.627 237.838 188.887 237.666C189.148 237.495 189.346 237.244 189.452 236.951V236.942Z" fill="#263238"/>
<path d="M199.265 235.676V238.352H198.65V235.765C198.65 234.802 198.168 234.311 197.338 234.311C197.125 234.3 196.912 234.336 196.714 234.417C196.516 234.497 196.339 234.62 196.193 234.776C196.048 234.933 195.939 235.119 195.873 235.322C195.807 235.525 195.787 235.74 195.813 235.952V238.352H195.198V235.765C195.198 234.802 194.716 234.311 193.886 234.311C193.673 234.3 193.46 234.336 193.262 234.417C193.064 234.497 192.887 234.62 192.741 234.776C192.596 234.933 192.486 235.119 192.421 235.322C192.355 235.525 192.335 235.74 192.361 235.952V238.352H191.781V233.785H192.37V234.597C192.54 234.31 192.786 234.075 193.08 233.918C193.374 233.761 193.705 233.687 194.038 233.705C194.375 233.677 194.712 233.755 195.003 233.928C195.294 234.1 195.524 234.359 195.661 234.668C195.845 234.362 196.108 234.111 196.421 233.942C196.735 233.772 197.089 233.69 197.445 233.705C197.702 233.687 197.96 233.727 198.199 233.823C198.438 233.918 198.653 234.065 198.827 234.254C199.002 234.444 199.132 234.669 199.208 234.915C199.283 235.161 199.303 235.421 199.265 235.676V235.676Z" fill="#263238"/>
<path d="M204.925 236.228H201.117C201.129 236.449 201.185 236.666 201.282 236.866C201.378 237.066 201.513 237.245 201.679 237.392C201.845 237.54 202.038 237.653 202.248 237.726C202.457 237.798 202.679 237.829 202.901 237.816C203.162 237.824 203.422 237.775 203.663 237.672C203.903 237.569 204.118 237.414 204.292 237.218L204.64 237.619C204.313 237.962 203.892 238.2 203.43 238.304C202.968 238.409 202.485 238.375 202.042 238.206C201.6 238.038 201.216 237.742 200.941 237.357C200.665 236.972 200.509 236.514 200.492 236.041C200.492 235.449 200.727 234.882 201.145 234.464C201.564 234.045 202.131 233.811 202.722 233.811C203.314 233.811 203.881 234.045 204.299 234.464C204.717 234.882 204.952 235.449 204.952 236.041C204.934 236.094 204.925 236.165 204.925 236.228ZM201.117 235.773H204.346C204.327 235.358 204.147 234.967 203.843 234.684C203.54 234.4 203.137 234.247 202.722 234.257C202.309 234.247 201.908 234.401 201.608 234.685C201.307 234.969 201.131 235.36 201.117 235.773Z" fill="#263238"/>
<path d="M164.871 277.413V277.966H160.562V271.9H164.728V272.453H161.16V274.612H164.3V275.156H161.16V277.413H164.871Z" fill="#263238"/>
<path d="M173.762 275.351V278.027H173.146V275.44C173.146 274.477 172.665 273.986 171.835 273.986C171.621 273.976 171.407 274.012 171.208 274.093C171.01 274.174 170.832 274.297 170.686 274.454C170.541 274.612 170.431 274.799 170.366 275.004C170.301 275.208 170.282 275.424 170.31 275.637V278.027H169.694V275.44C169.694 274.477 169.213 273.986 168.383 273.986C168.169 273.977 167.956 274.014 167.758 274.096C167.561 274.177 167.383 274.301 167.238 274.458C167.092 274.615 166.983 274.802 166.918 275.005C166.852 275.209 166.832 275.424 166.858 275.637V278.027H166.242V273.469H166.804V274.299C166.976 274.013 167.222 273.78 167.515 273.623C167.809 273.466 168.14 273.391 168.472 273.407C168.809 273.379 169.146 273.457 169.437 273.63C169.728 273.802 169.958 274.061 170.096 274.37C170.279 274.064 170.542 273.813 170.856 273.644C171.17 273.475 171.523 273.393 171.88 273.407C172.139 273.378 172.402 273.41 172.648 273.498C172.893 273.587 173.115 273.73 173.297 273.918C173.479 274.106 173.615 274.332 173.695 274.581C173.776 274.829 173.799 275.093 173.762 275.351V275.351Z" fill="#263238"/>
<path d="M178.874 275.173V278H178.285V277.287C178.115 277.542 177.88 277.747 177.604 277.881C177.327 278.014 177.021 278.071 176.715 278.045C175.68 278.045 175.047 277.51 175.047 276.716C175.047 275.922 175.502 275.422 176.831 275.422H178.276V275.146C178.276 274.37 177.83 273.942 176.983 273.942C176.429 273.934 175.892 274.123 175.466 274.477L175.19 274.022C175.717 273.606 176.373 273.388 177.045 273.407C177.287 273.375 177.534 273.398 177.766 273.474C177.998 273.551 178.21 273.679 178.386 273.848C178.561 274.018 178.697 274.225 178.781 274.455C178.866 274.684 178.897 274.929 178.874 275.173V275.173ZM178.258 276.627V275.886H176.831C175.939 275.886 175.653 276.234 175.653 276.698C175.653 277.162 176.082 277.59 176.813 277.59C177.125 277.605 177.434 277.519 177.694 277.346C177.954 277.173 178.152 276.921 178.258 276.627V276.627Z" fill="#263238"/>
<path d="M180.407 271.998C180.428 271.895 180.484 271.802 180.565 271.736C180.646 271.669 180.748 271.633 180.853 271.633C180.958 271.633 181.06 271.669 181.142 271.736C181.223 271.802 181.279 271.895 181.299 271.998C181.313 272.064 181.311 272.132 181.295 272.198C181.279 272.263 181.248 272.324 181.205 272.376C181.163 272.428 181.109 272.47 181.048 272.499C180.987 272.528 180.921 272.543 180.853 272.543C180.786 272.543 180.72 272.528 180.659 272.499C180.598 272.47 180.544 272.428 180.501 272.376C180.459 272.324 180.428 272.263 180.412 272.198C180.396 272.132 180.394 272.064 180.407 271.998V271.998ZM180.541 273.443H181.157V278.001H180.541V273.443Z" fill="#263238"/>
<path d="M182.859 271.57H183.475V278.002H182.859V271.57Z" fill="#263238"/>
<path d="M162.348 311.959C162.348 313.253 161.456 314.029 159.868 314.029H158.236V315.946H157.594V309.881H159.868C161.394 309.881 162.348 310.657 162.348 311.959ZM161.706 311.959C161.706 310.987 161.064 310.434 159.851 310.434H158.236V313.467H159.851C161.046 313.467 161.688 312.914 161.688 311.959H161.706Z" fill="#263238"/>
<path d="M166.983 313.092V315.919H166.385V315.206C166.218 315.461 165.984 315.666 165.709 315.8C165.434 315.933 165.129 315.99 164.824 315.964C163.79 315.964 163.156 315.429 163.156 314.635C163.156 313.841 163.602 313.342 164.94 313.342H166.394V313.092C166.394 312.316 165.948 311.888 165.101 311.888C164.546 311.881 164.008 312.074 163.584 312.432L163.308 311.968C163.835 311.551 164.492 311.334 165.163 311.352C165.402 311.322 165.645 311.346 165.874 311.422C166.103 311.498 166.312 311.623 166.486 311.79C166.661 311.956 166.796 312.16 166.881 312.385C166.967 312.61 167.002 312.852 166.983 313.092V313.092ZM166.367 314.555V313.805H164.931C164.039 313.805 163.763 314.153 163.763 314.617C163.763 315.081 164.191 315.509 164.913 315.509C165.223 315.527 165.53 315.447 165.791 315.281C166.052 315.114 166.253 314.869 166.367 314.581V314.555Z" fill="#263238"/>
<path d="M168.023 315.429L168.3 314.938C168.773 315.277 169.341 315.458 169.923 315.455C170.815 315.455 171.145 315.161 171.145 314.706C171.145 313.52 168.184 314.456 168.184 312.655C168.184 311.905 168.826 311.352 169.968 311.352C170.536 311.34 171.095 311.489 171.583 311.78L171.315 312.271C170.916 312.006 170.446 311.87 169.968 311.879C169.147 311.879 168.782 312.2 168.782 312.637C168.782 313.868 171.743 312.94 171.743 314.688C171.743 315.482 171.047 315.991 169.861 315.991C169.204 316.007 168.559 315.81 168.023 315.429V315.429Z" fill="#263238"/>
<path d="M172.258 315.429L172.534 314.938C173.008 315.276 173.576 315.457 174.158 315.455C175.05 315.455 175.38 315.161 175.38 314.706C175.38 313.52 172.418 314.456 172.418 312.654C172.418 311.905 173.061 311.352 174.202 311.352C174.77 311.341 175.329 311.489 175.817 311.78L175.549 312.271C175.151 312.006 174.681 311.869 174.202 311.878C173.382 311.878 173.016 312.2 173.016 312.637C173.016 313.868 175.977 312.94 175.977 314.688C175.977 315.482 175.282 315.991 174.095 315.991C173.438 316.007 172.794 315.81 172.258 315.429V315.429Z" fill="#263238"/>
<path d="M183.753 311.388L181.969 315.946H181.389L179.98 312.2L178.544 315.937H177.964L176.242 311.379H176.84L178.267 315.25L179.73 311.379H180.265L181.719 315.25L183.164 311.379L183.753 311.388Z" fill="#263238"/>
<path d="M184.064 313.664C184.066 313.205 184.204 312.758 184.46 312.378C184.715 311.998 185.078 311.702 185.502 311.527C185.926 311.353 186.392 311.309 186.841 311.399C187.291 311.49 187.703 311.711 188.027 312.036C188.35 312.361 188.57 312.774 188.659 313.224C188.748 313.673 188.701 314.139 188.525 314.562C188.35 314.986 188.052 315.347 187.671 315.602C187.29 315.856 186.842 315.992 186.384 315.992C186.075 316.003 185.768 315.951 185.481 315.838C185.194 315.724 184.933 315.553 184.715 315.335C184.497 315.116 184.327 314.855 184.215 314.567C184.103 314.28 184.052 313.972 184.064 313.664V313.664ZM188.078 313.664C188.061 313.333 187.947 313.014 187.75 312.748C187.554 312.481 187.283 312.278 186.973 312.163C186.662 312.048 186.324 312.027 186.002 312.102C185.679 312.177 185.385 312.345 185.157 312.586C184.929 312.826 184.776 313.128 184.718 313.454C184.659 313.78 184.698 314.116 184.828 314.421C184.959 314.725 185.175 314.985 185.452 315.167C185.728 315.35 186.052 315.447 186.384 315.448C186.615 315.452 186.845 315.408 187.058 315.319C187.272 315.229 187.464 315.097 187.624 314.929C187.783 314.761 187.906 314.562 187.984 314.344C188.062 314.126 188.094 313.895 188.078 313.664Z" fill="#263238"/>
<path d="M192.257 311.353V311.95H192.105C191.887 311.939 191.67 311.976 191.468 312.059C191.266 312.142 191.085 312.268 190.938 312.43C190.791 312.591 190.682 312.783 190.619 312.992C190.555 313.2 190.539 313.421 190.571 313.636V315.956H190V311.397H190.589V312.289C190.743 311.986 190.984 311.735 191.281 311.568C191.578 311.401 191.917 311.326 192.257 311.353V311.353Z" fill="#263238"/>
<path d="M197.473 309.523V315.955H196.884V315.063C196.701 315.367 196.438 315.616 196.123 315.783C195.809 315.949 195.456 316.027 195.1 316.008C194.485 316.008 193.895 315.764 193.461 315.329C193.026 314.894 192.781 314.304 192.781 313.689C192.781 313.074 193.026 312.484 193.461 312.049C193.895 311.614 194.485 311.37 195.1 311.37C195.441 311.356 195.78 311.431 196.083 311.587C196.387 311.744 196.644 311.976 196.831 312.262V309.523H197.473ZM196.867 313.671C196.849 313.34 196.735 313.021 196.538 312.754C196.341 312.487 196.07 312.284 195.759 312.17C195.448 312.055 195.109 312.035 194.787 312.111C194.464 312.186 194.17 312.355 193.942 312.596C193.715 312.837 193.562 313.14 193.505 313.467C193.448 313.793 193.487 314.13 193.619 314.434C193.751 314.738 193.969 314.997 194.247 315.179C194.524 315.36 194.849 315.457 195.181 315.455C195.412 315.458 195.642 315.413 195.855 315.323C196.068 315.232 196.26 315.099 196.418 314.93C196.577 314.761 196.699 314.562 196.776 314.343C196.853 314.125 196.884 313.893 196.867 313.662V313.671Z" fill="#263238"/>
<path d="M262.25 233.107H262.883V238.629H266.291V239.182H262.25V233.107Z" fill="#263238"/>
<path d="M270.639 236.38V239.207H270.05V238.494C269.881 238.749 269.645 238.954 269.369 239.088C269.093 239.221 268.786 239.278 268.481 239.252C267.446 239.252 266.812 238.708 266.812 237.923C266.812 237.138 267.267 236.63 268.596 236.63H270.042V236.353C270.042 235.577 269.596 235.149 268.748 235.149C268.195 235.141 267.657 235.33 267.232 235.684L266.955 235.229C267.482 234.813 268.139 234.595 268.811 234.614C269.053 234.582 269.299 234.605 269.531 234.681C269.764 234.758 269.975 234.886 270.151 235.055C270.327 235.225 270.462 235.432 270.547 235.662C270.631 235.891 270.663 236.137 270.639 236.38V236.38ZM270.024 237.834V237.093H268.596C267.704 237.093 267.419 237.441 267.419 237.905C267.419 238.369 267.847 238.797 268.579 238.797C268.894 238.81 269.205 238.721 269.466 238.542C269.726 238.364 269.922 238.106 270.024 237.807V237.834Z" fill="#263238"/>
<path d="M271.672 238.663L271.948 238.172C272.423 238.508 272.991 238.686 273.572 238.681C274.464 238.681 274.794 238.386 274.794 237.94C274.794 236.754 271.841 237.691 271.841 235.88C271.841 235.14 272.475 234.587 273.625 234.587C274.189 234.576 274.745 234.721 275.231 235.006L274.963 235.505C274.568 235.241 274.101 235.104 273.625 235.113C272.796 235.113 272.439 235.434 272.439 235.871C272.439 237.102 275.392 236.165 275.392 237.923C275.392 238.708 274.696 239.225 273.509 239.225C272.853 239.235 272.21 239.039 271.672 238.663V238.663Z" fill="#263238"/>
<path d="M278.941 238.905C278.668 239.122 278.327 239.236 277.978 239.226C277.798 239.246 277.617 239.225 277.447 239.165C277.276 239.106 277.122 239.008 276.994 238.881C276.867 238.753 276.769 238.598 276.71 238.428C276.65 238.258 276.629 238.076 276.649 237.897V235.141H275.828V234.597H276.649V233.598H277.264V234.597H278.647V235.114H277.264V237.835C277.249 237.943 277.259 238.054 277.292 238.158C277.326 238.263 277.382 238.358 277.457 238.438C277.533 238.518 277.625 238.579 277.728 238.619C277.83 238.658 277.94 238.673 278.049 238.664C278.296 238.673 278.537 238.59 278.727 238.432L278.941 238.905Z" fill="#263238"/>
<path d="M286.521 236.532V239.208H285.905V236.622C285.934 236.431 285.92 236.236 285.863 236.052C285.805 235.868 285.706 235.699 285.574 235.559C285.441 235.418 285.279 235.31 285.098 235.242C284.917 235.175 284.723 235.149 284.531 235.168C284.313 235.152 284.095 235.184 283.891 235.263C283.687 235.341 283.502 235.463 283.351 235.621C283.199 235.778 283.084 235.967 283.014 236.174C282.943 236.381 282.919 236.601 282.944 236.818V239.208H282.328V234.597H282.917V235.489C283.099 235.199 283.356 234.964 283.66 234.807C283.965 234.65 284.306 234.577 284.647 234.597C284.902 234.583 285.157 234.624 285.395 234.718C285.633 234.811 285.848 234.954 286.025 235.138C286.203 235.321 286.339 235.541 286.424 235.781C286.51 236.022 286.543 236.278 286.521 236.532V236.532Z" fill="#263238"/>
<path d="M291.631 236.38V239.207H291.043V238.494C290.874 238.75 290.638 238.955 290.362 239.089C290.086 239.222 289.778 239.279 289.473 239.252C288.438 239.252 287.805 238.708 287.805 237.923C287.805 237.138 288.26 236.63 289.589 236.63H291.034V236.353C291.034 235.577 290.588 235.149 289.74 235.149C289.187 235.141 288.649 235.33 288.224 235.684L287.947 235.229C288.475 234.814 289.132 234.596 289.803 234.614C290.045 234.582 290.291 234.605 290.524 234.681C290.756 234.758 290.968 234.886 291.143 235.055C291.319 235.225 291.454 235.432 291.539 235.662C291.623 235.891 291.655 236.137 291.631 236.38ZM291.016 237.834V237.093H289.589C288.697 237.093 288.411 237.441 288.411 237.905C288.411 238.369 288.839 238.797 289.571 238.797C289.886 238.81 290.198 238.721 290.458 238.542C290.718 238.364 290.914 238.106 291.016 237.807V237.834Z" fill="#263238"/>
<path d="M300.833 236.532V239.208H300.218V236.621C300.218 235.658 299.736 235.167 298.906 235.167C298.692 235.156 298.478 235.192 298.28 235.273C298.081 235.354 297.903 235.478 297.757 235.635C297.612 235.793 297.503 235.98 297.438 236.184C297.373 236.389 297.353 236.605 297.381 236.817V239.208H296.766V236.621C296.766 235.658 296.284 235.167 295.445 235.167C295.232 235.158 295.019 235.195 294.821 235.276C294.623 235.358 294.445 235.481 294.3 235.638C294.155 235.796 294.046 235.982 293.98 236.186C293.914 236.39 293.894 236.605 293.92 236.817V239.208H293.305V234.596H293.893V235.488C294.066 235.202 294.313 234.967 294.608 234.81C294.904 234.653 295.236 234.579 295.57 234.596C295.907 234.57 296.244 234.649 296.534 234.821C296.825 234.994 297.055 235.251 297.194 235.56C297.376 235.252 297.638 235.001 297.952 234.831C298.267 234.661 298.621 234.58 298.978 234.596C299.234 234.574 299.492 234.61 299.733 234.7C299.973 234.791 300.191 234.934 300.369 235.12C300.547 235.306 300.681 235.529 300.761 235.773C300.841 236.018 300.866 236.277 300.833 236.532Z" fill="#263238"/>
<path d="M306.484 237.093H302.667C302.696 237.538 302.9 237.953 303.234 238.249C303.568 238.544 304.005 238.696 304.451 238.672C304.714 238.682 304.976 238.633 305.218 238.53C305.46 238.426 305.676 238.271 305.851 238.074L306.199 238.475C305.872 238.821 305.45 239.062 304.987 239.168C304.523 239.274 304.039 239.241 303.594 239.072C303.15 238.903 302.765 238.606 302.489 238.219C302.213 237.832 302.057 237.372 302.042 236.897C302.026 236.596 302.072 236.295 302.178 236.013C302.283 235.731 302.445 235.473 302.655 235.256C302.864 235.04 303.115 234.868 303.394 234.753C303.672 234.638 303.971 234.581 304.272 234.586C304.573 234.581 304.871 234.638 305.148 234.753C305.426 234.868 305.676 235.04 305.884 235.257C306.092 235.474 306.252 235.732 306.356 236.014C306.459 236.296 306.503 236.597 306.484 236.897C306.493 236.95 306.484 237.021 306.484 237.093ZM302.667 236.629H305.905C305.874 236.22 305.69 235.838 305.39 235.56C305.09 235.281 304.695 235.126 304.286 235.126C303.876 235.126 303.481 235.281 303.181 235.56C302.881 235.838 302.697 236.22 302.667 236.629V236.629Z" fill="#263238"/>
<path d="M148.076 309.007C148.033 308.816 148.006 308.622 147.995 308.427C148.001 307.956 147.891 307.49 147.674 307.071C147.504 306.772 147.268 306.514 146.984 306.32C146.699 306.125 146.374 305.998 146.033 305.947C145.621 305.892 145.202 305.955 144.825 306.129C144.447 306.303 144.127 306.58 143.901 306.929C143.704 307.227 143.588 307.571 143.562 307.928C143.562 308.302 143.562 308.659 143.562 309.016L143.348 308.793C144.938 308.784 146.528 308.856 148.111 309.007C146.53 309.181 144.939 309.256 143.348 309.23H143.125V309.007C143.125 308.65 143.125 308.302 143.125 307.892C143.149 307.459 143.288 307.041 143.526 306.679C143.798 306.256 144.188 305.921 144.648 305.717C145.107 305.512 145.617 305.447 146.113 305.528C146.513 305.593 146.891 305.753 147.216 305.996C147.54 306.238 147.802 306.555 147.977 306.92C148.207 307.406 148.279 307.952 148.183 308.481C148.147 308.864 148.076 309.034 148.076 309.007Z" fill="#FF725E"/>
<path d="M146.53 314.805C146.362 314.467 146.219 314.119 146.101 313.761V313.663L146.199 313.592C146.341 313.48 146.438 313.321 146.471 313.144C146.504 312.966 146.471 312.783 146.378 312.628C146.331 312.531 146.263 312.447 146.177 312.381C146.092 312.316 145.993 312.271 145.887 312.251C145.782 312.231 145.673 312.236 145.569 312.266C145.466 312.295 145.371 312.349 145.292 312.422C145.213 312.495 145.153 312.586 145.115 312.686C145.078 312.787 145.064 312.895 145.076 313.002C145.088 313.109 145.125 313.211 145.184 313.301C145.242 313.391 145.322 313.466 145.415 313.52L145.557 313.6L145.513 313.752L145.245 314.814L145.076 314.6C145.572 314.623 146.067 314.679 146.556 314.769C146.075 314.906 145.575 314.966 145.076 314.947H144.861V314.715C144.933 314.359 144.995 314.002 145.058 313.636L145.156 313.868C145.014 313.781 144.893 313.664 144.802 313.526C144.71 313.387 144.651 313.229 144.628 313.064C144.605 312.9 144.619 312.732 144.668 312.573C144.718 312.414 144.802 312.269 144.915 312.147C145.039 312.009 145.195 311.905 145.37 311.844C145.544 311.783 145.732 311.768 145.914 311.799C146.082 311.826 146.241 311.89 146.38 311.988C146.519 312.085 146.634 312.212 146.717 312.361C146.851 312.603 146.887 312.888 146.815 313.156C146.743 313.424 146.571 313.654 146.333 313.797L146.405 313.627C146.519 314.009 146.562 314.408 146.53 314.805Z" fill="#FF725E"/>
<path d="M148.743 309.015C148.872 308.989 149.006 308.989 149.135 309.015C149.459 309.113 149.748 309.3 149.969 309.556C150.19 309.812 150.334 310.125 150.384 310.46C150.384 310.772 150.384 311.075 150.384 311.423C150.384 312.128 150.384 312.904 150.384 313.76C150.384 314.197 150.384 314.652 150.384 315.116C150.418 315.625 150.4 316.136 150.331 316.641C150.252 316.925 150.109 317.186 149.913 317.404C149.716 317.622 149.471 317.792 149.198 317.899C148.915 318.013 148.61 318.061 148.306 318.042H147.414H143.846H142.9C142.626 318.055 142.352 318.01 142.097 317.91C141.842 317.809 141.611 317.656 141.419 317.459C141.228 317.263 141.08 317.028 140.986 316.77C140.893 316.512 140.855 316.237 140.875 315.963C140.875 314.59 140.875 313.287 140.875 311.949V310.995C140.848 310.654 140.89 310.311 141 309.987C141.121 309.667 141.325 309.384 141.592 309.169C141.858 308.954 142.178 308.815 142.517 308.765L142.338 308.97C142.338 308.542 142.338 308.158 142.338 307.721C142.38 307.303 142.504 306.896 142.704 306.526C143.125 305.815 143.801 305.292 144.595 305.063C145.193 304.847 145.843 304.816 146.459 304.975C147.075 305.135 147.628 305.476 148.047 305.955C148.318 306.255 148.527 306.606 148.66 306.987C148.793 307.369 148.849 307.773 148.823 308.176C148.815 308.457 148.788 308.737 148.743 309.015C148.699 308.741 148.681 308.463 148.689 308.185C148.685 307.418 148.388 306.681 147.86 306.125C147.544 305.793 147.154 305.54 146.722 305.388C146.29 305.236 145.828 305.189 145.374 305.251C144.92 305.313 144.487 305.482 144.111 305.744C143.736 306.006 143.427 306.354 143.212 306.758C143.041 307.085 142.934 307.443 142.9 307.811C142.9 308.176 142.9 308.622 142.9 309.033V309.211H142.722C142.46 309.253 142.214 309.363 142.009 309.53C141.803 309.698 141.646 309.917 141.553 310.165C141.466 310.454 141.436 310.757 141.464 311.057V312.012C141.464 313.305 141.464 314.688 141.464 316.026C141.439 316.313 141.497 316.601 141.632 316.856C141.766 317.11 141.971 317.321 142.222 317.462C142.47 317.592 142.746 317.656 143.025 317.649H147.556C148.087 317.7 148.622 317.67 149.144 317.56C149.36 317.476 149.552 317.342 149.707 317.17C149.862 316.999 149.975 316.793 150.036 316.57C150.101 316.1 150.125 315.626 150.108 315.152C150.108 314.688 150.108 314.26 150.108 313.796C150.108 312.904 150.108 312.164 150.108 311.459C150.108 311.12 150.108 310.781 150.108 310.513C150.085 310.263 150.002 310.021 149.867 309.809C149.597 309.42 149.199 309.139 148.743 309.015V309.015Z" fill="#FF725E"/>
<path d="M152.639 279.349C152.613 279.121 152.598 278.891 152.595 278.662C152.595 278.18 152.595 277.556 152.532 276.798C152.488 275.156 152.434 272.899 152.363 270.179L152.55 270.366L138.956 270.545L139.152 270.277V271.472C139.152 271.874 139.152 272.275 139.152 272.676C139.152 273.47 139.152 274.255 139.152 275.022C139.152 276.548 139.152 278.028 139.152 279.42L138.938 279.215C142.899 279.215 146.271 279.215 148.67 279.215H151.489C151.837 279.206 152.186 279.221 152.532 279.259C152.219 279.302 151.903 279.32 151.587 279.313L148.813 279.402C146.422 279.465 142.997 279.545 138.938 279.598H138.733V279.384C138.733 277.984 138.733 276.512 138.68 274.978C138.68 274.211 138.68 273.426 138.68 272.632C138.68 272.239 138.68 271.838 138.68 271.437V270.232L138.912 269.992L152.506 269.902H152.693V270.09C152.693 272.855 152.693 275.147 152.693 276.824C152.693 277.565 152.693 278.171 152.693 278.608C152.709 278.856 152.691 279.105 152.639 279.349Z" fill="#FF725E"/>
<path d="M152.534 270.178C151.963 270.766 151.333 271.292 150.652 271.748C149.456 272.64 147.788 273.915 145.924 275.262H145.612L145.523 275.2L145.344 275.075L144.996 274.834L144.319 274.361L143.043 273.469L140.893 271.917C140.21 271.467 139.571 270.953 138.984 270.383C139.722 270.737 140.424 271.161 141.081 271.65L143.284 273.121L144.577 274.013L145.264 274.486L145.612 274.727L145.781 274.843L145.871 274.905H145.915H145.665C147.53 273.558 149.233 272.354 150.482 271.498C151.125 270.997 151.812 270.555 152.534 270.178V270.178Z" fill="#FF725E"/>
<path d="M139.312 279.472C139.873 278.382 140.571 277.369 141.391 276.457C142.091 275.445 142.915 274.525 143.844 273.719C143.283 274.814 142.581 275.83 141.757 276.743C141.06 277.751 140.238 278.668 139.312 279.472V279.472Z" fill="#FF725E"/>
<path d="M148.281 273.719C149.181 274.505 149.976 275.405 150.645 276.395C151.437 277.291 152.109 278.286 152.643 279.356C151.742 278.571 150.948 277.671 150.279 276.68C149.486 275.785 148.814 274.79 148.281 273.719V273.719Z" fill="#FF725E"/>
<path d="M318.513 340.289H133.271C131.961 340.289 130.898 341.351 130.898 342.662V366.88C130.898 368.19 131.961 369.252 133.271 369.252H318.513C319.823 369.252 320.886 368.19 320.886 366.88V342.662C320.886 341.351 319.823 340.289 318.513 340.289Z" fill="#FF725E"/>
<g opacity="0.3">
<path d="M318.513 340.289H133.271C131.961 340.289 130.898 341.351 130.898 342.662V366.88C130.898 368.19 131.961 369.252 133.271 369.252H318.513C319.823 369.252 320.886 368.19 320.886 366.88V342.662C320.886 341.351 319.823 340.289 318.513 340.289Z" fill="black"/>
</g>
<path d="M318.513 336.258H133.271C131.961 336.258 130.898 337.32 130.898 338.631V362.848C130.898 364.159 131.961 365.221 133.271 365.221H318.513C319.823 365.221 320.886 364.159 320.886 362.848V338.631C320.886 337.32 319.823 336.258 318.513 336.258Z" fill="#FF725E"/>
<path d="M209.844 351.359C209.839 350.941 209.919 350.526 210.08 350.14C210.241 349.754 210.479 349.405 210.78 349.114C211.08 348.823 211.437 348.597 211.829 348.45C212.22 348.302 212.637 348.236 213.055 348.255C213.486 348.238 213.915 348.314 214.313 348.477C214.712 348.64 215.071 348.887 215.365 349.201L214.804 349.745C214.481 349.403 214.064 349.166 213.605 349.065C213.146 348.963 212.668 349.001 212.231 349.175C211.794 349.348 211.42 349.649 211.156 350.038C210.892 350.426 210.751 350.885 210.751 351.355C210.751 351.825 210.892 352.284 211.156 352.672C211.42 353.061 211.794 353.362 212.231 353.535C212.668 353.709 213.146 353.747 213.605 353.645C214.064 353.544 214.481 353.307 214.804 352.965L215.365 353.509C215.07 353.825 214.71 354.074 214.31 354.239C213.91 354.404 213.479 354.48 213.046 354.464C212.629 354.482 212.213 354.415 211.822 354.266C211.432 354.118 211.076 353.892 210.777 353.601C210.477 353.311 210.239 352.962 210.079 352.577C209.919 352.191 209.839 351.777 209.844 351.359Z" fill="white"/>
<path d="M220.656 354.392L219.344 352.528H218.97H217.462V354.374H216.57V348.309H218.943C220.513 348.309 221.467 349.102 221.467 350.423C221.488 350.844 221.368 351.26 221.128 351.607C220.888 351.954 220.54 352.211 220.138 352.34L221.574 354.374L220.656 354.392ZM220.656 350.44C220.656 349.548 220.076 349.085 218.97 349.085H217.489V351.814H218.97C220.049 351.814 220.629 351.306 220.629 350.44H220.656Z" fill="white"/>
<path d="M227.305 353.642V354.392H222.898V348.326H227.18V349.084H223.764V350.949H226.814V351.68H223.764V353.642H227.305Z" fill="white"/>
<path d="M232.571 352.875H229.342L228.673 354.392H227.781L230.529 348.326H231.421L234.177 354.392H233.285L232.571 352.875ZM232.268 352.189L230.957 349.209L229.646 352.189H232.268Z" fill="white"/>
<path d="M235.946 349.084H233.867V348.326H238.889V349.084H236.802V354.392H235.91L235.946 349.084Z" fill="white"/>
<path d="M244.235 353.642V354.392H239.828V348.326H244.11V349.084H240.693V350.949H243.735V351.68H240.693V353.642H244.235Z" fill="white"/>
<path d="M198.641 169.962C223.147 145.456 223.147 105.724 198.641 81.2173C174.135 56.7111 134.402 56.7111 109.896 81.2173C85.3897 105.724 85.3897 145.456 109.896 169.962C134.402 194.469 174.135 194.469 198.641 169.962Z" fill="#E0E0E0"/>
<path d="M190.219 40.7732C189.122 42.1501 188.452 43.8187 188.294 45.5722C188.135 47.3258 188.494 49.0874 189.327 50.6388C190.112 52.0481 191.307 53.3148 191.486 54.9114C191.78 57.5072 189.265 59.8442 189.702 62.431C189.978 64.215 191.486 65.437 192.306 67.0159C192.813 68.0427 193.018 69.1925 192.896 70.3312C192.775 71.47 192.332 72.5506 191.619 73.4472C190.478 74.8387 188.685 75.7218 187.944 77.372C187.391 78.5851 187.525 80.048 187.052 81.27C186.631 82.2268 185.969 83.0583 185.132 83.6835C184.294 84.3088 183.308 84.7065 182.271 84.838C180.186 85.0886 178.072 84.9708 176.027 84.4902L176.482 82.2334C176.095 82.8327 175.568 83.3287 174.947 83.6784C174.325 84.0281 173.627 84.221 172.914 84.2404C171.486 84.2689 170.063 84.0578 168.704 83.616C167.857 79.7893 167.027 75.7486 168.222 72.02C169.311 68.6661 171.879 66.0436 174.02 63.2427C176.397 60.133 178.3 56.6881 179.667 53.0204C180.648 50.389 181.353 47.6684 182.726 45.1708C184.1 42.6732 186.294 40.5146 189.042 39.9883" fill="#263238"/>
<path d="M231.03 93.481L218.613 94.373L218.488 91.1796C218.322 89.5973 218.7 88.0056 219.558 86.6661C219.696 86.4304 219.795 86.1745 219.853 85.9079C219.942 84.9624 218.55 80.217 218.069 78.4776C217.462 76.3903 218.649 75.2842 219.112 76.1405C219.951 77.7015 222.172 84.4004 222.868 85.0605C223.564 85.7206 223.162 82.215 223.162 82.215C222.074 74.8382 221.601 73.7678 222.912 73.4913C224.42 73.1702 226.079 84.1507 226.079 84.1507C226.079 84.1507 225.856 82.6164 227.033 82.3042C228.211 81.992 228.755 83.4995 228.755 83.4995C228.603 82.7235 229.718 82.6075 229.718 82.6075C232.501 82.9911 231.056 93.5791 231.056 93.5791L218.64 94.4711L212.69 135.994L206.339 126.262L189.766 138.09L204.707 155.93C206.004 157.474 207.638 158.702 209.482 159.52C211.326 160.338 213.332 160.724 215.348 160.649V160.649C218.644 160.529 221.776 159.182 224.13 156.871C226.483 154.561 227.888 151.454 228.068 148.161L231.03 93.481Z" fill="#EB996E"/>
<path d="M221.317 93.597C221.263 93.5346 221.923 92.9548 222.806 91.8666C223.319 91.2297 223.784 90.5559 224.198 89.8507C224.445 89.4341 224.671 89.0054 224.876 88.5662C225.126 88.1557 225.273 87.6903 225.304 87.2103C225.3 87.0989 225.265 86.9909 225.202 86.8991C225.138 86.8074 225.05 86.7358 224.947 86.693C224.703 86.652 224.452 86.6927 224.234 86.8089C223.746 87.0383 223.283 87.3163 222.851 87.6385C222.153 88.1662 221.55 88.8087 221.067 89.5384L220.924 89.7436L220.817 89.5295C220.562 89.0696 220.23 88.6564 219.836 88.3075C219.836 88.3075 220.514 88.468 221.094 89.4314H220.844C221.301 88.6339 221.906 87.9314 222.628 87.362C223.078 87.0122 223.566 86.7131 224.082 86.47C224.399 86.3021 224.766 86.2516 225.117 86.3272C225.305 86.3938 225.47 86.5134 225.592 86.6717C225.714 86.8299 225.787 87.0201 225.803 87.2192C225.787 87.7931 225.621 88.3528 225.322 88.8427C225.105 89.2866 224.863 89.7184 224.599 90.1361C224.159 90.8522 223.654 91.5269 223.092 92.152C222.583 92.7271 221.983 93.2152 221.317 93.597Z" fill="#D1734A"/>
<path d="M226.23 84.7398C226.305 85.4991 226.305 86.264 226.23 87.0233C226.23 87.7726 226.15 88.6022 226.096 89.4853C226.061 89.9544 226.061 90.4255 226.096 90.8946C226.096 91.3317 226.515 91.7063 226.828 91.5279C227.14 91.3495 227.318 90.8143 227.452 90.3416C227.586 89.8688 227.693 89.3961 227.791 88.9411C227.987 88.0491 228.13 87.2107 228.264 86.5238C228.352 85.7654 228.528 85.02 228.79 84.3027C228.789 85.0655 228.72 85.8267 228.585 86.5773C228.496 87.2731 228.389 88.1027 228.21 89.0303C228.13 89.4853 228.023 89.9669 227.889 90.4665C227.846 90.7602 227.746 91.0425 227.592 91.2968C227.439 91.551 227.237 91.7722 226.997 91.9472C226.834 92.0216 226.653 92.0453 226.476 92.0151C226.299 91.9848 226.136 91.9021 226.007 91.7777C225.779 91.5622 225.639 91.2698 225.615 90.9571C225.586 90.457 225.604 89.9553 225.668 89.4585C225.757 88.5784 225.838 87.7577 225.909 86.9966C225.937 86.2352 226.045 85.4789 226.23 84.7398V84.7398Z" fill="#D1734A"/>
<path d="M228.352 87.9055C228.423 87.9055 228.245 88.4228 228.298 89.2256C228.314 89.6684 228.447 90.099 228.682 90.4744C228.833 90.6261 228.94 90.635 229.083 90.4744C229.244 90.2321 229.381 89.9753 229.493 89.7073C230.06 88.2999 230.504 86.8466 230.823 85.3633C230.962 86.9307 230.652 88.5054 229.931 89.9036C229.802 90.2156 229.644 90.5143 229.458 90.7956C229.392 90.8802 229.309 90.949 229.213 90.9968C229.117 91.0447 229.012 91.0704 228.905 91.0721C228.803 91.0682 228.703 91.0423 228.612 90.9961C228.521 90.9499 228.442 90.8845 228.378 90.8045C228.2 90.5669 228.087 90.2873 228.048 89.9928C228.002 89.7578 227.981 89.5186 227.986 89.2792C227.959 88.3515 228.271 87.8787 228.352 87.9055Z" fill="#D1734A"/>
<path d="M176.063 165.965L177.223 184.019C141.909 197.551 115.675 175.099 115.675 175.099L120.956 158.945L121.848 130.74L115.068 138.26L111.866 135.584L95.7121 122.132L92.2422 119.233L109.039 101.509C130.277 78.6473 146.806 85.6316 146.806 85.6316L171.639 87.9597C171.639 87.9597 188.819 90.3949 197.132 105.452C203.903 117.708 211.271 130.687 211.271 130.687L189.988 145.851L183.217 133.416L176.063 165.965Z" fill="#455A64"/>
<path d="M91.5234 125.351C91.5234 126.413 91.5234 127.465 91.5859 128.536C91.7324 132.724 92.3002 136.887 93.2807 140.961V141.077C93.4056 141.586 93.5483 142.085 93.691 142.585C94.244 144.547 94.9755 146.278 95.6712 148.177C95.7604 148.418 95.8496 148.65 95.9478 148.891C98.1956 148.302 104.163 142.647 111.451 135.27L95.2788 121.783C93.2004 124.049 92.2192 125.084 91.5234 125.351Z" fill="#EB996E"/>
<path d="M169.387 90.3057C170.279 84.1509 171.287 77.6929 171.287 77.6929C171.287 77.6929 179.395 77.4699 182.464 67.3546C185.389 57.7031 186.924 34.6985 186.924 34.6985C181.609 31.6622 175.493 30.3237 169.396 30.8627C163.299 31.4016 157.513 33.792 152.813 37.7134L146.569 87.7992C145.847 93.6061 150.271 98.86 156.506 99.5915C162.795 100.323 168.593 96.1662 169.387 90.3057Z" fill="#EB996E"/>
<path d="M181.515 52.084C181.471 52.4305 181.293 52.746 181.02 52.964C180.747 53.182 180.4 53.2855 180.053 53.2526C179.881 53.2425 179.714 53.1982 179.56 53.1223C179.406 53.0464 179.269 52.9405 179.157 52.8108C179.045 52.6811 178.96 52.5303 178.907 52.3671C178.854 52.204 178.834 52.0319 178.848 51.861C178.895 51.5162 179.074 51.2029 179.346 50.9867C179.619 50.7705 179.965 50.6683 180.311 50.7014C180.482 50.7116 180.648 50.7556 180.802 50.8309C180.955 50.9062 181.091 51.0113 181.204 51.14C181.316 51.2687 181.401 51.4185 181.455 51.5806C181.508 51.7427 181.529 51.9138 181.515 52.084V52.084Z" fill="#263238"/>
<path d="M183.869 50.8973C183.682 51.049 182.781 50.1659 181.354 50.0053C179.927 49.8448 178.776 50.3889 178.678 50.1927C178.58 49.9964 178.821 49.8091 179.32 49.5415C179.998 49.2005 180.764 49.076 181.514 49.1847C182.258 49.2865 182.951 49.6205 183.495 50.1391C183.86 50.4959 183.958 50.8438 183.869 50.8973Z" fill="#263238"/>
<path d="M166.867 50.3253C166.822 50.671 166.644 50.9857 166.371 51.2023C166.098 51.4189 165.751 51.5203 165.404 51.4849C165.233 51.4759 165.066 51.4327 164.912 51.3578C164.758 51.2829 164.621 51.1778 164.509 51.0488C164.397 50.9198 164.311 50.7695 164.258 50.6069C164.205 50.4443 164.185 50.2727 164.2 50.1023C164.245 49.7558 164.422 49.4403 164.695 49.2223C164.968 49.0042 165.315 48.9008 165.663 48.9337C165.834 48.945 166.001 48.9901 166.154 49.0664C166.307 49.1426 166.444 49.2485 166.556 49.378C166.668 49.5074 166.753 49.6578 166.806 49.8204C166.86 49.983 166.88 50.1546 166.867 50.3253V50.3253Z" fill="#263238"/>
<path d="M168.9 49.3619C168.713 49.5135 167.812 48.6304 166.385 48.4699C164.958 48.3093 163.807 48.8445 163.709 48.6483C163.611 48.452 163.852 48.2736 164.351 48.006C165.029 47.6656 165.795 47.5411 166.546 47.6492C167.292 47.7444 167.987 48.0793 168.526 48.6037C168.883 48.9605 168.99 49.2994 168.9 49.3619Z" fill="#263238"/>
<path d="M172.625 60.6549C173.412 60.5228 174.212 60.4899 175.007 60.5568C175.372 60.5568 175.729 60.5568 175.827 60.3071C175.904 59.9338 175.87 59.5462 175.729 59.1921C175.506 58.3001 175.274 57.2832 175.033 56.2663C174.079 52.1096 173.446 48.7111 173.615 48.6665C173.785 48.6219 174.694 51.9758 175.64 56.1325C175.872 57.1583 176.086 58.1306 176.291 59.0672C176.461 59.537 176.461 60.0513 176.291 60.5211C176.221 60.6421 176.124 60.7458 176.008 60.8246C175.892 60.9033 175.761 60.9551 175.622 60.9761C175.412 61.003 175.199 61.003 174.989 60.9761C174.191 60.9664 173.397 60.8586 172.625 60.6549V60.6549Z" fill="#263238"/>
<path d="M171.263 77.6916C166.369 77.1023 161.737 75.1626 157.883 72.0898C157.883 72.0898 160.264 79.654 170.745 80.1178L171.263 77.6916Z" fill="#D1734A"/>
<path d="M176.195 31.5048C176.864 33.1371 175.811 35.0728 174.322 35.9648C172.75 36.7792 171.029 37.2648 169.264 37.392C167.496 37.5308 165.806 38.1748 164.394 39.2473C161.968 41.4506 162.61 44.5993 160.157 47.4626C159.586 48.2673 158.801 48.8959 157.892 49.2775C156.982 49.659 155.984 49.7781 155.01 49.6213C153.048 49.3448 150.505 49.7997 149.515 52.0654C148.525 54.331 149.72 55.9991 150.818 58.0774C151.915 60.1558 151.62 62.2877 150.996 64.5623C150.55 66.2035 149.141 67.488 148.828 69.165C148.329 71.841 150.612 74.8203 149.069 77.0146C147.526 79.2089 143.61 78.2366 141.889 80.2793C141.264 81.0018 140.907 82.0633 139.989 82.3487C139.417 82.4291 138.835 82.3228 138.33 82.0455L130.302 78.6469C130.507 77.8174 130.721 76.9789 130.935 76.1494C130.341 76.758 129.612 77.2165 128.806 77.487C128 77.7575 127.142 77.8323 126.301 77.705C125.461 77.5777 124.663 77.2521 123.973 76.7551C123.284 76.2581 122.722 75.604 122.336 74.847C124.018 73.8701 125.575 72.693 126.974 71.3415C128.355 69.9658 129.194 68.1386 129.338 66.1946C129.418 63.8397 128.143 61.4581 128.856 59.2192C129.882 56.0169 134.208 55.2141 136.117 52.4668C137.901 49.8978 137.304 46.1692 139.15 43.627C141.3 40.6834 145.84 40.5496 148.302 37.8558C149.97 36.0718 150.354 33.3958 151.567 31.2282C153.138 28.6803 155.593 26.8004 158.462 25.9476C161.313 25.1158 164.283 24.7691 167.248 24.9218C169.474 24.817 171.692 25.2612 173.706 26.2152C175.642 27.2945 177.105 29.5067 176.65 31.6832" fill="#263238"/>
<path d="M155.015 49.6474C153.941 49.2569 152.779 49.1735 151.661 49.4065C151.102 49.5217 150.571 49.7465 150.099 50.068C149.628 50.3896 149.225 50.8014 148.913 51.2797C148.342 52.2798 148.17 53.4586 148.432 54.5801C148.699 55.6926 149.211 56.7316 149.93 57.6219C150.391 58.2895 151.002 58.8395 151.714 59.2275C152.076 59.4226 152.481 59.5248 152.892 59.5248C153.303 59.5248 153.707 59.4226 154.069 59.2275" fill="#EB996E"/>
<path d="M153.48 56.266C153.605 56.3284 153.025 56.935 152.053 56.5158C151.546 56.2664 151.153 55.8323 150.956 55.3026C150.731 54.6892 150.631 54.0373 150.661 53.3848C150.673 52.6904 150.933 52.023 151.393 51.5027C151.587 51.2814 151.83 51.1076 152.102 50.9947C152.374 50.8818 152.669 50.8328 152.963 50.8516C154.006 50.9675 154.229 51.7436 154.114 51.7436C153.998 51.7436 153.668 51.3957 152.963 51.4581C152.526 51.5628 152.141 51.8195 151.876 52.1824C151.611 52.5452 151.484 52.9904 151.518 53.4384C151.518 54.598 151.776 55.6951 152.347 56.043C152.918 56.3909 153.427 56.1946 153.48 56.266Z" fill="#D1734A"/>
<path d="M176.231 32.1112C175.825 33.2268 175.816 34.4484 176.206 35.5697C176.596 36.6911 177.361 37.6435 178.372 38.266C179.532 38.935 180.959 39.158 181.94 40.05C182.853 41.0413 183.384 42.3249 183.439 43.6716C183.485 45.004 183.734 46.3216 184.179 47.5785C184.423 48.1987 184.86 48.724 185.425 49.0773C185.991 49.4305 186.654 49.593 187.319 49.5409L189.558 42.9312C190.378 40.505 191.208 37.9092 190.619 35.4027C189.781 31.8347 186.248 29.4977 182.716 28.5254C181.098 27.9505 179.328 27.9663 177.721 28.57C176.187 29.2925 175.143 31.246 175.937 32.7624" fill="#263238"/>
<path d="M133.18 79.7177C133.18 79.7177 133.394 79.5571 133.706 79.1557C134.13 78.557 134.383 77.8538 134.437 77.122C134.477 75.9529 134.411 74.7827 134.241 73.6253C134.165 72.8752 134.238 72.1173 134.455 71.3953C134.711 70.5867 135.14 69.8438 135.713 69.2189C136.881 67.8898 138.514 66.8551 139.923 65.4368C140.669 64.7336 141.225 63.8528 141.538 62.8767C141.801 61.8225 141.831 60.7238 141.627 59.6566C141.457 58.5327 141.172 57.3909 141.029 56.1867C140.85 54.9361 140.973 53.6608 141.386 52.4671C141.834 51.2145 142.592 50.0964 143.591 49.2178C144.59 48.3393 145.795 47.7293 147.095 47.4451C149.717 46.8653 152.447 47.2221 154.588 46.1161C155.63 45.5517 156.455 44.6576 156.934 43.5739C157.393 42.5097 157.772 41.4124 158.066 40.2913C158.357 39.1921 158.798 38.1384 159.378 37.1604C159.977 36.2384 160.841 35.5199 161.857 35.0999C163.676 34.4873 165.607 34.2833 167.513 34.5022C169.052 34.653 170.605 34.5627 172.115 34.2346C173.244 33.9669 174.285 33.4141 175.139 32.629C175.623 32.0767 175.933 31.3942 176.031 30.6666C176.121 30.176 176.121 29.8995 176.147 29.9084C176.175 30.1664 176.175 30.4265 176.147 30.6845C176.072 31.4501 175.76 32.1732 175.255 32.7539C174.394 33.5938 173.326 34.1908 172.16 34.4844C170.627 34.8457 169.046 34.9601 167.477 34.8233C165.621 34.6294 163.745 34.8456 161.982 35.4567C161.043 35.8524 160.247 36.5243 159.699 37.3834C159.145 38.3322 158.725 39.3527 158.45 40.4162C158.154 41.5611 157.772 42.6822 157.308 43.7701C157.046 44.3392 156.703 44.8679 156.291 45.34C155.858 45.817 155.345 46.2153 154.775 46.5175C152.402 47.7038 149.682 47.3292 147.166 47.9001C145.952 48.1771 144.827 48.7554 143.894 49.5816C142.962 50.4078 142.253 51.4553 141.832 52.6277C141.438 53.7548 141.319 54.9596 141.484 56.1421C141.618 57.3107 141.895 58.4524 142.064 59.6031C142.276 60.7306 142.237 61.8911 141.948 63.0016C141.604 64.0242 141.009 64.9442 140.218 65.6776C138.746 67.1316 137.113 68.1395 135.972 69.4062C135.446 69.9583 135.044 70.6164 134.794 71.3363C134.543 72.0563 134.449 72.8215 134.518 73.5807C134.673 74.7634 134.712 75.9585 134.634 77.1487C134.557 77.9056 134.27 78.6257 133.804 79.2271C133.629 79.4286 133.417 79.5951 133.18 79.7177V79.7177Z" fill="#455A64"/>
<path d="M180.99 84.9081C181.139 84.7591 181.279 84.6013 181.409 84.4353C181.738 83.9298 181.923 83.3437 181.944 82.7405C182.015 81.9556 181.81 80.9565 181.864 79.8326C182.02 78.5135 182.567 77.2711 183.434 76.2646C184.263 75.1139 185.369 73.9186 185.664 72.313C185.958 70.7074 185.271 68.9859 184.932 67.1127C184.735 66.1273 184.775 65.1093 185.048 64.1423C185.38 63.1782 185.845 62.2654 186.431 61.4306C187.002 60.5386 187.635 59.7358 188.126 58.826C188.66 57.933 188.967 56.922 189.018 55.8824C188.975 54.8433 188.631 53.839 188.027 52.9923C187.417 52.1205 186.922 51.173 186.556 50.1736C185.949 48.0952 186.422 46.0615 186.556 44.215C186.653 43.3244 186.635 42.425 186.502 41.539C186.371 40.7081 186.041 39.9214 185.539 39.2466C184.532 38.0916 183.295 37.159 181.908 36.5082C180.74 35.951 179.629 35.2819 178.59 34.5101C177.791 33.9233 177.12 33.1796 176.619 32.3247C176.309 31.7783 176.129 31.1678 176.092 30.5407C176.076 30.3256 176.091 30.1092 176.137 29.8984C176.137 29.8984 176.137 30.1214 176.191 30.5318C176.26 31.1331 176.461 31.7118 176.779 32.2266C177.288 33.0355 177.948 33.7383 178.724 34.296C179.765 35.0361 180.873 35.6781 182.033 36.2138C183.481 36.8635 184.774 37.8155 185.824 39.0058C186.378 39.7167 186.749 40.553 186.903 41.4409C187.051 42.3672 187.078 43.3086 186.984 44.2418C186.859 46.1239 186.422 48.122 186.984 50.0309C187.343 50.9804 187.822 51.8798 188.411 52.7069C189.066 53.623 189.435 54.7123 189.472 55.8378C189.422 56.9561 189.094 58.0443 188.518 59.0044C188.001 59.9499 187.367 60.7884 186.805 61.6804C186.23 62.4853 185.774 63.3684 185.45 64.3029C185.186 65.2011 185.143 66.1497 185.325 67.0681C185.628 68.8521 186.35 70.6361 186.011 72.4201C185.839 73.2375 185.502 74.0113 185.021 74.6947C184.575 75.3548 184.129 75.9346 183.674 76.4787C182.833 77.4225 182.284 78.591 182.096 79.8415C182.015 80.9476 182.194 81.9377 182.096 82.7494C182.053 83.3761 181.83 83.9771 181.453 84.4799C181.335 84.6571 181.176 84.8038 180.99 84.9081V84.9081Z" fill="#455A64"/>
<path d="M124.07 75.5347C124.07 75.5347 124.365 75.5347 124.918 75.5972C125.726 75.6143 126.529 75.4592 127.273 75.1423C128.464 74.656 129.492 73.8389 130.234 72.7874C131.18 71.3829 131.731 69.7502 131.831 68.0598C132.045 66.1866 131.572 64.1528 131.519 61.8782C131.456 60.686 131.718 59.4993 132.277 58.444C133.018 57.4255 133.982 56.5895 135.095 55.9999C136.205 55.4226 137.109 54.5158 137.682 53.4042C138.091 52.1526 138.285 50.8405 138.253 49.524C138.267 48.1042 138.539 46.6988 139.056 45.3762C139.336 44.6898 139.745 44.0631 140.26 43.5298C140.837 43.0193 141.55 42.6877 142.312 42.5753C143.792 42.3167 145.229 42.4683 146.611 42.3167C147.953 42.22 149.217 41.6511 150.179 40.7111C151.102 39.7737 151.862 38.6883 152.427 37.4999C153.025 36.3403 153.488 35.145 154.059 34.0032C154.588 32.8789 155.263 31.8292 156.066 30.8812C156.831 29.9616 157.838 29.2754 158.974 28.901C160.05 28.5929 161.19 28.5929 162.266 28.901C163.23 29.174 164.169 29.526 165.076 29.9535C166.569 30.7565 168.2 31.2738 169.883 31.4789C171.162 31.5412 172.439 31.344 173.639 30.8991C174.663 30.5154 175.623 29.9769 176.484 29.3024C176.294 29.515 176.082 29.7064 175.851 29.8733C175.193 30.3691 174.47 30.7713 173.701 31.0685C172.486 31.5538 171.183 31.7815 169.875 31.7375C168.155 31.5572 166.485 31.0549 164.951 30.2568C164.057 29.8398 163.129 29.5025 162.177 29.2489C161.168 28.9589 160.099 28.9589 159.09 29.2489C158.027 29.6125 157.085 30.264 156.37 31.131C155.599 32.0609 154.952 33.0863 154.443 34.1816C153.364 36.3938 152.525 39.0341 150.491 41.0233C149.969 41.5255 149.366 41.9356 148.707 42.2364C148.041 42.5219 147.333 42.6996 146.611 42.7627C145.175 42.9143 143.73 42.7627 142.347 43.0124C141.685 43.116 141.066 43.4069 140.563 43.8509C140.093 44.3429 139.718 44.9175 139.457 45.5457C138.971 46.8198 138.711 48.1693 138.69 49.5329C138.718 50.9022 138.51 52.2661 138.075 53.5648C137.463 54.7542 136.497 55.7237 135.31 56.3389C134.258 56.894 133.343 57.6772 132.634 58.6313C132.107 59.6231 131.857 60.7386 131.911 61.8604C131.911 64.0547 132.402 66.1509 132.17 68.1044C132.042 69.843 131.451 71.5156 130.457 72.9479C129.678 74.0158 128.61 74.839 127.38 75.3207C126.61 75.63 125.781 75.7611 124.953 75.7042C124.653 75.6862 124.356 75.6292 124.07 75.5347V75.5347Z" fill="#455A64"/>
<path d="M189.626 41.5301C189.553 40.633 189.301 39.7597 188.886 38.9611C188.397 38.1212 187.752 37.3825 186.986 36.7847C186.029 36.0678 184.99 35.4688 183.89 35.0007C182.722 34.4565 181.571 33.9749 180.581 33.4218C179.688 32.9392 178.863 32.3392 178.128 31.6378C177.634 31.1643 177.221 30.6129 176.906 30.0055C176.766 29.7948 176.68 29.5527 176.656 29.3008C177.123 30.0732 177.694 30.7784 178.351 31.397C179.095 32.028 179.913 32.5671 180.786 33.0026C181.758 33.5199 182.9 33.9838 184.087 34.5279C185.22 35.0268 186.287 35.665 187.262 36.4279C188.056 37.0707 188.706 37.873 189.171 38.7827C189.491 39.3962 189.673 40.0719 189.706 40.763C189.736 41.0215 189.708 41.2833 189.626 41.5301Z" fill="#455A64"/>
<path d="M169.485 45.8127C169.396 45.9197 169.084 45.8127 168.593 45.6611C167.935 45.5092 167.262 45.4314 166.586 45.4291C165.908 45.4217 165.232 45.4935 164.571 45.6432C164.062 45.7592 163.75 45.893 163.679 45.7949C163.607 45.6967 163.795 45.3489 164.339 45.0367C165.04 44.6788 165.817 44.4922 166.604 44.4922C167.392 44.4922 168.168 44.6788 168.87 45.0367C169.334 45.3756 169.53 45.7324 169.485 45.8127Z" fill="#263238"/>
<path d="M182.466 47.5696C182.421 47.8193 181.494 47.8996 180.379 47.7391C179.264 47.5785 178.398 47.2752 178.398 46.9809C178.398 46.6865 179.371 46.6597 180.486 46.8203C181.601 46.9809 182.502 47.3198 182.466 47.5696Z" fill="#263238"/>
<path d="M151.251 58.9434C151.251 58.9434 151.34 59.0058 151.474 59.1664C151.666 59.4008 151.828 59.6586 151.955 59.9335C152.417 60.956 152.554 62.0954 152.348 63.1982C152.058 64.8033 151.52 66.3533 150.751 67.792C150.325 68.6151 150.187 69.5572 150.359 70.468C150.673 71.4243 151.105 72.3381 151.643 73.1886C152.183 74.082 152.419 75.126 152.316 76.1647C152.213 77.2033 151.777 78.1807 151.072 78.9509C150.471 79.6374 149.674 80.1231 148.789 80.3424C148.04 80.4978 147.279 80.5814 146.514 80.5922C145.441 80.5628 144.381 80.8348 143.455 81.3772C143.137 81.6091 142.857 81.8889 142.625 82.2067C142.625 82.2067 142.625 82.0908 142.741 81.9124C142.896 81.6483 143.102 81.4178 143.348 81.2344C144.265 80.6101 145.35 80.2774 146.461 80.28C147.202 80.2476 147.94 80.1491 148.664 79.9856C149.477 79.7712 150.205 79.3138 150.751 78.6744C151.349 77.9776 151.734 77.1226 151.857 76.2125C151.955 75.2304 151.736 74.2428 151.233 73.3938C150.682 72.5044 150.247 71.5482 149.939 70.5483C149.763 69.5563 149.919 68.5337 150.385 67.6404C150.769 66.7484 151.188 66.0437 151.447 65.2855C151.712 64.5913 151.915 63.8749 152.053 63.1447C152.275 62.0966 152.191 61.0069 151.813 60.0048C151.5 59.3002 151.215 58.9701 151.251 58.9434Z" fill="#263238"/>
<path d="M192.677 82.9559C192.499 83.038 192.303 83.0747 192.106 83.0629C191.823 83.0455 191.545 82.971 191.291 82.8437C191.036 82.7165 190.81 82.5393 190.626 82.3226C190.319 81.9892 190.094 81.5896 189.967 81.1549C189.84 80.7201 189.815 80.262 189.894 79.8161C190.173 78.6643 190.773 77.6155 191.625 76.7922C192.644 75.8639 193.542 74.8121 194.301 73.6613C194.664 73.0079 194.84 72.2672 194.809 71.5205C194.757 70.7246 194.57 69.9434 194.256 69.2102C193.455 67.6237 192.74 65.9949 192.115 64.3309C191.838 63.3875 191.838 62.3843 192.115 61.4409C192.468 60.5294 192.913 59.6566 193.444 58.8362C193.953 58.0694 194.156 57.1406 194.015 56.2316C193.775 55.3669 193.299 54.5858 192.642 53.9748C192.026 53.3147 191.348 52.6993 190.777 51.9946C190.202 51.3032 189.788 50.4928 189.564 49.6219C189.216 48.0202 189.241 46.3601 189.636 44.7694C189.948 43.2887 190.376 41.9507 190.644 40.7108C191.206 38.7592 191.105 36.6764 190.358 34.7879C190.047 34.1261 189.625 33.5227 189.109 33.0039C189.109 33.0039 189.109 33.0039 189.234 33.0842C189.35 33.1661 189.457 33.2587 189.555 33.3607C189.962 33.7727 190.289 34.2566 190.519 34.7879C190.902 35.5859 191.135 36.4477 191.206 37.3301C191.286 38.4936 191.196 39.6626 190.938 40.8C190.679 42.0577 190.278 43.4046 189.984 44.8675C189.631 46.4025 189.631 47.9976 189.984 49.5327C190.183 50.3422 190.565 51.0956 191.099 51.7359C191.643 52.4049 192.312 53.0025 192.954 53.6805C193.668 54.3402 194.189 55.182 194.461 56.1156C194.617 57.1304 194.398 58.1672 193.846 59.0325C193.322 59.8243 192.88 60.6671 192.526 61.5479C192.269 62.4214 192.269 63.3504 192.526 64.2239C193.137 65.8708 193.833 67.4846 194.613 69.0585C194.943 69.8401 195.133 70.6733 195.175 71.5205C195.202 72.3371 195.005 73.1455 194.604 73.8575C193.817 75.0258 192.885 76.0898 191.83 77.0241C191.003 77.793 190.41 78.7791 190.117 79.8696C190.029 80.2801 190.039 80.7056 190.146 81.1115C190.253 81.5175 190.454 81.8927 190.733 82.2066C191.065 82.6298 191.547 82.9079 192.08 82.9827C192.481 82.9559 192.677 82.9024 192.677 82.9559Z" fill="#263238"/>
<path d="M227.677 94.9792C227.096 94.2262 226.448 93.5276 225.741 92.8919C224.944 92.3779 224.105 91.9304 223.234 91.5539C223.741 91.5232 224.249 91.5933 224.728 91.7602C225.207 91.9271 225.648 92.1875 226.026 92.5262C226.453 92.8017 226.82 93.1613 227.104 93.583C227.387 94.0047 227.582 94.4798 227.677 94.9792V94.9792Z" fill="#D1734A"/>
<path d="M214.377 143.862C213.736 142.591 213.299 141.228 213.083 139.821C212.724 138.439 212.594 137.008 212.7 135.584C213.055 136.947 213.335 138.329 213.538 139.723C213.9 141.085 214.18 142.467 214.377 143.862V143.862Z" fill="#D1734A"/>
<path d="M157.494 133.861C159.058 133.34 160.435 132.372 161.456 131.077C162.477 129.782 163.096 128.216 163.238 126.574C163.72 121.926 160.562 117.796 156.289 117.341C152.017 116.887 148.083 120.303 147.601 124.95C147.403 126.602 147.697 128.275 148.446 129.76C149.195 131.246 150.366 132.477 151.811 133.299C145.121 133.647 141.884 137.759 140.305 141.434C142.778 144.917 146.423 147.393 150.572 148.41L155.388 148.909C159.716 148.76 163.84 147.035 166.984 144.057C166.191 140.141 163.862 135.494 157.494 133.861Z" fill="white"/>
<g opacity="0.3">
<path d="M121.919 130.74L125.88 126.654C125.88 126.654 124.167 156.179 122.999 159.73C121.83 163.28 115.711 175.099 115.711 175.099L120.992 158.945L121.919 130.74Z" fill="black"/>
</g>
<path d="M130.688 121.65C130.777 121.739 127.298 125.512 122.909 130.079C118.521 134.646 114.881 138.286 114.783 138.197C114.685 138.107 118.182 134.334 122.57 129.758C126.959 125.182 130.598 121.561 130.688 121.65Z" fill="#263238"/>
<path d="M186.057 119.34C186.073 119.638 186.058 119.937 186.012 120.232C185.959 120.821 185.861 121.677 185.718 122.738C185.432 124.843 184.951 127.751 184.291 130.927C183.631 134.102 182.908 136.966 182.328 139.017C182.034 140.043 181.784 140.864 181.597 141.435C181.527 141.747 181.413 142.047 181.258 142.327C181.281 142.025 181.335 141.726 181.418 141.435C181.588 140.757 181.775 139.945 182.007 138.991C182.507 136.921 183.176 134.067 183.836 130.891C184.496 127.716 185.022 124.835 185.397 122.738C185.566 121.775 185.709 120.954 185.834 120.259C185.864 119.943 185.94 119.634 186.057 119.34V119.34Z" fill="#263238"/>
<path d="M168.099 63.064C168.301 62.8929 168.535 62.7655 168.789 62.6902C169.042 62.6149 169.308 62.5932 169.57 62.6265C169.832 62.6599 170.085 62.7475 170.311 62.8839C170.537 63.0202 170.733 63.2023 170.885 63.4184C171.037 63.6346 171.142 63.88 171.194 64.1391C171.245 64.3982 171.242 64.6653 171.185 64.9232C171.128 65.1811 171.017 65.4243 170.861 65.6371C170.704 65.85 170.505 66.0278 170.276 66.1593C170.042 66.2843 169.785 66.3595 169.521 66.3803C169.257 66.4011 168.992 66.3669 168.741 66.2799C168.491 66.1929 168.262 66.0551 168.067 65.875C167.873 65.6949 167.718 65.4765 167.612 65.2336C167.507 64.9906 167.452 64.7285 167.453 64.4635C167.454 64.1986 167.509 63.9367 167.616 63.6943C167.723 63.4519 167.879 63.2343 168.074 63.0552C168.27 62.8761 168.5 62.7394 168.751 62.6537" fill="#FF725E"/>
<path d="M168.286 61.0737C168.518 61.0737 168.286 62.6436 169.482 63.9192C170.677 65.1947 172.336 65.2661 172.318 65.4802C172.3 65.6942 171.908 65.7299 171.203 65.6496C170.293 65.5403 169.452 65.1102 168.831 64.4365C168.237 63.7912 167.917 62.9405 167.939 62.0638C167.956 61.4037 168.179 61.0469 168.286 61.0737Z" fill="#263238"/>
<path d="M148.496 37.9712C149.517 36.7085 150.174 35.1911 150.396 33.5826C150.402 32.4318 149.989 31.3182 149.234 30.4499C148.479 29.5815 147.433 29.0177 146.293 28.8639C145.141 28.7829 143.996 29.1029 143.053 29.7694C142.111 30.436 141.427 31.4082 141.119 32.5211C140.877 33.6507 141.006 34.8285 141.489 35.8784C141.971 36.9283 142.78 37.7939 143.795 38.3458C144.832 38.8553 145.999 39.0352 147.141 38.8614C148.283 38.6876 149.344 38.1684 150.182 37.3736" fill="#263238"/>
<path d="M150.538 33.3418C150.659 34.5061 150.341 35.6737 149.646 36.6154C149.073 37.6384 148.137 38.4089 147.023 38.7741C147.847 38.0463 148.594 37.2363 149.253 36.3568C149.784 35.3984 150.214 34.3881 150.538 33.3418V33.3418Z" fill="#455A64"/>
<path d="M147.786 38.3551C147.822 36.6826 147.624 35.0133 147.198 33.3955C146.63 31.8058 145.84 30.3043 144.852 28.9355C144.852 28.9355 145.351 29.2477 145.94 29.9792C146.705 30.9395 147.283 32.0348 147.644 33.2082C148.012 34.378 148.163 35.6055 148.09 36.8297C148.102 37.3543 147.998 37.8751 147.786 38.3551V38.3551Z" fill="#455A64"/>
<path d="M179.242 201.513C191.75 201.513 201.89 191.373 201.89 178.865C201.89 166.357 191.75 156.217 179.242 156.217C166.734 156.217 156.594 166.357 156.594 178.865C156.594 191.373 166.734 201.513 179.242 201.513Z" fill="#FF725E"/>
<g opacity="0.3">
<path d="M179.242 201.513C191.75 201.513 201.89 191.373 201.89 178.865C201.89 166.357 191.75 156.217 179.242 156.217C166.734 156.217 156.594 166.357 156.594 178.865C156.594 191.373 166.734 201.513 179.242 201.513Z" fill="black"/>
</g>
<path d="M179.242 197.311C191.75 197.311 201.89 187.172 201.89 174.664C201.89 162.155 191.75 152.016 179.242 152.016C166.734 152.016 156.594 162.155 156.594 174.664C156.594 187.172 166.734 197.311 179.242 197.311Z" fill="#FF725E"/>
<path d="M179.239 188.061C178.597 188.061 178.07 182.058 178.07 174.681C178.07 167.304 178.597 161.301 179.239 161.301C179.881 161.301 180.398 167.304 180.398 174.681C180.398 182.058 179.872 188.061 179.239 188.061Z" fill="white"/>
<path d="M192.674 174.664C192.674 175.306 186.68 175.823 179.294 175.823C171.908 175.823 165.914 175.306 165.914 174.664C165.914 174.021 171.908 173.504 179.294 173.504C186.68 173.504 192.674 174.021 192.674 174.664Z" fill="white"/>
</svg>
